<svg width="173" height="38" viewBox="0 0 173 38" fill="none" xmlns="http://www.w3.org/2000/svg">
<rect x="0.5" y="0.8125" width="172" height="36.3137" rx="11.5" stroke="#C7C6C6"/>
<path d="M18.998 20.0547C20.0056 20.0547 20.8164 19.2531 20.8164 18.2734V14.1172C20.8164 13.1375 20.0056 12.3359 18.998 12.3359C17.9905 12.3359 17.1797 13.1375 17.1797 14.1172V18.2734C17.1797 19.2531 17.9905 20.0547 18.998 20.0547Z" fill="#E9F6FF"/>
<path d="M25.1211 18.2344C25.1211 18.1527 25.0543 18.0859 24.9727 18.0859H23.8594C23.7777 18.0859 23.7109 18.1527 23.7109 18.2344C23.7109 20.8376 21.6013 22.9473 18.998 22.9473C16.3948 22.9473 14.2852 20.8376 14.2852 18.2344C14.2852 18.1527 14.2184 18.0859 14.1367 18.0859H13.0234C12.9418 18.0859 12.875 18.1527 12.875 18.2344C12.875 21.3646 15.224 23.9474 18.2559 24.3129V26.2129H15.5599C15.3057 26.2129 15.1016 26.4782 15.1016 26.8066V27.4746C15.1016 27.5562 15.1535 27.623 15.2166 27.623H22.7795C22.8426 27.623 22.8945 27.5562 22.8945 27.4746V26.8066C22.8945 26.4782 22.6904 26.2129 22.4362 26.2129H19.666V24.3222C22.7331 23.9882 25.1211 21.3905 25.1211 18.2344Z" fill="#0071B1"/>
<path d="M18.998 21.3906C20.7403 21.3906 22.1523 19.9953 22.1523 18.2734V14.1172C22.1523 12.3953 20.7403 11 18.998 11C17.2558 11 15.8438 12.3953 15.8438 14.1172V18.2734C15.8438 19.9953 17.2558 21.3906 18.998 21.3906ZM17.1797 14.1172C17.1797 13.1375 17.9905 12.3359 18.998 12.3359C20.0056 12.3359 20.8164 13.1375 20.8164 14.1172V18.2734C20.8164 19.2531 20.0056 20.0547 18.998 20.0547C17.9905 20.0547 17.1797 19.2531 17.1797 18.2734V14.1172Z" fill="#0071B1"/>
<path d="M50.368 22.015H46.72L46.048 23.875H44.896L47.92 15.559H49.18L52.192 23.875H51.04L50.368 22.015ZM50.056 21.127L48.544 16.903L47.032 21.127H50.056ZM59.4819 17.299V23.875H58.3899V22.903C58.1819 23.239 57.8899 23.503 57.5139 23.695C57.1459 23.879 56.7379 23.971 56.2899 23.971C55.7779 23.971 55.3179 23.867 54.9099 23.659C54.5019 23.443 54.1779 23.123 53.9379 22.699C53.7059 22.275 53.5899 21.759 53.5899 21.151V17.299H54.6699V21.007C54.6699 21.655 54.8339 22.155 55.1619 22.507C55.4899 22.851 55.9379 23.023 56.5059 23.023C57.0899 23.023 57.5499 22.843 57.8859 22.483C58.2219 22.123 58.3899 21.599 58.3899 20.911V17.299H59.4819ZM61.0577 20.563C61.0577 19.891 61.1937 19.303 61.4657 18.799C61.7377 18.287 62.1097 17.891 62.5817 17.611C63.0617 17.331 63.5977 17.191 64.1897 17.191C64.7017 17.191 65.1777 17.311 65.6177 17.551C66.0577 17.783 66.3937 18.091 66.6257 18.475V14.995H67.7297V23.875H66.6257V22.639C66.4097 23.031 66.0897 23.355 65.6657 23.611C65.2417 23.859 64.7457 23.983 64.1777 23.983C63.5937 23.983 63.0617 23.839 62.5817 23.551C62.1097 23.263 61.7377 22.859 61.4657 22.339C61.1937 21.819 61.0577 21.227 61.0577 20.563ZM66.6257 20.575C66.6257 20.079 66.5257 19.647 66.3257 19.279C66.1257 18.911 65.8537 18.631 65.5097 18.439C65.1737 18.239 64.8017 18.139 64.3937 18.139C63.9857 18.139 63.6137 18.235 63.2777 18.427C62.9417 18.619 62.6737 18.899 62.4737 19.267C62.2737 19.635 62.1737 20.067 62.1737 20.563C62.1737 21.067 62.2737 21.507 62.4737 21.883C62.6737 22.251 62.9417 22.535 63.2777 22.735C63.6137 22.927 63.9857 23.023 64.3937 23.023C64.8017 23.023 65.1737 22.927 65.5097 22.735C65.8537 22.535 66.1257 22.251 66.3257 21.883C66.5257 21.507 66.6257 21.071 66.6257 20.575ZM70.2791 16.231C70.0711 16.231 69.8951 16.159 69.7511 16.015C69.6071 15.871 69.5351 15.695 69.5351 15.487C69.5351 15.279 69.6071 15.103 69.7511 14.959C69.8951 14.815 70.0711 14.743 70.2791 14.743C70.4791 14.743 70.6471 14.815 70.7831 14.959C70.9271 15.103 70.9991 15.279 70.9991 15.487C70.9991 15.695 70.9271 15.871 70.7831 16.015C70.6471 16.159 70.4791 16.231 70.2791 16.231ZM70.8071 17.299V23.875H69.7151V17.299H70.8071ZM75.6762 23.983C75.0602 23.983 74.5002 23.843 73.9962 23.563C73.5002 23.283 73.1082 22.887 72.8202 22.375C72.5402 21.855 72.4002 21.255 72.4002 20.575C72.4002 19.903 72.5442 19.311 72.8322 18.799C73.1282 18.279 73.5282 17.883 74.0322 17.611C74.5362 17.331 75.1002 17.191 75.7242 17.191C76.3482 17.191 76.9122 17.331 77.4162 17.611C77.9202 17.883 78.3162 18.275 78.6042 18.787C78.9002 19.299 79.0482 19.895 79.0482 20.575C79.0482 21.255 78.8962 21.855 78.5922 22.375C78.2962 22.887 77.8922 23.283 77.3802 23.563C76.8682 23.843 76.3002 23.983 75.6762 23.983ZM75.6762 23.023C76.0682 23.023 76.4362 22.931 76.7802 22.747C77.1242 22.563 77.4002 22.287 77.6082 21.919C77.8242 21.551 77.9322 21.103 77.9322 20.575C77.9322 20.047 77.8282 19.599 77.6202 19.231C77.4122 18.863 77.1402 18.591 76.8042 18.415C76.4682 18.231 76.1042 18.139 75.7122 18.139C75.3122 18.139 74.9442 18.231 74.6082 18.415C74.2802 18.591 74.0162 18.863 73.8162 19.231C73.6162 19.599 73.5162 20.047 73.5162 20.575C73.5162 21.111 73.6122 21.563 73.8042 21.931C74.0042 22.299 74.2682 22.575 74.5962 22.759C74.9242 22.935 75.2842 23.023 75.6762 23.023Z" fill="#292A32"/>
<path d="M144.117 24.3125C143.773 24.3125 143.479 24.19 143.234 23.945C142.989 23.7 142.867 23.4058 142.867 23.0625V21.1875H144.117V23.0625H151.617V21.1875H152.867V23.0625C152.867 23.4062 152.745 23.7006 152.5 23.9456C152.255 24.1906 151.961 24.3129 151.617 24.3125H144.117ZM147.867 21.8125L144.742 18.6875L145.617 17.7812L147.242 19.4062V14.3125H148.492V19.4062L150.117 17.7812L150.992 18.6875L147.867 21.8125Z" fill="#0A4D68"/>
</svg>
