<svg width="601" height="482" viewBox="0 0 601 482" fill="none" xmlns="http://www.w3.org/2000/svg">
<path d="M316 89H465.052C539.611 89 600.052 149.442 600.052 224C600.052 298.558 539.61 359 465.052 359H316V89Z" fill="#0087FF"/>
<path d="M159 359L159 135C159 60.4416 219.442 -2.64198e-06 294 -5.90104e-06C368.558 -9.16009e-06 429 60.4415 429 135L429 326.364C429 344.388 414.388 359 396.364 359L159 359Z" fill="#0071B1"/>
<path d="M481 228C481 219.163 488.163 212 497 212H595C597.761 212 600 214.239 600 217V239C600 241.761 597.761 244 595 244H497C488.163 244 481 236.837 481 228Z" fill="white"/>
<path d="M162.036 358.535C162.722 361.281 171.265 371.459 186.443 387.694C205.13 407.484 217.716 419.197 236.25 433.817C268.666 459.342 298.947 474.931 323.965 478.97C348.754 483.089 353.788 483.009 357.22 478.727C360.5 474.608 359.661 471.458 351.195 455.787C332.431 420.731 319.388 386.725 315.575 362.816L314.659 357H238.157C162.951 357 161.654 357 162.036 358.535Z" fill="#63B5FF"/>
<path d="M0 224C0 149.442 60.4416 89 135 89H157.5C244.485 89 315 159.515 315 246.5V359H135C60.4416 359 0 298.558 0 224Z" fill="#63B5FF"/>
<path d="M258.946 323C251.419 323 244.905 319.65 243.378 312.274L222.284 211.323L208.392 235.301C205.541 240.137 200.324 243.582 194.716 243.582H117.892C109.122 243.582 102 236.463 102 227.709C102 218.942 109.122 211.809 117.892 211.809H185.635L215.838 160.787C219.176 155.153 225.581 152.087 232.122 153.195C238.595 154.275 243.743 159.22 245.068 165.636L257.838 227.331L286.959 65.8198C288.324 58.2549 294.905 53 302.608 53C302.622 53 302.662 53 302.676 53C310.392 53 316.973 58.3495 318.27 65.9414L349.351 247.243L359.351 221.914C361.73 215.835 367.595 211.796 374.122 211.796H515.122C523.892 211.796 531 218.915 531 227.696C531 236.449 523.892 243.568 515.122 243.568H384.919L358.027 311.518C355.419 318.137 348.811 322.149 341.608 321.474C334.541 320.731 328.797 315.368 327.595 308.356L302.23 160.219L274.581 311.869C273.23 319.353 266.757 323 259.149 323C259.081 323 259.014 323 258.946 323Z" fill="white"/>
<path d="M0 217C0 214.239 2.23858 212 5 212H151C159.837 212 167 219.163 167 228C167 236.837 159.837 244 151 244H5C2.23858 244 0 241.761 0 239V217Z" fill="white"/>
</svg>
