<svg width="735" height="776" viewBox="0 0 735 776" fill="none" xmlns="http://www.w3.org/2000/svg">
<path d="M325.477 0.662807C254.379 6.73599 192.255 31.4688 136.996 75.5653C77.5125 123.094 35.4518 182.242 15.1254 246.582C8.96587 266.298 5.00618 284.342 2.01441 307.05C0.166559 320.957 -0.713372 371.918 0.694518 388.906C3.15832 420.592 10.1098 452.278 21.0209 481.676C25.5086 493.734 39.2355 521.635 46.9789 534.398C70.0331 572.509 106.638 612.645 143.947 640.722C191.376 676.457 241.62 698.021 298.111 706.911C316.942 709.816 332.076 710.872 357.155 710.872C383.816 710.872 395.432 710.168 416.55 707.263C437.844 704.359 472.425 696.701 472.425 694.941C472.425 694.501 470.754 693.356 468.73 692.3C462.13 688.868 445.676 679.01 436.348 672.76C402.911 650.316 379.593 628.136 359.09 599.09C348.971 584.743 343.78 581.663 323.981 578.318C299.079 574.093 284.912 569.605 263.442 559.13C239.068 547.16 220.589 533.254 201.495 512.482C170.873 479.123 152.395 438.723 145.971 390.93C144.387 379.488 143.859 344.809 145.003 331.519C150.283 269.379 175.449 218.857 220.325 180.305C249.803 154.957 281.832 140.258 323.277 132.952C335.5 131 339 130.224 358.298 130.224C381.177 129.696 391.472 130.4 409.51 133.568C451.571 141.05 489.232 160.766 520.03 191.484C555.051 226.514 574.233 264.626 582.505 315.235C584.881 329.67 585.849 366.813 584.265 381.864C581.009 412.846 573.969 438.107 561.65 463.104C545.196 496.726 518.974 525.684 484.217 548.745C472.425 556.578 467.498 561.419 463.802 568.9C459.402 577.79 458.083 585.184 458.611 598.914C459.315 618.19 465.21 638.346 477.089 662.022C487.736 683.322 497.152 695.821 513.254 709.992C537.716 731.644 566.754 746.695 605.735 757.961C634.509 766.322 672.962 772.66 709.831 775.3C724.438 776.356 725.23 776.268 728.309 774.684C732.533 772.308 734.821 768.963 734.997 764.826C735.085 758.401 733.413 756.289 723.294 749.863C683.169 724.426 652.107 692.124 628.877 651.812C621.662 639.226 620.694 636.233 620.694 625.935C620.694 617.838 620.958 616.694 623.51 611.413C625.269 607.804 628.965 602.787 633.629 597.77C660.731 568.372 680.177 540.031 696.28 506.408C720.918 454.83 732.005 397.707 729.365 336.184C727.605 295.96 721.27 264.45 707.983 229.507C702.527 214.984 690.12 189.723 682.993 178.369C672.874 162.262 670.938 159.357 663.37 149.324C626.325 100.386 575.377 57.8738 524.693 33.6692C490.024 17.122 454.563 6.91201 414.35 1.80703C400.535 0.134731 340.876 -0.657444 325.477 0.662807Z" fill="url(#paint0_linear_3237_3427)"/>
<path d="M298 362C298 381.33 282.33 397 263 397C243.67 397 228 381.33 228 362C228 342.67 243.67 327 263 327C282.33 327 298 342.67 298 362Z" fill="url(#paint1_linear_3237_3427)"/>
<path d="M403 362C403 381.33 387.33 397 368 397C348.67 397 333 381.33 333 362C333 342.67 348.67 327 368 327C387.33 327 403 342.67 403 362Z" fill="url(#paint2_linear_3237_3427)"/>
<path d="M508 362C508 381.33 492.33 397 473 397C453.67 397 438 381.33 438 362C438 342.67 453.67 327 473 327C492.33 327 508 342.67 508 362Z" fill="url(#paint3_linear_3237_3427)"/>
<defs>
<linearGradient id="paint0_linear_3237_3427" x1="-1.42287e-06" y1="76.5" x2="654.5" y2="656.5" gradientUnits="userSpaceOnUse">
<stop stop-color="#0071B1"/>
<stop offset="1" stop-color="#00A3FF"/>
</linearGradient>
<linearGradient id="paint1_linear_3237_3427" x1="-1.42287e-06" y1="76.5" x2="654.5" y2="656.5" gradientUnits="userSpaceOnUse">
<stop stop-color="#0071B1"/>
<stop offset="1" stop-color="#00A3FF"/>
</linearGradient>
<linearGradient id="paint2_linear_3237_3427" x1="-1.42287e-06" y1="76.5" x2="654.5" y2="656.5" gradientUnits="userSpaceOnUse">
<stop stop-color="#0071B1"/>
<stop offset="1" stop-color="#00A3FF"/>
</linearGradient>
<linearGradient id="paint3_linear_3237_3427" x1="-1.42287e-06" y1="76.5" x2="654.5" y2="656.5" gradientUnits="userSpaceOnUse">
<stop stop-color="#0071B1"/>
<stop offset="1" stop-color="#00A3FF"/>
</linearGradient>
</defs>
</svg>
