<svg width="80" height="40" viewBox="0 0 80 40" fill="none" xmlns="http://www.w3.org/2000/svg">
<rect x="3" width="74" height="40" rx="8" fill="#D7E7FF"/>
<path d="M14.9543 15.636C15.8663 15.636 16.6543 15.808 17.3183 16.152C17.9903 16.488 18.5023 16.972 18.8543 17.604C19.2143 18.236 19.3943 18.98 19.3943 19.836C19.3943 20.692 19.2143 21.436 18.8543 22.068C18.5023 22.692 17.9903 23.172 17.3183 23.508C16.6543 23.836 15.8663 24 14.9543 24H12.3503V15.636H14.9543ZM14.9543 23.1C16.0343 23.1 16.8583 22.816 17.4263 22.248C17.9943 21.672 18.2783 20.868 18.2783 19.836C18.2783 18.796 17.9903 17.984 17.4143 17.4C16.8463 16.816 16.0263 16.524 14.9543 16.524H13.4423V23.1H14.9543ZM26.9747 20.46C26.9747 20.668 26.9627 20.888 26.9387 21.12H21.6827C21.7227 21.768 21.9427 22.276 22.3427 22.644C22.7507 23.004 23.2427 23.184 23.8187 23.184C24.2907 23.184 24.6827 23.076 24.9947 22.86C25.3147 22.636 25.5387 22.34 25.6667 21.972H26.8427C26.6667 22.604 26.3147 23.12 25.7867 23.52C25.2587 23.912 24.6027 24.108 23.8187 24.108C23.1947 24.108 22.6347 23.968 22.1387 23.688C21.6507 23.408 21.2667 23.012 20.9867 22.5C20.7067 21.98 20.5667 21.38 20.5667 20.7C20.5667 20.02 20.7027 19.424 20.9747 18.912C21.2467 18.4 21.6267 18.008 22.1147 17.736C22.6107 17.456 23.1787 17.316 23.8187 17.316C24.4427 17.316 24.9947 17.452 25.4747 17.724C25.9547 17.996 26.3227 18.372 26.5787 18.852C26.8427 19.324 26.9747 19.86 26.9747 20.46ZM25.8467 20.232C25.8467 19.816 25.7547 19.46 25.5707 19.164C25.3867 18.86 25.1347 18.632 24.8147 18.48C24.5027 18.32 24.1547 18.24 23.7707 18.24C23.2187 18.24 22.7467 18.416 22.3547 18.768C21.9707 19.12 21.7507 19.608 21.6947 20.232H25.8467ZM29.6481 15.12V24H28.5561V15.12H29.6481ZM32.2132 16.356C32.0052 16.356 31.8292 16.284 31.6852 16.14C31.5412 15.996 31.4692 15.82 31.4692 15.612C31.4692 15.404 31.5412 15.228 31.6852 15.084C31.8292 14.94 32.0052 14.868 32.2132 14.868C32.4132 14.868 32.5812 14.94 32.7172 15.084C32.8612 15.228 32.9332 15.404 32.9332 15.612C32.9332 15.82 32.8612 15.996 32.7172 16.14C32.5812 16.284 32.4132 16.356 32.2132 16.356ZM32.7412 17.424V24H31.6492V17.424H32.7412ZM37.1904 22.992L39.2304 17.424H40.3944L37.8144 24H36.5424L33.9624 17.424H35.1384L37.1904 22.992ZM47.6089 20.46C47.6089 20.668 47.5969 20.888 47.5729 21.12H42.3169C42.3569 21.768 42.5769 22.276 42.9769 22.644C43.3849 23.004 43.8769 23.184 44.4529 23.184C44.9249 23.184 45.3169 23.076 45.6289 22.86C45.9489 22.636 46.1729 22.34 46.3009 21.972H47.4769C47.3009 22.604 46.9489 23.12 46.4209 23.52C45.8929 23.912 45.2369 24.108 44.4529 24.108C43.8289 24.108 43.2689 23.968 42.7729 23.688C42.2849 23.408 41.9009 23.012 41.6209 22.5C41.3409 21.98 41.2009 21.38 41.2009 20.7C41.2009 20.02 41.3369 19.424 41.6089 18.912C41.8809 18.4 42.2609 18.008 42.7489 17.736C43.2449 17.456 43.8129 17.316 44.4529 17.316C45.0769 17.316 45.6289 17.452 46.1089 17.724C46.5889 17.996 46.9569 18.372 47.2129 18.852C47.4769 19.324 47.6089 19.86 47.6089 20.46ZM46.4809 20.232C46.4809 19.816 46.3889 19.46 46.2049 19.164C46.0209 18.86 45.7689 18.632 45.4489 18.48C45.1369 18.32 44.7889 18.24 44.4049 18.24C43.8529 18.24 43.3809 18.416 42.9889 18.768C42.6049 19.12 42.3849 19.608 42.3289 20.232H46.4809ZM50.2823 18.492C50.4743 18.116 50.7463 17.824 51.0983 17.616C51.4583 17.408 51.8943 17.304 52.4063 17.304V18.432H52.1183C50.8943 18.432 50.2823 19.096 50.2823 20.424V24H49.1903V17.424H50.2823V18.492ZM59.8069 20.46C59.8069 20.668 59.7949 20.888 59.7709 21.12H54.5149C54.5549 21.768 54.7749 22.276 55.1749 22.644C55.5829 23.004 56.0749 23.184 56.6509 23.184C57.1229 23.184 57.5149 23.076 57.8269 22.86C58.1469 22.636 58.3709 22.34 58.4989 21.972H59.6749C59.4989 22.604 59.1469 23.12 58.6189 23.52C58.0909 23.912 57.4349 24.108 56.6509 24.108C56.0269 24.108 55.4669 23.968 54.9709 23.688C54.4829 23.408 54.0989 23.012 53.8189 22.5C53.5389 21.98 53.3989 21.38 53.3989 20.7C53.3989 20.02 53.5349 19.424 53.8069 18.912C54.0789 18.4 54.4589 18.008 54.9469 17.736C55.4429 17.456 56.0109 17.316 56.6509 17.316C57.2749 17.316 57.8269 17.452 58.3069 17.724C58.7869 17.996 59.1549 18.372 59.4109 18.852C59.6749 19.324 59.8069 19.86 59.8069 20.46ZM58.6789 20.232C58.6789 19.816 58.5869 19.46 58.4029 19.164C58.2189 18.86 57.9669 18.632 57.6469 18.48C57.3349 18.32 56.9869 18.24 56.6029 18.24C56.0509 18.24 55.5789 18.416 55.1869 18.768C54.8029 19.12 54.5829 19.608 54.5269 20.232H58.6789ZM60.9803 20.688C60.9803 20.016 61.1163 19.428 61.3883 18.924C61.6603 18.412 62.0323 18.016 62.5043 17.736C62.9843 17.456 63.5203 17.316 64.1123 17.316C64.6243 17.316 65.1003 17.436 65.5403 17.676C65.9803 17.908 66.3163 18.216 66.5483 18.6V15.12H67.6523V24H66.5483V22.764C66.3323 23.156 66.0123 23.48 65.5883 23.736C65.1643 23.984 64.6683 24.108 64.1003 24.108C63.5163 24.108 62.9843 23.964 62.5043 23.676C62.0323 23.388 61.6603 22.984 61.3883 22.464C61.1163 21.944 60.9803 21.352 60.9803 20.688ZM66.5483 20.7C66.5483 20.204 66.4483 19.772 66.2483 19.404C66.0483 19.036 65.7763 18.756 65.4323 18.564C65.0963 18.364 64.7243 18.264 64.3163 18.264C63.9083 18.264 63.5363 18.36 63.2003 18.552C62.8643 18.744 62.5963 19.024 62.3963 19.392C62.1963 19.76 62.0963 20.192 62.0963 20.688C62.0963 21.192 62.1963 21.632 62.3963 22.008C62.5963 22.376 62.8643 22.66 63.2003 22.86C63.5363 23.052 63.9083 23.148 64.3163 23.148C64.7243 23.148 65.0963 23.052 65.4323 22.86C65.7763 22.66 66.0483 22.376 66.2483 22.008C66.4483 21.632 66.5483 21.196 66.5483 20.7Z" fill="#292A32"/>
</svg>
