<svg width="173" height="38" viewBox="0 0 173 38" fill="none" xmlns="http://www.w3.org/2000/svg">
<path d="M40.8425 15.636C41.7545 15.636 42.5425 15.808 43.2065 16.152C43.8785 16.488 44.3905 16.972 44.7425 17.604C45.1025 18.236 45.2825 18.98 45.2825 19.836C45.2825 20.692 45.1025 21.436 44.7425 22.068C44.3905 22.692 43.8785 23.172 43.2065 23.508C42.5425 23.836 41.7545 24 40.8425 24H38.2385V15.636H40.8425ZM40.8425 23.1C41.9225 23.1 42.7465 22.816 43.3145 22.248C43.8825 21.672 44.1665 20.868 44.1665 19.836C44.1665 18.796 43.8785 17.984 43.3025 17.4C42.7345 16.816 41.9145 16.524 40.8425 16.524H39.3305V23.1H40.8425ZM49.7308 24.108C49.1148 24.108 48.5548 23.968 48.0508 23.688C47.5548 23.408 47.1628 23.012 46.8748 22.5C46.5948 21.98 46.4548 21.38 46.4548 20.7C46.4548 20.028 46.5988 19.436 46.8868 18.924C47.1828 18.404 47.5828 18.008 48.0868 17.736C48.5908 17.456 49.1548 17.316 49.7788 17.316C50.4028 17.316 50.9668 17.456 51.4708 17.736C51.9748 18.008 52.3708 18.4 52.6588 18.912C52.9548 19.424 53.1028 20.02 53.1028 20.7C53.1028 21.38 52.9508 21.98 52.6468 22.5C52.3508 23.012 51.9468 23.408 51.4348 23.688C50.9228 23.968 50.3548 24.108 49.7308 24.108ZM49.7308 23.148C50.1228 23.148 50.4908 23.056 50.8348 22.872C51.1788 22.688 51.4548 22.412 51.6628 22.044C51.8788 21.676 51.9868 21.228 51.9868 20.7C51.9868 20.172 51.8828 19.724 51.6748 19.356C51.4668 18.988 51.1948 18.716 50.8588 18.54C50.5228 18.356 50.1588 18.264 49.7668 18.264C49.3668 18.264 48.9988 18.356 48.6628 18.54C48.3348 18.716 48.0708 18.988 47.8708 19.356C47.6708 19.724 47.5708 20.172 47.5708 20.7C47.5708 21.236 47.6668 21.688 47.8588 22.056C48.0588 22.424 48.3228 22.7 48.6508 22.884C48.9788 23.06 49.3388 23.148 49.7308 23.148ZM54.2706 20.7C54.2706 20.02 54.4066 19.428 54.6786 18.924C54.9506 18.412 55.3266 18.016 55.8066 17.736C56.2946 17.456 56.8506 17.316 57.4746 17.316C58.2826 17.316 58.9466 17.512 59.4666 17.904C59.9946 18.296 60.3426 18.84 60.5106 19.536H59.3346C59.2226 19.136 59.0026 18.82 58.6746 18.588C58.3546 18.356 57.9546 18.24 57.4746 18.24C56.8506 18.24 56.3466 18.456 55.9626 18.888C55.5786 19.312 55.3866 19.916 55.3866 20.7C55.3866 21.492 55.5786 22.104 55.9626 22.536C56.3466 22.968 56.8506 23.184 57.4746 23.184C57.9546 23.184 58.3546 23.072 58.6746 22.848C58.9946 22.624 59.2146 22.304 59.3346 21.888H60.5106C60.3346 22.56 59.9826 23.1 59.4546 23.508C58.9266 23.908 58.2666 24.108 57.4746 24.108C56.8506 24.108 56.2946 23.968 55.8066 23.688C55.3266 23.408 54.9506 23.012 54.6786 22.5C54.4066 21.988 54.2706 21.388 54.2706 20.7ZM67.9397 17.424V24H66.8477V23.028C66.6397 23.364 66.3477 23.628 65.9717 23.82C65.6037 24.004 65.1957 24.096 64.7477 24.096C64.2357 24.096 63.7757 23.992 63.3677 23.784C62.9597 23.568 62.6357 23.248 62.3957 22.824C62.1637 22.4 62.0477 21.884 62.0477 21.276V17.424H63.1277V21.132C63.1277 21.78 63.2917 22.28 63.6197 22.632C63.9477 22.976 64.3957 23.148 64.9637 23.148C65.5477 23.148 66.0077 22.968 66.3437 22.608C66.6797 22.248 66.8477 21.724 66.8477 21.036V17.424H67.9397ZM77.8315 17.304C78.3435 17.304 78.7995 17.412 79.1995 17.628C79.5995 17.836 79.9155 18.152 80.1475 18.576C80.3795 19 80.4955 19.516 80.4955 20.124V24H79.4155V20.28C79.4155 19.624 79.2515 19.124 78.9235 18.78C78.6035 18.428 78.1675 18.252 77.6155 18.252C77.0475 18.252 76.5955 18.436 76.2595 18.804C75.9235 19.164 75.7555 19.688 75.7555 20.376V24H74.6755V20.28C74.6755 19.624 74.5115 19.124 74.1835 18.78C73.8635 18.428 73.4275 18.252 72.8755 18.252C72.3075 18.252 71.8555 18.436 71.5195 18.804C71.1835 19.164 71.0155 19.688 71.0155 20.376V24H69.9235V17.424H71.0155V18.372C71.2315 18.028 71.5195 17.764 71.8795 17.58C72.2475 17.396 72.6515 17.304 73.0915 17.304C73.6435 17.304 74.1315 17.428 74.5555 17.676C74.9795 17.924 75.2955 18.288 75.5035 18.768C75.6875 18.304 75.9915 17.944 76.4155 17.688C76.8395 17.432 77.3115 17.304 77.8315 17.304ZM88.4267 20.46C88.4267 20.668 88.4147 20.888 88.3907 21.12H83.1347C83.1747 21.768 83.3947 22.276 83.7947 22.644C84.2027 23.004 84.6947 23.184 85.2707 23.184C85.7427 23.184 86.1347 23.076 86.4467 22.86C86.7667 22.636 86.9907 22.34 87.1187 21.972H88.2947C88.1187 22.604 87.7667 23.12 87.2387 23.52C86.7107 23.912 86.0547 24.108 85.2707 24.108C84.6467 24.108 84.0867 23.968 83.5907 23.688C83.1027 23.408 82.7187 23.012 82.4387 22.5C82.1587 21.98 82.0187 21.38 82.0187 20.7C82.0187 20.02 82.1547 19.424 82.4267 18.912C82.6987 18.4 83.0787 18.008 83.5667 17.736C84.0627 17.456 84.6307 17.316 85.2707 17.316C85.8947 17.316 86.4467 17.452 86.9267 17.724C87.4067 17.996 87.7747 18.372 88.0307 18.852C88.2947 19.324 88.4267 19.86 88.4267 20.46ZM87.2987 20.232C87.2987 19.816 87.2067 19.46 87.0227 19.164C86.8387 18.86 86.5867 18.632 86.2667 18.48C85.9547 18.32 85.6067 18.24 85.2227 18.24C84.6707 18.24 84.1987 18.416 83.8067 18.768C83.4227 19.12 83.2027 19.608 83.1467 20.232H87.2987ZM93.2121 17.304C94.0121 17.304 94.6601 17.548 95.1561 18.036C95.6521 18.516 95.9001 19.212 95.9001 20.124V24H94.8201V20.28C94.8201 19.624 94.6561 19.124 94.3281 18.78C94.0001 18.428 93.5521 18.252 92.9841 18.252C92.4081 18.252 91.9481 18.432 91.6041 18.792C91.2681 19.152 91.1001 19.676 91.1001 20.364V24H90.0081V17.424H91.1001V18.36C91.3161 18.024 91.6081 17.764 91.9761 17.58C92.3521 17.396 92.7641 17.304 93.2121 17.304ZM99.1559 18.324V22.2C99.1559 22.52 99.2239 22.748 99.3599 22.884C99.4959 23.012 99.7319 23.076 100.068 23.076H100.872V24H99.8879C99.2799 24 98.8239 23.86 98.5199 23.58C98.2159 23.3 98.0639 22.84 98.0639 22.2V18.324H97.2119V17.424H98.0639V15.768H99.1559V17.424H100.872V18.324H99.1559Z" fill="#292A32"/>
<rect x="0.5" y="1.18555" width="172" height="36.3137" rx="11.5" stroke="#C7C6C6"/>
<path d="M16.9429 22.0352C16.7972 22.0352 16.6991 22.0494 16.6484 22.0636V22.996C16.7086 23.0103 16.7838 23.0142 16.8875 23.0142C17.2666 23.0142 17.5001 22.8227 17.5001 22.499C17.5001 22.2093 17.2991 22.0352 16.9429 22.0352ZM19.7028 22.0447C19.5445 22.0447 19.4417 22.0589 19.3807 22.0731V24.139C19.4417 24.1532 19.5398 24.1532 19.6284 24.1532C20.2751 24.158 20.6962 23.8018 20.6962 23.0483C20.7009 22.3913 20.3171 22.0447 19.7028 22.0447Z" fill="#0071B1"/>
<path d="M21.4814 12H15.1494C14.7296 12 14.3269 12.1668 14.0301 12.4637C13.7332 12.7605 13.5664 13.1632 13.5664 13.583V26.2471C13.5664 26.6669 13.7332 27.0695 14.0301 27.3664C14.3269 27.6633 14.7296 27.8301 15.1494 27.8301H24.6475C25.0673 27.8301 25.4699 27.6633 25.7668 27.3664C26.0637 27.0695 26.2305 26.6669 26.2305 26.2471V16.749L21.4814 12ZM17.9181 23.2314C17.6735 23.461 17.3126 23.5639 16.8923 23.5639C16.8108 23.5647 16.7294 23.56 16.6485 23.5496V24.6783H15.9409V21.5629C16.2603 21.5153 16.5829 21.4936 16.9058 21.498C17.3466 21.498 17.6601 21.5819 17.8714 21.7505C18.0724 21.9104 18.2086 22.1724 18.2086 22.4811C18.2078 22.7914 18.1049 23.0533 17.9181 23.2314ZM20.9313 24.3039C20.5989 24.5802 20.0931 24.7115 19.475 24.7115C19.1046 24.7115 18.8426 24.6878 18.6645 24.6641V21.5637C18.9839 21.5171 19.3065 21.4951 19.6293 21.498C20.2285 21.498 20.6179 21.6057 20.9218 21.8352C21.2503 22.079 21.4561 22.4676 21.4561 23.0256C21.4561 23.6296 21.2353 24.0467 20.9313 24.3039ZM23.8559 22.1075H22.6434V22.8286H23.7768V23.4095H22.6434V24.6791H21.9263V21.5218H23.8559V22.1075ZM21.4814 17.5405H20.6899V13.583L24.6475 17.5405H21.4814Z" fill="#0071B1"/>
</svg>
