<svg width="173" height="38" viewBox="0 0 173 38" fill="none" xmlns="http://www.w3.org/2000/svg">
<path d="M40.8405 15.636C41.7525 15.636 42.5405 15.808 43.2045 16.152C43.8765 16.488 44.3885 16.972 44.7405 17.604C45.1005 18.236 45.2805 18.98 45.2805 19.836C45.2805 20.692 45.1005 21.436 44.7405 22.068C44.3885 22.692 43.8765 23.172 43.2045 23.508C42.5405 23.836 41.7525 24 40.8405 24H38.2365V15.636H40.8405ZM40.8405 23.1C41.9205 23.1 42.7445 22.816 43.3125 22.248C43.8805 21.672 44.1645 20.868 44.1645 19.836C44.1645 18.796 43.8765 17.984 43.3005 17.4C42.7325 16.816 41.9125 16.524 40.8405 16.524H39.3285V23.1H40.8405ZM49.7289 24.108C49.1129 24.108 48.5529 23.968 48.0489 23.688C47.5529 23.408 47.1609 23.012 46.8729 22.5C46.5929 21.98 46.4529 21.38 46.4529 20.7C46.4529 20.028 46.5969 19.436 46.8849 18.924C47.1809 18.404 47.5809 18.008 48.0849 17.736C48.5889 17.456 49.1529 17.316 49.7769 17.316C50.4009 17.316 50.9649 17.456 51.4689 17.736C51.9729 18.008 52.3689 18.4 52.6569 18.912C52.9529 19.424 53.1009 20.02 53.1009 20.7C53.1009 21.38 52.9489 21.98 52.6449 22.5C52.3489 23.012 51.9449 23.408 51.4329 23.688C50.9209 23.968 50.3529 24.108 49.7289 24.108ZM49.7289 23.148C50.1209 23.148 50.4889 23.056 50.8329 22.872C51.1769 22.688 51.4529 22.412 51.6609 22.044C51.8769 21.676 51.9849 21.228 51.9849 20.7C51.9849 20.172 51.8809 19.724 51.6729 19.356C51.4649 18.988 51.1929 18.716 50.8569 18.54C50.5209 18.356 50.1569 18.264 49.7649 18.264C49.3649 18.264 48.9969 18.356 48.6609 18.54C48.3329 18.716 48.0689 18.988 47.8689 19.356C47.6689 19.724 47.5689 20.172 47.5689 20.7C47.5689 21.236 47.6649 21.688 47.8569 22.056C48.0569 22.424 48.3209 22.7 48.6489 22.884C48.9769 23.06 49.3369 23.148 49.7289 23.148ZM54.2687 20.7C54.2687 20.02 54.4047 19.428 54.6767 18.924C54.9487 18.412 55.3247 18.016 55.8047 17.736C56.2927 17.456 56.8487 17.316 57.4727 17.316C58.2807 17.316 58.9447 17.512 59.4647 17.904C59.9927 18.296 60.3407 18.84 60.5087 19.536H59.3327C59.2207 19.136 59.0007 18.82 58.6727 18.588C58.3527 18.356 57.9527 18.24 57.4727 18.24C56.8487 18.24 56.3447 18.456 55.9607 18.888C55.5767 19.312 55.3847 19.916 55.3847 20.7C55.3847 21.492 55.5767 22.104 55.9607 22.536C56.3447 22.968 56.8487 23.184 57.4727 23.184C57.9527 23.184 58.3527 23.072 58.6727 22.848C58.9927 22.624 59.2127 22.304 59.3327 21.888H60.5087C60.3327 22.56 59.9807 23.1 59.4527 23.508C58.9247 23.908 58.2647 24.108 57.4727 24.108C56.8487 24.108 56.2927 23.968 55.8047 23.688C55.3247 23.408 54.9487 23.012 54.6767 22.5C54.4047 21.988 54.2687 21.388 54.2687 20.7ZM67.9377 17.424V24H66.8457V23.028C66.6377 23.364 66.3457 23.628 65.9697 23.82C65.6017 24.004 65.1937 24.096 64.7457 24.096C64.2337 24.096 63.7737 23.992 63.3657 23.784C62.9577 23.568 62.6337 23.248 62.3937 22.824C62.1617 22.4 62.0457 21.884 62.0457 21.276V17.424H63.1257V21.132C63.1257 21.78 63.2897 22.28 63.6177 22.632C63.9457 22.976 64.3937 23.148 64.9617 23.148C65.5457 23.148 66.0057 22.968 66.3417 22.608C66.6777 22.248 66.8457 21.724 66.8457 21.036V17.424H67.9377ZM77.8295 17.304C78.3415 17.304 78.7975 17.412 79.1975 17.628C79.5975 17.836 79.9135 18.152 80.1455 18.576C80.3775 19 80.4935 19.516 80.4935 20.124V24H79.4135V20.28C79.4135 19.624 79.2495 19.124 78.9215 18.78C78.6015 18.428 78.1655 18.252 77.6135 18.252C77.0455 18.252 76.5935 18.436 76.2575 18.804C75.9215 19.164 75.7535 19.688 75.7535 20.376V24H74.6735V20.28C74.6735 19.624 74.5095 19.124 74.1815 18.78C73.8615 18.428 73.4255 18.252 72.8735 18.252C72.3055 18.252 71.8535 18.436 71.5175 18.804C71.1815 19.164 71.0135 19.688 71.0135 20.376V24H69.9215V17.424H71.0135V18.372C71.2295 18.028 71.5175 17.764 71.8775 17.58C72.2455 17.396 72.6495 17.304 73.0895 17.304C73.6415 17.304 74.1295 17.428 74.5535 17.676C74.9775 17.924 75.2935 18.288 75.5015 18.768C75.6855 18.304 75.9895 17.944 76.4135 17.688C76.8375 17.432 77.3095 17.304 77.8295 17.304ZM88.4248 20.46C88.4248 20.668 88.4128 20.888 88.3888 21.12H83.1328C83.1728 21.768 83.3928 22.276 83.7928 22.644C84.2008 23.004 84.6928 23.184 85.2688 23.184C85.7408 23.184 86.1328 23.076 86.4448 22.86C86.7648 22.636 86.9888 22.34 87.1168 21.972H88.2928C88.1168 22.604 87.7648 23.12 87.2368 23.52C86.7088 23.912 86.0528 24.108 85.2688 24.108C84.6448 24.108 84.0848 23.968 83.5888 23.688C83.1008 23.408 82.7168 23.012 82.4368 22.5C82.1568 21.98 82.0168 21.38 82.0168 20.7C82.0168 20.02 82.1528 19.424 82.4248 18.912C82.6968 18.4 83.0768 18.008 83.5648 17.736C84.0608 17.456 84.6288 17.316 85.2688 17.316C85.8928 17.316 86.4448 17.452 86.9248 17.724C87.4048 17.996 87.7728 18.372 88.0288 18.852C88.2928 19.324 88.4248 19.86 88.4248 20.46ZM87.2968 20.232C87.2968 19.816 87.2048 19.46 87.0208 19.164C86.8368 18.86 86.5848 18.632 86.2648 18.48C85.9528 18.32 85.6048 18.24 85.2208 18.24C84.6688 18.24 84.1968 18.416 83.8048 18.768C83.4208 19.12 83.2008 19.608 83.1448 20.232H87.2968ZM93.2102 17.304C94.0102 17.304 94.6582 17.548 95.1542 18.036C95.6502 18.516 95.8982 19.212 95.8982 20.124V24H94.8182V20.28C94.8182 19.624 94.6542 19.124 94.3262 18.78C93.9982 18.428 93.5502 18.252 92.9822 18.252C92.4062 18.252 91.9462 18.432 91.6022 18.792C91.2662 19.152 91.0982 19.676 91.0982 20.364V24H90.0062V17.424H91.0982V18.36C91.3142 18.024 91.6062 17.764 91.9742 17.58C92.3502 17.396 92.7622 17.304 93.2102 17.304ZM99.154 18.324V22.2C99.154 22.52 99.222 22.748 99.358 22.884C99.494 23.012 99.73 23.076 100.066 23.076H100.87V24H99.886C99.278 24 98.822 23.86 98.518 23.58C98.214 23.3 98.062 22.84 98.062 22.2V18.324H97.21V17.424H98.062V15.768H99.154V17.424H100.87V18.324H99.154Z" fill="#292A32"/>
<rect x="0.5" y="1.18555" width="172" height="36.3137" rx="11.5" stroke="#C7C6C6"/>
<path d="M16.9429 22.0352C16.7972 22.0352 16.6991 22.0494 16.6484 22.0636V22.996C16.7086 23.0103 16.7838 23.0142 16.8875 23.0142C17.2666 23.0142 17.5001 22.8227 17.5001 22.499C17.5001 22.2093 17.2991 22.0352 16.9429 22.0352ZM19.7028 22.0447C19.5445 22.0447 19.4417 22.0589 19.3807 22.0731V24.139C19.4417 24.1532 19.5398 24.1532 19.6284 24.1532C20.2751 24.158 20.6962 23.8018 20.6962 23.0483C20.7009 22.3913 20.3171 22.0447 19.7028 22.0447Z" fill="#00658D"/>
<path d="M21.4814 12H15.1494C14.7296 12 14.3269 12.1668 14.0301 12.4637C13.7332 12.7605 13.5664 13.1632 13.5664 13.583V26.2471C13.5664 26.6669 13.7332 27.0695 14.0301 27.3664C14.3269 27.6633 14.7296 27.8301 15.1494 27.8301H24.6475C25.0673 27.8301 25.4699 27.6633 25.7668 27.3664C26.0637 27.0695 26.2305 26.6669 26.2305 26.2471V16.749L21.4814 12ZM17.9181 23.2314C17.6735 23.461 17.3126 23.5639 16.8923 23.5639C16.8108 23.5647 16.7294 23.56 16.6485 23.5496V24.6783H15.9409V21.5629C16.2603 21.5153 16.5829 21.4936 16.9058 21.498C17.3466 21.498 17.6601 21.5819 17.8714 21.7505C18.0724 21.9104 18.2086 22.1724 18.2086 22.4811C18.2078 22.7914 18.1049 23.0533 17.9181 23.2314ZM20.9313 24.3039C20.5989 24.5802 20.0931 24.7115 19.475 24.7115C19.1046 24.7115 18.8426 24.6878 18.6645 24.6641V21.5637C18.9839 21.5171 19.3065 21.4951 19.6293 21.498C20.2285 21.498 20.6179 21.6057 20.9218 21.8352C21.2503 22.079 21.4561 22.4676 21.4561 23.0256C21.4561 23.6296 21.2353 24.0467 20.9313 24.3039ZM23.8559 22.1075H22.6434V22.8286H23.7768V23.4095H22.6434V24.6791H21.9263V21.5218H23.8559V22.1075ZM21.4814 17.5405H20.6899V13.583L24.6475 17.5405H21.4814Z" fill="#00658D"/>
</svg>
