<svg width="114" height="33" viewBox="0 0 114 33" fill="none" xmlns="http://www.w3.org/2000/svg">
<path d="M36.528 12.636C37.44 12.636 38.228 12.808 38.892 13.152C39.564 13.488 40.076 13.972 40.428 14.604C40.788 15.236 40.968 15.98 40.968 16.836C40.968 17.692 40.788 18.436 40.428 19.068C40.076 19.692 39.564 20.172 38.892 20.508C38.228 20.836 37.44 21 36.528 21H33.924V12.636H36.528ZM36.528 20.1C37.608 20.1 38.432 19.816 39 19.248C39.568 18.672 39.852 17.868 39.852 16.836C39.852 15.796 39.564 14.984 38.988 14.4C38.42 13.816 37.6 13.524 36.528 13.524H35.016V20.1H36.528ZM45.4164 21.108C44.8004 21.108 44.2404 20.968 43.7364 20.688C43.2404 20.408 42.8484 20.012 42.5604 19.5C42.2804 18.98 42.1404 18.38 42.1404 17.7C42.1404 17.028 42.2844 16.436 42.5724 15.924C42.8684 15.404 43.2684 15.008 43.7724 14.736C44.2764 14.456 44.8404 14.316 45.4644 14.316C46.0884 14.316 46.6524 14.456 47.1564 14.736C47.6604 15.008 48.0564 15.4 48.3444 15.912C48.6404 16.424 48.7884 17.02 48.7884 17.7C48.7884 18.38 48.6364 18.98 48.3324 19.5C48.0364 20.012 47.6324 20.408 47.1204 20.688C46.6084 20.968 46.0404 21.108 45.4164 21.108ZM45.4164 20.148C45.8084 20.148 46.1764 20.056 46.5204 19.872C46.8644 19.688 47.1404 19.412 47.3484 19.044C47.5644 18.676 47.6724 18.228 47.6724 17.7C47.6724 17.172 47.5684 16.724 47.3604 16.356C47.1524 15.988 46.8804 15.716 46.5444 15.54C46.2084 15.356 45.8444 15.264 45.4524 15.264C45.0524 15.264 44.6844 15.356 44.3484 15.54C44.0204 15.716 43.7564 15.988 43.5564 16.356C43.3564 16.724 43.2564 17.172 43.2564 17.7C43.2564 18.236 43.3524 18.688 43.5444 19.056C43.7444 19.424 44.0084 19.7 44.3364 19.884C44.6644 20.06 45.0244 20.148 45.4164 20.148ZM49.9562 17.7C49.9562 17.02 50.0922 16.428 50.3642 15.924C50.6362 15.412 51.0122 15.016 51.4922 14.736C51.9802 14.456 52.5362 14.316 53.1602 14.316C53.9682 14.316 54.6322 14.512 55.1522 14.904C55.6802 15.296 56.0282 15.84 56.1962 16.536H55.0202C54.9082 16.136 54.6882 15.82 54.3602 15.588C54.0402 15.356 53.6402 15.24 53.1602 15.24C52.5362 15.24 52.0322 15.456 51.6482 15.888C51.2642 16.312 51.0722 16.916 51.0722 17.7C51.0722 18.492 51.2642 19.104 51.6482 19.536C52.0322 19.968 52.5362 20.184 53.1602 20.184C53.6402 20.184 54.0402 20.072 54.3602 19.848C54.6802 19.624 54.9002 19.304 55.0202 18.888H56.1962C56.0202 19.56 55.6682 20.1 55.1402 20.508C54.6122 20.908 53.9522 21.108 53.1602 21.108C52.5362 21.108 51.9802 20.968 51.4922 20.688C51.0122 20.408 50.6362 20.012 50.3642 19.5C50.0922 18.988 49.9562 18.388 49.9562 17.7ZM63.6252 14.424V21H62.5332V20.028C62.3252 20.364 62.0332 20.628 61.6572 20.82C61.2892 21.004 60.8812 21.096 60.4332 21.096C59.9212 21.096 59.4612 20.992 59.0532 20.784C58.6452 20.568 58.3212 20.248 58.0812 19.824C57.8492 19.4 57.7332 18.884 57.7332 18.276V14.424H58.8132V18.132C58.8132 18.78 58.9772 19.28 59.3052 19.632C59.6332 19.976 60.0812 20.148 60.6492 20.148C61.2332 20.148 61.6932 19.968 62.0292 19.608C62.3652 19.248 62.5332 18.724 62.5332 18.036V14.424H63.6252ZM73.517 14.304C74.029 14.304 74.485 14.412 74.885 14.628C75.285 14.836 75.601 15.152 75.833 15.576C76.065 16 76.181 16.516 76.181 17.124V21H75.101V17.28C75.101 16.624 74.937 16.124 74.609 15.78C74.289 15.428 73.853 15.252 73.301 15.252C72.733 15.252 72.281 15.436 71.945 15.804C71.609 16.164 71.441 16.688 71.441 17.376V21H70.361V17.28C70.361 16.624 70.197 16.124 69.869 15.78C69.549 15.428 69.113 15.252 68.561 15.252C67.993 15.252 67.541 15.436 67.205 15.804C66.869 16.164 66.701 16.688 66.701 17.376V21H65.609V14.424H66.701V15.372C66.917 15.028 67.205 14.764 67.565 14.58C67.933 14.396 68.337 14.304 68.777 14.304C69.329 14.304 69.817 14.428 70.241 14.676C70.665 14.924 70.981 15.288 71.189 15.768C71.373 15.304 71.677 14.944 72.101 14.688C72.525 14.432 72.997 14.304 73.517 14.304ZM84.1123 17.46C84.1123 17.668 84.1003 17.888 84.0763 18.12H78.8203C78.8603 18.768 79.0803 19.276 79.4803 19.644C79.8883 20.004 80.3803 20.184 80.9563 20.184C81.4283 20.184 81.8203 20.076 82.1323 19.86C82.4523 19.636 82.6763 19.34 82.8043 18.972H83.9803C83.8043 19.604 83.4523 20.12 82.9243 20.52C82.3963 20.912 81.7403 21.108 80.9563 21.108C80.3323 21.108 79.7723 20.968 79.2763 20.688C78.7883 20.408 78.4043 20.012 78.1243 19.5C77.8443 18.98 77.7043 18.38 77.7043 17.7C77.7043 17.02 77.8403 16.424 78.1123 15.912C78.3843 15.4 78.7643 15.008 79.2523 14.736C79.7483 14.456 80.3163 14.316 80.9563 14.316C81.5803 14.316 82.1323 14.452 82.6123 14.724C83.0923 14.996 83.4603 15.372 83.7163 15.852C83.9803 16.324 84.1123 16.86 84.1123 17.46ZM82.9843 17.232C82.9843 16.816 82.8923 16.46 82.7083 16.164C82.5243 15.86 82.2723 15.632 81.9523 15.48C81.6403 15.32 81.2923 15.24 80.9083 15.24C80.3563 15.24 79.8843 15.416 79.4923 15.768C79.1083 16.12 78.8883 16.608 78.8323 17.232H82.9843ZM88.8977 14.304C89.6977 14.304 90.3457 14.548 90.8417 15.036C91.3377 15.516 91.5857 16.212 91.5857 17.124V21H90.5057V17.28C90.5057 16.624 90.3417 16.124 90.0137 15.78C89.6857 15.428 89.2377 15.252 88.6697 15.252C88.0937 15.252 87.6337 15.432 87.2897 15.792C86.9537 16.152 86.7857 16.676 86.7857 17.364V21H85.6937V14.424H86.7857V15.36C87.0017 15.024 87.2937 14.764 87.6617 14.58C88.0377 14.396 88.4497 14.304 88.8977 14.304ZM94.8415 15.324V19.2C94.8415 19.52 94.9095 19.748 95.0455 19.884C95.1815 20.012 95.4175 20.076 95.7535 20.076H96.5575V21H95.5735C94.9655 21 94.5095 20.86 94.2055 20.58C93.9015 20.3 93.7495 19.84 93.7495 19.2V15.324H92.8975V14.424H93.7495V12.768H94.8415V14.424H96.5575V15.324H94.8415Z" fill="#292A32"/>
<rect x="0.5" y="0.5" width="113" height="32" rx="11.5" stroke="#C7C6C6"/>
<path d="M14.987 18.875C14.8582 18.875 14.7714 18.8876 14.7266 18.9002V19.7248C14.7798 19.7374 14.8463 19.7409 14.938 19.7409C15.2733 19.7409 15.4798 19.5715 15.4798 19.2852C15.4798 19.029 15.302 18.875 14.987 18.875ZM17.4279 18.8834C17.2879 18.8834 17.1969 18.896 17.143 18.9086V20.7356C17.1969 20.7482 17.2837 20.7482 17.3621 20.7482C17.934 20.7524 18.3064 20.4374 18.3064 19.771C18.3106 19.19 17.9711 18.8834 17.4279 18.8834Z" fill="#00658D"/>
<path d="M19 10H13.4C13.0287 10 12.6726 10.1475 12.4101 10.4101C12.1475 10.6726 12 11.0287 12 11.4V22.6C12 22.9713 12.1475 23.3274 12.4101 23.5899C12.6726 23.8525 13.0287 24 13.4 24H21.8C22.1713 24 22.5274 23.8525 22.7899 23.5899C23.0525 23.3274 23.2 22.9713 23.2 22.6V14.2L19 10ZM15.8486 19.933C15.6323 20.136 15.3131 20.227 14.9414 20.227C14.8693 20.2278 14.7973 20.2236 14.7258 20.2144V21.2126H14.1V18.4574C14.3824 18.4153 14.6678 18.3961 14.9533 18.4C15.3432 18.4 15.6204 18.4742 15.8073 18.6233C15.9851 18.7647 16.1055 18.9964 16.1055 19.2694C16.1048 19.5438 16.0138 19.7755 15.8486 19.933ZM18.5135 20.8815C18.2195 21.1258 17.7722 21.242 17.2255 21.242C16.8979 21.242 16.6662 21.221 16.5087 21.2V18.4581C16.7912 18.4169 17.0765 18.3974 17.362 18.4C17.8919 18.4 18.2363 18.4952 18.5051 18.6982C18.7956 18.9138 18.9776 19.2575 18.9776 19.751C18.9776 20.2851 18.7823 20.654 18.5135 20.8815ZM21.1 18.939H20.0276V19.5767H21.03V20.0905H20.0276V21.2133H19.3934V18.421H21.1V18.939ZM19 14.9H18.3V11.4L21.8 14.9H19Z" fill="#00658D"/>
</svg>
