<svg width="168" height="38" viewBox="0 0 168 38" fill="none" xmlns="http://www.w3.org/2000/svg">
<rect x="0.5" y="0.5" width="166.03" height="37" rx="11.5" fill="white"/>
<rect x="0.5" y="0.5" width="166.03" height="37" rx="11.5" stroke="#C7C6C6"/>
<path d="M17.915 11.0859H11.583C11.1632 11.0859 10.7605 11.2527 10.4637 11.5496C10.1668 11.8465 10 12.2491 10 12.6689V25.333C10 25.7528 10.1668 26.1555 10.4637 26.4524C10.7605 26.7492 11.1632 26.916 11.583 26.916H21.081C21.5009 26.916 21.9035 26.7492 22.2004 26.4524C22.4973 26.1555 22.6641 25.7528 22.6641 25.333V15.835L17.915 11.0859ZM14.3517 22.3174C14.1071 22.5469 13.7462 22.6498 13.3259 22.6498C13.2444 22.6507 13.1629 22.6459 13.0821 22.6356V23.7642H12.3745V20.6489C12.6938 20.6012 13.0165 20.5795 13.3394 20.584C13.7802 20.584 14.0937 20.6679 14.305 20.8365C14.506 20.9964 14.6422 21.2583 14.6422 21.567C14.6414 21.8773 14.5385 22.1393 14.3517 22.3174ZM17.3649 23.3899C17.0325 23.6661 16.5267 23.7975 15.9086 23.7975C15.5381 23.7975 15.2762 23.7737 15.0981 23.75V20.6497C15.4175 20.603 15.7401 20.5811 16.0629 20.584C16.6621 20.584 17.0515 20.6916 17.3554 20.9212C17.6839 21.1649 17.8897 21.5536 17.8897 22.1116C17.8897 22.7155 17.6689 23.1326 17.3649 23.3899ZM20.2895 21.1934H19.077V21.9145H20.2104V22.4955H19.077V23.765H18.3599V20.6077H20.2895V21.1934ZM17.915 16.6265H17.1235V12.6689L21.081 16.6265H17.915Z" fill="#0071B1"/>
<path d="M13.3765 21.1211C13.2308 21.1211 13.1327 21.1353 13.082 21.1496V22.082C13.1422 22.0962 13.2174 22.1002 13.3211 22.1002C13.7002 22.1002 13.9337 21.9086 13.9337 21.5849C13.9337 21.2952 13.7326 21.1211 13.3765 21.1211ZM16.1364 21.1306C15.9781 21.1306 15.8752 21.1448 15.8143 21.1591V23.2249C15.8752 23.2392 15.9734 23.2392 16.062 23.2392C16.7087 23.2439 17.1298 22.8877 17.1298 22.1342C17.1345 21.4773 16.7506 21.1306 16.1364 21.1306Z" fill="#0071B1"/>
<path d="M42.1921 15.1985C43.1041 15.1985 43.8921 15.3705 44.5561 15.7145C45.2281 16.0505 45.7401 16.5345 46.0921 17.1665C46.4521 17.7985 46.6321 18.5425 46.6321 19.3985C46.6321 20.2545 46.4521 20.9985 46.0921 21.6305C45.7401 22.2545 45.2281 22.7345 44.5561 23.0705C43.8921 23.3985 43.1041 23.5625 42.1921 23.5625H39.5881V15.1985H42.1921ZM42.1921 22.6625C43.2721 22.6625 44.0961 22.3785 44.6641 21.8105C45.2321 21.2345 45.5161 20.4305 45.5161 19.3985C45.5161 18.3585 45.2281 17.5465 44.6521 16.9625C44.0841 16.3785 43.2641 16.0865 42.1921 16.0865H40.6801V22.6625H42.1921ZM51.0804 23.6705C50.4644 23.6705 49.9044 23.5305 49.4004 23.2505C48.9044 22.9705 48.5124 22.5745 48.2244 22.0625C47.9444 21.5425 47.8044 20.9425 47.8044 20.2625C47.8044 19.5905 47.9484 18.9985 48.2364 18.4865C48.5324 17.9665 48.9324 17.5705 49.4364 17.2985C49.9404 17.0185 50.5044 16.8785 51.1284 16.8785C51.7524 16.8785 52.3164 17.0185 52.8204 17.2985C53.3244 17.5705 53.7204 17.9625 54.0084 18.4745C54.3044 18.9865 54.4524 19.5825 54.4524 20.2625C54.4524 20.9425 54.3004 21.5425 53.9964 22.0625C53.7004 22.5745 53.2964 22.9705 52.7844 23.2505C52.2724 23.5305 51.7044 23.6705 51.0804 23.6705ZM51.0804 22.7105C51.4724 22.7105 51.8404 22.6185 52.1844 22.4345C52.5284 22.2505 52.8044 21.9745 53.0124 21.6065C53.2284 21.2385 53.3364 20.7905 53.3364 20.2625C53.3364 19.7345 53.2324 19.2865 53.0244 18.9185C52.8164 18.5505 52.5444 18.2785 52.2084 18.1025C51.8724 17.9185 51.5084 17.8265 51.1164 17.8265C50.7164 17.8265 50.3484 17.9185 50.0124 18.1025C49.6844 18.2785 49.4204 18.5505 49.2204 18.9185C49.0204 19.2865 48.9204 19.7345 48.9204 20.2625C48.9204 20.7985 49.0164 21.2505 49.2084 21.6185C49.4084 21.9865 49.6724 22.2625 50.0004 22.4465C50.3284 22.6225 50.6884 22.7105 51.0804 22.7105ZM55.6202 20.2625C55.6202 19.5825 55.7562 18.9905 56.0282 18.4865C56.3002 17.9745 56.6762 17.5785 57.1562 17.2985C57.6442 17.0185 58.2002 16.8785 58.8242 16.8785C59.6322 16.8785 60.2962 17.0745 60.8162 17.4665C61.3442 17.8585 61.6922 18.4025 61.8602 19.0985H60.6842C60.5722 18.6985 60.3522 18.3825 60.0242 18.1505C59.7042 17.9185 59.3042 17.8025 58.8242 17.8025C58.2002 17.8025 57.6962 18.0185 57.3122 18.4505C56.9282 18.8745 56.7362 19.4785 56.7362 20.2625C56.7362 21.0545 56.9282 21.6665 57.3122 22.0985C57.6962 22.5305 58.2002 22.7465 58.8242 22.7465C59.3042 22.7465 59.7042 22.6345 60.0242 22.4105C60.3442 22.1865 60.5642 21.8665 60.6842 21.4505H61.8602C61.6842 22.1225 61.3322 22.6625 60.8042 23.0705C60.2762 23.4705 59.6162 23.6705 58.8242 23.6705C58.2002 23.6705 57.6442 23.5305 57.1562 23.2505C56.6762 22.9705 56.3002 22.5745 56.0282 22.0625C55.7562 21.5505 55.6202 20.9505 55.6202 20.2625ZM69.2893 16.9865V23.5625H68.1973V22.5905C67.9893 22.9265 67.6973 23.1905 67.3213 23.3825C66.9533 23.5665 66.5453 23.6585 66.0973 23.6585C65.5853 23.6585 65.1253 23.5545 64.7173 23.3465C64.3093 23.1305 63.9853 22.8105 63.7453 22.3865C63.5133 21.9625 63.3973 21.4465 63.3973 20.8385V16.9865H64.4773V20.6945C64.4773 21.3425 64.6413 21.8425 64.9693 22.1945C65.2973 22.5385 65.7453 22.7105 66.3133 22.7105C66.8973 22.7105 67.3573 22.5305 67.6933 22.1705C68.0293 21.8105 68.1973 21.2865 68.1973 20.5985V16.9865H69.2893ZM79.1811 16.8665C79.6931 16.8665 80.1491 16.9745 80.5491 17.1905C80.9491 17.3985 81.2651 17.7145 81.4971 18.1385C81.7291 18.5625 81.8451 19.0785 81.8451 19.6865V23.5625H80.7651V19.8425C80.7651 19.1865 80.6011 18.6865 80.2731 18.3425C79.9531 17.9905 79.5171 17.8145 78.9651 17.8145C78.3971 17.8145 77.9451 17.9985 77.6091 18.3665C77.2731 18.7265 77.1051 19.2505 77.1051 19.9385V23.5625H76.0251V19.8425C76.0251 19.1865 75.8611 18.6865 75.5331 18.3425C75.2131 17.9905 74.7771 17.8145 74.2251 17.8145C73.6571 17.8145 73.2051 17.9985 72.8691 18.3665C72.5331 18.7265 72.3651 19.2505 72.3651 19.9385V23.5625H71.2731V16.9865H72.3651V17.9345C72.5811 17.5905 72.8691 17.3265 73.2291 17.1425C73.5971 16.9585 74.0011 16.8665 74.4411 16.8665C74.9931 16.8665 75.4811 16.9905 75.9051 17.2385C76.3291 17.4865 76.6451 17.8505 76.8531 18.3305C77.0371 17.8665 77.3411 17.5065 77.7651 17.2505C78.1891 16.9945 78.6611 16.8665 79.1811 16.8665ZM89.7763 20.0225C89.7763 20.2305 89.7643 20.4505 89.7403 20.6825H84.4843C84.5243 21.3305 84.7443 21.8385 85.1443 22.2065C85.5523 22.5665 86.0443 22.7465 86.6203 22.7465C87.0923 22.7465 87.4843 22.6385 87.7963 22.4225C88.1163 22.1985 88.3403 21.9025 88.4683 21.5345H89.6443C89.4683 22.1665 89.1163 22.6825 88.5883 23.0825C88.0603 23.4745 87.4043 23.6705 86.6203 23.6705C85.9963 23.6705 85.4363 23.5305 84.9403 23.2505C84.4523 22.9705 84.0683 22.5745 83.7883 22.0625C83.5083 21.5425 83.3683 20.9425 83.3683 20.2625C83.3683 19.5825 83.5043 18.9865 83.7763 18.4745C84.0483 17.9625 84.4283 17.5705 84.9163 17.2985C85.4123 17.0185 85.9803 16.8785 86.6203 16.8785C87.2443 16.8785 87.7963 17.0145 88.2763 17.2865C88.7563 17.5585 89.1243 17.9345 89.3803 18.4145C89.6443 18.8865 89.7763 19.4225 89.7763 20.0225ZM88.6483 19.7945C88.6483 19.3785 88.5563 19.0225 88.3723 18.7265C88.1883 18.4225 87.9363 18.1945 87.6163 18.0425C87.3043 17.8825 86.9563 17.8025 86.5723 17.8025C86.0203 17.8025 85.5483 17.9785 85.1563 18.3305C84.7723 18.6825 84.5523 19.1705 84.4963 19.7945H88.6483ZM94.5618 16.8665C95.3618 16.8665 96.0098 17.1105 96.5058 17.5985C97.0018 18.0785 97.2498 18.7745 97.2498 19.6865V23.5625H96.1698V19.8425C96.1698 19.1865 96.0058 18.6865 95.6778 18.3425C95.3498 17.9905 94.9018 17.8145 94.3338 17.8145C93.7578 17.8145 93.2978 17.9945 92.9538 18.3545C92.6178 18.7145 92.4498 19.2385 92.4498 19.9265V23.5625H91.3578V16.9865H92.4498V17.9225C92.6658 17.5865 92.9578 17.3265 93.3258 17.1425C93.7018 16.9585 94.1138 16.8665 94.5618 16.8665ZM100.506 17.8865V21.7625C100.506 22.0825 100.574 22.3105 100.71 22.4465C100.846 22.5745 101.082 22.6385 101.418 22.6385H102.222V23.5625H101.238C100.63 23.5625 100.174 23.4225 99.8695 23.1425C99.5655 22.8625 99.4135 22.4025 99.4135 21.7625V17.8865H98.5615V16.9865H99.4135V15.3305H100.506V16.9865H102.222V17.8865H100.506Z" fill="#292A32"/>
<path d="M138.279 24C137.936 24 137.641 23.8775 137.396 23.6325C137.151 23.3875 137.029 23.0933 137.029 22.75V20.875H138.279V22.75H145.779V20.875H147.029V22.75C147.029 23.0937 146.907 23.3881 146.662 23.6331C146.417 23.8781 146.123 24.0004 145.779 24H138.279ZM142.029 21.5L138.904 18.375L139.779 17.4687L141.404 19.0937V14H142.654V19.0937L144.279 17.4687L145.154 18.375L142.029 21.5Z" fill="#0A4D68"/>
</svg>
