<svg width="340" height="305" viewBox="0 0 340 305" fill="none" xmlns="http://www.w3.org/2000/svg">
<g clip-path="url(#clip0_3239_3716)">
<path d="M174.125 0.66473L163.062 3.51627L26.7638 38.6479L15.7008 41.4994C10.331 42.89 5.73224 46.3528 2.91356 51.1281C0.0948805 55.9034 -0.713569 61.6013 0.665579 66.9716L48.6372 252.905C50.0284 258.272 53.4929 262.868 58.2705 265.686C63.0481 268.503 68.7488 269.311 74.1217 267.933L74.1503 267.925L232.518 227.105L232.546 227.098C237.916 225.707 242.515 222.245 245.333 217.469C248.152 212.694 248.961 206.996 247.581 201.626L199.61 15.6928C198.219 10.3255 194.754 5.729 189.976 2.91167C185.199 0.0943355 179.498 -0.71374 174.125 0.66473Z" fill="#F2F2F2"/>
<path d="M175.629 6.49444L162.526 9.8719L30.3079 43.9518L17.2047 47.3292C13.3807 48.3194 10.1058 50.7853 8.09857 54.1859C6.0913 57.5866 5.51558 61.6442 6.49771 65.4685L54.4693 251.401C55.46 255.224 57.9272 258.497 61.3294 260.503C64.7317 262.509 68.7913 263.085 72.6175 262.103L72.646 262.096L231.013 221.276L231.042 221.268C234.866 220.278 238.141 217.812 240.148 214.412C242.155 211.011 242.731 206.954 241.749 203.129L193.777 17.1963C192.787 13.3742 190.319 10.1009 186.917 8.09461C183.515 6.08832 179.455 5.51285 175.629 6.49444Z" fill="white"/>
<path d="M165.736 66.7044L85.6218 87.3542C84.727 87.5849 83.7772 87.4508 82.9813 86.9815C82.1855 86.5121 81.6087 85.746 81.378 84.8517C81.1472 83.9573 81.2814 83.008 81.7509 82.2125C82.2205 81.417 82.9869 80.8405 83.8817 80.6099L163.996 59.96C164.89 59.7303 165.839 59.865 166.635 60.3344C167.43 60.8038 168.006 61.5695 168.237 62.4634C168.467 63.3572 168.334 64.306 167.865 65.1013C167.396 65.8965 166.63 66.4731 165.736 66.7044Z" fill="#F2F2F2"/>
<path d="M182.589 74.4984L88.5574 98.7354C87.6626 98.966 86.7128 98.8319 85.9169 98.3626C85.121 97.8933 84.5443 97.1272 84.3135 96.2328C84.0828 95.3384 84.2169 94.3891 84.6865 93.5936C85.156 92.7981 85.9225 92.2216 86.8173 91.991L180.848 67.754C181.743 67.5234 182.693 67.6574 183.489 68.1268C184.285 68.5961 184.862 69.3622 185.092 70.2566C185.323 71.1509 185.189 72.1003 184.719 72.8958C184.25 73.6913 183.483 74.2677 182.589 74.4984Z" fill="#F2F2F2"/>
<path d="M178.894 117.709L98.78 138.359C98.337 138.473 97.8757 138.499 97.4227 138.435C96.9696 138.371 96.5336 138.218 96.1395 137.986C95.7455 137.753 95.401 137.446 95.1259 137.08C94.8508 136.715 94.6504 136.299 94.5362 135.856C94.4219 135.413 94.396 134.952 94.46 134.499C94.524 134.046 94.6766 133.611 94.9091 133.217C95.1416 132.823 95.4495 132.479 95.8151 132.204C96.1807 131.929 96.5969 131.728 97.0399 131.614L177.154 110.964C177.597 110.85 178.058 110.824 178.511 110.888C178.964 110.952 179.4 111.105 179.795 111.337C180.189 111.57 180.533 111.877 180.808 112.243C181.083 112.608 181.284 113.024 181.398 113.467C181.512 113.91 181.538 114.371 181.474 114.824C181.41 115.276 181.257 115.712 181.025 116.106C180.793 116.5 180.485 116.844 180.119 117.119C179.753 117.394 179.337 117.595 178.894 117.709Z" fill="#F2F2F2"/>
<path d="M195.749 125.503L101.718 149.74C101.274 149.854 100.813 149.88 100.36 149.816C99.9071 149.752 99.4711 149.599 99.077 149.367C98.683 149.135 98.3385 148.827 98.0634 148.461C97.7883 148.096 97.5879 147.68 97.4737 147.237C97.3594 146.794 97.3335 146.333 97.3975 145.88C97.4615 145.428 97.6141 144.992 97.8466 144.598C98.0791 144.204 98.3869 143.86 98.7525 143.585C99.1182 143.31 99.5344 143.11 99.9774 142.995L194.009 118.758C194.903 118.528 195.853 118.662 196.649 119.131C197.445 119.6 198.022 120.367 198.252 121.261C198.483 122.155 198.349 123.105 197.88 123.9C197.41 124.696 196.643 125.272 195.749 125.503Z" fill="#F2F2F2"/>
<path d="M192.054 168.713L111.94 189.363C111.045 189.593 110.096 189.458 109.301 188.989C108.505 188.52 107.929 187.754 107.698 186.86C107.468 185.966 107.602 185.017 108.071 184.222C108.54 183.426 109.305 182.85 110.2 182.619L190.314 161.969C191.209 161.738 192.158 161.872 192.954 162.341C193.75 162.811 194.327 163.577 194.558 164.471C194.788 165.366 194.654 166.315 194.185 167.11C193.715 167.906 192.949 168.482 192.054 168.713Z" fill="#F2F2F2"/>
<path d="M208.908 176.507L114.877 200.744C114.434 200.859 113.972 200.885 113.519 200.821C113.065 200.758 112.629 200.605 112.235 200.373C111.84 200.14 111.495 199.833 111.22 199.467C110.945 199.102 110.744 198.685 110.63 198.242C110.516 197.799 110.49 197.338 110.554 196.885C110.618 196.432 110.771 195.996 111.004 195.602C111.236 195.208 111.545 194.863 111.911 194.588C112.277 194.314 112.693 194.113 113.137 194L207.168 169.763C208.063 169.532 209.012 169.666 209.808 170.135C210.604 170.605 211.181 171.371 211.412 172.265C211.642 173.16 211.508 174.109 211.039 174.904C210.569 175.7 209.803 176.276 208.908 176.507Z" fill="#F2F2F2"/>
<path d="M71.9433 108.528L43.5916 115.835C43.1626 115.945 42.7074 115.881 42.3259 115.656C41.9444 115.431 41.6678 115.064 41.5567 114.635L35.0486 89.4107C34.9385 88.9819 35.003 88.5269 35.2281 88.1456C35.4532 87.7643 35.8204 87.4878 36.2492 87.3768L64.6008 80.069C65.0298 79.9589 65.485 80.0234 65.8665 80.2484C66.248 80.4733 66.5247 80.8404 66.6357 81.269L73.1438 106.494C73.254 106.922 73.1894 107.377 72.9644 107.759C72.7393 108.14 72.3721 108.417 71.9433 108.528Z" fill="#E6E6E6"/>
<path d="M85.1034 159.532L56.7518 166.84C56.3228 166.95 55.8676 166.885 55.4861 166.66C55.1046 166.435 54.8279 166.068 54.7169 165.64L48.2088 140.415C48.0986 139.986 48.1632 139.531 48.3883 139.15C48.6133 138.769 48.9806 138.492 49.4093 138.381L77.761 131.073C78.19 130.963 78.6452 131.028 79.0267 131.253C79.4082 131.478 79.6848 131.845 79.7959 132.273L86.304 157.498C86.4141 157.927 86.3496 158.382 86.1245 158.763C85.8994 159.144 85.5322 159.421 85.1034 159.532Z" fill="#E6E6E6"/>
<path d="M98.2636 210.536L69.912 217.844C69.4829 217.954 69.0277 217.89 68.6462 217.665C68.2647 217.44 67.9881 217.073 67.877 216.644L61.3689 191.419C61.2588 190.991 61.3234 190.536 61.5484 190.154C61.7735 189.773 62.1407 189.496 62.5695 189.385L90.9211 182.078C91.3502 181.968 91.8054 182.032 92.1869 182.257C92.5684 182.482 92.845 182.849 92.9561 183.278L99.4642 208.502C99.5743 208.931 99.5097 209.386 99.2847 209.767C99.0596 210.149 98.6924 210.425 98.2636 210.536Z" fill="#E6E6E6"/>
<path d="M284.618 47.7966H121.011C115.463 47.8028 110.145 50.0081 106.223 53.9287C102.3 57.8492 100.094 63.1648 100.088 68.7092V260.725C100.094 266.27 102.3 271.585 106.223 275.506C110.145 279.426 115.463 281.631 121.011 281.638H284.618C290.165 281.631 295.483 279.426 299.406 275.506C303.328 271.585 305.535 266.27 305.541 260.725V68.7092C305.535 63.1648 303.328 57.8492 299.406 53.9287C295.483 50.0081 290.165 47.8028 284.618 47.7966Z" fill="#E6E6E6"/>
<path d="M284.619 53.8169H121.011C117.061 53.8213 113.273 55.3918 110.48 58.1837C107.687 60.9755 106.116 64.7609 106.111 68.7092V260.725C106.116 264.673 107.687 268.459 110.48 271.251C113.273 274.043 117.061 275.613 121.011 275.617H284.619C288.569 275.613 292.356 274.043 295.149 271.251C297.942 268.459 299.513 264.673 299.518 260.725V68.7092C299.513 64.7609 297.942 60.9756 295.149 58.1837C292.356 55.3918 288.569 53.8214 284.619 53.8169Z" fill="white"/>
<path d="M301.807 305C322.901 305 340.001 287.908 340.001 266.825C340.001 245.741 322.901 228.65 301.807 228.65C280.713 228.65 263.613 245.741 263.613 266.825C263.613 287.908 280.713 305 301.807 305Z" fill="#0071B1"/>
<path d="M320.073 261.845H306.789V248.567C306.789 247.247 306.264 245.98 305.33 245.046C304.395 244.112 303.128 243.588 301.807 243.588C300.486 243.588 299.219 244.112 298.284 245.046C297.35 245.98 296.825 247.247 296.825 248.567V261.845H283.54C282.219 261.845 280.952 262.37 280.018 263.304C279.083 264.238 278.559 265.504 278.559 266.825C278.559 268.145 279.083 269.412 280.018 270.346C280.952 271.28 282.219 271.804 283.54 271.804H296.825V285.083C296.825 286.403 297.35 287.67 298.284 288.603C299.219 289.537 300.486 290.062 301.807 290.062C303.128 290.062 304.395 289.537 305.33 288.603C306.264 287.67 306.789 286.403 306.789 285.083V271.804H320.073C321.395 271.804 322.662 271.28 323.596 270.346C324.53 269.412 325.055 268.145 325.055 266.825C325.055 265.504 324.53 264.238 323.596 263.304C322.662 262.37 321.395 261.845 320.073 261.845Z" fill="white"/>
<path d="M259.995 159.329H177.26C176.802 159.33 176.348 159.24 175.925 159.065C175.502 158.89 175.117 158.634 174.793 158.311C174.469 157.987 174.212 157.603 174.037 157.18C173.862 156.757 173.771 156.304 173.771 155.847C173.771 155.389 173.862 154.936 174.037 154.513C174.212 154.09 174.469 153.706 174.793 153.383C175.117 153.059 175.502 152.803 175.925 152.628C176.348 152.453 176.802 152.364 177.26 152.364H259.995C260.918 152.365 261.803 152.732 262.456 153.385C263.109 154.038 263.475 154.924 263.475 155.847C263.475 156.77 263.109 157.655 262.456 158.308C261.803 158.961 260.918 159.328 259.995 159.329Z" fill="#E6E6E6"/>
<path d="M274.367 171.083H177.26C176.802 171.083 176.348 170.993 175.925 170.819C175.502 170.644 175.117 170.387 174.793 170.064C174.469 169.741 174.212 169.356 174.037 168.934C173.862 168.511 173.771 168.058 173.771 167.6C173.771 167.142 173.862 166.689 174.037 166.266C174.212 165.844 174.469 165.46 174.793 165.136C175.117 164.813 175.502 164.556 175.925 164.382C176.348 164.207 176.802 164.117 177.26 164.118H274.367C275.291 164.118 276.177 164.484 276.831 165.138C277.484 165.791 277.851 166.676 277.851 167.6C277.851 168.524 277.484 169.41 276.831 170.063C276.177 170.716 275.291 171.083 274.367 171.083Z" fill="#E6E6E6"/>
<path d="M259.995 212.002H177.26C176.802 212.003 176.348 211.913 175.925 211.738C175.502 211.563 175.117 211.307 174.793 210.984C174.469 210.66 174.212 210.276 174.037 209.853C173.862 209.43 173.771 208.977 173.771 208.52C173.771 208.062 173.862 207.609 174.037 207.186C174.212 206.763 174.469 206.379 174.793 206.056C175.117 205.732 175.502 205.476 175.925 205.301C176.348 205.126 176.802 205.037 177.26 205.037H259.995C260.919 205.037 261.805 205.404 262.458 206.057C263.112 206.71 263.479 207.596 263.479 208.52C263.479 209.443 263.112 210.329 262.458 210.982C261.805 211.635 260.919 212.002 259.995 212.002Z" fill="#E6E6E6"/>
<path d="M274.367 223.756H177.26C176.802 223.756 176.348 223.666 175.925 223.492C175.502 223.317 175.117 223.06 174.793 222.737C174.469 222.414 174.212 222.029 174.037 221.607C173.862 221.184 173.771 220.731 173.771 220.273C173.771 219.815 173.862 219.362 174.037 218.939C174.212 218.517 174.469 218.133 174.793 217.809C175.117 217.486 175.502 217.229 175.925 217.055C176.348 216.88 176.802 216.79 177.26 216.791H274.367C274.825 216.79 275.278 216.88 275.702 217.055C276.125 217.229 276.509 217.486 276.833 217.809C277.157 218.133 277.414 218.517 277.59 218.939C277.765 219.362 277.855 219.815 277.855 220.273C277.855 220.731 277.765 221.184 277.59 221.607C277.414 222.029 277.157 222.414 276.833 222.737C276.509 223.06 276.125 223.317 275.702 223.492C275.278 223.666 274.825 223.756 274.367 223.756Z" fill="#E6E6E6"/>
<path d="M158.727 176.418H129.448C129.005 176.418 128.58 176.242 128.267 175.929C127.954 175.615 127.778 175.191 127.777 174.748V148.698C127.778 148.256 127.954 147.831 128.267 147.518C128.58 147.205 129.005 147.029 129.448 147.029H158.727C159.17 147.029 159.595 147.205 159.908 147.518C160.221 147.831 160.397 148.256 160.398 148.698V174.748C160.397 175.191 160.221 175.615 159.908 175.929C159.595 176.242 159.17 176.418 158.727 176.418Z" fill="#E6E6E6"/>
<path d="M158.727 229.091H129.448C129.005 229.091 128.58 228.915 128.267 228.602C127.954 228.288 127.778 227.864 127.777 227.421V201.371C127.778 200.929 127.954 200.504 128.267 200.191C128.58 199.878 129.005 199.702 129.448 199.701H158.727C159.17 199.702 159.595 199.878 159.908 200.191C160.221 200.504 160.397 200.929 160.398 201.371V227.421C160.397 227.864 160.221 228.288 159.908 228.602C159.595 228.915 159.17 229.091 158.727 229.091Z" fill="#E6E6E6"/>
<path d="M260.087 100.694H199.09C198.166 100.694 197.279 100.327 196.626 99.6737C195.973 99.0206 195.605 98.1348 195.605 97.2112C195.605 96.2876 195.973 95.4018 196.626 94.7487C197.279 94.0956 198.166 93.7287 199.09 93.7287H260.087C261.011 93.7287 261.897 94.0956 262.551 94.7487C263.204 95.4018 263.571 96.2876 263.571 97.2112C263.571 98.1348 263.204 99.0206 262.551 99.6737C261.897 100.327 261.011 100.694 260.087 100.694Z" fill="#CCCCCC"/>
<path d="M274.459 112.447H199.09C198.632 112.447 198.179 112.357 197.756 112.182C197.334 112.007 196.95 111.751 196.626 111.427C196.302 111.104 196.046 110.72 195.871 110.297C195.696 109.875 195.605 109.422 195.605 108.965C195.605 108.507 195.696 108.055 195.871 107.632C196.046 107.209 196.302 106.826 196.626 106.502C196.95 106.179 197.334 105.922 197.756 105.747C198.179 105.572 198.632 105.482 199.09 105.482H274.459C275.383 105.482 276.27 105.849 276.923 106.502C277.576 107.155 277.943 108.041 277.943 108.965C277.943 109.888 277.576 110.774 276.923 111.427C276.27 112.08 275.383 112.447 274.459 112.447Z" fill="#CCCCCC"/>
<path d="M185.59 126.691H129.356C128.913 126.69 128.489 126.514 128.175 126.201C127.862 125.888 127.686 125.464 127.686 125.021V81.1547C127.686 80.712 127.862 80.2876 128.175 79.9745C128.489 79.6615 128.913 79.4854 129.356 79.4849H185.59C186.033 79.4854 186.458 79.6615 186.771 79.9745C187.084 80.2876 187.261 80.712 187.261 81.1547V125.021C187.261 125.464 187.084 125.888 186.771 126.201C186.458 126.514 186.033 126.69 185.59 126.691Z" fill="#0071B1"/>
<circle cx="301.5" cy="267.5" r="37.5" fill="#0071B1"/>
</g>
<path d="M318.448 259.635C319.184 258.898 319.184 257.671 318.448 256.972L314.028 252.552C313.329 251.816 312.102 251.816 311.365 252.552L307.89 256.009L314.973 263.091M285 278.918V286H292.082L312.971 265.093L305.888 258.011L285 278.918Z" fill="white"/>
<defs>
<clipPath id="clip0_3239_3716">
<rect width="340" height="305" fill="white"/>
</clipPath>
</defs>
</svg>
