<svg width="173" height="38" viewBox="0 0 173 38" fill="none" xmlns="http://www.w3.org/2000/svg">
<rect x="0.5" y="0.5" width="172" height="36.3137" rx="11.5" stroke="#C7C6C6"/>
<path d="M20.9038 18.6531L15.0234 17.6172V25.272C15.0235 25.3551 15.04 25.4375 15.0718 25.5143C15.1037 25.5911 15.1504 25.6608 15.2093 25.7196C15.2681 25.7783 15.338 25.8249 15.4148 25.8567C15.4917 25.8884 15.5741 25.9048 15.6572 25.9047H25.8041C25.8873 25.9049 25.9698 25.8887 26.0468 25.857C26.1238 25.8253 26.1937 25.7787 26.2527 25.72C26.3117 25.6612 26.3585 25.5914 26.3904 25.5145C26.4224 25.4376 26.4389 25.3552 26.4389 25.272V22.4516L20.9038 18.6531Z" fill="#185C37"/>
<path d="M20.9038 12.0938H15.6572C15.5741 12.0937 15.4917 12.11 15.4148 12.1418C15.338 12.1735 15.2681 12.2201 15.2093 12.2788C15.1504 12.3376 15.1037 12.4074 15.0718 12.4842C15.04 12.561 15.0235 12.6433 15.0234 12.7265V15.5469L20.9038 19L24.0175 20.0359L26.4389 19V15.5469L20.9038 12.0938Z" fill="#21A366"/>
<path d="M15.0234 15.5469H20.9038V19H15.0234V15.5469Z" fill="#107C41"/>
<path opacity="0.1" d="M19.232 14.8555H15.0234V23.4883H19.232C19.3997 23.4874 19.5603 23.4206 19.679 23.3021C19.7978 23.1837 19.8651 23.0233 19.8663 22.8556V15.4882C19.8651 15.3205 19.7978 15.16 19.679 15.0416C19.5603 14.9232 19.3997 14.8563 19.232 14.8555Z" fill="black"/>
<path opacity="0.2" d="M18.8862 15.2031H15.0234V23.8359H18.8862C19.0539 23.8351 19.2145 23.7682 19.3332 23.6498C19.4519 23.5314 19.5192 23.3709 19.5205 23.2032V15.8358C19.5192 15.6681 19.4519 15.5077 19.3332 15.3893C19.2145 15.2708 19.0539 15.204 18.8862 15.2031Z" fill="black"/>
<path opacity="0.2" d="M18.8862 15.2031H15.0234V23.1453H18.8862C19.0539 23.1445 19.2145 23.0776 19.3332 22.9592C19.4519 22.8407 19.5192 22.6803 19.5205 22.5126V15.8358C19.5192 15.6681 19.4519 15.5077 19.3332 15.3893C19.2145 15.2708 19.0539 15.204 18.8862 15.2031Z" fill="black"/>
<path opacity="0.2" d="M18.5403 15.2031H15.0234V23.1453H18.5403C18.708 23.1445 18.8686 23.0776 18.9874 22.9592C19.1061 22.8407 19.1734 22.6803 19.1746 22.5126V15.8358C19.1734 15.6681 19.1061 15.5077 18.9874 15.3893C18.8686 15.2708 18.708 15.204 18.5403 15.2031Z" fill="black"/>
<path d="M12.1968 15.2031H18.5389C18.7069 15.203 18.8681 15.2695 18.987 15.3882C19.1059 15.5068 19.1729 15.6678 19.1732 15.8358V22.1673C19.1729 22.3353 19.1059 22.4963 18.987 22.6149C18.8681 22.7336 18.7069 22.8001 18.5389 22.8H12.1968C12.1136 22.8001 12.0312 22.7839 11.9543 22.7522C11.8774 22.7204 11.8074 22.6739 11.7485 22.6151C11.6896 22.5563 11.6429 22.4865 11.611 22.4097C11.579 22.3329 11.5626 22.2505 11.5625 22.1673V15.8358C11.5626 15.7526 11.579 15.6703 11.611 15.5934C11.6429 15.5166 11.6896 15.4468 11.7485 15.388C11.8074 15.3293 11.8774 15.2827 11.9543 15.251C12.0312 15.2192 12.1136 15.203 12.1968 15.2031Z" fill="url(#paint0_linear_3353_10589)"/>
<path d="M13.5273 21.0565L14.8613 18.9931L13.6394 16.9414H14.6207L15.2874 18.2552C15.349 18.3795 15.3936 18.4719 15.4138 18.5336H15.4228C15.4664 18.4337 15.5126 18.3375 15.561 18.2435L16.2739 16.9435H17.177L15.9238 18.9835L17.2089 21.0581H16.2479L15.4776 19.6178C15.4418 19.5559 15.4114 19.4911 15.3867 19.4239H15.374C15.3515 19.4893 15.3216 19.5519 15.2847 19.6104L14.4916 21.0565H13.5273Z" fill="white"/>
<path d="M25.8031 12.0938H20.9023V15.5469H26.4374V12.7265C26.4374 12.6433 26.4209 12.5609 26.389 12.4841C26.3571 12.4072 26.3103 12.3374 26.2514 12.2787C26.1925 12.2199 26.1226 12.1733 26.0457 12.1416C25.9687 12.1099 25.8863 12.0936 25.8031 12.0938Z" fill="#33C481"/>
<path d="M20.9023 19H26.4374V22.4531H20.9023V19Z" fill="#107C41"/>
<path d="M45.516 16.0865V18.8825H48.564V19.7825H45.516V22.6625H48.924V23.5625H44.424V15.1865H48.924V16.0865H45.516ZM54.1483 23.5625L52.5883 21.1145L51.0883 23.5625H49.9483L52.0723 20.2985L49.9483 16.9865H51.1843L52.7443 19.4225L54.2323 16.9865H55.3723L53.2603 20.2385L55.3843 23.5625H54.1483ZM56.1905 20.2625C56.1905 19.5825 56.3265 18.9905 56.5985 18.4865C56.8705 17.9745 57.2465 17.5785 57.7265 17.2985C58.2145 17.0185 58.7705 16.8785 59.3945 16.8785C60.2025 16.8785 60.8665 17.0745 61.3865 17.4665C61.9145 17.8585 62.2625 18.4025 62.4305 19.0985H61.2545C61.1425 18.6985 60.9225 18.3825 60.5945 18.1505C60.2745 17.9185 59.8745 17.8025 59.3945 17.8025C58.7705 17.8025 58.2665 18.0185 57.8825 18.4505C57.4985 18.8745 57.3065 19.4785 57.3065 20.2625C57.3065 21.0545 57.4985 21.6665 57.8825 22.0985C58.2665 22.5305 58.7705 22.7465 59.3945 22.7465C59.8745 22.7465 60.2745 22.6345 60.5945 22.4105C60.9145 22.1865 61.1345 21.8665 61.2545 21.4505H62.4305C62.2545 22.1225 61.9025 22.6625 61.3745 23.0705C60.8465 23.4705 60.1865 23.6705 59.3945 23.6705C58.7705 23.6705 58.2145 23.5305 57.7265 23.2505C57.2465 22.9705 56.8705 22.5745 56.5985 22.0625C56.3265 21.5505 56.1905 20.9505 56.1905 20.2625ZM70.0276 20.0225C70.0276 20.2305 70.0156 20.4505 69.9916 20.6825H64.7356C64.7756 21.3305 64.9956 21.8385 65.3956 22.2065C65.8036 22.5665 66.2956 22.7465 66.8716 22.7465C67.3436 22.7465 67.7356 22.6385 68.0476 22.4225C68.3676 22.1985 68.5916 21.9025 68.7196 21.5345H69.8956C69.7196 22.1665 69.3676 22.6825 68.8396 23.0825C68.3116 23.4745 67.6556 23.6705 66.8716 23.6705C66.2476 23.6705 65.6876 23.5305 65.1916 23.2505C64.7036 22.9705 64.3196 22.5745 64.0396 22.0625C63.7596 21.5425 63.6196 20.9425 63.6196 20.2625C63.6196 19.5825 63.7556 18.9865 64.0276 18.4745C64.2996 17.9625 64.6796 17.5705 65.1676 17.2985C65.6636 17.0185 66.2316 16.8785 66.8716 16.8785C67.4956 16.8785 68.0476 17.0145 68.5276 17.2865C69.0076 17.5585 69.3756 17.9345 69.6316 18.4145C69.8956 18.8865 70.0276 19.4225 70.0276 20.0225ZM68.8996 19.7945C68.8996 19.3785 68.8076 19.0225 68.6236 18.7265C68.4396 18.4225 68.1876 18.1945 67.8676 18.0425C67.5556 17.8825 67.2076 17.8025 66.8236 17.8025C66.2716 17.8025 65.7996 17.9785 65.4076 18.3305C65.0236 18.6825 64.8036 19.1705 64.7476 19.7945H68.8996ZM72.701 14.6825V23.5625H71.609V14.6825H72.701Z" fill="#292A32"/>
<path d="M143.117 24C142.773 24 142.479 23.8775 142.234 23.6325C141.989 23.3875 141.867 23.0933 141.867 22.75V20.875H143.117V22.75H150.617V20.875H151.867V22.75C151.867 23.0937 151.745 23.3881 151.5 23.6331C151.255 23.8781 150.961 24.0004 150.617 24H143.117ZM146.867 21.5L143.742 18.375L144.617 17.4687L146.242 19.0937V14H147.492V19.0937L149.117 17.4687L149.992 18.375L146.867 21.5Z" fill="#0A4D68"/>
<defs>
<linearGradient id="paint0_linear_3353_10589" x1="12.8874" y1="14.7059" x2="17.8483" y2="23.2973" gradientUnits="userSpaceOnUse">
<stop stop-color="#18884F"/>
<stop offset="0.5" stop-color="#117E43"/>
<stop offset="1" stop-color="#0B6631"/>
</linearGradient>
</defs>
</svg>
