<svg width="178" height="208" viewBox="0 0 178 208" fill="none" xmlns="http://www.w3.org/2000/svg">
<path d="M159.544 72.527C155.683 66.378 150.299 59.176 144.391 52.273C138.484 45.37 132.321 39.078 127.059 34.567C118.092 26.884 113.742 26 111.25 26H47.2812C39.6161 26 33.375 33.293 33.375 42.25V191.75C33.375 200.707 39.6161 208 47.2812 208H152.969C160.634 208 166.875 200.707 166.875 191.75V91C166.875 88.088 166.118 83.005 159.544 72.527ZM136.515 61.477C141.855 67.717 146.038 73.333 149.131 78H122.364V46.735C126.358 50.349 131.186 55.237 136.515 61.477ZM155.75 191.75C155.75 193.518 154.482 195 152.969 195H47.2812C46.5463 194.99 45.8439 194.644 45.3242 194.037C44.8045 193.43 44.5087 192.609 44.5 191.75V42.25C44.5 40.495 45.7682 39 47.2812 39H111.25V84.5C111.25 86.2239 111.836 87.8772 112.879 89.0962C113.922 90.3152 115.337 91 116.812 91H155.75V191.75Z" fill="#004E86" fill-opacity="0.16"/>
<path d="M104.809 8.567C95.8419 0.883999 91.492 0 89 0H25.0312C17.3661 0 11.125 7.293 11.125 16.25V165.75C11.125 173.602 15.9088 180.167 22.25 181.675V16.25C22.25 14.495 23.5294 13 25.0312 13H109.659C108.072 11.4724 106.462 9.9942 104.809 8.567Z" fill="#004E86" fill-opacity="0.16"/>
</svg>
