<svg width="500" height="500" viewBox="0 0 500 500" fill="none" xmlns="http://www.w3.org/2000/svg">
<path d="M500 382.398H0V382.648H500V382.398Z" fill="#EBEBEB"/>
<path d="M315.671 389.211H290.211V389.461H315.671V389.211Z" fill="#EBEBEB"/>
<path d="M455.439 394.621H395.109V394.871H455.439V394.621Z" fill="#EBEBEB"/>
<path d="M284.791 389.328H222.461V389.578H284.791V389.328Z" fill="#EBEBEB"/>
<path d="M182.04 396.809H169V397.059H182.04V396.809Z" fill="#EBEBEB"/>
<path d="M254.091 396.809H194.711V397.059H254.091V396.809Z" fill="#EBEBEB"/>
<path d="M90.9109 392.59H52.4609V392.84H90.9109V392.59Z" fill="#EBEBEB"/>
<path d="M237.001 337.8H43.9109C42.3983 337.797 40.9485 337.195 39.8798 336.124C38.8112 335.054 38.2109 333.603 38.2109 332.09V60.66C38.2241 59.156 38.8301 57.718 39.8974 56.6582C40.9646 55.5985 42.4069 55.0026 43.9109 55H237.001C238.515 55 239.968 55.6016 241.039 56.6724C242.109 57.7433 242.711 59.1956 242.711 60.71V332.09C242.711 333.604 242.109 335.057 241.039 336.128C239.968 337.198 238.515 337.8 237.001 337.8ZM43.9109 55.2C42.4646 55.2026 41.0784 55.7791 40.0566 56.8027C39.0348 57.8264 38.4609 59.2136 38.4609 60.66V332.09C38.4609 333.536 39.0348 334.924 40.0566 335.947C41.0784 336.971 42.4646 337.547 43.9109 337.55H237.001C238.448 337.547 239.835 336.971 240.859 335.948C241.882 334.924 242.458 333.537 242.461 332.09V60.66C242.458 59.2127 241.882 57.8255 240.859 56.8021C239.835 55.7787 238.448 55.2026 237.001 55.2H43.9109Z" fill="#EBEBEB"/>
<path d="M453.31 337.8H260.21C258.696 337.797 257.246 337.195 256.175 336.125C255.105 335.054 254.503 333.604 254.5 332.09V60.66C254.516 59.1551 255.124 57.7171 256.193 56.6576C257.262 55.5981 258.705 55.0025 260.21 55H453.31C454.812 55.0052 456.252 55.6022 457.317 56.6617C458.382 57.7212 458.987 59.1578 459 60.66V332.09C459 333.601 458.401 335.05 457.335 336.121C456.268 337.191 454.821 337.795 453.31 337.8ZM260.21 55.2C258.763 55.2026 257.375 55.7787 256.352 56.8021C255.329 57.8255 254.753 59.2127 254.75 60.66V332.09C254.753 333.537 255.329 334.924 256.352 335.948C257.375 336.971 258.763 337.547 260.21 337.55H453.31C454.757 337.547 456.145 336.971 457.168 335.948C458.191 334.924 458.767 333.537 458.77 332.09V60.66C458.767 59.2127 458.191 57.8255 457.168 56.8021C456.145 55.7787 454.757 55.2026 453.31 55.2H260.21Z" fill="#EBEBEB"/>
<path d="M195.961 295.672H129.561L125.531 249.172H191.931L195.961 295.672Z" fill="#E6E6E6"/>
<path d="M199.399 295.672H132.999L128.969 249.172H195.369L199.399 295.672Z" fill="#F0F0F0"/>
<path d="M142.079 285.678L139.859 259.148H186.289L188.509 285.678H142.079Z" fill="white"/>
<path d="M210.892 295.672H203.102V382.402H210.892V295.672Z" fill="#E6E6E6"/>
<path d="M213.348 295.672H207.938V382.402H213.348V295.672Z" fill="#F0F0F0"/>
<path d="M137.942 305.238H213.352V295.668H137.942V305.238Z" fill="#F0F0F0"/>
<path d="M140.603 305.238H132.812V382.398H140.603V305.238Z" fill="#E6E6E6"/>
<path d="M143.058 305.238H137.648V382.398H143.058V305.238Z" fill="#F0F0F0"/>
<path d="M85.1494 305.238H77.3594V382.398H85.1494V305.238Z" fill="#E6E6E6"/>
<path d="M87.6131 305.238H82.2031V382.398H87.6131V305.238Z" fill="#F0F0F0"/>
<path d="M161.587 305.238H153.797V382.398H161.587V305.238Z" fill="#E6E6E6"/>
<path d="M164.043 305.238H158.633V382.398H164.043V305.238Z" fill="#F0F0F0"/>
<path d="M137.939 295.672H77.3594V305.242H137.939V295.672Z" fill="#E6E6E6"/>
<path d="M363.838 79.4102H129.508V209.87H363.838V79.4102Z" fill="#E0E0E0"/>
<path d="M376.707 79.4102H130.688V209.87H376.707V79.4102Z" fill="#F5F5F5"/>
<path d="M372.688 205.85V83.4297L134.707 83.4297V205.85H372.688Z" fill="white"/>
<path d="M231.072 205.85L276.002 83.4297H201.852L156.922 205.85H231.072Z" fill="#F5F5F5"/>
<path d="M302.44 205.85L347.37 83.4297H291.43L246.5 205.85H302.44Z" fill="#F5F5F5"/>
<path d="M438.107 257.801H418.188V382.401H438.107V257.801Z" fill="#E6E6E6"/>
<path d="M432.873 382.399H438.113V372.809H427.383L432.873 382.399Z" fill="#FAFAFA"/>
<path d="M254.451 257.801H234.531V382.401H254.451V257.801Z" fill="#E6E6E6"/>
<path d="M438.113 257.801H249.883V379.811H438.113V257.801Z" fill="#FAFAFA"/>
<path d="M434.553 297.171H253.453V262.711H434.553V297.171ZM254.453 296.171H433.553V263.711H254.453V296.171Z" fill="#E6E6E6"/>
<path d="M402.67 279.441H288.84C283.56 279.441 278.47 275.181 274.84 267.741L274.5 267.031H417L416.66 267.741C413 275.181 408 279.441 402.67 279.441ZM276.14 268.001C279.52 274.631 284.14 278.411 288.84 278.411H402.67C407.39 278.411 411.99 274.631 415.37 268.001H276.14Z" fill="#E6E6E6"/>
<path d="M255.123 382.399H249.883V372.809H260.613L255.123 382.399Z" fill="#FAFAFA"/>
<path d="M434.553 335.998H253.453V301.578H434.553V335.998ZM254.453 334.998H433.553V302.578H254.453V334.998Z" fill="#E6E6E6"/>
<path d="M402.67 318.311H288.84C283.56 318.311 278.47 314.041 274.84 306.611L274.5 305.891H417L416.66 306.611C413 314.001 408 318.311 402.67 318.311ZM276.14 306.891C279.52 313.521 284.14 317.311 288.84 317.311H402.67C407.39 317.311 411.99 313.521 415.37 306.891H276.14Z" fill="#E6E6E6"/>
<path d="M434.553 374.901H253.453V340.441H434.553V374.901ZM254.453 373.901H433.553V341.441H254.453V373.901Z" fill="#E6E6E6"/>
<path d="M402.67 357.172H288.84C283.56 357.172 278.47 352.912 274.84 345.482L274.5 344.762H417L416.66 345.482C413 352.912 408 357.172 402.67 357.172ZM276.14 345.762C279.52 352.392 284.14 356.172 288.84 356.172H402.67C407.39 356.172 411.99 352.392 415.37 345.762H276.14Z" fill="#E6E6E6"/>
<path d="M120.98 274.281V276.701H119.44L118.16 295.671H99.32L98.05 276.701H96.5V274.281H120.98Z" fill="#E6E6E6"/>
<path d="M114.778 227.211C113.238 215.911 97.9881 212.691 78.6381 212.271C60.2281 211.881 54.3281 205.371 54.3281 205.371C54.3281 205.371 54.3881 231.741 80.9181 241.301C106.108 250.361 116.328 238.531 114.778 227.211Z" fill="#E6E6E6"/>
<path d="M105.38 252.821C105.7 248.181 113.12 239.641 130.97 243.521C143.87 246.331 148.67 239.641 148.67 239.641C148.67 239.641 147.47 258.521 128.07 264.191C109.64 269.581 104.81 261.001 105.38 252.821Z" fill="#E6E6E6"/>
<path d="M109.446 281.401C109.547 281.402 109.646 281.381 109.738 281.34C109.829 281.298 109.911 281.237 109.976 281.161C111.266 279.631 110.206 275.971 108.746 270.901C106.866 264.401 104.526 256.301 106.506 250.431C107.604 247.33 108.886 244.298 110.346 241.351C113.146 235.431 115.566 230.351 113.546 224.971C113.515 224.886 113.466 224.807 113.404 224.74C113.342 224.673 113.268 224.619 113.185 224.582C113.102 224.544 113.012 224.523 112.921 224.52C112.83 224.517 112.739 224.532 112.654 224.564C112.568 224.597 112.49 224.646 112.424 224.709C112.358 224.771 112.305 224.847 112.268 224.93C112.231 225.013 112.211 225.103 112.209 225.194C112.207 225.286 112.223 225.376 112.256 225.461C114.066 230.251 111.876 234.891 109.096 240.771C107.617 243.766 106.315 246.844 105.196 249.991C103.086 256.271 105.486 264.601 107.416 271.281C108.556 275.281 109.736 279.281 108.926 280.281C108.862 280.35 108.813 280.432 108.782 280.521C108.751 280.61 108.738 280.705 108.746 280.799C108.753 280.893 108.78 280.984 108.825 281.067C108.87 281.15 108.932 281.223 109.006 281.281C109.134 281.372 109.29 281.415 109.446 281.401Z" fill="#E6E6E6"/>
<path d="M249.999 427.562C357.082 427.562 443.889 422.494 443.889 416.242C443.889 409.99 357.082 404.922 249.999 404.922C142.917 404.922 56.1094 409.99 56.1094 416.242C56.1094 422.494 142.917 427.562 249.999 427.562Z" fill="#F5F5F5"/>
<path d="M249.958 361.05H107.957L100.188 132.68H242.188L249.958 361.05Z" fill="#0071B1"/>
<path d="M257.046 353.96H115.046L107.266 125.59H249.266L257.046 353.96Z" fill="#0071B1"/>
<path opacity="0.3" d="M257.046 353.96H115.046L107.266 125.59H249.266L257.046 353.96Z" fill="white"/>
<path d="M209.471 219.563C224.675 204.097 224.028 178.806 208.026 163.075C192.024 147.345 166.726 147.131 151.522 162.597C136.318 178.064 136.964 203.354 152.967 219.085C168.969 234.815 194.266 235.029 209.471 219.563Z" fill="#0071B1"/>
<path d="M213.467 191.091C213.672 196.532 212.484 201.936 210.017 206.791C207.354 212.022 203.287 216.408 198.27 219.457C193.254 222.506 187.487 224.097 181.617 224.051C175.609 224.018 169.715 222.406 164.527 219.377C159.339 216.348 155.038 212.007 152.057 206.791C149.277 202.011 147.725 196.617 147.537 191.091C147.353 186.806 148.041 182.528 149.561 178.517C151.081 174.507 153.4 170.847 156.378 167.761C159.356 164.674 162.931 162.225 166.884 160.563C170.838 158.901 175.088 158.06 179.377 158.091C188.212 158.153 196.684 161.617 203.032 167.762C209.381 173.907 213.118 182.262 213.467 191.091Z" fill="white"/>
<path opacity="0.6" d="M209.999 206.79C207.336 212.022 203.269 216.408 198.252 219.457C193.236 222.506 187.469 224.096 181.599 224.05C175.591 224.018 169.697 222.406 164.509 219.377C159.321 216.347 155.02 212.007 152.039 206.79C160.496 201.024 170.503 197.96 180.739 198C191.14 198.023 201.308 201.078 209.999 206.79Z" fill="#0071B1"/>
<path opacity="0.6" d="M190.767 190.267C196.358 184.579 196.12 175.28 190.236 169.495C184.352 163.711 175.05 163.632 169.459 169.32C163.868 175.007 164.106 184.306 169.99 190.091C175.874 195.875 185.176 195.954 190.767 190.267Z" fill="#0071B1"/>
<path d="M228.518 271.262H137.938L137.328 253.262H227.908L228.518 271.262Z" fill="white"/>
<path d="M229.614 303.43H139.024L138.414 285.43H229.004L229.614 303.43Z" fill="white"/>
<path d="M194.654 287.91L172.824 290.91C172.616 290.934 172.415 291 172.234 291.105C172.052 291.21 171.895 291.352 171.771 291.521C171.647 291.69 171.559 291.883 171.513 292.088C171.468 292.292 171.464 292.504 171.504 292.71L174.374 307.34C174.468 307.769 174.72 308.148 175.079 308.401C175.438 308.655 175.878 308.765 176.314 308.71L198.144 305.71C198.352 305.684 198.552 305.615 198.733 305.508C198.913 305.401 199.069 305.259 199.192 305.089C199.315 304.919 199.401 304.726 199.447 304.522C199.492 304.317 199.494 304.105 199.454 303.9L196.594 289.27C196.5 288.841 196.249 288.463 195.89 288.212C195.53 287.96 195.089 287.852 194.654 287.91ZM188.384 302.73L184.384 303.26L183.994 298.54C183.582 298.362 183.219 298.087 182.935 297.739C182.652 297.391 182.456 296.979 182.364 296.54C182.291 296.199 182.29 295.847 182.361 295.506C182.432 295.165 182.574 294.843 182.778 294.56C182.981 294.277 183.242 294.04 183.543 293.864C183.844 293.689 184.178 293.578 184.524 293.54C185.235 293.448 185.953 293.627 186.539 294.04C187.124 294.453 187.533 295.07 187.684 295.77C187.771 296.192 187.745 296.631 187.608 297.04C187.471 297.449 187.228 297.814 186.904 298.1L188.384 302.73Z" fill="#0071B1"/>
<path d="M192.5 287.119C192.114 287.168 191.724 287.072 191.406 286.848C191.087 286.624 190.864 286.289 190.78 285.909L190.5 284.479C190.1 282.528 189.007 280.788 187.422 279.581C185.836 278.375 183.868 277.785 181.88 277.919C180.877 277.977 179.898 278.249 179.01 278.718C178.122 279.187 177.345 279.842 176.732 280.638C176.119 281.433 175.685 282.352 175.458 283.331C175.232 284.309 175.219 285.325 175.42 286.309L175.74 287.959C175.777 288.142 175.776 288.331 175.736 288.513C175.696 288.695 175.619 288.867 175.509 289.018C175.399 289.169 175.258 289.295 175.097 289.388C174.935 289.481 174.756 289.539 174.57 289.559C174.183 289.613 173.791 289.518 173.471 289.294C173.152 289.069 172.93 288.732 172.85 288.349L172.58 286.959C172.306 285.66 172.296 284.319 172.553 283.016C172.81 281.714 173.328 280.476 174.075 279.379C174.822 278.281 175.784 277.346 176.902 276.63C178.02 275.913 179.271 275.43 180.58 275.209C183.419 274.733 186.333 275.367 188.716 276.982C191.099 278.596 192.77 281.066 193.38 283.879L193.7 285.519C193.737 285.704 193.735 285.895 193.694 286.08C193.652 286.264 193.572 286.437 193.459 286.588C193.345 286.739 193.201 286.865 193.036 286.956C192.871 287.048 192.688 287.103 192.5 287.119Z" fill="#0071B1"/>
<path d="M214.665 328.638H155.695L155.305 316.918H214.265L214.665 328.638Z" fill="#0071B1"/>
<path d="M186.218 262.259C186.235 262.686 186.166 263.113 186.014 263.513C185.862 263.913 185.63 264.277 185.332 264.585C185.035 264.893 184.678 265.137 184.284 265.302C183.889 265.468 183.465 265.552 183.038 265.549C182.156 265.542 181.31 265.197 180.676 264.585C180.041 263.972 179.666 263.14 179.628 262.259C179.61 261.831 179.679 261.405 179.832 261.005C179.984 260.605 180.216 260.24 180.513 259.933C180.81 259.625 181.167 259.381 181.561 259.215C181.956 259.05 182.38 258.966 182.808 258.969C183.69 258.973 184.537 259.318 185.172 259.93C185.807 260.543 186.182 261.377 186.218 262.259Z" fill="#263238"/>
<path d="M171.997 262.259C172.016 262.687 171.947 263.114 171.796 263.514C171.644 263.915 171.412 264.28 171.115 264.588C170.817 264.896 170.46 265.14 170.065 265.305C169.67 265.47 169.245 265.553 168.817 265.549C167.936 265.542 167.092 265.196 166.459 264.584C165.826 263.971 165.453 263.139 165.417 262.259C165.399 261.831 165.469 261.405 165.621 261.005C165.773 260.605 166.005 260.24 166.302 259.933C166.599 259.625 166.956 259.381 167.35 259.215C167.745 259.05 168.169 258.966 168.597 258.969C169.478 258.973 170.324 259.318 170.957 259.931C171.591 260.544 171.963 261.378 171.997 262.259Z" fill="#263238"/>
<path d="M157.864 262.259C157.882 262.686 157.812 263.113 157.66 263.513C157.508 263.913 157.276 264.277 156.979 264.585C156.681 264.893 156.325 265.137 155.93 265.302C155.536 265.468 155.112 265.552 154.684 265.549C153.802 265.544 152.957 265.2 152.323 264.587C151.69 263.974 151.317 263.14 151.284 262.259C151.266 261.831 151.336 261.405 151.488 261.005C151.64 260.605 151.872 260.24 152.169 259.933C152.466 259.625 152.823 259.381 153.218 259.215C153.612 259.05 154.036 258.966 154.464 258.969C155.345 258.973 156.191 259.318 156.825 259.931C157.458 260.544 157.83 261.378 157.864 262.259Z" fill="#263238"/>
<path d="M200.387 262.26C200.404 262.688 200.335 263.114 200.183 263.514C200.031 263.914 199.799 264.279 199.501 264.587C199.204 264.894 198.847 265.138 198.453 265.304C198.058 265.47 197.634 265.553 197.207 265.55C196.325 265.546 195.479 265.201 194.846 264.588C194.212 263.975 193.84 263.141 193.807 262.26C193.792 261.834 193.863 261.409 194.018 261.012C194.172 260.614 194.405 260.252 194.703 259.947C195.002 259.642 195.359 259.401 195.753 259.238C196.147 259.076 196.57 258.995 196.997 259C197.871 259.007 198.71 259.349 199.341 259.955C199.971 260.561 200.346 261.386 200.387 262.26Z" fill="#263238"/>
<path d="M214.559 262.259C214.578 262.687 214.51 263.114 214.358 263.514C214.207 263.915 213.975 264.28 213.677 264.588C213.38 264.896 213.022 265.14 212.627 265.305C212.232 265.47 211.807 265.553 211.379 265.549C210.498 265.542 209.654 265.196 209.021 264.584C208.388 263.971 208.015 263.139 207.979 262.259C207.962 261.831 208.031 261.405 208.183 261.005C208.335 260.605 208.567 260.24 208.864 259.933C209.162 259.625 209.518 259.381 209.913 259.215C210.307 259.05 210.731 258.966 211.159 258.969C212.041 258.973 212.886 259.318 213.52 259.931C214.153 260.544 214.526 261.378 214.559 262.259Z" fill="#263238"/>
<path d="M333.911 174.281C335.241 176.421 336.351 178.461 337.491 180.591C338.631 182.721 339.661 184.861 340.671 187.051C342.732 191.486 344.437 196.077 345.771 200.781C345.951 201.371 346.081 202.001 346.231 202.611L346.451 203.541L346.561 204.001L346.691 204.761C346.917 206.485 346.812 208.237 346.381 209.921C345.691 212.537 344.641 215.044 343.261 217.371C340.793 221.6 337.811 225.507 334.381 229.001L330.171 225.821C332.284 221.937 334.164 217.929 335.801 213.821C336.53 212.011 337.044 210.121 337.331 208.191C337.423 207.602 337.396 207 337.251 206.421L336.851 205.201C336.691 204.701 336.541 204.201 336.351 203.691C334.83 199.566 333.071 195.532 331.081 191.611C329.081 187.611 326.931 183.611 324.781 179.791L333.911 174.281Z" fill="#FF8B7B"/>
<path d="M331.241 224.43L326.641 226.86L331.921 233.04C331.921 233.04 335.221 230.81 335.371 227.41L331.241 224.43Z" fill="#FF8B7B"/>
<path d="M320.469 230.669L326.119 235.159L331.919 233.039L326.639 226.859L320.469 230.669Z" fill="#FF8B7B"/>
<path d="M301.146 141.562C301.036 142.122 300.646 142.512 300.286 142.442C299.926 142.372 299.716 141.852 299.826 141.302C299.936 140.752 300.326 140.302 300.696 140.422C301.066 140.542 301.256 141.002 301.146 141.562Z" fill="#263238"/>
<path d="M300.698 142.52C299.691 144.086 298.473 145.506 297.078 146.74C297.408 147.081 297.807 147.347 298.249 147.52C298.691 147.692 299.165 147.767 299.638 147.74L300.698 142.52Z" fill="#FF5652"/>
<path d="M298.898 162.142V155.582L307.578 156.582C307.578 156.582 307.438 162.222 302.578 163.882L298.898 162.142Z" fill="#FF8B7B"/>
<path d="M301.397 150.859L307.508 152.619L307.617 156.629L298.938 155.579L301.397 150.859Z" fill="#FF8B7B"/>
<path opacity="0.2" d="M307.511 152.619L301.401 150.859L300.211 153.139C300.276 154.936 300.837 156.679 301.833 158.176C302.828 159.673 304.219 160.865 305.851 161.619C306.901 160.153 307.514 158.42 307.621 156.619L307.511 152.619Z" fill="black"/>
<path d="M303.81 138.89C303.874 138.888 303.936 138.868 303.99 138.833C304.043 138.797 304.085 138.747 304.111 138.689C304.137 138.63 304.146 138.565 304.137 138.502C304.128 138.438 304.101 138.379 304.06 138.33C303.709 137.933 303.267 137.626 302.773 137.435C302.279 137.244 301.747 137.173 301.22 137.23C301.134 137.245 301.057 137.293 301.006 137.364C300.956 137.435 300.935 137.524 300.95 137.61C300.965 137.697 301.012 137.774 301.083 137.827C301.154 137.879 301.243 137.902 301.33 137.89C301.747 137.849 302.168 137.908 302.558 138.063C302.947 138.218 303.294 138.464 303.57 138.78C303.601 138.813 303.638 138.84 303.679 138.859C303.72 138.878 303.765 138.889 303.81 138.89Z" fill="#263238"/>
<path d="M316.593 151.68C315.593 156.83 314.973 163.96 318.593 167.39C318.593 167.39 317.193 172.61 307.593 172.61C297.083 172.61 302.543 168.03 302.543 168.03C306.913 166.67 306.873 161.7 305.873 157.7L316.593 151.68Z" fill="#FF8B7B"/>
<path d="M320.537 170.832C321.477 169.512 321.437 165.322 320.437 164.582C318.827 163.392 311.917 163.112 302.627 165.252C303.627 169.312 301.477 171.432 301.477 171.432L320.537 170.832Z" fill="#0071B1"/>
<path d="M351.797 408.242C351.512 408.342 351.209 408.385 350.907 408.368C350.605 408.351 350.309 408.274 350.037 408.142C349.934 408.046 349.863 407.92 349.835 407.782C349.806 407.644 349.821 407.501 349.877 407.372C349.909 407.263 349.963 407.164 350.038 407.079C350.112 406.994 350.204 406.927 350.307 406.882C351.257 406.422 353.437 407.312 353.537 407.352C353.567 407.364 353.592 407.384 353.61 407.411C353.628 407.438 353.637 407.469 353.637 407.502C353.637 407.534 353.628 407.565 353.613 407.593C353.597 407.621 353.574 407.645 353.547 407.662C352.983 407.909 352.397 408.104 351.797 408.242ZM350.647 407.112C350.581 407.127 350.517 407.151 350.457 407.182C350.395 407.204 350.339 407.242 350.293 407.29C350.248 407.339 350.215 407.398 350.197 407.462C350.107 407.762 350.197 407.862 350.257 407.892C350.637 408.212 352.037 407.892 353.027 407.522C352.274 407.21 351.461 407.07 350.647 407.112Z" fill="#0071B1"/>
<path d="M353.506 407.672H353.426C352.626 407.442 350.926 406.232 350.906 405.442C350.906 405.317 350.948 405.195 351.026 405.096C351.104 404.998 351.214 404.93 351.336 404.902C351.455 404.858 351.582 404.84 351.708 404.851C351.834 404.861 351.957 404.899 352.066 404.962C353.006 405.442 353.606 407.382 353.626 407.472C353.64 407.496 353.648 407.524 353.648 407.552C353.648 407.58 353.64 407.608 353.626 407.632C353.611 407.648 353.592 407.66 353.571 407.666C353.55 407.673 353.528 407.675 353.506 407.672ZM351.506 405.182H351.426C351.226 405.252 351.226 405.352 351.226 405.402C351.226 405.872 352.366 406.822 353.226 407.202C353.016 406.642 352.556 405.532 351.946 405.202C351.811 405.141 351.657 405.133 351.516 405.182H351.506Z" fill="#0071B1"/>
<path d="M299.856 409.42C298.956 409.42 298.086 409.29 297.796 408.89C297.72 408.784 297.68 408.656 297.68 408.525C297.68 408.394 297.72 408.267 297.796 408.16C297.853 408.062 297.93 407.977 298.021 407.91C298.112 407.843 298.216 407.796 298.326 407.77C299.496 407.45 301.956 408.85 302.056 408.91C302.087 408.925 302.112 408.95 302.126 408.981C302.141 409.012 302.144 409.047 302.136 409.08C302.132 409.114 302.118 409.146 302.094 409.172C302.071 409.197 302.04 409.214 302.006 409.22C301.297 409.35 300.577 409.417 299.856 409.42ZM298.746 408.05C298.64 408.033 298.532 408.033 298.426 408.05C298.358 408.064 298.294 408.092 298.238 408.131C298.181 408.171 298.133 408.221 298.096 408.28C297.976 408.49 298.026 408.59 298.096 408.65C298.426 409.11 300.196 409.12 301.506 408.93C300.651 408.463 299.714 408.164 298.746 408.05Z" fill="#0071B1"/>
<path d="M302.001 409.219H301.931C301.081 408.839 299.401 407.319 299.531 406.519C299.531 406.329 299.691 406.099 300.151 406.059C300.315 406.04 300.482 406.055 300.64 406.103C300.798 406.151 300.945 406.231 301.071 406.339C301.711 407.105 302.096 408.053 302.171 409.049C302.17 409.078 302.164 409.106 302.152 409.132C302.14 409.157 302.122 409.18 302.101 409.199C302.07 409.215 302.035 409.222 302.001 409.219ZM300.281 406.369H300.181C299.881 406.369 299.861 406.509 299.861 406.549C299.781 407.029 300.921 408.229 301.791 408.749C301.714 407.946 301.389 407.188 300.861 406.579C300.696 406.439 300.486 406.364 300.271 406.369H300.281Z" fill="#0071B1"/>
<path d="M309.722 409.06H302.692L301.992 392.77H309.022L309.722 409.06Z" fill="#FF8B7B"/>
<path d="M361.35 405.799L354.48 407.289L347.57 392.119L354.45 390.629L361.35 405.799Z" fill="#FF8B7B"/>
<path d="M353.808 406.601L361.539 404.931C361.674 404.903 361.814 404.921 361.938 404.982C362.061 405.044 362.16 405.146 362.218 405.271L364.898 411.091C364.97 411.232 365.007 411.388 365.006 411.546C365.006 411.704 364.968 411.859 364.896 412C364.824 412.14 364.719 412.262 364.591 412.354C364.463 412.447 364.315 412.507 364.159 412.531C361.459 413.061 360.108 413.191 356.718 413.921C354.628 414.381 349.908 415.531 347.018 416.151C344.128 416.771 343.138 414.001 344.268 413.491C349.318 411.181 351.419 409.151 352.789 407.261C353.036 406.924 353.399 406.689 353.808 406.601Z" fill="#263238"/>
<path d="M302.74 408.242H310.42C310.559 408.243 310.694 408.291 310.803 408.378C310.912 408.465 310.988 408.586 311.02 408.722L312.41 414.972C312.451 415.123 312.455 415.282 312.424 415.435C312.392 415.588 312.325 415.732 312.228 415.854C312.13 415.977 312.006 416.075 311.864 416.141C311.722 416.206 311.566 416.238 311.41 416.232C308.64 416.182 304.64 416.022 301.16 416.022C297.08 416.022 293.57 416.242 288.79 416.242C285.9 416.242 285.1 413.322 286.31 413.052C291.81 411.852 296.31 411.722 301.06 408.792C301.559 408.458 302.14 408.268 302.74 408.242Z" fill="#263238"/>
<path d="M331.167 169.002C337.757 170.512 343.167 187.342 343.167 187.342L329.997 197.412C326.578 193.757 324.166 189.277 322.997 184.412C320.667 175.592 324.427 167.442 331.167 169.002Z" fill="#0071B1"/>
<path opacity="0.4" d="M331.167 169.002C337.757 170.512 343.167 187.342 343.167 187.342L329.997 197.412C326.578 193.757 324.166 189.277 322.997 184.412C320.667 175.592 324.427 167.442 331.167 169.002Z" fill="black"/>
<path d="M296.5 189.072C294.86 190.842 293.22 192.422 291.5 194.072C290.65 194.872 289.79 195.672 288.91 196.442L287.58 197.612L287.25 197.902L286.68 198.362C286.093 198.831 285.443 199.215 284.75 199.502C283.978 199.83 283.148 200 282.31 200.002C281.593 200.005 280.882 199.88 280.21 199.632C279.464 199.348 278.784 198.916 278.21 198.362C277.477 197.646 276.94 196.755 276.65 195.772C276.498 195.288 276.4 194.788 276.36 194.282C276.307 193.69 276.307 193.095 276.36 192.502C276.41 192.022 276.47 191.602 276.55 191.212C276.823 189.849 277.211 188.511 277.71 187.212C278.159 185.978 278.677 184.77 279.26 183.592C279.9 182.322 280.51 181.392 281.12 180.332C283.597 176.274 286.425 172.439 289.57 168.872C292.683 165.327 296.114 162.073 299.82 159.152L303.5 162.942C300.92 166.402 298.38 170.112 296.03 173.762C293.691 177.392 291.554 181.147 289.63 185.012C289.2 185.952 288.63 187.012 288.36 187.772C288.002 188.655 287.691 189.556 287.43 190.472C287.178 191.297 286.987 192.139 286.86 192.992C286.853 193.126 286.853 193.259 286.86 193.392C286.86 193.472 286.86 193.512 286.86 193.302C286.843 193.078 286.8 192.856 286.73 192.642C286.513 191.933 286.117 191.293 285.58 190.782C285.101 190.343 284.54 190.003 283.93 189.782C283.393 189.579 282.824 189.474 282.25 189.472C281.698 189.466 281.15 189.571 280.64 189.782C280.467 189.853 280.3 189.936 280.14 190.032L280.52 189.682L281.73 188.582L284.12 186.342C285.7 184.852 287.29 183.262 288.79 181.782L296.5 189.072Z" fill="#FF8B7B"/>
<path opacity="0.2" d="M325.522 181.359C329.102 184.899 330.272 191.359 330.522 196.959L329.942 197.409C326.523 193.754 324.111 189.275 322.942 184.409C322.812 183.889 322.692 183.409 322.602 182.839L325.522 181.359Z" fill="black"/>
<path d="M289.508 176.002C288.068 183.602 287.168 199.212 291.338 230.112H328.998C329.258 224.342 325.628 196.162 331.198 168.952C327.037 168.153 322.828 167.622 318.598 167.362C313.269 167.056 307.927 167.056 302.598 167.362C300.838 167.522 299.098 167.782 297.598 168.052C295.603 168.402 293.762 169.349 292.317 170.769C290.872 172.189 289.893 174.014 289.508 176.002Z" fill="#0071B1"/>
<path opacity="0.4" d="M289.508 176.002C288.068 183.602 287.168 199.212 291.338 230.112H328.998C329.258 224.342 325.628 196.162 331.198 168.952C327.037 168.153 322.828 167.622 318.598 167.362C313.269 167.056 307.927 167.056 302.598 167.362C300.838 167.522 299.098 167.782 297.598 168.052C295.603 168.402 293.762 169.349 292.317 170.769C290.872 172.189 289.893 174.014 289.508 176.002Z" fill="black"/>
<path opacity="0.2" d="M295.269 187.271L288.469 185.641C288.259 189.761 288.239 194.861 288.539 201.171C291.669 197.611 295.669 192.051 295.269 187.271Z" fill="black"/>
<path opacity="0.2" d="M301.992 392.77L302.352 401.17H309.392L309.032 392.77H301.992Z" fill="black"/>
<path opacity="0.2" d="M354.45 390.629L347.57 392.119L351.13 399.939L358.01 398.449L354.45 390.629Z" fill="black"/>
<path d="M319.933 144.161C318.133 150.901 317.413 154.941 313.253 157.741C307.003 162.001 299.203 157.121 299.003 150.001C298.783 143.571 301.773 133.621 309.003 132.261C310.592 131.963 312.231 132.074 313.765 132.584C315.299 133.095 316.677 133.987 317.771 135.178C318.864 136.368 319.637 137.818 320.015 139.389C320.393 140.961 320.365 142.603 319.933 144.161Z" fill="#FF8B7B"/>
<path d="M304.147 144.412C303.807 143.512 302.257 136.542 303.717 134.732C305.177 132.922 321.827 134.232 324.287 136.652C328.377 140.652 325.537 144.252 321.067 148.882C317.707 152.362 317.577 156.282 315.877 156.882C312.877 157.882 308.297 156.942 307.377 153.772C306.457 150.602 304.147 144.412 304.147 144.412Z" fill="#263238"/>
<path d="M322.266 128.721C316.386 126.221 305.356 128.991 299.396 127.551C299.32 129.767 300.049 131.936 301.448 133.656C302.847 135.377 304.821 136.533 307.006 136.911C311.95 137.853 316.973 138.318 322.006 138.301C328.546 138.001 327.266 130.851 322.266 128.721Z" fill="#263238"/>
<path d="M323.188 136.862C325.335 137.073 327.499 136.66 329.418 135.672C330.518 138.332 324.467 139.062 323.188 136.862Z" fill="#263238"/>
<path d="M307.349 144.69C307.214 146.425 306.511 148.066 305.349 149.36C303.809 151.05 302.209 149.99 301.939 147.94C301.699 146.08 302.199 142.94 304.079 142.04C305.959 141.14 307.479 142.6 307.349 144.69Z" fill="#FF8B7B"/>
<path d="M304.688 230.141C304.688 230.141 312.687 283.891 317.057 304.031C321.847 326.081 347.587 399.031 347.587 399.031L360.177 396.301C360.177 396.301 342.177 336.841 338.177 306.011C335.077 282.331 328.987 230.121 328.987 230.121L304.688 230.141Z" fill="#0071B1"/>
<path d="M344.571 394.84C344.521 394.84 346.921 399.4 346.921 399.4L361.081 396.33L359.891 392.07L344.571 394.84Z" fill="#263238"/>
<path opacity="0.3" d="M309.736 249.29C318.966 251.1 317.986 285.52 316.876 303.23C314.216 290.71 310.316 266.63 307.656 249.54C308.301 249.222 309.035 249.134 309.736 249.29Z" fill="black"/>
<path d="M291.338 230.142C291.338 230.142 290.338 282.732 291.138 304.142C291.938 326.452 299.728 399.502 299.728 399.502H311.648C311.648 399.502 312.078 327.752 312.648 305.842C313.228 281.962 316.108 230.102 316.108 230.102L291.338 230.142Z" fill="#0071B1"/>
<path d="M297.441 394.801C297.381 394.801 298.111 399.741 298.111 399.741H312.601L313.001 395.331L297.441 394.801Z" fill="#263238"/>
<path d="M304.247 178.339C307.617 187.429 287.807 198.139 287.807 198.139L279.227 187.139C279.227 187.139 284.997 175.719 291.997 170.579C300.647 164.239 301.677 171.419 304.247 178.339Z" fill="#0071B1"/>
<path opacity="0.4" d="M304.247 178.339C307.617 187.429 287.807 198.139 287.807 198.139L279.227 187.139C279.227 187.139 284.997 175.719 291.997 170.579C300.647 164.239 301.677 171.419 304.247 178.339Z" fill="black"/>
<path d="M381.871 109.328C401.803 109.328 417.961 99.0307 417.961 86.3281C417.961 73.6256 401.803 63.3281 381.871 63.3281C361.939 63.3281 345.781 73.6256 345.781 86.3281C345.781 99.0307 361.939 109.328 381.871 109.328Z" fill="#0071B1"/>
<path d="M368.85 97.9101C366.473 97.9024 364.174 97.0571 362.358 95.5227C360.542 93.9883 359.325 91.8629 358.92 89.5201C358.522 86.9823 359.095 84.3879 360.524 82.2531C361.952 80.1184 364.132 78.6 366.63 78.0001C368.68 77.5278 370.826 77.7098 372.767 78.5206C374.708 79.3314 376.346 80.7301 377.45 82.5201L400.62 77.7401C401.511 77.5451 402.442 77.6931 403.228 78.1547C404.014 78.6163 404.597 79.3575 404.86 80.2301C404.981 80.6889 405.008 81.1676 404.938 81.6369C404.868 82.1062 404.703 82.5564 404.453 82.9598C404.203 83.3632 403.873 83.7114 403.484 83.9831C403.095 84.2548 402.655 84.4443 402.19 84.5401L401.59 84.6601C401.501 84.6761 401.417 84.7123 401.344 84.7661C401.271 84.8199 401.212 84.8897 401.17 84.9701C401.133 85.0518 401.114 85.1404 401.114 85.2301C401.114 85.3198 401.133 85.4084 401.17 85.4901L401.58 86.5501C401.718 86.8937 401.731 87.2744 401.618 87.6267C401.504 87.979 401.272 88.2808 400.96 88.4801C400.714 88.632 400.506 88.8379 400.352 89.0822C400.198 89.3266 400.102 89.6029 400.07 89.8901C400.041 90.2197 399.908 90.5317 399.691 90.7813C399.473 91.0309 399.183 91.2055 398.86 91.2801L398.39 91.3801C398.064 91.4403 397.728 91.3952 397.429 91.2514C397.131 91.1075 396.886 90.8724 396.73 90.5801C396.523 90.2313 396.211 89.956 395.84 89.7925C395.468 89.629 395.055 89.5855 394.658 89.6681C394.26 89.7506 393.899 89.9551 393.623 90.253C393.347 90.551 393.172 90.9275 393.12 91.3301C393.092 91.6576 392.961 91.9678 392.745 92.2159C392.53 92.464 392.241 92.637 391.92 92.7101L391.45 92.8101C391.124 92.8687 390.789 92.8229 390.49 92.6792C390.192 92.5356 389.947 92.3014 389.79 92.0101C389.64 91.7621 389.439 91.5496 389.199 91.3873C388.959 91.225 388.686 91.1167 388.4 91.0701C388.016 91.0238 387.661 90.8388 387.403 90.5497C387.146 90.2606 387.002 89.8874 387 89.5001V88.3601C386.996 88.2709 386.973 88.1836 386.932 88.1043C386.891 88.0249 386.834 87.9553 386.763 87.9003C386.693 87.8452 386.612 87.8059 386.525 87.7852C386.438 87.7645 386.348 87.7627 386.26 87.7801L378.87 89.3001C378.569 91.3474 377.644 93.2522 376.221 94.7552C374.799 96.2582 372.948 97.2865 370.92 97.7001C370.239 97.8394 369.545 97.9097 368.85 97.9101ZM366.85 78.9101C364.582 79.4399 362.599 80.8094 361.3 82.7428C360.001 84.6762 359.483 87.03 359.85 89.3301C360.243 91.47 361.39 93.3984 363.081 94.7666C364.773 96.1348 366.898 96.8524 369.073 96.7896C371.248 96.7268 373.328 95.8877 374.938 94.4241C376.548 92.9605 377.581 90.9691 377.85 88.8101V88.4501L386 86.8001C386.234 86.7435 386.477 86.7397 386.713 86.789C386.948 86.8383 387.17 86.9393 387.361 87.0849C387.553 87.2304 387.71 87.4168 387.82 87.6304C387.931 87.8441 387.992 88.0797 388 88.3201V89.4601C388.002 89.5958 388.051 89.7266 388.139 89.8304C388.226 89.9343 388.347 90.0048 388.48 90.0301C388.917 90.0927 389.334 90.254 389.7 90.5018C390.066 90.7495 390.37 91.0772 390.59 91.4601C390.643 91.568 390.728 91.6568 390.834 91.7141C390.94 91.7714 391.061 91.7945 391.18 91.7801L391.64 91.6801C391.757 91.6501 391.861 91.5833 391.936 91.4896C392.012 91.3959 392.055 91.2804 392.06 91.1601C392.123 90.5376 392.383 89.9512 392.801 89.4857C393.219 89.0203 393.774 88.6998 394.386 88.5707C394.999 88.4416 395.636 88.5105 396.207 88.7674C396.777 89.0244 397.251 89.456 397.56 90.0001C397.611 90.1072 397.695 90.1956 397.799 90.253C397.903 90.3103 398.022 90.3338 398.14 90.3201L398.62 90.2201C398.735 90.1883 398.837 90.1207 398.91 90.0272C398.984 89.9337 399.026 89.8191 399.03 89.7001C399.08 89.261 399.229 88.8391 399.466 88.4665C399.704 88.0938 400.023 87.7804 400.4 87.5501C400.51 87.4706 400.591 87.3566 400.629 87.2262C400.667 87.0957 400.66 86.9563 400.61 86.8301L400.2 85.7701C400.115 85.5515 400.079 85.3171 400.095 85.0832C400.11 84.8493 400.176 84.6216 400.288 84.4159C400.401 84.2102 400.557 84.0315 400.745 83.8923C400.934 83.7531 401.15 83.6568 401.38 83.6101L401.99 83.4801C402.32 83.4097 402.633 83.2734 402.909 83.0795C403.185 82.8855 403.42 82.6378 403.598 82.3512C403.776 82.0646 403.895 81.745 403.947 81.4114C403.999 81.0779 403.983 80.7373 403.9 80.4101C403.705 79.7808 403.279 79.2485 402.708 78.9202C402.136 78.5919 401.462 78.4919 400.82 78.6401L377 83.5901L376.82 83.2801C375.863 81.5763 374.377 80.2304 372.588 79.4456C370.798 78.6609 368.802 78.4799 366.9 78.9301L366.85 78.9101ZM368.85 94.1901C367.608 94.2039 366.389 93.8565 365.34 93.1901C364.1 92.376 363.181 91.157 362.739 89.7409C362.297 88.3248 362.36 86.7994 362.917 85.4245C363.474 84.0497 364.491 82.9106 365.794 82.2015C367.097 81.4924 368.605 81.2571 370.062 81.5358C371.519 81.8145 372.834 82.5898 373.784 83.7297C374.733 84.8696 375.258 86.3035 375.268 87.7868C375.278 89.2702 374.774 90.7112 373.841 91.8643C372.907 93.0174 371.603 93.8111 370.15 94.1101C369.725 94.1871 369.292 94.2206 368.86 94.2101L368.85 94.1901ZM368.85 82.3801C368.478 82.3822 368.106 82.419 367.74 82.4901C367.044 82.6385 366.383 82.9226 365.796 83.3263C365.209 83.73 364.708 84.2454 364.32 84.8429C363.932 85.4404 363.666 86.1085 363.537 86.8089C363.407 87.5093 363.417 88.2284 363.565 88.9251C363.714 89.6217 363.998 90.2824 364.401 90.8692C364.805 91.456 365.32 91.9576 365.918 92.3453C366.516 92.733 367.184 92.9992 367.884 93.1287C368.584 93.2582 369.304 93.2485 370 93.1001C371.046 92.8824 372.004 92.3599 372.753 91.5985C373.503 90.8372 374.01 89.871 374.211 88.8219C374.412 87.7727 374.298 86.6875 373.883 85.7031C373.468 84.7186 372.771 83.879 371.88 83.2901C370.995 82.7013 369.953 82.3913 368.89 82.4001L368.85 82.3801Z" fill="white"/>
<path opacity="0.6" d="M352.501 122.819C359.051 122.819 364.361 119.434 364.361 115.259C364.361 111.084 359.051 107.699 352.501 107.699C345.951 107.699 340.641 111.084 340.641 115.259C340.641 119.434 345.951 122.819 352.501 122.819Z" fill="#0071B1"/>
<path opacity="0.3" d="M333.628 125.919C336.317 125.919 338.498 124.531 338.498 122.819C338.498 121.107 336.317 119.719 333.628 119.719C330.938 119.719 328.758 121.107 328.758 122.819C328.758 124.531 330.938 125.919 333.628 125.919Z" fill="#0071B1"/>
</svg>
