<svg width="105" height="33" viewBox="0 0 105 33" fill="none" xmlns="http://www.w3.org/2000/svg">
<path d="M41.016 12.636V21H39.924V12.636H41.016ZM50.9251 14.304C51.4371 14.304 51.8931 14.412 52.2931 14.628C52.6931 14.836 53.0091 15.152 53.2411 15.576C53.4731 16 53.5891 16.516 53.5891 17.124V21H52.5091V17.28C52.5091 16.624 52.3451 16.124 52.0171 15.78C51.6971 15.428 51.2611 15.252 50.7091 15.252C50.1411 15.252 49.6891 15.436 49.3531 15.804C49.0171 16.164 48.8491 16.688 48.8491 17.376V21H47.7691V17.28C47.7691 16.624 47.6051 16.124 47.2771 15.78C46.9571 15.428 46.5211 15.252 45.9691 15.252C45.4011 15.252 44.9491 15.436 44.6131 15.804C44.2771 16.164 44.1091 16.688 44.1091 17.376V21H43.0171V14.424H44.1091V15.372C44.3251 15.028 44.6131 14.764 44.9731 14.58C45.3411 14.396 45.7451 14.304 46.1851 14.304C46.7371 14.304 47.2251 14.428 47.6491 14.676C48.0731 14.924 48.3891 15.288 48.5971 15.768C48.7811 15.304 49.0851 14.944 49.5091 14.688C49.9331 14.432 50.4051 14.304 50.9251 14.304ZM55.1124 17.688C55.1124 17.016 55.2484 16.428 55.5204 15.924C55.7924 15.412 56.1644 15.016 56.6364 14.736C57.1164 14.456 57.6484 14.316 58.2324 14.316C58.8084 14.316 59.3084 14.44 59.7324 14.688C60.1564 14.936 60.4724 15.248 60.6804 15.624V14.424H61.7844V21H60.6804V19.776C60.4644 20.16 60.1404 20.48 59.7084 20.736C59.2844 20.984 58.7884 21.108 58.2204 21.108C57.6364 21.108 57.1084 20.964 56.6364 20.676C56.1644 20.388 55.7924 19.984 55.5204 19.464C55.2484 18.944 55.1124 18.352 55.1124 17.688ZM60.6804 17.7C60.6804 17.204 60.5804 16.772 60.3804 16.404C60.1804 16.036 59.9084 15.756 59.5644 15.564C59.2284 15.364 58.8564 15.264 58.4484 15.264C58.0404 15.264 57.6684 15.36 57.3324 15.552C56.9964 15.744 56.7284 16.024 56.5284 16.392C56.3284 16.76 56.2284 17.192 56.2284 17.688C56.2284 18.192 56.3284 18.632 56.5284 19.008C56.7284 19.376 56.9964 19.66 57.3324 19.86C57.6684 20.052 58.0404 20.148 58.4484 20.148C58.8564 20.148 59.2284 20.052 59.5644 19.86C59.9084 19.66 60.1804 19.376 60.3804 19.008C60.5804 18.632 60.6804 18.196 60.6804 17.7ZM66.4818 14.316C67.0498 14.316 67.5458 14.44 67.9698 14.688C68.4018 14.936 68.7218 15.248 68.9298 15.624V14.424H70.0338V21.144C70.0338 21.744 69.9058 22.276 69.6498 22.74C69.3938 23.212 69.0258 23.58 68.5458 23.844C68.0738 24.108 67.5218 24.24 66.8898 24.24C66.0258 24.24 65.3058 24.036 64.7298 23.628C64.1538 23.22 63.8138 22.664 63.7098 21.96H64.7898C64.9098 22.36 65.1578 22.68 65.5338 22.92C65.9098 23.168 66.3618 23.292 66.8898 23.292C67.4898 23.292 67.9778 23.104 68.3538 22.728C68.7378 22.352 68.9298 21.824 68.9298 21.144V19.764C68.7138 20.148 68.3938 20.468 67.9698 20.724C67.5458 20.98 67.0498 21.108 66.4818 21.108C65.8978 21.108 65.3658 20.964 64.8858 20.676C64.4138 20.388 64.0418 19.984 63.7698 19.464C63.4978 18.944 63.3618 18.352 63.3618 17.688C63.3618 17.016 63.4978 16.428 63.7698 15.924C64.0418 15.412 64.4138 15.016 64.8858 14.736C65.3658 14.456 65.8978 14.316 66.4818 14.316ZM68.9298 17.7C68.9298 17.204 68.8298 16.772 68.6298 16.404C68.4298 16.036 68.1578 15.756 67.8138 15.564C67.4778 15.364 67.1058 15.264 66.6978 15.264C66.2898 15.264 65.9178 15.36 65.5818 15.552C65.2458 15.744 64.9778 16.024 64.7778 16.392C64.5778 16.76 64.4778 17.192 64.4778 17.688C64.4778 18.192 64.5778 18.632 64.7778 19.008C64.9778 19.376 65.2458 19.66 65.5818 19.86C65.9178 20.052 66.2898 20.148 66.6978 20.148C67.1058 20.148 67.4778 20.052 67.8138 19.86C68.1578 19.66 68.4298 19.376 68.6298 19.008C68.8298 18.632 68.9298 18.196 68.9298 17.7ZM78.0192 17.46C78.0192 17.668 78.0072 17.888 77.9832 18.12H72.7272C72.7672 18.768 72.9872 19.276 73.3872 19.644C73.7952 20.004 74.2872 20.184 74.8632 20.184C75.3352 20.184 75.7272 20.076 76.0392 19.86C76.3592 19.636 76.5832 19.34 76.7112 18.972H77.8872C77.7112 19.604 77.3592 20.12 76.8312 20.52C76.3032 20.912 75.6472 21.108 74.8632 21.108C74.2392 21.108 73.6792 20.968 73.1832 20.688C72.6952 20.408 72.3112 20.012 72.0312 19.5C71.7512 18.98 71.6112 18.38 71.6112 17.7C71.6112 17.02 71.7472 16.424 72.0192 15.912C72.2912 15.4 72.6712 15.008 73.1592 14.736C73.6552 14.456 74.2232 14.316 74.8632 14.316C75.4872 14.316 76.0392 14.452 76.5192 14.724C76.9992 14.996 77.3672 15.372 77.6232 15.852C77.8872 16.324 78.0192 16.86 78.0192 17.46ZM76.8912 17.232C76.8912 16.816 76.7992 16.46 76.6152 16.164C76.4312 15.86 76.1792 15.632 75.8592 15.48C75.5472 15.32 75.1992 15.24 74.8152 15.24C74.2632 15.24 73.7912 15.416 73.3992 15.768C73.0152 16.12 72.7952 16.608 72.7392 17.232H76.8912Z" fill="#292A32"/>
<rect x="0.5" y="0.5" width="104" height="32" rx="11.5" stroke="#C7C6C6"/>
<path d="M13.5556 24C13.1278 24 12.7614 23.8476 12.4566 23.5427C12.1517 23.2378 11.9995 22.8717 12 22.4444V11.5556C12 11.1278 12.1524 10.7614 12.4573 10.4566C12.7622 10.1517 13.1283 9.99948 13.5556 10H24.4444C24.8722 10 25.2386 10.1524 25.5434 10.4573C25.8483 10.7622 26.0005 11.1283 26 11.5556V22.4444C26 22.8722 25.8476 23.2386 25.5427 23.5434C25.2378 23.8483 24.8717 24.0005 24.4444 24H13.5556ZM14.3333 20.8889H23.6667L20.75 17L18.4167 20.1111L16.6667 17.7778L14.3333 20.8889Z" fill="#00658D"/>
</svg>
