<svg width="127" height="127" viewBox="0 0 127 127" fill="none" xmlns="http://www.w3.org/2000/svg">
<path d="M74.2083 42.3346V31.7513C74.2083 28.9444 73.0933 26.2525 71.1085 24.2678C69.1238 22.283 66.4319 21.168 63.625 21.168H26.5833C23.7765 21.168 21.0845 22.283 19.0998 24.2678C17.115 26.2525 16 28.9444 16 31.7513V95.2513C16 98.0582 17.115 100.75 19.0998 102.735C21.0845 104.72 23.7765 105.835 26.5833 105.835H63.625C66.4319 105.835 69.1238 104.72 71.1085 102.735C73.0933 100.75 74.2083 98.0582 74.2083 95.2513V84.668" stroke="#0071B1" stroke-width="5" stroke-linecap="round" stroke-linejoin="round"/>
<path d="M47.75 63.5H111.25M111.25 63.5L95.375 47.625M111.25 63.5L95.375 79.375" stroke="#0071B1" stroke-width="5" stroke-linecap="round" stroke-linejoin="round"/>
</svg>
