<svg width="218" height="60" viewBox="0 0 218 60" fill="none" xmlns="http://www.w3.org/2000/svg">
<rect y="4.15234" width="5.53886" height="55.3886" rx="2.76943" fill="black"/>
<rect x="22.1562" y="4.15234" width="5.53886" height="55.3886" rx="2.76943" fill="black"/>
<rect x="44.3125" y="4.15234" width="5.53886" height="55.3886" rx="2.76943" fill="black"/>
<rect x="11.0781" width="5.53886" height="55.3886" rx="2.76943" fill="#00658D"/>
<rect x="33.2344" width="5.53886" height="55.3886" rx="2.76943" fill="#00658D"/>
<path d="M57.8792 44.4905C57.0761 44.4905 56.4529 44.2689 56.0098 43.8258C55.5944 43.3827 55.3867 42.7457 55.3867 41.9149V17.1977C55.3867 16.3392 55.5944 15.6884 56.0098 15.2453C56.4529 14.7745 57.0207 14.5391 57.713 14.5391C58.35 14.5391 58.8208 14.6637 59.1255 14.9129C59.4578 15.1345 59.8455 15.5222 60.2886 16.0761L76.199 36.7222H75.1189V17.0731C75.1189 16.27 75.3266 15.6468 75.742 15.2037C76.1852 14.7606 76.8083 14.5391 77.6114 14.5391C78.4145 14.5391 79.0238 14.7606 79.4392 15.2037C79.8546 15.6468 80.0624 16.27 80.0624 17.0731V41.998C80.0624 42.7734 79.8685 43.3827 79.4808 43.8258C79.0931 44.2689 78.5669 44.4905 77.9022 44.4905C77.2652 44.4905 76.7529 44.3658 76.3652 44.1166C76.0051 43.8673 75.6036 43.4658 75.1605 42.9119L59.2916 22.2658H60.3302V41.9149C60.3302 42.7457 60.1224 43.3827 59.707 43.8258C59.2916 44.2689 58.6823 44.4905 57.8792 44.4905Z" fill="#00658D"/>
<path d="M95.9747 44.5736C93.6761 44.5736 91.6959 44.1443 90.0343 43.2858C88.3726 42.4272 87.0848 41.2087 86.1709 39.6301C85.2847 38.0515 84.8416 36.1822 84.8416 34.022C84.8416 31.9172 85.2708 30.0756 86.1294 28.497C87.0156 26.9184 88.2203 25.686 89.7435 24.7998C91.2943 23.8859 93.0529 23.4289 95.0192 23.4289C96.4593 23.4289 97.7471 23.6643 98.8826 24.1351C100.046 24.6059 101.029 25.2845 101.832 26.1707C102.663 27.0569 103.286 28.137 103.701 29.4109C104.145 30.6572 104.366 32.0696 104.366 33.6481C104.366 34.1466 104.186 34.5344 103.826 34.8113C103.494 35.0606 103.009 35.1852 102.372 35.1852H89.0373V32.1942H100.71L100.046 32.8173C100.046 31.5434 99.8519 30.4771 99.4642 29.6186C99.1041 28.7601 98.5641 28.1093 97.8441 27.6662C97.1517 27.1954 96.2793 26.96 95.2269 26.96C94.0638 26.96 93.0668 27.2369 92.236 27.7908C91.4328 28.317 90.8097 29.0786 90.3666 30.0756C89.9512 31.0449 89.7435 32.208 89.7435 33.5651V33.8559C89.7435 36.1268 90.2697 37.83 91.322 38.9655C92.4021 40.0732 93.9807 40.6271 96.0578 40.6271C96.7778 40.6271 97.581 40.544 98.4672 40.3779C99.3811 40.184 100.24 39.8655 101.043 39.4224C101.624 39.0901 102.137 38.9516 102.58 39.007C103.023 39.0347 103.369 39.187 103.618 39.4639C103.895 39.7409 104.061 40.0871 104.117 40.5025C104.172 40.8902 104.089 41.2918 103.868 41.7072C103.674 42.1226 103.328 42.4826 102.829 42.7873C101.86 43.3965 100.738 43.8535 99.4642 44.1581C98.2179 44.4351 97.0548 44.5736 95.9747 44.5736Z" fill="#00658D"/>
<path d="M117.702 44.5736C115.902 44.5736 114.393 44.2689 113.174 43.6596C111.984 43.0504 111.097 42.1641 110.516 41.001C109.934 39.8101 109.643 38.3423 109.643 36.5976V27.7493H107.483C106.819 27.7493 106.306 27.5831 105.946 27.2508C105.586 26.8907 105.406 26.4061 105.406 25.7968C105.406 25.1598 105.586 24.6752 105.946 24.3429C106.306 24.0105 106.819 23.8444 107.483 23.8444H109.643V20.0641C109.643 19.2056 109.865 18.5547 110.308 18.1116C110.779 17.6685 111.43 17.447 112.261 17.447C113.091 17.447 113.728 17.6685 114.171 18.1116C114.615 18.5547 114.836 19.2056 114.836 20.0641V23.8444H119.24C119.904 23.8444 120.417 24.0105 120.777 24.3429C121.137 24.6752 121.317 25.1598 121.317 25.7968C121.317 26.4061 121.137 26.8907 120.777 27.2508C120.417 27.5831 119.904 27.7493 119.24 27.7493H114.836V36.3068C114.836 37.6361 115.127 38.6331 115.709 39.2978C116.29 39.9624 117.232 40.2948 118.533 40.2948C119.004 40.2948 119.42 40.2532 119.78 40.1702C120.14 40.0871 120.458 40.0317 120.735 40.004C121.067 39.9763 121.344 40.0871 121.566 40.3363C121.787 40.5579 121.898 41.0287 121.898 41.7487C121.898 42.3026 121.801 42.8011 121.607 43.2442C121.441 43.6596 121.123 43.9504 120.652 44.1166C120.292 44.2274 119.821 44.3243 119.24 44.4074C118.658 44.5182 118.146 44.5736 117.702 44.5736Z" fill="#00658D"/>
<path d="M132.516 44.4905C131.824 44.4905 131.228 44.3243 130.73 43.992C130.231 43.6319 129.83 43.0781 129.525 42.3303L123.502 26.96C123.253 26.2953 123.169 25.7137 123.253 25.2152C123.363 24.689 123.626 24.2736 124.042 23.969C124.457 23.6643 125.011 23.512 125.703 23.512C126.313 23.512 126.811 23.6643 127.199 23.969C127.587 24.2459 127.919 24.786 128.196 25.5891L133.222 39.4224H132.267L137.46 25.2568C137.681 24.6475 137.972 24.2044 138.332 23.9274C138.72 23.6505 139.218 23.512 139.828 23.512C140.437 23.512 140.935 23.6643 141.323 23.969C141.711 24.2459 142.002 24.6752 142.195 25.2568L147.305 39.4224H146.433L151.501 25.4645C151.778 24.7167 152.124 24.2044 152.539 23.9274C152.982 23.6505 153.467 23.512 153.993 23.512C154.658 23.512 155.17 23.6782 155.53 24.0105C155.89 24.3429 156.098 24.7721 156.153 25.2983C156.209 25.7968 156.112 26.3507 155.863 26.96L149.881 42.3303C149.604 43.0504 149.202 43.5904 148.676 43.9504C148.177 44.3105 147.582 44.4905 146.89 44.4905C146.197 44.4905 145.588 44.3105 145.062 43.9504C144.563 43.5904 144.176 43.0504 143.899 42.3303L138.457 27.9154H140.825L135.507 42.2888C135.23 43.0365 134.843 43.5904 134.344 43.9504C133.846 44.3105 133.236 44.4905 132.516 44.4905Z" fill="#00658D"/>
<path d="M168.939 44.5736C166.834 44.5736 165.006 44.1443 163.455 43.2858C161.904 42.4272 160.7 41.2087 159.841 39.6301C158.983 38.0238 158.553 36.1406 158.553 33.9805C158.553 32.3465 158.789 30.8926 159.26 29.6186C159.758 28.317 160.464 27.2092 161.378 26.2953C162.292 25.3537 163.386 24.6475 164.66 24.1767C165.934 23.6782 167.36 23.4289 168.939 23.4289C171.043 23.4289 172.871 23.8582 174.422 24.7167C175.973 25.5752 177.178 26.7938 178.036 28.3724C178.895 29.951 179.324 31.8203 179.324 33.9805C179.324 35.6144 179.075 37.0822 178.576 38.3839C178.106 39.6855 177.413 40.8071 176.499 41.7487C175.585 42.6626 174.491 43.3688 173.217 43.8673C171.944 44.3382 170.517 44.5736 168.939 44.5736ZM168.939 40.6271C169.963 40.6271 170.863 40.3779 171.639 39.8794C172.414 39.3809 173.01 38.647 173.425 37.6777C173.868 36.6807 174.09 35.4483 174.09 33.9805C174.09 31.7649 173.619 30.1171 172.677 29.037C171.736 27.9293 170.49 27.3754 168.939 27.3754C167.914 27.3754 167.014 27.6246 166.239 28.1231C165.463 28.5939 164.854 29.3278 164.411 30.3248C163.995 31.2941 163.788 32.5127 163.788 33.9805C163.788 36.1683 164.258 37.83 165.2 38.9655C166.142 40.0732 167.388 40.6271 168.939 40.6271Z" fill="#00658D"/>
<path d="M186.269 44.4905C185.41 44.4905 184.745 44.2689 184.275 43.8258C183.832 43.355 183.61 42.6903 183.61 41.8318V26.1291C183.61 25.2706 183.832 24.6198 184.275 24.1767C184.718 23.7336 185.341 23.512 186.144 23.512C186.947 23.512 187.57 23.7336 188.013 24.1767C188.456 24.6198 188.678 25.2706 188.678 26.1291V28.7462H188.263C188.65 27.0846 189.412 25.8245 190.547 24.966C191.683 24.1075 193.192 23.5951 195.075 23.4289C195.657 23.3736 196.114 23.5259 196.446 23.8859C196.806 24.2182 197.014 24.7444 197.069 25.4645C197.125 26.1568 196.959 26.7246 196.571 27.1677C196.211 27.5831 195.657 27.8323 194.909 27.9154L193.995 27.9985C192.306 28.1647 191.032 28.6909 190.174 29.5771C189.315 30.4356 188.886 31.6542 188.886 33.2327V41.8318C188.886 42.6903 188.664 43.355 188.221 43.8258C187.778 44.2689 187.127 44.4905 186.269 44.4905Z" fill="#00658D"/>
<path d="M202.453 44.4905C201.622 44.4905 200.985 44.2689 200.542 43.8258C200.099 43.355 199.878 42.6903 199.878 41.8318V17.1562C199.878 16.2977 200.099 15.6468 200.542 15.2037C200.985 14.7606 201.622 14.5391 202.453 14.5391C203.284 14.5391 203.921 14.7606 204.364 15.2037C204.835 15.6468 205.07 16.2977 205.07 17.1562V32.485H205.153L212.008 25.2568C212.562 24.7029 213.046 24.2736 213.462 23.969C213.877 23.6643 214.445 23.512 215.165 23.512C215.885 23.512 216.425 23.7059 216.785 24.0936C217.173 24.4536 217.367 24.8967 217.367 25.4229C217.367 25.9491 217.117 26.4753 216.619 27.0015L209.391 34.6451V32.485L217.325 41.0425C217.824 41.5687 218.045 42.1088 217.99 42.6626C217.962 43.1888 217.741 43.6319 217.325 43.992C216.91 44.3243 216.384 44.4905 215.747 44.4905C214.971 44.4905 214.348 44.3381 213.877 44.0335C213.434 43.7289 212.936 43.2719 212.382 42.6626L205.153 35.1021H205.07V41.8318C205.07 43.6042 204.198 44.4905 202.453 44.4905Z" fill="#00658D"/>
</svg>
