<svg width="74" height="40" viewBox="0 0 74 40" fill="none" xmlns="http://www.w3.org/2000/svg">
<rect width="74" height="40" rx="8" fill="#FEFFBC"/>
<path d="M16.6488 18.098C16.6488 18.91 16.3688 19.5867 15.8088 20.128C15.2581 20.66 14.4135 20.926 13.2748 20.926H11.3988V25H10.1248V15.242H13.2748C14.3761 15.242 15.2115 15.508 15.7808 16.04C16.3595 16.572 16.6488 17.258 16.6488 18.098ZM13.2748 19.876C13.9841 19.876 14.5068 19.722 14.8428 19.414C15.1788 19.106 15.3468 18.6673 15.3468 18.098C15.3468 16.894 14.6561 16.292 13.2748 16.292H11.3988V19.876H13.2748ZM25.3722 20.87C25.3722 21.1127 25.3582 21.3693 25.3302 21.64H19.1982C19.2449 22.396 19.5016 22.9887 19.9682 23.418C20.4442 23.838 21.0182 24.048 21.6902 24.048C22.2409 24.048 22.6982 23.922 23.0622 23.67C23.4356 23.4087 23.6969 23.0633 23.8462 22.634H25.2182C25.0129 23.3713 24.6022 23.9733 23.9862 24.44C23.3702 24.8973 22.6049 25.126 21.6902 25.126C20.9622 25.126 20.3089 24.9627 19.7302 24.636C19.1609 24.3093 18.7129 23.8473 18.3862 23.25C18.0596 22.6433 17.8962 21.9433 17.8962 21.15C17.8962 20.3567 18.0549 19.6613 18.3722 19.064C18.6896 18.4667 19.1329 18.0093 19.7022 17.692C20.2809 17.3653 20.9436 17.202 21.6902 17.202C22.4182 17.202 23.0622 17.3607 23.6222 17.678C24.1822 17.9953 24.6116 18.434 24.9102 18.994C25.2182 19.5447 25.3722 20.17 25.3722 20.87ZM24.0562 20.604C24.0562 20.1187 23.9489 19.7033 23.7342 19.358C23.5196 19.0033 23.2256 18.7373 22.8522 18.56C22.4882 18.3733 22.0822 18.28 21.6342 18.28C20.9902 18.28 20.4396 18.4853 19.9822 18.896C19.5342 19.3067 19.2776 19.876 19.2122 20.604H24.0562ZM30.9319 17.188C31.8652 17.188 32.6212 17.4727 33.1999 18.042C33.7785 18.602 34.0679 19.414 34.0679 20.478V25H32.8079V20.66C32.8079 19.8947 32.6165 19.3113 32.2339 18.91C31.8512 18.4993 31.3285 18.294 30.6659 18.294C29.9939 18.294 29.4572 18.504 29.0559 18.924C28.6639 19.344 28.4679 19.9553 28.4679 20.758V25H27.1939V17.328H28.4679V18.42C28.7199 18.028 29.0605 17.7247 29.4899 17.51C29.9285 17.2953 30.4092 17.188 30.9319 17.188ZM35.8129 21.136C35.8129 20.352 35.9716 19.666 36.2889 19.078C36.6063 18.4807 37.0403 18.0187 37.5909 17.692C38.1509 17.3653 38.7763 17.202 39.4669 17.202C40.0643 17.202 40.6196 17.342 41.1329 17.622C41.6463 17.8927 42.0383 18.252 42.3089 18.7V14.64H43.5969V25H42.3089V23.558C42.0569 24.0153 41.6836 24.3933 41.1889 24.692C40.6943 24.9813 40.1156 25.126 39.4529 25.126C38.7716 25.126 38.1509 24.958 37.5909 24.622C37.0403 24.286 36.6063 23.8147 36.2889 23.208C35.9716 22.6013 35.8129 21.9107 35.8129 21.136ZM42.3089 21.15C42.3089 20.5713 42.1923 20.0673 41.9589 19.638C41.7256 19.2087 41.4083 18.882 41.0069 18.658C40.6149 18.4247 40.1809 18.308 39.7049 18.308C39.2289 18.308 38.7949 18.42 38.4029 18.644C38.0109 18.868 37.6983 19.1947 37.4649 19.624C37.2316 20.0533 37.1149 20.5573 37.1149 21.136C37.1149 21.724 37.2316 22.2373 37.4649 22.676C37.6983 23.1053 38.0109 23.4367 38.4029 23.67C38.7949 23.894 39.2289 24.006 39.7049 24.006C40.1809 24.006 40.6149 23.894 41.0069 23.67C41.4083 23.4367 41.7256 23.1053 41.9589 22.676C42.1923 22.2373 42.3089 21.7287 42.3089 21.15ZM46.5479 16.082C46.3052 16.082 46.0999 15.998 45.9319 15.83C45.7639 15.662 45.6799 15.4567 45.6799 15.214C45.6799 14.9713 45.7639 14.766 45.9319 14.598C46.0999 14.43 46.3052 14.346 46.5479 14.346C46.7812 14.346 46.9772 14.43 47.1359 14.598C47.3039 14.766 47.3879 14.9713 47.3879 15.214C47.3879 15.4567 47.3039 15.662 47.1359 15.83C46.9772 15.998 46.7812 16.082 46.5479 16.082ZM47.1639 17.328V25H45.8899V17.328H47.1639ZM53.2132 17.188C54.1465 17.188 54.9025 17.4727 55.4812 18.042C56.0599 18.602 56.3492 19.414 56.3492 20.478V25H55.0892V20.66C55.0892 19.8947 54.8979 19.3113 54.5152 18.91C54.1325 18.4993 53.6099 18.294 52.9472 18.294C52.2752 18.294 51.7385 18.504 51.3372 18.924C50.9452 19.344 50.7492 19.9553 50.7492 20.758V25H49.4752V17.328H50.7492V18.42C51.0012 18.028 51.3419 17.7247 51.7712 17.51C52.2099 17.2953 52.6905 17.188 53.2132 17.188ZM61.7343 17.202C62.3969 17.202 62.9756 17.3467 63.4703 17.636C63.9743 17.9253 64.3476 18.2893 64.5903 18.728V17.328H65.8783V25.168C65.8783 25.868 65.7289 26.4887 65.4303 27.03C65.1316 27.5807 64.7023 28.01 64.1423 28.318C63.5916 28.626 62.9476 28.78 62.2103 28.78C61.2023 28.78 60.3623 28.542 59.6903 28.066C59.0183 27.59 58.6216 26.9413 58.5003 26.12H59.7603C59.9003 26.5867 60.1896 26.96 60.6283 27.24C61.0669 27.5293 61.5943 27.674 62.2103 27.674C62.9103 27.674 63.4796 27.4547 63.9183 27.016C64.3663 26.5773 64.5903 25.9613 64.5903 25.168V23.558C64.3383 24.006 63.9649 24.3793 63.4703 24.678C62.9756 24.9767 62.3969 25.126 61.7343 25.126C61.0529 25.126 60.4323 24.958 59.8723 24.622C59.3216 24.286 58.8876 23.8147 58.5703 23.208C58.2529 22.6013 58.0943 21.9107 58.0943 21.136C58.0943 20.352 58.2529 19.666 58.5703 19.078C58.8876 18.4807 59.3216 18.0187 59.8723 17.692C60.4323 17.3653 61.0529 17.202 61.7343 17.202ZM64.5903 21.15C64.5903 20.5713 64.4736 20.0673 64.2403 19.638C64.0069 19.2087 63.6896 18.882 63.2883 18.658C62.8963 18.4247 62.4623 18.308 61.9863 18.308C61.5103 18.308 61.0763 18.42 60.6843 18.644C60.2923 18.868 59.9796 19.1947 59.7463 19.624C59.5129 20.0533 59.3963 20.5573 59.3963 21.136C59.3963 21.724 59.5129 22.2373 59.7463 22.676C59.9796 23.1053 60.2923 23.4367 60.6843 23.67C61.0763 23.894 61.5103 24.006 61.9863 24.006C62.4623 24.006 62.8963 23.894 63.2883 23.67C63.6896 23.4367 64.0069 23.1053 64.2403 22.676C64.4736 22.2373 64.5903 21.7287 64.5903 21.15Z" fill="#292A32"/>
</svg>
