<svg width="173" height="38" viewBox="0 0 173 38" fill="none" xmlns="http://www.w3.org/2000/svg">
<rect x="0.5" y="0.5" width="172" height="36.3137" rx="11.5" stroke="#C7C6C6"/>
<path d="M20.8294 19.8125L19.6087 10.875H19.5175C17.3865 10.8786 15.3437 11.7257 13.8355 13.2311C12.3273 14.7365 11.4763 16.7778 11.4688 18.9088V19L20.8294 19.8125Z" fill="#ED6C47"/>
<path d="M19.7006 10.875H19.6094V19L23.6788 20.625L27.7488 19V18.9088C27.7412 16.7779 26.8903 14.7367 25.3823 13.2313C23.8742 11.726 21.8315 10.8788 19.7006 10.875Z" fill="#FF8F6B"/>
<path d="M27.7481 19V19.0894C27.7402 21.2206 26.8891 23.2621 25.3807 24.7677C23.8724 26.2734 21.8294 27.1209 19.6981 27.125H19.5188C17.3876 27.1206 15.3448 26.273 13.8365 24.7674C12.3282 23.2618 11.477 21.2205 11.4688 19.0894V19H27.7481Z" fill="#D35230"/>
<path opacity="0.1" d="M20.0156 14.8681V23.5375C20.0145 23.685 19.9699 23.8289 19.8874 23.9512C19.8049 24.0735 19.6882 24.1687 19.5519 24.225C19.4629 24.2625 19.3672 24.2818 19.2706 24.2819H13.39C13.2759 24.151 13.1673 24.0155 13.0644 23.8756C12.0277 22.4956 11.4677 20.816 11.4688 19.09V18.9113C11.4668 17.3543 11.9226 15.8312 12.7794 14.5313C12.8682 14.3916 12.9633 14.2561 13.0644 14.125H19.2706C19.4675 14.1263 19.6559 14.205 19.7953 14.344C19.9347 14.483 20.0138 14.6713 20.0156 14.8681Z" fill="black"/>
<path opacity="0.2" d="M19.6088 15.275V23.9444C19.6087 24.0406 19.5894 24.1358 19.5519 24.2244C19.4955 24.3606 19.4002 24.4772 19.2779 24.5595C19.1557 24.6419 19.0118 24.6864 18.8644 24.6875H13.7606C13.6319 24.5567 13.5083 24.4213 13.39 24.2812C13.2759 24.1504 13.1673 24.0148 13.0644 23.875C12.0277 22.495 11.4677 20.8154 11.4688 19.0894V18.9106C11.4669 17.3539 11.9227 15.831 12.7794 14.5312H18.8638C19.0607 14.5326 19.2493 14.6113 19.3887 14.7505C19.5281 14.8896 19.6071 15.078 19.6088 15.275Z" fill="black"/>
<path opacity="0.2" d="M19.6088 15.275V23.1319C19.607 23.3287 19.5278 23.517 19.3884 23.656C19.2491 23.795 19.0606 23.8737 18.8638 23.875H13.0644C12.0277 22.495 11.4677 20.8154 11.4688 19.0894V18.9106C11.4669 17.3539 11.9227 15.831 12.7794 14.5312H18.8638C19.0607 14.5326 19.2493 14.6113 19.3887 14.7505C19.5281 14.8896 19.6071 15.078 19.6088 15.275Z" fill="black"/>
<path opacity="0.2" d="M19.2019 15.275V23.1319C19.2001 23.3287 19.121 23.517 18.9816 23.656C18.8422 23.795 18.6537 23.8737 18.4569 23.875H13.0644C12.0277 22.495 11.4677 20.8154 11.4688 19.0894V18.9106C11.4669 17.3539 11.9227 15.831 12.7794 14.5312H18.4569C18.6538 14.5326 18.8424 14.6113 18.9818 14.7505C19.1212 14.8896 19.2002 15.078 19.2019 15.275Z" fill="black"/>
<path d="M10.9963 14.5313H18.4575C18.6551 14.5311 18.8448 14.6094 18.9847 14.749C19.1246 14.8886 19.2034 15.078 19.2038 15.2756V22.7244C19.2034 22.922 19.1246 23.1114 18.9847 23.251C18.8448 23.3906 18.6551 23.4689 18.4575 23.4688H10.9963C10.8984 23.4689 10.8014 23.4498 10.7109 23.4125C10.6204 23.3751 10.5382 23.3203 10.4689 23.2512C10.3996 23.1821 10.3446 23.1 10.307 23.0096C10.2695 22.9192 10.2501 22.8223 10.25 22.7244V15.2756C10.2501 15.1777 10.2695 15.0808 10.307 14.9904C10.3446 14.9 10.3996 14.8179 10.4689 14.7488C10.5382 14.6797 10.6204 14.6249 10.7109 14.5875C10.8014 14.5502 10.8984 14.5311 10.9963 14.5313Z" fill="url(#paint0_linear_3353_10617)"/>
<path d="M14.8098 16.5164C15.2956 16.4837 15.7771 16.6246 16.1686 16.9139C16.3296 17.0572 16.4558 17.2353 16.5377 17.4346C16.6195 17.634 16.6549 17.8494 16.6411 18.0645C16.6466 18.3675 16.5657 18.6657 16.408 18.9245C16.2484 19.1791 16.0185 19.382 15.7461 19.5089C15.4348 19.6532 15.0947 19.7246 14.7517 19.7176H13.8061V21.4676H12.8398V16.5164H14.8098ZM13.8055 18.9614H14.6373C14.9011 18.9804 15.1627 18.9024 15.373 18.742C15.4589 18.66 15.5259 18.5601 15.5691 18.4494C15.6123 18.3387 15.6307 18.2199 15.623 18.1014C15.623 17.5559 15.3053 17.283 14.6698 17.2826H13.8055V18.9614Z" fill="white"/>
<path d="M51.516 17.6465C51.516 18.3425 51.276 18.9225 50.796 19.3865C50.324 19.8425 49.6 20.0705 48.624 20.0705H47.016V23.5625H45.924V15.1985H48.624C49.568 15.1985 50.284 15.4265 50.772 15.8825C51.268 16.3385 51.516 16.9265 51.516 17.6465ZM48.624 19.1705C49.232 19.1705 49.68 19.0385 49.968 18.7745C50.256 18.5105 50.4 18.1345 50.4 17.6465C50.4 16.6145 49.808 16.0985 48.624 16.0985H47.016V19.1705H48.624ZM55.8812 23.6705C55.2652 23.6705 54.7052 23.5305 54.2012 23.2505C53.7052 22.9705 53.3132 22.5745 53.0252 22.0625C52.7452 21.5425 52.6052 20.9425 52.6052 20.2625C52.6052 19.5905 52.7492 18.9985 53.0372 18.4865C53.3332 17.9665 53.7332 17.5705 54.2372 17.2985C54.7412 17.0185 55.3052 16.8785 55.9292 16.8785C56.5532 16.8785 57.1172 17.0185 57.6212 17.2985C58.1252 17.5705 58.5212 17.9625 58.8092 18.4745C59.1052 18.9865 59.2532 19.5825 59.2532 20.2625C59.2532 20.9425 59.1012 21.5425 58.7972 22.0625C58.5012 22.5745 58.0972 22.9705 57.5852 23.2505C57.0732 23.5305 56.5052 23.6705 55.8812 23.6705ZM55.8812 22.7105C56.2732 22.7105 56.6412 22.6185 56.9852 22.4345C57.3292 22.2505 57.6052 21.9745 57.8132 21.6065C58.0292 21.2385 58.1372 20.7905 58.1372 20.2625C58.1372 19.7345 58.0332 19.2865 57.8252 18.9185C57.6172 18.5505 57.3452 18.2785 57.0092 18.1025C56.6732 17.9185 56.3092 17.8265 55.9172 17.8265C55.5172 17.8265 55.1492 17.9185 54.8132 18.1025C54.4852 18.2785 54.2212 18.5505 54.0212 18.9185C53.8212 19.2865 53.7212 19.7345 53.7212 20.2625C53.7212 20.7985 53.8172 21.2505 54.0092 21.6185C54.2092 21.9865 54.4732 22.2625 54.8012 22.4465C55.1292 22.6225 55.4892 22.7105 55.8812 22.7105ZM69.589 16.9865L67.537 23.5625H66.409L64.825 18.3425L63.241 23.5625H62.113L60.049 16.9865H61.165L62.677 22.5065L64.309 16.9865H65.425L67.021 22.5185L68.509 16.9865H69.589ZM76.8128 20.0225C76.8128 20.2305 76.8008 20.4505 76.7768 20.6825H71.5208C71.5608 21.3305 71.7808 21.8385 72.1808 22.2065C72.5888 22.5665 73.0808 22.7465 73.6568 22.7465C74.1288 22.7465 74.5208 22.6385 74.8328 22.4225C75.1528 22.1985 75.3768 21.9025 75.5048 21.5345H76.6808C76.5048 22.1665 76.1528 22.6825 75.6248 23.0825C75.0968 23.4745 74.4408 23.6705 73.6568 23.6705C73.0328 23.6705 72.4728 23.5305 71.9768 23.2505C71.4888 22.9705 71.1048 22.5745 70.8248 22.0625C70.5448 21.5425 70.4048 20.9425 70.4048 20.2625C70.4048 19.5825 70.5408 18.9865 70.8128 18.4745C71.0848 17.9625 71.4648 17.5705 71.9528 17.2985C72.4488 17.0185 73.0168 16.8785 73.6568 16.8785C74.2808 16.8785 74.8328 17.0145 75.3128 17.2865C75.7928 17.5585 76.1608 17.9345 76.4168 18.4145C76.6808 18.8865 76.8128 19.4225 76.8128 20.0225ZM75.6848 19.7945C75.6848 19.3785 75.5928 19.0225 75.4088 18.7265C75.2248 18.4225 74.9728 18.1945 74.6528 18.0425C74.3408 17.8825 73.9928 17.8025 73.6088 17.8025C73.0568 17.8025 72.5848 17.9785 72.1928 18.3305C71.8088 18.6825 71.5888 19.1705 71.5328 19.7945H75.6848ZM79.4862 18.0545C79.6782 17.6785 79.9502 17.3865 80.3022 17.1785C80.6622 16.9705 81.0982 16.8665 81.6102 16.8665V17.9945H81.3222C80.0982 17.9945 79.4862 18.6585 79.4862 19.9865V23.5625H78.3942V16.9865H79.4862V18.0545ZM91.9419 17.6465C91.9419 18.3425 91.7019 18.9225 91.2219 19.3865C90.7499 19.8425 90.0259 20.0705 89.0499 20.0705H87.4419V23.5625H86.3499V15.1985H89.0499C89.9939 15.1985 90.7099 15.4265 91.1979 15.8825C91.6939 16.3385 91.9419 16.9265 91.9419 17.6465ZM89.0499 19.1705C89.6579 19.1705 90.1059 19.0385 90.3939 18.7745C90.6819 18.5105 90.8259 18.1345 90.8259 17.6465C90.8259 16.6145 90.2339 16.0985 89.0499 16.0985H87.4419V19.1705H89.0499ZM96.3072 23.6705C95.6912 23.6705 95.1312 23.5305 94.6272 23.2505C94.1312 22.9705 93.7392 22.5745 93.4512 22.0625C93.1712 21.5425 93.0312 20.9425 93.0312 20.2625C93.0312 19.5905 93.1752 18.9985 93.4632 18.4865C93.7592 17.9665 94.1592 17.5705 94.6632 17.2985C95.1672 17.0185 95.7312 16.8785 96.3552 16.8785C96.9792 16.8785 97.5432 17.0185 98.0472 17.2985C98.5512 17.5705 98.9472 17.9625 99.2352 18.4745C99.5312 18.9865 99.6792 19.5825 99.6792 20.2625C99.6792 20.9425 99.5272 21.5425 99.2232 22.0625C98.9272 22.5745 98.5232 22.9705 98.0112 23.2505C97.4992 23.5305 96.9312 23.6705 96.3072 23.6705ZM96.3072 22.7105C96.6992 22.7105 97.0672 22.6185 97.4112 22.4345C97.7552 22.2505 98.0312 21.9745 98.2392 21.6065C98.4552 21.2385 98.5632 20.7905 98.5632 20.2625C98.5632 19.7345 98.4592 19.2865 98.2512 18.9185C98.0432 18.5505 97.7712 18.2785 97.4352 18.1025C97.0992 17.9185 96.7352 17.8265 96.3432 17.8265C95.9432 17.8265 95.5752 17.9185 95.2392 18.1025C94.9112 18.2785 94.6472 18.5505 94.4472 18.9185C94.2472 19.2865 94.1472 19.7345 94.1472 20.2625C94.1472 20.7985 94.2432 21.2505 94.4352 21.6185C94.6352 21.9865 94.8992 22.2625 95.2272 22.4465C95.5552 22.6225 95.9152 22.7105 96.3072 22.7105ZM101.819 15.9185C101.611 15.9185 101.435 15.8465 101.291 15.7025C101.147 15.5585 101.075 15.3825 101.075 15.1745C101.075 14.9665 101.147 14.7905 101.291 14.6465C101.435 14.5025 101.611 14.4305 101.819 14.4305C102.019 14.4305 102.187 14.5025 102.323 14.6465C102.467 14.7905 102.539 14.9665 102.539 15.1745C102.539 15.3825 102.467 15.5585 102.323 15.7025C102.187 15.8465 102.019 15.9185 101.819 15.9185ZM102.347 16.9865V23.5625H101.255V16.9865H102.347ZM107.552 16.8665C108.352 16.8665 109 17.1105 109.496 17.5985C109.992 18.0785 110.24 18.7745 110.24 19.6865V23.5625H109.16V19.8425C109.16 19.1865 108.996 18.6865 108.668 18.3425C108.34 17.9905 107.892 17.8145 107.324 17.8145C106.748 17.8145 106.288 17.9945 105.944 18.3545C105.608 18.7145 105.44 19.2385 105.44 19.9265V23.5625H104.348V16.9865H105.44V17.9225C105.656 17.5865 105.948 17.3265 106.316 17.1425C106.692 16.9585 107.104 16.8665 107.552 16.8665ZM113.496 17.8865V21.7625C113.496 22.0825 113.564 22.3105 113.7 22.4465C113.836 22.5745 114.072 22.6385 114.408 22.6385H115.212V23.5625H114.228C113.62 23.5625 113.164 23.4225 112.86 23.1425C112.556 22.8625 112.404 22.4025 112.404 21.7625V17.8865H111.552V16.9865H112.404V15.3305H113.496V16.9865H115.212V17.8865H113.496Z" fill="#292A32"/>
<path d="M144.617 24C144.273 24 143.979 23.8775 143.734 23.6325C143.489 23.3875 143.367 23.0933 143.367 22.75V20.875H144.617V22.75H152.117V20.875H153.367V22.75C153.367 23.0937 153.245 23.3881 153 23.6331C152.755 23.8781 152.461 24.0004 152.117 24H144.617ZM148.367 21.5L145.242 18.375L146.117 17.4687L147.742 19.0937V14H148.992V19.0937L150.617 17.4687L151.492 18.375L148.367 21.5Z" fill="#0A4D68"/>
<defs>
<linearGradient id="paint0_linear_3353_10617" x1="11.8088" y1="13.9463" x2="17.645" y2="24.0538" gradientUnits="userSpaceOnUse">
<stop stop-color="#CA4C28"/>
<stop offset="0.5" stop-color="#C5401E"/>
<stop offset="1" stop-color="#B62F14"/>
</linearGradient>
</defs>
</svg>
