<svg width="74" height="40" viewBox="0 0 74 40" fill="none" xmlns="http://www.w3.org/2000/svg">
<rect width="74" height="40" rx="8" fill="#C1FFCF"/>
<path d="M26.4455 25L24.1215 21.01H22.5815V25H21.3075V15.242H24.4575C25.1948 15.242 25.8155 15.368 26.3195 15.62C26.8328 15.872 27.2155 16.2127 27.4675 16.642C27.7195 17.0713 27.8455 17.5613 27.8455 18.112C27.8455 18.784 27.6495 19.3767 27.2575 19.89C26.8748 20.4033 26.2961 20.744 25.5215 20.912L27.9715 25H26.4455ZM22.5815 19.988H24.4575C25.1481 19.988 25.6661 19.82 26.0115 19.484C26.3568 19.1387 26.5295 18.6813 26.5295 18.112C26.5295 17.5333 26.3568 17.0853 26.0115 16.768C25.6755 16.4507 25.1575 16.292 24.4575 16.292H22.5815V19.988ZM36.965 20.87C36.965 21.1127 36.951 21.3693 36.923 21.64H30.791C30.8377 22.396 31.0944 22.9887 31.561 23.418C32.037 23.838 32.611 24.048 33.283 24.048C33.8337 24.048 34.291 23.922 34.655 23.67C35.0284 23.4087 35.2897 23.0633 35.439 22.634H36.811C36.6057 23.3713 36.195 23.9733 35.579 24.44C34.963 24.8973 34.1977 25.126 33.283 25.126C32.555 25.126 31.9017 24.9627 31.323 24.636C30.7537 24.3093 30.3057 23.8473 29.979 23.25C29.6524 22.6433 29.489 21.9433 29.489 21.15C29.489 20.3567 29.6477 19.6613 29.965 19.064C30.2824 18.4667 30.7257 18.0093 31.295 17.692C31.8737 17.3653 32.5364 17.202 33.283 17.202C34.011 17.202 34.655 17.3607 35.215 17.678C35.775 17.9953 36.2044 18.434 36.503 18.994C36.811 19.5447 36.965 20.17 36.965 20.87ZM35.649 20.604C35.649 20.1187 35.5417 19.7033 35.327 19.358C35.1124 19.0033 34.8184 18.7373 34.445 18.56C34.081 18.3733 33.675 18.28 33.227 18.28C32.583 18.28 32.0324 18.4853 31.575 18.896C31.127 19.3067 30.8704 19.876 30.805 20.604H35.649ZM38.3107 21.136C38.3107 20.352 38.4693 19.666 38.7867 19.078C39.104 18.4807 39.538 18.0187 40.0887 17.692C40.6487 17.3653 41.2693 17.202 41.9507 17.202C42.6227 17.202 43.206 17.3467 43.7007 17.636C44.1953 17.9253 44.564 18.2893 44.8067 18.728V17.328H46.0947V25H44.8067V23.572C44.5547 24.02 44.1767 24.3933 43.6727 24.692C43.178 24.9813 42.5993 25.126 41.9367 25.126C41.2553 25.126 40.6393 24.958 40.0887 24.622C39.538 24.286 39.104 23.8147 38.7867 23.208C38.4693 22.6013 38.3107 21.9107 38.3107 21.136ZM44.8067 21.15C44.8067 20.5713 44.69 20.0673 44.4567 19.638C44.2233 19.2087 43.906 18.882 43.5047 18.658C43.1127 18.4247 42.6787 18.308 42.2027 18.308C41.7267 18.308 41.2927 18.42 40.9007 18.644C40.5087 18.868 40.196 19.1947 39.9627 19.624C39.7293 20.0533 39.6127 20.5573 39.6127 21.136C39.6127 21.724 39.7293 22.2373 39.9627 22.676C40.196 23.1053 40.5087 23.4367 40.9007 23.67C41.2927 23.894 41.7267 24.006 42.2027 24.006C42.6787 24.006 43.1127 23.894 43.5047 23.67C43.906 23.4367 44.2233 23.1053 44.4567 22.676C44.69 22.2373 44.8067 21.7287 44.8067 21.15ZM47.9116 21.136C47.9116 20.352 48.0703 19.666 48.3876 19.078C48.7049 18.4807 49.1389 18.0187 49.6896 17.692C50.2496 17.3653 50.8749 17.202 51.5656 17.202C52.1629 17.202 52.7183 17.342 53.2316 17.622C53.7449 17.8927 54.1369 18.252 54.4076 18.7V14.64H55.6956V25H54.4076V23.558C54.1556 24.0153 53.7823 24.3933 53.2876 24.692C52.7929 24.9813 52.2143 25.126 51.5516 25.126C50.8703 25.126 50.2496 24.958 49.6896 24.622C49.1389 24.286 48.7049 23.8147 48.3876 23.208C48.0703 22.6013 47.9116 21.9107 47.9116 21.136ZM54.4076 21.15C54.4076 20.5713 54.2909 20.0673 54.0576 19.638C53.8243 19.2087 53.5069 18.882 53.1056 18.658C52.7136 18.4247 52.2796 18.308 51.8036 18.308C51.3276 18.308 50.8936 18.42 50.5016 18.644C50.1096 18.868 49.7969 19.1947 49.5636 19.624C49.3303 20.0533 49.2136 20.5573 49.2136 21.136C49.2136 21.724 49.3303 22.2373 49.5636 22.676C49.7969 23.1053 50.1096 23.4367 50.5016 23.67C50.8936 23.894 51.3276 24.006 51.8036 24.006C52.2796 24.006 52.7136 23.894 53.1056 23.67C53.5069 23.4367 53.8243 23.1053 54.0576 22.676C54.2909 22.2373 54.4076 21.7287 54.4076 21.15Z" fill="#292A32"/>
</svg>
