<svg width="74" height="40" viewBox="0 0 74 40" fill="none" xmlns="http://www.w3.org/2000/svg">
<rect width="74" height="40" rx="8" fill="#FF7A00" fill-opacity="0.26"/>
<path d="M25.4854 25.098C24.8414 25.098 24.2628 24.986 23.7494 24.762C23.2454 24.5287 22.8488 24.2113 22.5594 23.81C22.2701 23.3993 22.1208 22.928 22.1114 22.396H23.4694C23.5161 22.8533 23.7028 23.2407 24.0294 23.558C24.3654 23.866 24.8508 24.02 25.4854 24.02C26.0921 24.02 26.5681 23.8707 26.9134 23.572C27.2681 23.264 27.4454 22.872 27.4454 22.396C27.4454 22.0227 27.3428 21.7193 27.1374 21.486C26.9321 21.2527 26.6754 21.0753 26.3674 20.954C26.0594 20.8327 25.6441 20.702 25.1214 20.562C24.4774 20.394 23.9594 20.226 23.5674 20.058C23.1848 19.89 22.8534 19.6287 22.5734 19.274C22.3028 18.91 22.1674 18.4247 22.1674 17.818C22.1674 17.286 22.3028 16.8147 22.5734 16.404C22.8441 15.9933 23.2221 15.676 23.7074 15.452C24.2021 15.228 24.7668 15.116 25.4014 15.116C26.3161 15.116 27.0628 15.3447 27.6414 15.802C28.2294 16.2593 28.5608 16.866 28.6354 17.622H27.2354C27.1888 17.2487 26.9928 16.922 26.6474 16.642C26.3021 16.3527 25.8448 16.208 25.2754 16.208C24.7434 16.208 24.3094 16.348 23.9734 16.628C23.6374 16.8987 23.4694 17.2813 23.4694 17.776C23.4694 18.1307 23.5674 18.42 23.7634 18.644C23.9688 18.868 24.2161 19.0407 24.5054 19.162C24.8041 19.274 25.2194 19.4047 25.7514 19.554C26.3954 19.7313 26.9134 19.9087 27.3054 20.086C27.6974 20.254 28.0334 20.52 28.3134 20.884C28.5934 21.2387 28.7334 21.724 28.7334 22.34C28.7334 22.816 28.6074 23.264 28.3554 23.684C28.1034 24.104 27.7301 24.4447 27.2354 24.706C26.7408 24.9673 26.1574 25.098 25.4854 25.098ZM37.7482 20.87C37.7482 21.1127 37.7342 21.3693 37.7062 21.64H31.5742C31.6209 22.396 31.8776 22.9887 32.3442 23.418C32.8202 23.838 33.3942 24.048 34.0662 24.048C34.6169 24.048 35.0742 23.922 35.4382 23.67C35.8116 23.4087 36.0729 23.0633 36.2222 22.634H37.5942C37.3889 23.3713 36.9782 23.9733 36.3622 24.44C35.7462 24.8973 34.9809 25.126 34.0662 25.126C33.3382 25.126 32.6849 24.9627 32.1062 24.636C31.5369 24.3093 31.0889 23.8473 30.7622 23.25C30.4356 22.6433 30.2722 21.9433 30.2722 21.15C30.2722 20.3567 30.4309 19.6613 30.7482 19.064C31.0656 18.4667 31.5089 18.0093 32.0782 17.692C32.6569 17.3653 33.3196 17.202 34.0662 17.202C34.7942 17.202 35.4382 17.3607 35.9982 17.678C36.5582 17.9953 36.9876 18.434 37.2862 18.994C37.5942 19.5447 37.7482 20.17 37.7482 20.87ZM36.4322 20.604C36.4322 20.1187 36.3249 19.7033 36.1102 19.358C35.8956 19.0033 35.6016 18.7373 35.2282 18.56C34.8642 18.3733 34.4582 18.28 34.0102 18.28C33.3662 18.28 32.8156 18.4853 32.3582 18.896C31.9102 19.3067 31.6536 19.876 31.5882 20.604H36.4322ZM43.3079 17.188C44.2412 17.188 44.9972 17.4727 45.5759 18.042C46.1545 18.602 46.4439 19.414 46.4439 20.478V25H45.1839V20.66C45.1839 19.8947 44.9925 19.3113 44.6099 18.91C44.2272 18.4993 43.7045 18.294 43.0419 18.294C42.3699 18.294 41.8332 18.504 41.4319 18.924C41.0399 19.344 40.8439 19.9553 40.8439 20.758V25H39.5699V17.328H40.8439V18.42C41.0959 18.028 41.4365 17.7247 41.8659 17.51C42.3045 17.2953 42.7852 17.188 43.3079 17.188ZM50.219 18.378V22.9C50.219 23.2733 50.2983 23.5393 50.457 23.698C50.6156 23.8473 50.891 23.922 51.283 23.922H52.221V25H51.073C50.3636 25 49.8316 24.8367 49.477 24.51C49.1223 24.1833 48.945 23.6467 48.945 22.9V18.378H47.951V17.328H48.945V15.396H50.219V17.328H52.221V18.378H50.219Z" fill="#292A32"/>
</svg>
