<svg width="173" height="38" viewBox="0 0 173 38" fill="none" xmlns="http://www.w3.org/2000/svg">
<rect x="0.5" y="0.5" width="172" height="36.3137" rx="11.5" stroke="#C7C6C6"/>
<path d="M25.9875 16.4386H25.5536V14.3528C25.5536 14.3398 25.5516 14.3267 25.5499 14.3136C25.5492 14.2307 25.5227 14.1494 25.4658 14.085L21.9825 10.1207C21.9814 10.1197 21.9804 10.1193 21.9797 10.1183C21.9589 10.0951 21.9347 10.0759 21.9091 10.0593C21.9015 10.0542 21.8939 10.05 21.8859 10.0456C21.8638 10.0336 21.8402 10.0235 21.816 10.0163C21.8094 10.0145 21.8035 10.0119 21.797 10.0101C21.7707 10.0039 21.7434 10 21.7157 10H13.1549C12.764 10 12.4464 10.3168 12.4464 10.7059V16.4384H12.0126C11.4534 16.4384 11 16.8899 11 17.4473V22.6938C11 23.2506 11.4534 23.7026 12.0126 23.7026H12.4464V27.2941C12.4464 27.6833 12.764 28 13.1549 28H24.8451C25.2357 28 25.5536 27.6833 25.5536 27.2941V23.7027H25.9874C26.5465 23.7027 27 23.2508 27 22.6938V17.4475C27 16.8899 26.5465 16.4386 25.9875 16.4386ZM13.1549 10.7059H21.3615V14.3173C21.3615 14.5124 21.5202 14.6703 21.7157 14.6703H24.8452V16.4386H13.1549V10.7059ZM16.6496 17.388H18.023L18.4864 18.3499C18.6431 18.6701 18.761 18.9284 18.8866 19.2256H18.9024C19.0276 18.8894 19.1298 18.6547 19.2632 18.3499L19.711 17.388H21.0767L19.5853 19.9606L21.1551 22.6586H19.7735L19.2949 21.7046C19.0987 21.337 18.9729 21.0635 18.8237 20.7583H18.808C18.6981 21.0635 18.5648 21.337 18.4 21.7046L17.9606 22.6586H16.5946L18.1253 19.9921L16.6496 17.388ZM12.144 18.3889V17.388H16.2096V18.3889H14.7654V22.6583H13.5649V18.3889H12.144ZM24.8452 27.1028H13.1549V23.7027H24.8451V27.1028H24.8452ZM25.5118 18.3889H24.0675V22.6583H22.8667V18.3889H21.4459V17.388H25.5118V18.3889H25.5118Z" fill="#0071B1"/>
<path d="M51.072 15.1985V16.0865H48.792V23.5625H47.7V16.0865H45.408V15.1985H51.072ZM58.5562 20.0225C58.5562 20.2305 58.5442 20.4505 58.5202 20.6825H53.2642C53.3042 21.3305 53.5242 21.8385 53.9242 22.2065C54.3322 22.5665 54.8242 22.7465 55.4002 22.7465C55.8722 22.7465 56.2642 22.6385 56.5762 22.4225C56.8962 22.1985 57.1202 21.9025 57.2482 21.5345H58.4242C58.2482 22.1665 57.8962 22.6825 57.3682 23.0825C56.8402 23.4745 56.1842 23.6705 55.4002 23.6705C54.7762 23.6705 54.2162 23.5305 53.7202 23.2505C53.2322 22.9705 52.8482 22.5745 52.5682 22.0625C52.2882 21.5425 52.1482 20.9425 52.1482 20.2625C52.1482 19.5825 52.2842 18.9865 52.5562 18.4745C52.8282 17.9625 53.2082 17.5705 53.6962 17.2985C54.1922 17.0185 54.7602 16.8785 55.4002 16.8785C56.0242 16.8785 56.5762 17.0145 57.0562 17.2865C57.5362 17.5585 57.9042 17.9345 58.1602 18.4145C58.4242 18.8865 58.5562 19.4225 58.5562 20.0225ZM57.4282 19.7945C57.4282 19.3785 57.3362 19.0225 57.1522 18.7265C56.9682 18.4225 56.7162 18.1945 56.3962 18.0425C56.0842 17.8825 55.7362 17.8025 55.3522 17.8025C54.8002 17.8025 54.3282 17.9785 53.9362 18.3305C53.5522 18.6825 53.3322 19.1705 53.2762 19.7945H57.4282ZM63.5696 23.5625L62.0096 21.1145L60.5096 23.5625H59.3696L61.4936 20.2985L59.3696 16.9865H60.6056L62.1656 19.4225L63.6536 16.9865H64.7936L62.6816 20.2385L64.8056 23.5625H63.5696ZM67.3518 17.8865V21.7625C67.3518 22.0825 67.4198 22.3105 67.5558 22.4465C67.6918 22.5745 67.9278 22.6385 68.2638 22.6385H69.0678V23.5625H68.0838C67.4758 23.5625 67.0198 23.4225 66.7158 23.1425C66.4118 22.8625 66.2598 22.4025 66.2598 21.7625V17.8865H65.4078V16.9865H66.2598V15.3305H67.3518V16.9865H69.0678V17.8865H67.3518ZM78.5981 15.1985V16.0865H74.9621V18.9065H77.9141V19.7945H74.9621V23.5625H73.8701V15.1985H78.5981ZM80.621 15.9185C80.413 15.9185 80.237 15.8465 80.093 15.7025C79.949 15.5585 79.877 15.3825 79.877 15.1745C79.877 14.9665 79.949 14.7905 80.093 14.6465C80.237 14.5025 80.413 14.4305 80.621 14.4305C80.821 14.4305 80.989 14.5025 81.125 14.6465C81.269 14.7905 81.341 14.9665 81.341 15.1745C81.341 15.3825 81.269 15.5585 81.125 15.7025C80.989 15.8465 80.821 15.9185 80.621 15.9185ZM81.149 16.9865V23.5625H80.057V16.9865H81.149ZM84.2421 14.6825V23.5625H83.1501V14.6825H84.2421ZM92.2432 20.0225C92.2432 20.2305 92.2312 20.4505 92.2072 20.6825H86.9512C86.9912 21.3305 87.2112 21.8385 87.6112 22.2065C88.0192 22.5665 88.5112 22.7465 89.0872 22.7465C89.5592 22.7465 89.9512 22.6385 90.2632 22.4225C90.5832 22.1985 90.8072 21.9025 90.9352 21.5345H92.1112C91.9352 22.1665 91.5832 22.6825 91.0552 23.0825C90.5272 23.4745 89.8712 23.6705 89.0872 23.6705C88.4632 23.6705 87.9032 23.5305 87.4072 23.2505C86.9192 22.9705 86.5352 22.5745 86.2552 22.0625C85.9752 21.5425 85.8352 20.9425 85.8352 20.2625C85.8352 19.5825 85.9712 18.9865 86.2432 18.4745C86.5152 17.9625 86.8952 17.5705 87.3832 17.2985C87.8792 17.0185 88.4472 16.8785 89.0872 16.8785C89.7112 16.8785 90.2632 17.0145 90.7432 17.2865C91.2232 17.5585 91.5912 17.9345 91.8472 18.4145C92.1112 18.8865 92.2432 19.4225 92.2432 20.0225ZM91.1152 19.7945C91.1152 19.3785 91.0232 19.0225 90.8392 18.7265C90.6552 18.4225 90.4032 18.1945 90.0832 18.0425C89.7712 17.8825 89.4232 17.8025 89.0392 17.8025C88.4872 17.8025 88.0152 17.9785 87.6232 18.3305C87.2392 18.6825 87.0192 19.1705 86.9632 19.7945H91.1152Z" fill="#292A32"/>
<path d="M144.615 24C144.271 24 143.977 23.8775 143.732 23.6325C143.487 23.3875 143.365 23.0933 143.365 22.75V20.875H144.615V22.75H152.115V20.875H153.365V22.75C153.365 23.0937 153.243 23.3881 152.998 23.6331C152.753 23.8781 152.459 24.0004 152.115 24H144.615ZM148.365 21.5L145.24 18.375L146.115 17.4687L147.74 19.0937V14H148.99V19.0937L150.615 17.4687L151.49 18.375L148.365 21.5Z" fill="#0A4D68"/>
</svg>
