<svg width="181" height="39" viewBox="0 0 181 39" fill="none" xmlns="http://www.w3.org/2000/svg">
<path d="M46.836 15.636L43.68 24H42.42L39.264 15.636H40.428L43.056 22.848L45.684 15.636H46.836ZM48.7374 16.356C48.5294 16.356 48.3534 16.284 48.2094 16.14C48.0654 15.996 47.9934 15.82 47.9934 15.612C47.9934 15.404 48.0654 15.228 48.2094 15.084C48.3534 14.94 48.5294 14.868 48.7374 14.868C48.9374 14.868 49.1054 14.94 49.2414 15.084C49.3854 15.228 49.4574 15.404 49.4574 15.612C49.4574 15.82 49.3854 15.996 49.2414 16.14C49.1054 16.284 48.9374 16.356 48.7374 16.356ZM49.2654 17.424V24H48.1734V17.424H49.2654ZM50.8585 20.688C50.8585 20.016 50.9945 19.428 51.2665 18.924C51.5385 18.412 51.9105 18.016 52.3825 17.736C52.8625 17.456 53.3985 17.316 53.9905 17.316C54.5025 17.316 54.9785 17.436 55.4185 17.676C55.8585 17.908 56.1945 18.216 56.4265 18.6V15.12H57.5305V24H56.4265V22.764C56.2105 23.156 55.8905 23.48 55.4665 23.736C55.0425 23.984 54.5465 24.108 53.9785 24.108C53.3945 24.108 52.8625 23.964 52.3825 23.676C51.9105 23.388 51.5385 22.984 51.2665 22.464C50.9945 21.944 50.8585 21.352 50.8585 20.688ZM56.4265 20.7C56.4265 20.204 56.3265 19.772 56.1265 19.404C55.9265 19.036 55.6545 18.756 55.3105 18.564C54.9745 18.364 54.6025 18.264 54.1945 18.264C53.7865 18.264 53.4145 18.36 53.0785 18.552C52.7425 18.744 52.4745 19.024 52.2745 19.392C52.0745 19.76 51.9745 20.192 51.9745 20.688C51.9745 21.192 52.0745 21.632 52.2745 22.008C52.4745 22.376 52.7425 22.66 53.0785 22.86C53.4145 23.052 53.7865 23.148 54.1945 23.148C54.6025 23.148 54.9745 23.052 55.3105 22.86C55.6545 22.66 55.9265 22.376 56.1265 22.008C56.3265 21.632 56.4265 21.196 56.4265 20.7ZM65.5159 20.46C65.5159 20.668 65.5039 20.888 65.4799 21.12H60.2239C60.2639 21.768 60.4839 22.276 60.8839 22.644C61.2919 23.004 61.7839 23.184 62.3599 23.184C62.8319 23.184 63.2239 23.076 63.5359 22.86C63.8559 22.636 64.0799 22.34 64.2079 21.972H65.3839C65.2079 22.604 64.8559 23.12 64.3279 23.52C63.7999 23.912 63.1439 24.108 62.3599 24.108C61.7359 24.108 61.1759 23.968 60.6799 23.688C60.1919 23.408 59.8079 23.012 59.5279 22.5C59.2479 21.98 59.1079 21.38 59.1079 20.7C59.1079 20.02 59.2439 19.424 59.5159 18.912C59.7879 18.4 60.1679 18.008 60.6559 17.736C61.1519 17.456 61.7199 17.316 62.3599 17.316C62.9839 17.316 63.5359 17.452 64.0159 17.724C64.4959 17.996 64.8639 18.372 65.1199 18.852C65.3839 19.324 65.5159 19.86 65.5159 20.46ZM64.3879 20.232C64.3879 19.816 64.2959 19.46 64.1119 19.164C63.9279 18.86 63.6759 18.632 63.3559 18.48C63.0439 18.32 62.6959 18.24 62.3119 18.24C61.7599 18.24 61.2879 18.416 60.8959 18.768C60.5119 19.12 60.2919 19.608 60.2359 20.232H64.3879ZM69.9653 24.108C69.3493 24.108 68.7893 23.968 68.2853 23.688C67.7893 23.408 67.3973 23.012 67.1093 22.5C66.8293 21.98 66.6893 21.38 66.6893 20.7C66.6893 20.028 66.8333 19.436 67.1213 18.924C67.4173 18.404 67.8173 18.008 68.3213 17.736C68.8253 17.456 69.3893 17.316 70.0133 17.316C70.6373 17.316 71.2013 17.456 71.7053 17.736C72.2093 18.008 72.6053 18.4 72.8933 18.912C73.1893 19.424 73.3373 20.02 73.3373 20.7C73.3373 21.38 73.1853 21.98 72.8813 22.5C72.5853 23.012 72.1813 23.408 71.6693 23.688C71.1573 23.968 70.5893 24.108 69.9653 24.108ZM69.9653 23.148C70.3573 23.148 70.7253 23.056 71.0693 22.872C71.4133 22.688 71.6893 22.412 71.8973 22.044C72.1133 21.676 72.2213 21.228 72.2213 20.7C72.2213 20.172 72.1173 19.724 71.9093 19.356C71.7013 18.988 71.4293 18.716 71.0933 18.54C70.7573 18.356 70.3933 18.264 70.0013 18.264C69.6013 18.264 69.2333 18.356 68.8973 18.54C68.5693 18.716 68.3053 18.988 68.1053 19.356C67.9053 19.724 67.8053 20.172 67.8053 20.7C67.8053 21.236 67.9013 21.688 68.0933 22.056C68.2933 22.424 68.5573 22.7 68.8853 22.884C69.2133 23.06 69.5733 23.148 69.9653 23.148Z" fill="#292A32"/>
<rect x="0.5" y="0.5" width="179.818" height="38" rx="11.5" stroke="#C7C6C6"/>
<path d="M30.9252 28.7271H17.5312V12.1816H26.7396L30.9252 16.121V28.7271Z" fill="#C3DBE2"/>
<path d="M30.2966 16.5159H26.3203V12.7734L30.2966 16.5159Z" fill="#E1F5FE"/>
<path d="M26.7403 22.0297L22.5547 19.666V24.3933L26.7403 22.0297Z" fill="#065574"/>
</svg>
