<svg width="1519" height="482" viewBox="0 0 1519 482" fill="none" xmlns="http://www.w3.org/2000/svg">
<path d="M316 89H465.052C539.611 89 600.052 149.442 600.052 224V224C600.052 298.558 539.61 359 465.052 359H316V89Z" fill="white"/>
<path d="M159 359L159 135C159 60.4416 219.442 -2.64198e-06 294 -5.90104e-06V-5.90104e-06C368.558 -9.16009e-06 429 60.4416 429 135L429 326.364C429 344.388 414.388 359 396.364 359L159 359Z" fill="white"/>
<path d="M481 228C481 219.163 488.163 212 497 212H595C597.761 212 600 214.239 600 217V239C600 241.761 597.761 244 595 244H497C488.163 244 481 236.837 481 228V228Z" fill="#0071B1"/>
<path d="M162.036 358.535C162.722 361.281 171.265 371.459 186.443 387.694C205.13 407.484 217.716 419.197 236.25 433.817C268.666 459.342 298.947 474.931 323.965 478.97C348.754 483.089 353.788 483.009 357.22 478.727C360.5 474.608 359.661 471.458 351.195 455.787C332.431 420.731 319.388 386.725 315.575 362.816L314.659 357H238.157C162.951 357 161.654 357 162.036 358.535Z" fill="white"/>
<path d="M0 224C0 149.442 60.4416 89 135 89H157.5C244.485 89 315 159.515 315 246.5V359H135C60.4416 359 0 298.558 0 224V224Z" fill="white"/>
<path d="M258.946 323C251.419 323 244.905 319.65 243.378 312.274L222.284 211.323L208.392 235.301C205.541 240.137 200.324 243.582 194.716 243.582H117.892C109.122 243.582 102 236.463 102 227.709C102 218.942 109.122 211.809 117.892 211.809H185.635L215.838 160.787C219.176 155.153 225.581 152.087 232.122 153.195C238.595 154.275 243.743 159.22 245.068 165.636L257.838 227.331L286.959 65.8198C288.324 58.2549 294.905 53 302.608 53C302.622 53 302.662 53 302.676 53C310.392 53 316.973 58.3495 318.27 65.9414L349.351 247.243L359.351 221.914C361.73 215.835 367.595 211.796 374.122 211.796H515.122C523.892 211.796 531 218.915 531 227.696C531 236.449 523.892 243.568 515.122 243.568H384.919L358.027 311.518C355.419 318.137 348.811 322.149 341.608 321.474C334.541 320.731 328.797 315.368 327.595 308.356L302.23 160.219L274.581 311.869C273.23 319.353 266.757 323 259.149 323C259.081 323 259.014 323 258.946 323Z" fill="#0071B1"/>
<path d="M0 217C0 214.239 2.23858 212 5 212H151C159.837 212 167 219.163 167 228V228C167 236.837 159.837 244 151 244H5C2.23858 244 0 241.761 0 239V217Z" fill="#0071B1"/>
<path d="M805.6 266.2C806.933 259.133 808.133 253 809.2 247.8C810.267 242.467 811.2 237.533 812 233C812.8 228.467 813.533 224 814.2 219.6C815 215.067 815.8 210.067 816.6 204.6C817.533 199 818.533 192.667 819.6 185.6C820.8 178.4 822.2 169.8 823.8 159.8C824.2 157.267 824.867 155.667 825.8 155C826.733 154.2 829.067 153.8 832.8 153.8C834.267 153.8 836.467 153.933 839.4 154.2C842.333 154.333 845.267 154.933 848.2 156C851.133 156.933 853.667 158.467 855.8 160.6C858.067 162.6 859.2 165.467 859.2 169.2C859.2 171.333 858.8 174.667 858 179.2C857.2 183.6 856.067 188.733 854.6 194.6C853.267 200.333 851.667 206.6 849.8 213.4C848.067 220.2 846.267 227.067 844.4 234C842.533 240.933 840.6 247.667 838.6 254.2C836.733 260.733 834.933 266.667 833.2 272C831.6 277.2 830.133 281.6 828.8 285.2C827.467 288.8 826.533 291.133 826 292.2C825.2 293.667 824.067 294.667 822.6 295.2C821.133 295.733 819.667 296 818.2 296H799.2C795.733 296 792.8 295.333 790.4 294C788.133 292.667 786.2 290.933 784.6 288.8C783.133 286.667 781.933 284.267 781 281.6C780.2 278.933 779.667 276.2 779.4 273.4L769.4 183.6C768.6 189.467 767.667 196.067 766.6 203.4C765.667 210.733 764.6 218.2 763.4 225.8C762.333 233.4 761.267 240.867 760.2 248.2C759.133 255.533 758.067 262.267 757 268.4C755.933 274.4 754.933 279.533 754 283.8C753.067 288.067 752.267 290.867 751.6 292.2C750.933 293.667 749.867 294.667 748.4 295.2C746.933 295.733 745.4 296 743.8 296H724.8C721.467 296 718.667 295.4 716.4 294.2C714.267 292.867 712.467 291.133 711 289C709.533 286.867 708.333 284.467 707.4 281.8C706.467 279 705.667 276.2 705 273.4C699.533 251.667 695.067 233.8 691.6 219.8C688.267 205.8 685.6 194.6 683.6 186.2C681.6 177.667 680.2 171.467 679.4 167.6C678.733 163.6 678.4 160.733 678.4 159C678.4 156.733 679.067 155.267 680.4 154.6C681.867 153.933 684.867 153.6 689.4 153.6C695 153.6 699.667 154 703.4 154.8C707.267 155.6 710.4 156.867 712.8 158.6C715.2 160.2 717 162.4 718.2 165.2C719.533 167.867 720.4 171.133 720.8 175C720.8 175.533 720.867 176.333 721 177.4C721.133 178.333 721.267 179.933 721.4 182.2C721.667 184.467 722 187.6 722.4 191.6C722.933 195.467 723.533 200.667 724.2 207.2C725 213.733 725.933 221.867 727 231.6C728.2 241.2 729.6 252.733 731.2 266.2C732.667 258.067 733.8 251.533 734.6 246.6C735.533 241.533 736.333 237.133 737 233.4C737.667 229.533 738.267 225.867 738.8 222.4C739.333 218.8 739.933 214.4 740.6 209.2C741.4 203.867 742.267 197.2 743.2 189.2C744.267 181.2 745.6 170.8 747.2 158C747.333 157.067 747.867 156.333 748.8 155.8C749.867 155.267 751.133 154.867 752.6 154.6C754.067 154.333 755.667 154.2 757.4 154.2C759.267 154.067 761 154 762.6 154C767.933 154 772.467 154.333 776.2 155C779.933 155.533 783 156.533 785.4 158C787.933 159.467 789.933 161.467 791.4 164C792.867 166.4 794.067 169.4 795 173C795.4 174.733 795.867 177.133 796.4 180.2C796.933 183.133 797.533 187.867 798.2 194.4C799 200.933 799.933 209.933 801 221.4C802.2 232.733 803.733 247.667 805.6 266.2ZM890.058 296C885.924 296 882.524 295.6 879.858 294.8C877.324 293.867 875.258 292.6 873.658 291C872.191 289.4 871.124 287.467 870.458 285.2C869.924 282.8 869.658 280.067 869.658 277C869.658 275 869.724 272.2 869.858 268.6C870.124 264.867 870.524 259.8 871.058 253.4C871.591 246.867 872.191 238.667 872.858 228.8C873.658 218.8 874.591 206.467 875.658 191.8C875.791 188.867 876.124 187.133 876.658 186.6C877.058 186.2 878.124 186 879.858 186H887.658C891.791 186 895.124 186.4 897.658 187.2C900.324 188 902.391 189.2 903.858 190.8C905.458 192.4 906.524 194.333 907.058 196.6C907.724 198.867 908.058 201.4 908.058 204.2C908.058 206.2 907.924 209.2 907.658 213.2C907.391 217.2 906.991 222.667 906.458 229.6C906.058 236.4 905.458 244.933 904.658 255.2C903.858 265.333 902.858 277.6 901.658 292C901.524 293.6 901.191 294.667 900.658 295.2C900.124 295.733 898.991 296 897.258 296H890.058ZM875.858 162.4C875.858 157.067 877.791 152.867 881.658 149.8C885.524 146.733 890.724 145.2 897.258 145.2C902.991 145.2 907.124 146.4 909.658 148.8C912.324 151.067 913.658 154.133 913.658 158C913.658 162.933 911.791 167.067 908.058 170.4C904.458 173.6 899.124 175.2 892.058 175.2C881.258 175.2 875.858 170.933 875.858 162.4ZM920.108 296C918.641 296 917.908 295.267 917.908 293.8L918.508 283C918.641 279.4 919.841 275.933 922.108 272.6C924.508 269.267 927.841 265.133 932.108 260.2C936.374 255.267 941.641 249.067 947.908 241.6C954.174 234 961.441 224.133 969.708 212H932.108C931.041 212 930.374 211.8 930.108 211.4C929.974 210.867 929.908 210.133 929.908 209.2L930.508 200C930.641 198.267 930.841 196.6 931.108 195C931.508 193.267 932.174 191.733 933.108 190.4C934.174 189.067 935.641 188 937.508 187.2C939.374 186.4 941.841 186 944.908 186H1013.31C1014.11 186 1014.84 186.2 1015.51 186.6C1016.17 187 1016.51 187.733 1016.51 188.8L1015.71 199.6C1015.57 202.933 1014.24 206.467 1011.71 210.2C1011.31 210.867 1009.57 213 1006.51 216.6C1003.44 220.2 999.641 224.8 995.108 230.4C990.708 235.867 985.774 242.067 980.308 249C974.974 255.8 969.708 262.8 964.508 270H1007.31C1008.11 270 1008.84 270.2 1009.51 270.6C1010.17 271 1010.51 271.733 1010.51 272.8L1009.71 282.6C1009.44 286.6 1008.31 289.867 1006.31 292.4C1004.44 294.8 1000.51 296 994.508 296H920.108ZM1051.05 296C1043.45 296 1038.05 294.533 1034.85 291.6C1031.78 288.533 1030.25 284.067 1030.25 278.2C1030.25 276.467 1030.31 273.733 1030.45 270C1030.71 266.133 1031.05 261.6 1031.45 256.4C1031.85 251.2 1032.25 245.533 1032.65 239.4C1033.18 233.267 1033.71 227 1034.25 220.6C1034.91 212.733 1035.45 206 1035.85 200.4C1036.38 194.667 1036.78 189.8 1037.05 185.8C1037.31 181.667 1037.51 178.267 1037.65 175.6C1037.91 172.8 1038.05 170.4 1038.05 168.4C1038.18 166.267 1038.25 164.333 1038.25 162.6C1038.38 160.867 1038.45 159 1038.45 157C1038.45 155.933 1038.78 155.2 1039.45 154.8C1040.11 154.267 1040.78 154 1041.45 154C1044.91 154 1048.71 153.933 1052.85 153.8C1056.98 153.533 1061.11 153.267 1065.25 153C1069.38 152.733 1073.38 152.533 1077.25 152.4C1081.11 152.133 1084.51 152 1087.45 152C1095.98 152 1103.31 153.067 1109.45 155.2C1115.58 157.2 1120.51 160.2 1124.25 164.2C1128.11 168.067 1130.91 172.8 1132.65 178.4C1134.51 184 1135.45 190.4 1135.45 197.6C1135.45 205.467 1134.38 213.067 1132.25 220.4C1130.25 227.6 1127.05 234 1122.65 239.6C1118.25 245.2 1112.58 249.667 1105.65 253C1098.71 256.333 1090.45 258 1080.85 258C1075.11 258 1070.25 257.4 1066.25 256.2L1063.45 293C1063.31 294.067 1063.05 294.867 1062.65 295.4C1062.25 295.8 1061.45 296 1060.25 296H1051.05ZM1083.45 182C1081.71 182 1079.78 182.133 1077.65 182.4C1075.51 182.533 1073.25 182.733 1070.85 183C1070.58 188.6 1070.25 195.4 1069.85 203.4C1069.45 211.4 1068.91 219.8 1068.25 228.6C1070.25 229.133 1072.18 229.533 1074.05 229.8C1076.05 229.933 1077.85 230 1079.45 230C1084.11 230 1087.85 228.933 1090.65 226.8C1093.58 224.533 1095.85 221.8 1097.45 218.6C1099.05 215.4 1100.11 212.067 1100.65 208.6C1101.18 205.133 1101.45 202.133 1101.45 199.6C1101.45 193.867 1100.11 189.533 1097.45 186.6C1094.91 183.533 1090.25 182 1083.45 182ZM1184.03 203C1184.03 205.8 1183.76 209.733 1183.23 214.8C1182.83 219.867 1182.36 225.133 1181.83 230.6C1181.43 236.067 1180.96 241.2 1180.43 246C1180.03 250.8 1179.83 254.267 1179.83 256.4C1179.83 261.067 1180.96 264.733 1183.23 267.4C1185.63 269.933 1188.89 271.2 1193.03 271.2C1196.63 271.2 1199.63 269.8 1202.03 267C1204.56 264.067 1206.56 260.333 1208.03 255.8C1209.63 251.133 1210.89 245.867 1211.83 240C1212.76 234.133 1213.43 228.2 1213.83 222.2C1214.36 216.2 1214.76 210.4 1215.03 204.8C1215.43 199.067 1215.83 194.133 1216.23 190C1216.36 188.933 1216.76 188 1217.43 187.2C1218.09 186.4 1219.16 186 1220.63 186H1227.83C1231.96 186 1235.29 186.467 1237.83 187.4C1240.49 188.2 1242.56 189.4 1244.03 191C1245.63 192.6 1246.69 194.6 1247.23 197C1247.89 199.267 1248.23 201.933 1248.23 205C1248.23 207 1248.09 209.867 1247.82 213.6C1247.69 217.2 1247.36 222.267 1246.83 228.8C1246.29 235.2 1245.63 243.4 1244.83 253.4C1244.16 263.267 1243.29 275.533 1242.23 290.2C1241.96 293 1241.63 294.667 1241.23 295.2C1240.96 295.733 1239.89 296 1238.03 296H1230.23C1226.23 296 1222.89 295.533 1220.23 294.6C1217.69 293.667 1215.63 292.467 1214.03 291C1212.43 289.533 1211.29 287.8 1210.63 285.8C1209.96 283.8 1209.56 281.733 1209.43 279.6C1207.43 283.067 1205.16 286 1202.63 288.4C1200.23 290.8 1197.69 292.733 1195.03 294.2C1192.36 295.533 1189.63 296.467 1186.83 297C1184.03 297.667 1181.29 298 1178.63 298C1173.56 298 1169.03 297.2 1165.03 295.6C1161.03 293.867 1157.63 291.6 1154.83 288.8C1152.16 286 1150.09 282.667 1148.63 278.8C1147.16 274.933 1146.43 270.8 1146.43 266.4C1146.43 264.667 1146.49 261.867 1146.63 258C1146.89 254 1147.16 249.533 1147.43 244.6C1147.83 239.667 1148.23 234.467 1148.63 229C1149.03 223.4 1149.36 218.133 1149.63 213.2C1150.03 208.267 1150.36 203.933 1150.63 200.2C1151.03 196.467 1151.29 193.8 1151.43 192.2C1151.69 189.8 1152.23 188.2 1153.03 187.4C1153.83 186.467 1155.16 186 1157.03 186H1163.43C1167.56 186 1170.96 186.4 1173.63 187.2C1176.29 188 1178.36 189.133 1179.83 190.6C1181.43 192.067 1182.49 193.867 1183.03 196C1183.69 198 1184.03 200.333 1184.03 203ZM1288.95 297.8C1280.68 297.8 1274.75 295.6 1271.15 291.2C1267.55 286.8 1265.75 279.533 1265.75 269.4C1265.75 267.8 1265.81 265.8 1265.95 263.4C1266.21 261 1266.48 257.933 1266.75 254.2C1267.15 250.333 1267.61 245.6 1268.15 240C1268.68 234.4 1269.21 227.6 1269.75 219.6C1270.41 211.6 1271.08 202.2 1271.75 191.4C1272.55 180.6 1273.35 168.067 1274.15 153.8C1274.28 150.867 1274.61 149.133 1275.15 148.6C1275.55 148.2 1276.61 148 1278.35 148H1286.15C1290.15 148 1293.48 148.467 1296.15 149.4C1298.81 150.333 1300.95 151.6 1302.55 153.2C1304.15 154.8 1305.28 156.667 1305.95 158.8C1306.61 160.8 1306.95 162.933 1306.95 165.2C1306.95 167.867 1306.75 171.733 1306.35 176.8C1306.08 181.733 1305.68 187.333 1305.15 193.6C1304.61 199.867 1304.08 206.4 1303.55 213.2C1303.01 220 1302.48 226.533 1301.95 232.8C1301.41 238.933 1300.95 244.467 1300.55 249.4C1300.28 254.333 1300.15 258.067 1300.15 260.6C1300.15 264.067 1300.75 266.533 1301.95 268C1303.28 269.467 1304.68 270.533 1306.15 271.2C1307.61 271.733 1308.95 272.133 1310.15 272.4C1311.48 272.533 1312.15 272.933 1312.15 273.6C1312.15 276.533 1311.81 279.467 1311.15 282.4C1310.48 285.2 1309.28 287.8 1307.55 290.2C1305.81 292.467 1303.41 294.333 1300.35 295.8C1297.41 297.133 1293.61 297.8 1288.95 297.8ZM1372.7 184C1384.03 184 1392.37 186.267 1397.7 190.8C1403.03 195.2 1405.7 200.867 1405.7 207.8C1405.7 213.667 1403.83 218.133 1400.1 221.2C1396.5 224.267 1391.23 225.8 1384.3 225.8C1382.43 225.8 1381.17 225.6 1380.5 225.2C1379.83 224.8 1379.5 224.067 1379.5 223C1379.5 221.8 1379.37 220.467 1379.1 219C1378.97 217.4 1378.5 215.933 1377.7 214.6C1377.03 213.133 1375.9 211.933 1374.3 211C1372.83 210.067 1370.7 209.6 1367.9 209.6C1364.17 209.6 1361.17 210.533 1358.9 212.4C1356.63 214.133 1355.5 216.333 1355.5 219C1355.5 221.8 1356.63 224.067 1358.9 225.8C1361.3 227.4 1364.23 228.933 1367.7 230.4C1371.3 231.867 1375.17 233.4 1379.3 235C1383.43 236.467 1387.23 238.467 1390.7 241C1394.3 243.533 1397.23 246.733 1399.5 250.6C1401.9 254.333 1403.1 259.2 1403.1 265.2C1403.1 274.8 1399.7 282.667 1392.9 288.8C1386.1 294.933 1375.9 298 1362.3 298C1358.57 298 1354.23 297.667 1349.3 297C1344.5 296.467 1339.9 295.6 1335.5 294.4C1331.1 293.067 1327.37 291.333 1324.3 289.2C1321.37 287.067 1319.9 284.4 1319.9 281.2C1319.9 280 1320.1 278.533 1320.5 276.8C1321.03 275.067 1321.77 273.4 1322.7 271.8C1323.77 270.2 1324.97 268.867 1326.3 267.8C1327.77 266.6 1329.5 266 1331.5 266C1333.1 266 1334.57 266.4 1335.9 267.2C1337.23 268 1338.77 268.867 1340.5 269.8C1342.37 270.6 1344.63 271.4 1347.3 272.2C1349.97 273 1353.5 273.4 1357.9 273.4C1361.23 273.4 1364.17 273 1366.7 272.2C1369.37 271.4 1370.7 269.6 1370.7 266.8C1370.7 264.267 1369.63 262.267 1367.5 260.8C1365.37 259.2 1362.63 257.733 1359.3 256.4C1356.1 255.067 1352.57 253.667 1348.7 252.2C1344.97 250.6 1341.43 248.533 1338.1 246C1334.9 243.467 1332.23 240.267 1330.1 236.4C1327.97 232.4 1326.9 227.267 1326.9 221C1326.9 214.2 1328.23 208.467 1330.9 203.8C1333.7 199 1337.23 195.133 1341.5 192.2C1345.9 189.267 1350.83 187.2 1356.3 186C1361.77 184.667 1367.23 184 1372.7 184ZM1466.24 298C1460.38 298 1454.51 297.267 1448.64 295.8C1442.91 294.333 1437.71 291.8 1433.04 288.2C1428.51 284.6 1424.78 279.8 1421.84 273.8C1418.91 267.8 1417.44 260.267 1417.44 251.2C1417.44 247.867 1417.71 243.867 1418.24 239.2C1418.78 234.533 1419.78 229.733 1421.24 224.8C1422.84 219.867 1424.98 215 1427.64 210.2C1430.44 205.267 1434.04 200.867 1438.44 197C1442.84 193.133 1448.18 190 1454.44 187.6C1460.71 185.2 1468.18 184 1476.84 184C1483.78 184 1489.64 184.8 1494.44 186.4C1499.24 188 1503.11 190.2 1506.04 193C1508.98 195.667 1511.11 198.8 1512.44 202.4C1513.78 206 1514.44 209.867 1514.44 214C1514.44 220.133 1513.18 225.333 1510.64 229.6C1508.24 233.867 1505.04 237.467 1501.04 240.4C1497.18 243.2 1492.84 245.4 1488.04 247C1483.24 248.6 1478.51 249.867 1473.84 250.8C1469.18 251.6 1464.84 252.133 1460.84 252.4C1456.98 252.533 1453.98 252.6 1451.84 252.6C1451.84 255.133 1452.18 257.667 1452.84 260.2C1453.64 262.6 1454.78 264.733 1456.24 266.6C1457.71 268.467 1459.64 270 1462.04 271.2C1464.44 272.4 1467.38 273 1470.84 273C1474.31 273 1476.98 272.467 1478.84 271.4C1480.84 270.2 1482.44 268.933 1483.64 267.6C1484.84 266.133 1485.84 264.867 1486.64 263.8C1487.58 262.6 1488.78 262 1490.24 262C1490.91 262 1492.04 262.2 1493.64 262.6C1495.38 262.867 1497.11 263.533 1498.84 264.6C1500.58 265.667 1502.11 267.133 1503.44 269C1504.78 270.867 1505.44 273.267 1505.44 276.2C1505.44 280.067 1504.24 283.4 1501.84 286.2C1499.44 289 1496.31 291.267 1492.44 293C1488.71 294.733 1484.51 296 1479.84 296.8C1475.18 297.6 1470.64 298 1466.24 298ZM1470.04 210.6C1467.11 210.6 1464.58 211.467 1462.44 213.2C1460.44 214.8 1458.71 216.867 1457.24 219.4C1455.91 221.933 1454.84 224.733 1454.04 227.8C1453.38 230.867 1452.84 233.8 1452.44 236.6C1460.71 236.467 1467.38 235.067 1472.44 232.4C1477.64 229.733 1480.24 225.933 1480.24 221C1480.24 218.333 1479.38 215.933 1477.64 213.8C1476.04 211.667 1473.51 210.6 1470.04 210.6Z" fill="white"/>
</svg>
