<svg width="2269" height="776" viewBox="0 0 2269 776" fill="none" xmlns="http://www.w3.org/2000/svg">
<path d="M1005.64 365.527C1016.04 365.527 1025.26 368.888 1033.28 375.608C1041.52 382.112 1048.78 393.928 1055.07 411.055L1089.54 502.76H1094.74L1131.16 375.283C1132.9 369.213 1135.06 363.359 1137.67 357.723C1140.48 352.086 1143.84 347.1 1147.75 342.764C1151.65 338.211 1156.31 334.634 1161.73 332.032C1167.15 329.214 1173.65 327.805 1181.24 327.805C1189.05 327.805 1195.66 329.214 1201.08 332.032C1206.5 334.851 1210.94 338.536 1214.41 343.089C1217.88 347.642 1220.37 352.845 1221.89 358.698C1223.41 364.552 1224.17 370.514 1224.17 376.584C1224.17 382.438 1223.3 388.183 1221.57 393.819C1220.05 399.239 1218.31 404.768 1216.36 410.404L1144.17 602.27C1139.18 615.061 1134.63 624.925 1130.51 631.862C1126.61 638.583 1122.71 643.569 1118.8 646.821C1114.9 649.857 1111 651.699 1107.1 652.35C1103.2 652.783 1099.08 653 1094.74 653C1089.97 653 1085.42 652.783 1081.08 652.35C1076.96 651.699 1072.74 649.857 1068.4 646.821C1064.28 643.569 1060.05 638.583 1055.72 631.862C1051.38 624.925 1046.83 615.061 1042.06 602.27L1008.24 485.199H1003.04L967.914 602.27C963.145 615.061 958.7 624.925 954.581 631.862C950.679 638.583 946.776 643.569 942.874 646.821C939.188 649.857 935.395 651.699 931.492 652.35C927.59 652.783 923.471 653 919.135 653C914.365 653 909.812 652.783 905.477 652.35C901.357 651.699 897.13 649.857 892.794 646.821C888.675 643.569 884.447 638.583 880.111 631.862C875.775 624.925 871.223 615.061 866.453 602.27L793.609 410.404C791.658 405.201 789.815 399.673 788.081 393.819C786.563 387.749 785.805 381.787 785.805 375.934C785.805 369.647 786.563 363.576 788.081 357.723C789.815 351.869 792.417 346.774 795.886 342.439C799.571 337.886 804.341 334.309 810.194 331.707C816.048 329.105 823.311 327.805 831.982 327.805C838.053 327.805 843.473 329.214 848.242 332.032C853.229 334.634 857.673 338.211 861.575 342.764C865.478 347.1 868.838 352.086 871.656 357.723C874.475 363.359 876.859 369.213 878.811 375.283L919.785 502.76H924.988L954.906 411.055C960.326 393.928 967.48 382.112 976.369 375.608C985.475 368.888 995.23 365.527 1005.64 365.527Z" fill="white"/>
<path d="M1523.04 467.639C1523.04 471.107 1522.82 475.227 1522.39 479.996C1521.95 484.549 1520.22 488.993 1517.18 493.329C1514.36 497.448 1509.81 501.025 1503.52 504.061C1497.24 507.096 1488.35 508.613 1476.86 508.613H1347.43V539.832C1347.43 545.035 1348.08 550.455 1349.38 556.092C1350.68 561.729 1352.85 566.932 1355.89 571.701C1359.14 576.471 1363.36 580.373 1368.57 583.408C1373.77 586.443 1380.17 587.961 1387.75 587.961C1396.43 587.961 1403.04 586.985 1407.59 585.034C1412.36 582.866 1416.05 580.265 1418.65 577.23C1421.47 574.194 1423.96 570.942 1426.13 567.474C1428.3 564.005 1431.11 560.753 1434.58 557.718C1438.27 554.683 1443.25 552.19 1449.54 550.238C1456.05 548.07 1464.93 546.986 1476.21 546.986C1481.63 546.986 1486.83 547.42 1491.82 548.287C1497.02 549.154 1501.57 550.78 1505.47 553.165C1509.38 555.55 1512.52 558.91 1514.91 563.246C1517.29 567.365 1518.48 572.785 1518.48 579.506C1518.48 593.598 1514.04 605.413 1505.15 614.952C1496.26 624.274 1485.1 631.754 1471.65 637.391C1458.21 643.027 1443.58 647.038 1427.75 649.423C1412.14 651.808 1397.51 653 1383.85 653C1365.86 652.783 1348.73 650.507 1332.47 646.171C1316.21 641.835 1301.79 634.898 1289.22 625.358C1276.86 615.819 1267 603.354 1259.63 587.961C1252.26 572.568 1248.57 553.707 1248.57 531.377V455.281C1248.57 434.686 1250.96 417.233 1255.72 402.925C1260.71 388.616 1267.11 376.692 1274.91 367.153C1282.72 357.614 1291.5 350.243 1301.25 345.04C1311.01 339.62 1320.87 335.609 1330.84 333.008C1340.82 330.406 1350.25 328.78 1359.14 328.13C1368.24 327.48 1376.05 327.154 1382.55 327.154C1404.45 327.154 1423.09 329.105 1438.48 333.008C1454.09 336.91 1467.1 342.005 1477.51 348.292C1487.91 354.579 1496.15 361.842 1502.22 370.08C1508.29 378.318 1512.85 386.882 1515.88 395.771C1518.92 404.442 1520.87 413.331 1521.73 422.437C1522.6 431.325 1523.04 439.672 1523.04 447.477V467.639ZM1347.43 459.834H1428.73C1428.73 449.645 1428.4 440.647 1427.75 432.843C1427.32 424.821 1425.69 418.101 1422.88 412.681C1420.27 407.261 1416.05 403.142 1410.19 400.323C1404.56 397.505 1396.43 396.096 1385.8 396.096C1376.91 396.096 1369.87 397.505 1364.67 400.323C1359.68 403.142 1355.89 406.719 1353.28 411.055C1350.68 415.174 1349.06 419.618 1348.41 424.388C1347.76 429.157 1347.43 433.385 1347.43 437.07V459.834Z" fill="white"/>
<path d="M1587.11 400.648C1587.11 391.543 1587.55 382.654 1588.41 373.982C1589.5 365.311 1591.77 357.614 1595.24 350.894C1598.71 343.956 1603.7 338.428 1610.2 334.309C1616.7 329.973 1625.48 327.805 1636.54 327.805C1647.6 327.805 1656.38 329.973 1662.88 334.309C1669.39 338.428 1674.37 343.956 1677.84 350.894C1681.31 357.614 1683.48 365.311 1684.35 373.982C1685.43 382.654 1685.97 391.543 1685.97 400.648V580.156C1685.97 589.262 1685.43 598.259 1684.35 607.148C1683.48 615.819 1681.31 623.624 1677.84 630.562C1674.37 637.282 1669.39 642.702 1662.88 646.821C1656.38 650.94 1647.6 653 1636.54 653C1625.48 653 1616.7 650.94 1610.2 646.821C1603.7 642.702 1598.71 637.282 1595.24 630.562C1591.77 623.624 1589.5 615.819 1588.41 607.148C1587.55 598.259 1587.11 589.262 1587.11 580.156V400.648ZM1686.62 247.156C1686.62 263.85 1682.29 276.315 1673.61 284.554C1664.94 292.575 1652.8 296.586 1637.19 296.586C1621.58 296.586 1609.44 292.575 1600.77 284.554C1592.1 276.315 1587.76 263.85 1587.76 247.156C1587.76 229.813 1592.1 217.238 1600.77 209.434C1609.44 201.629 1621.58 197.727 1637.19 197.727C1653.89 197.727 1666.24 201.629 1674.26 209.434C1682.5 217.238 1686.62 229.813 1686.62 247.156Z" fill="white"/>
<path d="M1977.68 376.584C1977.68 393.494 1973.46 405.852 1965 413.656C1956.76 421.461 1944.95 425.363 1929.56 425.363C1927.39 425.363 1924.24 425.58 1920.12 426.014C1916.22 426.23 1911.99 427.098 1907.44 428.615C1902.89 429.916 1898.23 431.976 1893.46 434.794C1888.91 437.396 1884.68 441.081 1880.78 445.851C1876.87 450.403 1873.73 456.257 1871.35 463.411C1868.96 470.565 1867.77 479.129 1867.77 489.102V582.107C1867.77 590.996 1867.23 599.668 1866.14 608.123C1865.28 616.578 1863.11 624.166 1859.64 630.887C1856.17 637.391 1851.18 642.702 1844.68 646.821C1838.18 650.94 1829.4 653 1818.34 653C1807.5 653 1798.94 650.94 1792.65 646.821C1786.36 642.702 1781.48 637.391 1778.01 630.887C1774.76 624.166 1772.59 616.578 1771.51 608.123C1770.64 599.668 1770.21 590.996 1770.21 582.107V399.998C1770.21 390.893 1770.64 382.112 1771.51 373.657C1772.59 364.985 1774.76 357.289 1778.01 350.568C1781.48 343.848 1786.36 338.536 1792.65 334.634C1798.94 330.515 1807.5 328.455 1818.34 328.455C1829.4 328.455 1837.85 330.948 1843.7 335.935C1849.77 340.704 1854.22 346.991 1857.04 354.796C1859.86 362.384 1861.48 370.947 1861.91 380.486C1862.35 389.809 1862.57 398.914 1862.57 407.803H1867.77C1870.8 395.662 1874.81 384.714 1879.8 374.958C1884.79 364.985 1890.32 356.639 1896.39 349.918C1902.46 342.98 1908.96 337.669 1915.9 333.983C1922.83 330.298 1929.77 328.455 1936.71 328.455C1945.16 328.455 1951.99 329.431 1957.2 331.382C1962.62 333.116 1966.84 335.935 1969.88 339.837C1972.91 343.739 1974.97 348.726 1976.06 354.796C1977.14 360.866 1977.68 368.129 1977.68 376.584Z" fill="white"/>
<path d="M2268.1 579.506C2268.1 588.611 2267.77 597.608 2267.12 606.497C2266.47 615.169 2264.52 622.974 2261.27 629.911C2258.02 636.849 2253.14 642.485 2246.63 646.821C2240.13 650.94 2231.02 653 2219.32 653C2207.39 653 2198.07 651.049 2191.35 647.147C2184.63 643.027 2179.64 638.149 2176.39 632.513C2173.14 626.659 2171.08 620.589 2170.21 614.302C2169.56 608.015 2169.24 602.703 2169.24 598.367C2167.29 604.654 2164.47 611.05 2160.78 617.554C2157.31 624.058 2152.76 629.911 2147.12 635.114C2141.49 640.317 2134.66 644.653 2126.64 648.122C2118.83 651.374 2109.62 653 2099 653C2087.07 653 2075.15 651.049 2063.22 647.147C2051.3 643.244 2040.57 636.74 2031.03 627.635C2021.49 618.529 2013.69 606.714 2007.62 592.189C2001.76 577.446 1998.84 559.344 1998.84 537.881V443.574C1998.84 421.895 2001.76 403.792 2007.62 389.267C2013.69 374.524 2021.49 362.709 2031.03 353.82C2040.57 344.715 2051.3 338.211 2063.22 334.309C2075.15 330.406 2087.07 328.455 2099 328.455C2109.62 328.455 2118.83 330.081 2126.64 333.333C2134.66 336.585 2141.49 340.813 2147.12 346.016C2152.76 351.219 2157.31 357.072 2160.78 363.576C2164.47 370.08 2167.29 376.584 2169.24 383.088C2169.24 372.248 2170.76 363.251 2173.79 356.097C2176.83 348.942 2180.73 343.306 2185.5 339.187C2190.27 334.851 2195.58 331.924 2201.43 330.406C2207.5 328.672 2213.46 327.805 2219.32 327.805C2230.16 327.805 2238.83 329.973 2245.33 334.309C2251.84 338.428 2256.72 343.956 2259.97 350.894C2263.44 357.614 2265.6 365.527 2266.47 374.633C2267.55 383.522 2268.1 392.627 2268.1 401.949V579.506ZM2099 529.426C2099 535.279 2099.21 541.024 2099.65 546.661C2100.08 552.298 2101.27 557.393 2103.22 561.945C2105.17 566.498 2107.99 570.184 2111.68 573.002C2115.58 575.604 2120.89 576.904 2127.61 576.904C2136.07 576.904 2142.9 575.062 2148.1 571.376C2153.52 567.474 2157.75 561.62 2160.78 553.815C2163.82 545.794 2165.88 535.821 2166.96 523.898C2168.26 511.757 2169.02 497.34 2169.24 480.647C2169.24 473.926 2168.59 466.23 2167.29 457.558C2166.2 448.669 2164.14 440.322 2161.11 432.518C2158.07 424.713 2153.84 418.101 2148.43 412.681C2143.01 407.261 2136.07 404.551 2127.61 404.551C2120.89 404.551 2115.58 405.96 2111.68 408.778C2107.99 411.38 2105.17 414.849 2103.22 419.185C2101.27 423.521 2100.08 428.507 2099.65 434.144C2099.21 439.564 2099 445.092 2099 450.729V529.426Z" fill="white"/>
<path d="M325.477 0.662813C254.379 6.73598 192.255 31.4688 136.996 75.5653C77.5125 123.094 35.4518 182.242 15.1254 246.582C8.96587 266.298 5.00618 284.342 2.01441 307.05C0.166559 320.957 -0.713372 371.918 0.694518 388.906C3.15832 420.592 10.1098 452.278 21.0209 481.676C25.5086 493.734 39.2355 521.635 46.9789 534.398C70.0331 572.509 106.638 612.645 143.947 640.722C191.376 676.457 241.62 698.021 298.111 706.911C316.942 709.816 332.076 710.872 357.155 710.872C383.816 710.872 395.432 710.168 416.55 707.263C437.844 704.359 472.425 696.701 472.425 694.941C472.425 694.501 470.754 693.356 468.73 692.3C462.13 688.867 445.676 679.01 436.348 672.76C402.911 650.316 379.593 628.136 359.09 599.09C348.971 584.743 343.78 581.663 323.981 578.318C299.079 574.093 284.912 569.604 263.442 559.13C239.068 547.16 220.589 533.254 201.495 512.482C170.873 479.123 152.395 438.723 145.971 390.93C144.387 379.488 143.859 344.809 145.003 331.519C150.283 269.379 175.449 218.857 220.325 180.305C249.803 154.957 281.832 140.258 323.277 132.952C335.5 131 339 130.224 358.298 130.224C381.177 129.696 391.472 130.4 409.51 133.568C451.571 141.05 489.232 160.766 520.03 191.484C555.051 226.514 574.233 264.626 582.505 315.235C584.881 329.67 585.849 366.813 584.265 381.864C581.009 412.846 573.969 438.107 561.65 463.104C545.196 496.727 518.974 525.684 484.217 548.745C472.425 556.578 467.498 561.419 463.802 568.9C459.402 577.79 458.083 585.184 458.611 598.914C459.315 618.19 465.21 638.346 477.089 662.022C487.736 683.322 497.152 695.821 513.254 709.992C537.716 731.644 566.754 746.695 605.735 757.961C634.509 766.323 672.962 772.66 709.831 775.3C724.438 776.356 725.23 776.268 728.309 774.684C732.533 772.308 734.821 768.963 734.997 764.826C735.085 758.401 733.413 756.289 723.294 749.863C683.169 724.426 652.107 692.124 628.877 651.812C621.662 639.226 620.694 636.233 620.694 625.935C620.694 617.838 620.958 616.694 623.51 611.413C625.269 607.804 628.965 602.787 633.629 597.77C660.731 568.372 680.177 540.031 696.28 506.408C720.918 454.83 732.005 397.707 729.365 336.184C727.605 295.96 721.27 264.45 707.983 229.507C702.527 214.984 690.12 189.723 682.993 178.369C672.874 162.262 670.938 159.357 663.37 149.324C626.325 100.386 575.377 57.8738 524.693 33.6692C490.024 17.122 454.563 6.91202 414.35 1.80704C400.535 0.134717 340.876 -0.657441 325.477 0.662813Z" fill="white"/>
<path d="M298 362C298 381.33 282.33 397 263 397C243.67 397 228 381.33 228 362C228 342.67 243.67 327 263 327C282.33 327 298 342.67 298 362Z" fill="white"/>
<path d="M403 362C403 381.33 387.33 397 368 397C348.67 397 333 381.33 333 362C333 342.67 348.67 327 368 327C387.33 327 403 342.67 403 362Z" fill="white"/>
<path d="M508 362C508 381.33 492.33 397 473 397C453.67 397 438 381.33 438 362C438 342.67 453.67 327 473 327C492.33 327 508 342.67 508 362Z" fill="white"/>
</svg>
