<svg width="173" height="38" viewBox="0 0 173 38" fill="none" xmlns="http://www.w3.org/2000/svg">
<rect x="0.5" y="0.5" width="172" height="36.3137" rx="11.5" stroke="#C7C6C6"/>
<path d="M25.4048 12.5H15.8543C15.776 12.4999 15.6985 12.5153 15.6262 12.5452C15.5539 12.5751 15.4881 12.6189 15.4327 12.6742C15.3773 12.7295 15.3334 12.7952 15.3034 12.8675C15.2734 12.9397 15.2579 13.0172 15.2578 13.0955V15.75L20.7923 17.375L26.0018 15.75V13.0955C26.0017 13.0172 25.9862 12.9397 25.9562 12.8673C25.9262 12.795 25.8822 12.7293 25.8267 12.674C25.7713 12.6187 25.7055 12.5749 25.6331 12.545C25.5607 12.5152 25.4831 12.4999 25.4048 12.5Z" fill="#41A5EE"/>
<path d="M26.0018 15.75H15.2578V19L20.7923 19.975L26.0018 19V15.75Z" fill="#2B7CD3"/>
<path d="M15.2578 19V22.25L20.4668 22.9L26.0018 22.25V19H15.2578Z" fill="#185ABD"/>
<path d="M15.8543 25.5H25.4043C25.4827 25.5002 25.5603 25.4849 25.6327 25.4551C25.7052 25.4253 25.771 25.3815 25.8265 25.3261C25.882 25.2708 25.9261 25.2051 25.9562 25.1328C25.9862 25.0604 26.0017 24.9829 26.0018 24.9045V22.25H15.2578V24.9045C15.2579 24.9828 15.2734 25.0603 15.3034 25.1325C15.3334 25.2048 15.3773 25.2705 15.4327 25.3258C15.4881 25.3811 15.5539 25.4249 15.6262 25.4548C15.6985 25.4847 15.776 25.5001 15.8543 25.5Z" fill="#103F91"/>
<path opacity="0.1" d="M19.2188 15.1016H15.2578V23.2266H19.2188C19.3766 23.2258 19.5278 23.1628 19.6396 23.0514C19.7513 22.9399 19.8146 22.7889 19.8158 22.6311V15.6971C19.8146 15.5392 19.7513 15.3882 19.6396 15.2768C19.5278 15.1653 19.3766 15.1023 19.2188 15.1016Z" fill="black"/>
<path opacity="0.2" d="M18.8933 15.4258H15.2578V23.5508H18.8933C19.0511 23.55 19.2023 23.4871 19.3141 23.3756C19.4258 23.2641 19.4891 23.1131 19.4903 22.9553V16.0213C19.4891 15.8635 19.4258 15.7124 19.3141 15.601C19.2023 15.4895 19.0511 15.4266 18.8933 15.4258Z" fill="black"/>
<path opacity="0.2" d="M18.8933 15.4258H15.2578V22.9008H18.8933C19.0511 22.9 19.2023 22.8371 19.3141 22.7256C19.4258 22.6141 19.4891 22.4631 19.4903 22.3053V16.0213C19.4891 15.8635 19.4258 15.7124 19.3141 15.601C19.2023 15.4895 19.0511 15.4266 18.8933 15.4258Z" fill="black"/>
<path opacity="0.2" d="M18.5678 15.4258H15.2578V22.9008H18.5678C18.7256 22.9 18.8768 22.8371 18.9886 22.7256C19.1003 22.6141 19.1636 22.4631 19.1648 22.3053V16.0213C19.1636 15.8635 19.1003 15.7124 18.9886 15.601C18.8768 15.4895 18.7256 15.4266 18.5678 15.4258Z" fill="black"/>
<path d="M12.597 15.4258H18.566C18.7241 15.4256 18.8758 15.4883 18.9878 15.6C19.0997 15.7116 19.1627 15.8632 19.163 16.0213V21.9803C19.1627 22.1384 19.0997 22.2899 18.9878 22.4016C18.8758 22.5133 18.7241 22.5759 18.566 22.5758H12.597C12.5187 22.5759 12.4411 22.5606 12.3687 22.5307C12.2963 22.5009 12.2305 22.4571 12.1751 22.4017C12.1197 22.3464 12.0757 22.2808 12.0456 22.2084C12.0156 22.1361 12.0001 22.0586 12 21.9803V16.0213C12.0001 15.943 12.0156 15.8654 12.0456 15.7931C12.0757 15.7208 12.1197 15.6551 12.1751 15.5998C12.2305 15.5445 12.2963 15.5007 12.3687 15.4708C12.4411 15.441 12.5187 15.4257 12.597 15.4258Z" fill="url(#paint0_linear_3353_10572)"/>
<path d="M14.4488 19.9926C14.4603 20.0846 14.4683 20.1646 14.4718 20.2331H14.4857C14.4907 20.1681 14.5017 20.0896 14.5182 19.9981C14.5347 19.9066 14.5492 19.8291 14.5627 19.7656L15.1903 17.0621H16.0022L16.6523 19.7251C16.6901 19.8898 16.7172 20.0568 16.7332 20.2251H16.7443C16.7562 20.0613 16.7787 19.8985 16.8118 19.7376L17.3313 17.0586H18.0697L17.1578 20.9326H16.2942L15.6758 18.3696C15.6578 18.2956 15.6374 18.1993 15.6148 18.0806C15.5921 17.9619 15.5781 17.8753 15.5727 17.8206H15.5622C15.5552 17.8836 15.5412 17.9771 15.5203 18.1011C15.4993 18.2256 15.4827 18.3171 15.4702 18.3771L14.8888 20.9341H14.0108L13.0938 17.0621H13.8438L14.4093 19.7711C14.4261 19.8442 14.4393 19.9181 14.4488 19.9926Z" fill="white"/>
<path d="M54.436 15.1985L52.012 23.5625H50.788L48.844 16.8305L46.828 23.5625L45.616 23.5745L43.276 15.1985H44.44L46.264 22.2905L48.28 15.1985H49.504L51.424 22.2665L53.26 15.1985H54.436ZM58.639 23.6705C58.023 23.6705 57.463 23.5305 56.959 23.2505C56.463 22.9705 56.071 22.5745 55.783 22.0625C55.503 21.5425 55.363 20.9425 55.363 20.2625C55.363 19.5905 55.507 18.9985 55.795 18.4865C56.091 17.9665 56.491 17.5705 56.995 17.2985C57.499 17.0185 58.063 16.8785 58.687 16.8785C59.311 16.8785 59.875 17.0185 60.379 17.2985C60.883 17.5705 61.279 17.9625 61.567 18.4745C61.863 18.9865 62.011 19.5825 62.011 20.2625C62.011 20.9425 61.859 21.5425 61.555 22.0625C61.259 22.5745 60.855 22.9705 60.343 23.2505C59.831 23.5305 59.263 23.6705 58.639 23.6705ZM58.639 22.7105C59.031 22.7105 59.399 22.6185 59.743 22.4345C60.087 22.2505 60.363 21.9745 60.571 21.6065C60.787 21.2385 60.895 20.7905 60.895 20.2625C60.895 19.7345 60.791 19.2865 60.583 18.9185C60.375 18.5505 60.103 18.2785 59.767 18.1025C59.431 17.9185 59.067 17.8265 58.675 17.8265C58.275 17.8265 57.907 17.9185 57.571 18.1025C57.243 18.2785 56.979 18.5505 56.779 18.9185C56.579 19.2865 56.479 19.7345 56.479 20.2625C56.479 20.7985 56.575 21.2505 56.767 21.6185C56.967 21.9865 57.231 22.2625 57.559 22.4465C57.887 22.6225 58.247 22.7105 58.639 22.7105ZM64.6788 18.0545C64.8708 17.6785 65.1428 17.3865 65.4948 17.1785C65.8548 16.9705 66.2908 16.8665 66.8028 16.8665V17.9945H66.5148C65.2908 17.9945 64.6788 18.6585 64.6788 19.9865V23.5625H63.5868V16.9865H64.6788V18.0545ZM67.7954 20.2505C67.7954 19.5785 67.9314 18.9905 68.2034 18.4865C68.4754 17.9745 68.8474 17.5785 69.3194 17.2985C69.7994 17.0185 70.3354 16.8785 70.9274 16.8785C71.4394 16.8785 71.9154 16.9985 72.3554 17.2385C72.7954 17.4705 73.1314 17.7785 73.3634 18.1625V14.6825H74.4674V23.5625H73.3634V22.3265C73.1474 22.7185 72.8274 23.0425 72.4034 23.2985C71.9794 23.5465 71.4834 23.6705 70.9154 23.6705C70.3314 23.6705 69.7994 23.5265 69.3194 23.2385C68.8474 22.9505 68.4754 22.5465 68.2034 22.0265C67.9314 21.5065 67.7954 20.9145 67.7954 20.2505ZM73.3634 20.2625C73.3634 19.7665 73.2634 19.3345 73.0634 18.9665C72.8634 18.5985 72.5914 18.3185 72.2474 18.1265C71.9114 17.9265 71.5394 17.8265 71.1314 17.8265C70.7234 17.8265 70.3514 17.9225 70.0154 18.1145C69.6794 18.3065 69.4114 18.5865 69.2114 18.9545C69.0114 19.3225 68.9114 19.7545 68.9114 20.2505C68.9114 20.7545 69.0114 21.1945 69.2114 21.5705C69.4114 21.9385 69.6794 22.2225 70.0154 22.4225C70.3514 22.6145 70.7234 22.7105 71.1314 22.7105C71.5394 22.7105 71.9114 22.6145 72.2474 22.4225C72.5914 22.2225 72.8634 21.9385 73.0634 21.5705C73.2634 21.1945 73.3634 20.7585 73.3634 20.2625Z" fill="#292A32"/>
<path d="M142.617 24C142.273 24 141.979 23.8775 141.734 23.6325C141.489 23.3875 141.367 23.0933 141.367 22.75V20.875H142.617V22.75H150.117V20.875H151.367V22.75C151.367 23.0937 151.245 23.3881 151 23.6331C150.755 23.8781 150.461 24.0004 150.117 24H142.617ZM146.367 21.5L143.242 18.375L144.117 17.4687L145.742 19.0937V14H146.992V19.0937L148.617 17.4687L149.492 18.375L146.367 21.5Z" fill="#0A4D68"/>
<defs>
<linearGradient id="paint0_linear_3353_10572" x1="13.247" y1="14.9578" x2="17.916" y2="23.0438" gradientUnits="userSpaceOnUse">
<stop stop-color="#2368C4"/>
<stop offset="0.5" stop-color="#1A5DBE"/>
<stop offset="1" stop-color="#1146AC"/>
</linearGradient>
</defs>
</svg>
