<svg width="68" height="63" viewBox="0 0 68 63" fill="none" xmlns="http://www.w3.org/2000/svg">
<path fill-rule="evenodd" clip-rule="evenodd" d="M8.41038 2.46484H59.6934C63.2191 2.46484 66.1038 5.06033 66.1038 8.2326V42.8391C66.1038 46.0114 63.2191 48.6069 59.6934 48.6069H8.41038C4.88467 48.6069 2 46.0114 2 42.8391V8.2326C2 5.06033 4.88467 2.46484 8.41038 2.46484Z" stroke="#00FF3A" stroke-width="3" stroke-linecap="round" stroke-linejoin="round"/>
<path d="M66.1038 8.22266L34.0519 28.4098L2 8.22266" stroke="#00FF3A" stroke-width="3" stroke-linecap="round" stroke-linejoin="round"/>
<circle cx="50.0767" cy="46.5377" r="16.0259" fill="white"/>
<circle cx="50.0767" cy="46.5377" r="14.5259" stroke="#00FF3A" stroke-width="3"/>
<path fill-rule="evenodd" clip-rule="evenodd" d="M57.6806 42.5132C57.8712 42.7194 57.9782 42.9989 57.9782 43.2904C57.9782 43.5818 57.8712 43.8614 57.6806 44.0675L48.0236 54.5098C47.833 54.7158 47.5745 54.8316 47.3049 54.8316C47.0354 54.8316 46.7769 54.7158 46.5863 54.5098L42.0119 49.5634C41.8267 49.3561 41.7243 49.0785 41.7266 48.7902C41.7289 48.502 41.8358 48.2264 42.0243 48.0226C42.2128 47.8188 42.4677 47.7032 42.7343 47.7007C43.0008 47.6981 43.2576 47.8089 43.4493 48.0092L47.3049 52.1784L56.2432 42.5132C56.4339 42.3072 56.6924 42.1914 56.9619 42.1914C57.2315 42.1914 57.49 42.3072 57.6806 42.5132Z" fill="#00FF3A"/>
</svg>
