<svg width="79" height="22" viewBox="0 0 79 22" fill="none" xmlns="http://www.w3.org/2000/svg">
<path d="M36.824 14.52H31.96L31.064 17H29.528L33.56 5.912H35.24L39.256 17H37.72L36.824 14.52ZM36.408 13.336L34.392 7.704L32.376 13.336H36.408ZM40.4693 12.6C40.4693 11.6933 40.6506 10.904 41.0133 10.232C41.3759 9.54933 41.8773 9.02133 42.5173 8.648C43.1679 8.27467 43.9093 8.088 44.7413 8.088C45.8186 8.088 46.7039 8.34933 47.3973 8.872C48.1013 9.39467 48.5653 10.12 48.7893 11.048H47.2213C47.0719 10.5147 46.7786 10.0933 46.3413 9.784C45.9146 9.47467 45.3813 9.32 44.7413 9.32C43.9093 9.32 43.2373 9.608 42.7253 10.184C42.2133 10.7493 41.9573 11.5547 41.9573 12.6C41.9573 13.656 42.2133 14.472 42.7253 15.048C43.2373 15.624 43.9093 15.912 44.7413 15.912C45.3813 15.912 45.9146 15.7627 46.3413 15.464C46.7679 15.1653 47.0613 14.7387 47.2213 14.184H48.7893C48.5546 15.08 48.0853 15.8 47.3813 16.344C46.6773 16.8773 45.7973 17.144 44.7413 17.144C43.9093 17.144 43.1679 16.9573 42.5173 16.584C41.8773 16.2107 41.3759 15.6827 41.0133 15C40.6506 14.3173 40.4693 13.5173 40.4693 12.6ZM52.508 9.432V14.6C52.508 15.0267 52.5987 15.3307 52.78 15.512C52.9613 15.6827 53.276 15.768 53.724 15.768H54.796V17H53.484C52.6733 17 52.0653 16.8133 51.66 16.44C51.2547 16.0667 51.052 15.4533 51.052 14.6V9.432H49.916V8.232H51.052V6.024H52.508V8.232H54.796V9.432H52.508ZM57.3121 6.808C57.0348 6.808 56.8001 6.712 56.6081 6.52C56.4161 6.328 56.3201 6.09333 56.3201 5.816C56.3201 5.53867 56.4161 5.304 56.6081 5.112C56.8001 4.92 57.0348 4.824 57.3121 4.824C57.5788 4.824 57.8028 4.92 57.9841 5.112C58.1761 5.304 58.2721 5.53867 58.2721 5.816C58.2721 6.09333 58.1761 6.328 57.9841 6.52C57.8028 6.712 57.5788 6.808 57.3121 6.808ZM58.0161 8.232V17H56.5601V8.232H58.0161ZM63.7616 15.656L66.4816 8.232H68.0336L64.5936 17H62.8976L59.4576 8.232H61.0256L63.7616 15.656ZM77.4664 12.28C77.4664 12.5573 77.4504 12.8507 77.4184 13.16H70.4104C70.4637 14.024 70.757 14.7013 71.2904 15.192C71.8344 15.672 72.4904 15.912 73.2584 15.912C73.8877 15.912 74.4104 15.768 74.8264 15.48C75.253 15.1813 75.5517 14.7867 75.7224 14.296H77.2904C77.0557 15.1387 76.5864 15.8267 75.8824 16.36C75.1784 16.8827 74.3037 17.144 73.2584 17.144C72.4264 17.144 71.6797 16.9573 71.0184 16.584C70.3677 16.2107 69.8557 15.6827 69.4824 15C69.109 14.3067 68.9224 13.5067 68.9224 12.6C68.9224 11.6933 69.1037 10.8987 69.4664 10.216C69.829 9.53333 70.3357 9.01067 70.9864 8.648C71.6477 8.27467 72.405 8.088 73.2584 8.088C74.0904 8.088 74.8264 8.26933 75.4664 8.632C76.1064 8.99467 76.597 9.496 76.9384 10.136C77.2904 10.7653 77.4664 11.48 77.4664 12.28ZM75.9624 11.976C75.9624 11.4213 75.8397 10.9467 75.5944 10.552C75.349 10.1467 75.013 9.84267 74.5864 9.64C74.1704 9.42667 73.7064 9.32 73.1944 9.32C72.4584 9.32 71.829 9.55467 71.3064 10.024C70.7944 10.4933 70.501 11.144 70.4264 11.976H75.9624Z" fill="#292A32"/>
<circle cx="8.5" cy="10.5" r="8.5" fill="#25FF62"/>
</svg>
