<svg width="15" height="15" viewBox="0 0 15 15" fill="none" xmlns="http://www.w3.org/2000/svg">
<path d="M7.5 15C5.40625 15 3.63281 14.2734 2.17969 12.8203C0.726562 11.3672 0 9.59375 0 7.5C0 5.40625 0.726562 3.63281 2.17969 2.17969C3.63281 0.726562 5.40625 0 7.5 0C8.57812 0 9.60938 0.2225 10.5938 0.6675C11.5781 1.1125 12.4219 1.74937 13.125 2.57812V0H15V6.5625H8.4375V4.6875H12.375C11.875 3.8125 11.1912 3.125 10.3238 2.625C9.45625 2.125 8.515 1.875 7.5 1.875C5.9375 1.875 4.60938 2.42188 3.51562 3.51562C2.42188 4.60938 1.875 5.9375 1.875 7.5C1.875 9.0625 2.42188 10.3906 3.51562 11.4844C4.60938 12.5781 5.9375 13.125 7.5 13.125C8.70312 13.125 9.78906 12.7812 10.7578 12.0938C11.7266 11.4062 12.4062 10.5 12.7969 9.375H14.7656C14.3281 11.0312 13.4375 12.3828 12.0938 13.4297C10.75 14.4766 9.21875 15 7.5 15Z" fill="#00658D"/>
</svg>
