<svg width="23" height="24" viewBox="0 0 23 24" fill="none" xmlns="http://www.w3.org/2000/svg">
<path d="M11.4315 15.3786C13.2641 15.3786 14.7497 13.893 14.7497 12.0604C14.7497 10.2278 13.2641 8.74219 11.4315 8.74219C9.59889 8.74219 8.11328 10.2278 8.11328 12.0604C8.11328 13.893 9.59889 15.3786 11.4315 15.3786Z" stroke="#0071B1" stroke-width="1.5"/>
<path d="M13.3804 1.16812C12.9745 1 12.459 1 11.4282 1C10.3973 1 9.88191 1 9.47598 1.16812C9.20741 1.2793 8.96338 1.44231 8.75784 1.64785C8.5523 1.85339 8.38929 2.09742 8.27811 2.36599C8.17635 2.61264 8.13543 2.90133 8.11994 3.32052C8.11305 3.62357 8.02925 3.9199 7.8764 4.18167C7.72356 4.44345 7.50668 4.66208 7.24615 4.81703C6.98169 4.96529 6.68388 5.04389 6.38069 5.04543C6.07751 5.04698 5.77891 4.97143 5.51295 4.82588C5.14131 4.629 4.87254 4.52061 4.60598 4.48521C4.02454 4.40875 3.43653 4.56629 2.97121 4.92321C2.62391 5.19199 2.36509 5.63773 1.84966 6.53033C1.33424 7.42292 1.07542 7.86866 1.01901 8.30556C0.980998 8.59364 1.00012 8.88638 1.07527 9.16707C1.15042 9.44776 1.28014 9.71089 1.45701 9.94143C1.62071 10.1538 1.84966 10.3319 2.20471 10.5553C2.72788 10.8838 3.06412 11.4435 3.06412 12.0607C3.06412 12.6778 2.72788 13.2375 2.20471 13.5649C1.84966 13.7894 1.6196 13.9675 1.45701 14.1799C1.28014 14.4104 1.15042 14.6735 1.07527 14.9542C1.00012 15.2349 0.980998 15.5277 1.01901 15.8157C1.07652 16.2515 1.33424 16.6984 1.84856 17.591C2.36509 18.4836 2.6228 18.9293 2.97121 19.1981C3.20176 19.375 3.46489 19.5047 3.74557 19.5798C4.02626 19.655 4.31901 19.6741 4.60708 19.6361C4.87254 19.6007 5.14131 19.4923 5.51295 19.2954C5.77891 19.1499 6.07751 19.0743 6.38069 19.0759C6.68388 19.0774 6.98169 19.156 7.24615 19.3043C7.78038 19.614 8.09782 20.1836 8.11994 20.8008C8.13543 21.2211 8.17525 21.5087 8.27811 21.7553C8.38929 22.0239 8.5523 22.2679 8.75784 22.4735C8.96338 22.679 9.20741 22.842 9.47598 22.9532C9.88191 23.1213 10.3973 23.1213 11.4282 23.1213C12.459 23.1213 12.9745 23.1213 13.3804 22.9532C13.649 22.842 13.893 22.679 14.0985 22.4735C14.3041 22.2679 14.4671 22.0239 14.5783 21.7553C14.68 21.5087 14.7209 21.2211 14.7364 20.8008C14.7585 20.1836 15.076 19.6129 15.6102 19.3043C15.8747 19.156 16.1725 19.0774 16.4757 19.0759C16.7789 19.0743 17.0775 19.1499 17.3434 19.2954C17.7151 19.4923 17.9838 19.6007 18.2493 19.6361C18.5374 19.6741 18.8301 19.655 19.1108 19.5798C19.3915 19.5047 19.6546 19.375 19.8852 19.1981C20.2336 18.9304 20.4913 18.4836 21.0067 17.591C21.5221 16.6984 21.781 16.2526 21.8374 15.8157C21.8754 15.5277 21.8563 15.2349 21.7811 14.9542C21.7059 14.6735 21.5762 14.4104 21.3994 14.1799C21.2357 13.9675 21.0067 13.7894 20.6517 13.566C20.3925 13.4085 20.1777 13.1877 20.0274 12.9244C19.8771 12.6611 19.7961 12.3638 19.7922 12.0607C19.7922 11.4435 20.1285 10.8838 20.6517 10.5564C21.0067 10.3319 21.2368 10.1538 21.3994 9.94143C21.5762 9.71089 21.7059 9.44776 21.7811 9.16707C21.8563 8.88638 21.8754 8.59364 21.8374 8.30556C21.7798 7.86977 21.5221 7.42292 21.0078 6.53033C20.4913 5.63773 20.2336 5.19199 19.8852 4.92321C19.6546 4.74634 19.3915 4.61663 19.1108 4.54147C18.8301 4.46632 18.5374 4.4472 18.2493 4.48521C17.9838 4.52061 17.7151 4.629 17.3423 4.82588C17.0765 4.97123 16.7781 5.04667 16.4751 5.04513C16.1722 5.04358 15.8745 4.96509 15.6102 4.81703C15.3497 4.66208 15.1328 4.44345 14.98 4.18167C14.8271 3.9199 14.7433 3.62357 14.7364 3.32052C14.7209 2.90022 14.6811 2.61264 14.5783 2.36599C14.4671 2.09742 14.3041 1.85339 14.0985 1.64785C13.893 1.44231 13.649 1.2793 13.3804 1.16812Z" stroke="#0071B1" stroke-width="1.5"/>
</svg>
