<svg width="45" height="33" viewBox="0 0 45 33" fill="none" xmlns="http://www.w3.org/2000/svg">
<rect x="0.5" y="0.5" width="44" height="32" rx="7.5" stroke="#0071B1"/>
<path d="M22.2 23.208C21.896 23.208 21.664 23.128 21.504 22.968C21.36 22.792 21.288 22.56 21.288 22.272V18H17.088C16.8 18 16.576 17.928 16.416 17.784C16.256 17.624 16.176 17.4 16.176 17.112C16.176 16.824 16.256 16.608 16.416 16.464C16.576 16.304 16.8 16.224 17.088 16.224H21.288V12.072C21.288 11.784 21.36 11.56 21.504 11.4C21.664 11.24 21.904 11.16 22.224 11.16C22.512 11.16 22.728 11.24 22.872 11.4C23.032 11.56 23.112 11.784 23.112 12.072V16.224H27.312C27.616 16.224 27.84 16.304 27.984 16.464C28.144 16.608 28.224 16.824 28.224 17.112C28.224 17.4 28.144 17.624 27.984 17.784C27.84 17.928 27.616 18 27.312 18H23.112V22.272C23.112 22.56 23.032 22.792 22.872 22.968C22.728 23.128 22.504 23.208 22.2 23.208Z" fill="#0071B1"/>
</svg>
