<svg width="16" height="10" viewBox="0 0 16 10" fill="none" xmlns="http://www.w3.org/2000/svg">
<path d="M15.6478 1.20677C15.4222 0.982904 15.1163 0.857145 14.7974 0.857145C14.4784 0.857145 14.1725 0.982904 13.947 1.20677L7.99274 7.11765L2.03852 1.20677C1.81166 0.989248 1.50781 0.868888 1.19242 0.871608C0.87703 0.874329 0.575334 0.999913 0.352313 1.22131C0.12929 1.44271 0.0027864 1.74221 4.64709e-05 2.05531C-0.00269442 2.3684 0.118548 2.67004 0.33766 2.89525L7.14231 9.65038C7.36788 9.87424 7.67378 10 7.99274 10C8.3117 10 8.6176 9.87424 8.84317 9.65038L15.6478 2.89525C15.8733 2.67132 16 2.36765 16 2.05101C16 1.73437 15.8733 1.4307 15.6478 1.20677Z" fill="#0071B1"/>
</svg>
