<svg width="10" height="10" viewBox="0 0 10 10" fill="none" xmlns="http://www.w3.org/2000/svg">
<path d="M4.47936 8.86378C4.35086 8.99644 4.28786 9.16817 4.29034 9.33989C4.29283 9.51161 4.35998 9.68171 4.49263 9.81111L4.50258 9.82088C4.63357 9.94296 4.80103 10.0024 4.96767 9.99993C5.1343 9.99749 5.30011 9.93319 5.42778 9.80704C6.89187 8.36977 8.34019 6.9089 9.79516 5.46105C9.80096 5.45698 9.80593 5.45291 9.81091 5.44803C9.93941 5.31537 10.0024 5.14202 9.99993 4.97029C9.99744 4.79857 9.92946 4.62766 9.79681 4.49826L9.77443 4.4771C8.3261 3.04959 6.87943 1.61721 5.42695 0.192142C5.30011 0.0668085 5.1343 0.00251384 4.96767 7.22708e-05C4.80103 -0.0023693 4.63357 0.0570422 4.50258 0.179935L4.49014 0.192142C4.35998 0.320732 4.29283 0.490014 4.29034 0.660924C4.28786 0.831834 4.35086 1.00437 4.47936 1.13703L8.39408 4.98413L4.47936 8.86378ZM0.187434 8.70101C0.0597625 8.83286 -0.00241538 9.00458 7.17378e-05 9.17549C0.00255885 9.34721 0.0697109 9.51731 0.202357 9.64671L0.212305 9.65648C0.342464 9.77856 0.510759 9.83797 0.677396 9.83634C0.844033 9.8339 1.01067 9.76961 1.13751 9.64346C2.57092 8.2363 4.05158 6.85274 5.50406 5.46268C5.50986 5.45861 5.51566 5.45372 5.52147 5.44884C5.64997 5.31618 5.71297 5.14283 5.71049 4.97111C5.708 4.79938 5.64002 4.62847 5.50737 4.49907C4.05738 3.11958 2.59994 1.74498 1.14663 0.367122L1.13668 0.356541C1.00984 0.231208 0.844033 0.167727 0.677396 0.165285C0.510759 0.162844 0.343293 0.222255 0.212305 0.344334L0.19987 0.356541C0.0697109 0.485131 0.00255885 0.655227 7.17378e-05 0.825323C-0.00241538 0.996233 0.0605915 1.16877 0.189092 1.30143L4.10049 4.98332L0.187434 8.70101Z" fill="#00658D"/>
</svg>
