<svg width="20" height="20" viewBox="0 0 20 20" fill="none" xmlns="http://www.w3.org/2000/svg">
<path d="M10 11.0547C11.0075 11.0547 11.8184 10.2531 11.8184 9.27344V5.11719C11.8184 4.1375 11.0075 3.33594 10 3.33594C8.99248 3.33594 8.18164 4.1375 8.18164 5.11719V9.27344C8.18164 10.2531 8.99248 11.0547 10 11.0547Z" fill="#E9F6FF"/>
<path d="M16.123 9.23438C16.123 9.15273 16.0562 9.08594 15.9746 9.08594H14.8613C14.7797 9.08594 14.7129 9.15273 14.7129 9.23438C14.7129 11.8376 12.6032 13.9473 10 13.9473C7.39678 13.9473 5.28711 11.8376 5.28711 9.23438C5.28711 9.15273 5.22031 9.08594 5.13867 9.08594H4.02539C3.94375 9.08594 3.87695 9.15273 3.87695 9.23438C3.87695 12.3646 6.22598 14.9474 9.25781 15.3129V17.2129H6.56182C6.30762 17.2129 6.10352 17.4782 6.10352 17.8066V18.4746C6.10352 18.5562 6.15547 18.623 6.21855 18.623H13.7814C13.8445 18.623 13.8965 18.5562 13.8965 18.4746V17.8066C13.8965 17.4782 13.6924 17.2129 13.4382 17.2129H10.668V15.3222C13.7351 14.9882 16.123 12.3905 16.123 9.23438Z" fill="#0071B1"/>
<path d="M10 12.3906C11.7423 12.3906 13.1543 10.9953 13.1543 9.27344V5.11719C13.1543 3.39531 11.7423 2 10 2C8.25771 2 6.8457 3.39531 6.8457 5.11719V9.27344C6.8457 10.9953 8.25771 12.3906 10 12.3906ZM8.18164 5.11719C8.18164 4.1375 8.99248 3.33594 10 3.33594C11.0075 3.33594 11.8184 4.1375 11.8184 5.11719V9.27344C11.8184 10.2531 11.0075 11.0547 10 11.0547C8.99248 11.0547 8.18164 10.2531 8.18164 9.27344V5.11719Z" fill="#0071B1"/>
</svg>
