<svg width="18" height="16" viewBox="0 0 18 16" fill="none" xmlns="http://www.w3.org/2000/svg">
<path d="M16.7914 6.39844H1.20857C0.541096 6.39844 0 6.90346 0 7.52644V7.67044C0 8.29342 0.541096 8.79844 1.20857 8.79844H16.7914C17.4589 8.79844 18 8.29342 18 7.67044V7.52644C18 6.90346 17.4589 6.39844 16.7914 6.39844Z" fill="white"/>
<path d="M16.7914 12.8008H1.20857C0.541096 12.8008 0 13.3058 0 13.9288V14.0728C0 14.6958 0.541096 15.2008 1.20857 15.2008H16.7914C17.4589 15.2008 18 14.6958 18 14.0728V13.9288C18 13.3058 17.4589 12.8008 16.7914 12.8008Z" fill="white"/>
<path d="M16.7914 0H1.20857C0.541096 0 0 0.505023 0 1.128V1.272C0 1.89498 0.541096 2.4 1.20857 2.4H16.7914C17.4589 2.4 18 1.89498 18 1.272V1.128C18 0.505023 17.4589 0 16.7914 0Z" fill="white"/>
</svg>
