<svg width="17" height="14" viewBox="0 0 17 14" fill="none" xmlns="http://www.w3.org/2000/svg">
<path d="M0 11.8869C0 12.4354 0.217897 12.9615 0.605756 13.3493C0.993616 13.7372 1.51967 13.9551 2.06818 13.9551H14.4773C15.0258 13.9551 15.5518 13.7372 15.9397 13.3493C16.3276 12.9615 16.5455 12.4354 16.5455 11.8869V6.1994H0V11.8869ZM2.4375 9.08008C2.4375 8.78623 2.55423 8.50442 2.76201 8.29664C2.96979 8.08885 3.25161 7.97212 3.54545 7.97212H5.31818C5.61203 7.97212 5.89384 8.08885 6.10162 8.29664C6.30941 8.50442 6.42614 8.78623 6.42614 9.08008V9.81871C6.42614 10.1126 6.30941 10.3944 6.10162 10.6022C5.89384 10.8099 5.61203 10.9267 5.31818 10.9267H3.54545C3.25161 10.9267 2.96979 10.8099 2.76201 10.6022C2.55423 10.3944 2.4375 10.1126 2.4375 9.81871V9.08008ZM14.4773 0.955078H2.06818C1.51967 0.955078 0.993616 1.17298 0.605756 1.56083C0.217897 1.94869 0 2.47474 0 3.02326V3.98349H16.5455V3.02326C16.5455 2.47474 16.3276 1.94869 15.9397 1.56083C15.5518 1.17298 15.0258 0.955078 14.4773 0.955078Z" fill="#868686"/>
</svg>
