<svg width="19" height="16" viewBox="0 0 19 16" fill="none" xmlns="http://www.w3.org/2000/svg">
<path d="M16 5.89474V4.21053C16 3.28421 15.2421 2.52632 14.3158 2.52632H11.7895C11.7895 1.12842 10.6611 0 9.26316 0C7.86526 0 6.73684 1.12842 6.73684 2.52632H4.21053C3.28421 2.52632 2.52632 3.28421 2.52632 4.21053V5.89474C1.12842 5.89474 0 7.02316 0 8.42105C0 9.81895 1.12842 10.9474 2.52632 10.9474V14.3158C2.52632 15.2421 3.28421 16 4.21053 16H14.3158C15.2421 16 16 15.2421 16 14.3158V10.9474C17.3979 10.9474 18.5263 9.81895 18.5263 8.42105C18.5263 7.02316 17.3979 5.89474 16 5.89474ZM5.47368 8C5.47368 7.30105 6.03789 6.73684 6.73684 6.73684C7.43579 6.73684 8 7.30105 8 8C8 8.69895 7.43579 9.26316 6.73684 9.26316C6.03789 9.26316 5.47368 8.69895 5.47368 8ZM12.6316 12.6316H5.89474V10.9474H12.6316V12.6316ZM11.7895 9.26316C11.0905 9.26316 10.5263 8.69895 10.5263 8C10.5263 7.30105 11.0905 6.73684 11.7895 6.73684C12.4884 6.73684 13.0526 7.30105 13.0526 8C13.0526 8.69895 12.4884 9.26316 11.7895 9.26316Z" fill="#868686"/>
</svg>
