<svg width="22" height="18" viewBox="0 0 22 18" fill="none" xmlns="http://www.w3.org/2000/svg">
<path d="M18.3694 6.89988V5.1104C18.3694 4.12619 17.4993 3.32093 16.4358 3.32093H13.5354C13.5354 1.83567 12.2398 0.636719 10.6349 0.636719C9.03001 0.636719 7.73449 1.83567 7.73449 3.32093H4.83405C3.77056 3.32093 2.90043 4.12619 2.90043 5.1104V6.89988C1.29553 6.89988 0 8.09882 0 9.58409C0 11.0694 1.29553 12.2683 2.90043 12.2683V15.8472C2.90043 16.8315 3.77056 17.6367 4.83405 17.6367H16.4358C17.4993 17.6367 18.3694 16.8315 18.3694 15.8472V12.2683C19.9743 12.2683 21.2698 11.0694 21.2698 9.58409C21.2698 8.09882 19.9743 6.89988 18.3694 6.89988ZM6.28427 9.13672C6.28427 8.39409 6.93203 7.79461 7.73449 7.79461C8.53694 7.79461 9.1847 8.39409 9.1847 9.13672C9.1847 9.87935 8.53694 10.4788 7.73449 10.4788C6.93203 10.4788 6.28427 9.87935 6.28427 9.13672ZM14.5022 14.0578H6.76768V12.2683H14.5022V14.0578ZM13.5354 10.4788C12.7329 10.4788 12.0851 9.87935 12.0851 9.13672C12.0851 8.39409 12.7329 7.79461 13.5354 7.79461C14.3378 7.79461 14.9856 8.39409 14.9856 9.13672C14.9856 9.87935 14.3378 10.4788 13.5354 10.4788Z" fill="#6E6E6E"/>
</svg>
