<svg width="19" height="16" viewBox="0 0 19 16" fill="none" xmlns="http://www.w3.org/2000/svg">
<path d="M14.9655 7.05859V8.93359H18.7069V7.05859H14.9655ZM13.0948 13.2555C13.9928 13.9211 15.1619 14.8023 16.0879 15.4961C16.4621 14.9992 16.8362 14.493 17.2103 13.9961C16.2844 13.3023 15.1152 12.4211 14.2172 11.7461C13.8431 12.2523 13.469 12.7586 13.0948 13.2555ZM17.2103 1.99609C16.8362 1.49922 16.4621 0.992969 16.0879 0.496094C15.1619 1.18984 13.9928 2.07109 13.0948 2.74609C13.469 3.24297 13.8431 3.74922 14.2172 4.24609C15.1152 3.57109 16.2844 2.69922 17.2103 1.99609ZM1.87069 5.18359C0.84181 5.18359 0 6.02734 0 7.05859V8.93359C0 9.96484 0.84181 10.8086 1.87069 10.8086H2.80603V14.5586H4.67672V10.8086H5.61207L10.2888 13.6211V2.37109L5.61207 5.18359H1.87069ZM12.6272 7.99609C12.6272 6.74922 12.0847 5.62422 11.2241 4.85547V11.1273C12.0847 10.368 12.6272 9.24297 12.6272 7.99609Z" fill="#868686"/>
</svg>
