<svg width="40" height="47" viewBox="0 0 40 47" fill="none" xmlns="http://www.w3.org/2000/svg">
<path d="M27.3017 26.1538H28.3083C28.9754 26.1538 29.6154 25.9006 30.0886 25.4498C30.5604 24.999 30.8248 24.3875 30.8248 23.75C30.8248 23.1125 30.5604 22.501 30.0886 22.0502C29.6154 21.5994 28.9754 21.3462 28.3083 21.3462H27.3017V26.1538Z" fill="black"/>
<path fill-rule="evenodd" clip-rule="evenodd" d="M1.35216 1.35181C2.21755 0.486262 3.39093 0 4.61538 0H29.8678L40 10.1323V41.5385C40 42.7625 39.5132 43.9365 38.6478 44.802C37.7825 45.6676 36.6091 46.1538 35.3846 46.1538H4.61538C3.39093 46.1538 2.21755 45.6676 1.35216 44.802C0.486779 43.9365 0 42.7625 0 41.5385V4.61538C0 3.39131 0.486779 2.21737 1.35216 1.35181ZM6.59856 18.884C6.3146 19.1545 6.15685 19.5213 6.15685 19.9038C6.15685 20.2864 6.3146 20.6532 6.59856 20.9237C6.88101 21.1942 7.26563 21.3462 7.66677 21.3462H12.6067L6.51292 30.4846C6.29207 30.8153 6.16887 31.1966 6.15535 31.5885C6.14183 31.9804 6.23948 32.3685 6.4363 32.7122C6.63462 33.0559 6.92458 33.3425 7.27915 33.542C7.63221 33.7415 8.03486 33.8465 8.44651 33.8462H14.7145C15.1157 33.8462 15.5003 33.6942 15.7828 33.4237C16.0667 33.1532 16.226 32.7864 16.226 32.4038C16.226 32.0213 16.0667 31.6545 15.7828 31.384C15.5003 31.1135 15.1157 30.9615 14.7145 30.9615H9.77464L15.8684 21.8231C16.0892 21.4924 16.2124 21.1111 16.226 20.7192C16.2395 20.3273 16.1418 19.9392 15.945 19.5955C15.7467 19.2518 15.4567 18.9652 15.1022 18.7657C14.7491 18.5662 14.3465 18.4612 13.9348 18.4615H7.66677C7.26563 18.4615 6.88101 18.6135 6.59856 18.884ZM20.8173 18.884C20.5349 18.6135 20.1502 18.4615 19.7491 18.4615C19.3495 18.4615 18.9648 18.6135 18.6809 18.884C18.3984 19.1545 18.2392 19.5213 18.2392 19.9038V32.4038C18.2392 32.7864 18.3984 33.1532 18.6809 33.4237C18.9648 33.6942 19.3495 33.8462 19.7491 33.8462C20.1502 33.8462 20.5349 33.6942 20.8173 33.4237C21.1013 33.1532 21.2605 32.7864 21.2605 32.4038V19.9038C21.2605 19.5213 21.1013 19.1545 20.8173 18.884ZM24.7236 18.884C25.006 18.6135 25.3906 18.4615 25.7903 18.4615H28.3083C29.7776 18.4615 31.1854 19.0187 32.2236 20.0105C33.2632 21.0023 33.8462 22.3474 33.8462 23.75C33.8462 25.1526 33.2632 26.4977 32.2236 27.4895C31.1854 28.4813 29.7776 29.0385 28.3083 29.0385H27.3017V32.4038C27.3017 32.7864 27.1424 33.1532 26.8585 33.4237C26.576 33.6942 26.1914 33.8462 25.7903 33.8462C25.3906 33.8462 25.006 33.6942 24.7236 33.4237C24.4396 33.1532 24.2803 32.7864 24.2803 32.4038V19.9038C24.2803 19.5213 24.4396 19.1545 24.7236 18.884Z" fill="black"/>
</svg>
