<svg width="40" height="40" viewBox="0 0 40 40" fill="none" xmlns="http://www.w3.org/2000/svg">
<path d="M5.3737 14.9893L8.04036 25.656C8.10308 25.9065 8.2372 26.1334 8.42643 26.3092C8.61566 26.4849 8.85185 26.6019 9.10631 26.646C9.36077 26.69 9.62255 26.6592 9.85984 26.5573C10.0971 26.4554 10.2997 26.2868 10.443 26.072L12.0004 23.736L13.5577 26.072C13.701 26.2868 13.9036 26.4554 14.1409 26.5573C14.3782 26.6592 14.64 26.69 14.8944 26.646C15.1489 26.6019 15.3851 26.4849 15.5743 26.3092C15.7635 26.1334 15.8976 25.9065 15.9604 25.656L18.627 14.9893L16.0404 14.344L14.1044 22.0853L13.1097 20.592C12.9879 20.4094 12.823 20.2597 12.6295 20.1561C12.4359 20.0525 12.2198 19.9984 12.0004 19.9984C11.7809 19.9984 11.5648 20.0525 11.3713 20.1561C11.1778 20.2597 11.0128 20.4094 10.891 20.592L9.89636 22.0853L7.96036 14.344L5.3737 14.9893Z" fill="black"/>
<path fill-rule="evenodd" clip-rule="evenodd" d="M9.33333 0C8.27247 0 7.25505 0.421427 6.50491 1.17157C5.75476 1.92172 5.33333 2.93913 5.33333 4V8H4C2.93913 8 1.92172 8.42143 1.17157 9.17157C0.421427 9.92172 0 10.9391 0 12V28C0 29.0609 0.421427 30.0783 1.17157 30.8284C1.92172 31.5786 2.93913 32 4 32H5.33333V36C5.33333 37.0609 5.75476 38.0783 6.50491 38.8284C7.25505 39.5786 8.27247 40 9.33333 40H36C37.0609 40 38.0783 39.5786 38.8284 38.8284C39.5786 38.0783 40 37.0609 40 36V4C40 2.93913 39.5786 1.92172 38.8284 1.17157C38.0783 0.421427 37.0609 0 36 0H9.33333ZM4 10.6667C3.64638 10.6667 3.30724 10.8071 3.05719 11.0572C2.80714 11.3072 2.66667 11.6464 2.66667 12V28C2.66667 28.3536 2.80714 28.6928 3.05719 28.9428C3.30724 29.1929 3.64638 29.3333 4 29.3333H20C20.3536 29.3333 20.6928 29.1929 20.9428 28.9428C21.1929 28.6928 21.3333 28.3536 21.3333 28V12C21.3333 11.6464 21.1929 11.3072 20.9428 11.0572C20.6928 10.8071 20.3536 10.6667 20 10.6667H4Z" fill="#838383"/>
</svg>
