<svg width="40" height="47" viewBox="0 0 40 47" fill="none" xmlns="http://www.w3.org/2000/svg">
<path d="M7.69231 24.6154H6.15385V21.5385H7.69231C8.10033 21.5385 8.49165 21.7005 8.78016 21.9891C9.06868 22.2776 9.23077 22.6689 9.23077 23.0769C9.23077 23.4849 9.06868 23.8763 8.78016 24.1648C8.49165 24.4533 8.10033 24.6154 7.69231 24.6154ZM18.4615 30.7692V21.5385H20C20.408 21.5385 20.7993 21.7005 21.0879 21.9891C21.3764 22.2776 21.5385 22.6689 21.5385 23.0769V29.2308C21.5385 29.6388 21.3764 30.0301 21.0879 30.3186C20.7993 30.6071 20.408 30.7692 20 30.7692H18.4615Z" fill="#838383"/>
<path fill-rule="evenodd" clip-rule="evenodd" d="M0 4.61538C0 3.39131 0.486262 2.21737 1.35182 1.35181C2.21737 0.486262 3.39131 0 4.61538 0H29.8677L40 10.1323V41.5385C40 42.7625 39.5137 43.9365 38.6482 44.802C37.7826 45.6676 36.6087 46.1538 35.3846 46.1538H4.61538C3.39131 46.1538 2.21737 45.6676 1.35182 44.802C0.486262 43.9365 0 42.7625 0 41.5385V4.61538ZM7.69231 18.4615H3.07692V33.8462H6.15385V27.6923H7.69231C8.91638 27.6923 10.0903 27.206 10.9559 26.3405C11.8214 25.4749 12.3077 24.301 12.3077 23.0769C12.3077 21.8528 11.8214 20.6789 10.9559 19.8134C10.0903 18.9478 8.91638 18.4615 7.69231 18.4615ZM20 18.4615H15.3846V33.8462H20C21.2241 33.8462 22.398 33.3599 23.2636 32.4943C24.1291 31.6288 24.6154 30.4548 24.6154 29.2308V23.0769C24.6154 21.8528 24.1291 20.6789 23.2636 19.8134C22.398 18.9478 21.2241 18.4615 20 18.4615ZM27.6923 33.8462V18.4615H36.9231V21.5385H30.7692V24.6154H33.8462V27.6923H30.7692V33.8462H27.6923Z" fill="#838383"/>
</svg>
