<svg width="40" height="27" viewBox="0 0 40 27" fill="none" xmlns="http://www.w3.org/2000/svg">
<path d="M0 6.25104C0 4.59316 0.65859 3.00319 1.83089 1.83089C3.00319 0.65859 4.59316 0 6.25104 0H20.4201C22.0779 0 23.6679 0.65859 24.8402 1.83089C26.0125 3.00319 26.6711 4.59316 26.6711 6.25104V20.4201C26.6711 22.0779 26.0125 23.6679 24.8402 24.8402C23.6679 26.0125 22.0779 26.6711 20.4201 26.6711H6.25104C4.59316 26.6711 3.00319 26.0125 1.83089 24.8402C0.65859 23.6679 0 22.0779 0 20.4201V6.25104ZM35.4259 24.4757L28.3381 19.5816V7.08451L35.4259 2.19037C37.3596 0.853476 40 2.24037 40 4.59076V22.077C40 24.4274 37.3612 25.811 35.4259 24.4757Z" fill="#838383"/>
</svg>
