<svg width="40" height="43" viewBox="0 0 40 43" fill="none" xmlns="http://www.w3.org/2000/svg">
<path d="M20 0C14.6957 0 9.60859 2.10714 5.85786 5.85786C2.10714 9.60859 0 14.6957 0 20V35.5556C0 39.2444 2.97778 42.2222 6.66667 42.2222H13.3333V24.4444H4.44444V20C4.44444 11.4 11.4 4.44444 20 4.44444C28.6 4.44444 35.5556 11.4 35.5556 20V24.4444H26.6667V42.2222H33.3333C37.0222 42.2222 40 39.2444 40 35.5556V20C40 14.6957 37.8929 9.60859 34.1421 5.85786C30.3914 2.10714 25.3043 0 20 0Z" fill="#838383"/>
</svg>
