<svg width="40" height="40" viewBox="0 0 40 40" fill="none" xmlns="http://www.w3.org/2000/svg">
<path d="M10.1147 20L5.72267 15.6107L7.61067 13.7227L12 18.1147L16.3893 13.7227L18.2773 15.6107L13.8853 20L18.2773 24.3893L16.3893 26.2773L12 21.8853L7.61067 26.2773L5.72267 24.3893L10.1147 20Z" fill="#838383"/>
<path fill-rule="evenodd" clip-rule="evenodd" d="M9.33333 0C8.27247 0 7.25505 0.421427 6.50491 1.17157C5.75476 1.92172 5.33333 2.93913 5.33333 4V8H4C2.93913 8 1.92172 8.42143 1.17157 9.17157C0.421427 9.92172 0 10.9391 0 12V28C0 29.0609 0.421427 30.0783 1.17157 30.8284C1.92172 31.5786 2.93913 32 4 32H5.33333V36C5.33333 37.0609 5.75476 38.0783 6.50491 38.8284C7.25505 39.5786 8.27247 40 9.33333 40H36C37.0609 40 38.0783 39.5786 38.8284 38.8284C39.5786 38.0783 40 37.0609 40 36V4C40 2.93913 39.5786 1.92172 38.8284 1.17157C38.0783 0.421427 37.0609 0 36 0H9.33333ZM4 10.6667C3.64638 10.6667 3.30724 10.8071 3.05719 11.0572C2.80714 11.3072 2.66667 11.6464 2.66667 12V28C2.66667 28.3536 2.80714 28.6928 3.05719 28.9428C3.30724 29.1929 3.64638 29.3333 4 29.3333H20C20.3536 29.3333 20.6928 29.1929 20.9428 28.9428C21.1929 28.6928 21.3333 28.3536 21.3333 28V12C21.3333 11.6464 21.1929 11.3072 20.9428 11.0572C20.6928 10.8071 20.3536 10.6667 20 10.6667H4Z" fill="#838383"/>
</svg>
