<svg width="11" height="10" viewBox="0 0 11 10" fill="none" xmlns="http://www.w3.org/2000/svg">
<ellipse cx="5.5855" cy="5" rx="4.97222" ry="5" fill="#C7C6C6"/>
<path d="M4.52766 6.021C4.38166 6.021 4.24966 5.996 4.13166 5.946C4.01566 5.896 3.92366 5.824 3.85566 5.73C3.78766 5.636 3.75266 5.525 3.75066 5.397H4.20066C4.20666 5.483 4.23666 5.551 4.29066 5.601C4.34666 5.651 4.42266 5.676 4.51866 5.676C4.61666 5.676 4.69366 5.653 4.74966 5.607C4.80566 5.559 4.83366 5.497 4.83366 5.421C4.83366 5.359 4.81466 5.308 4.77666 5.268C4.73866 5.228 4.69066 5.197 4.63266 5.175C4.57666 5.151 4.49866 5.125 4.39866 5.097C4.26266 5.057 4.15166 5.018 4.06566 4.98C3.98166 4.94 3.90866 4.881 3.84666 4.803C3.78666 4.723 3.75666 4.617 3.75666 4.485C3.75666 4.361 3.78766 4.253 3.84966 4.161C3.91166 4.069 3.99866 3.999 4.11066 3.951C4.22266 3.901 4.35066 3.876 4.49466 3.876C4.71066 3.876 4.88566 3.929 5.01966 4.035C5.15566 4.139 5.23066 4.285 5.24466 4.473H4.78266C4.77866 4.401 4.74766 4.342 4.68966 4.296C4.63366 4.248 4.55866 4.224 4.46466 4.224C4.38266 4.224 4.31666 4.245 4.26666 4.287C4.21866 4.329 4.19466 4.39 4.19466 4.47C4.19466 4.526 4.21266 4.573 4.24866 4.611C4.28666 4.647 4.33266 4.677 4.38666 4.701C4.44266 4.723 4.52066 4.749 4.62066 4.779C4.75666 4.819 4.86766 4.859 4.95366 4.899C5.03966 4.939 5.11366 4.999 5.17566 5.079C5.23766 5.159 5.26866 5.264 5.26866 5.394C5.26866 5.506 5.23966 5.61 5.18166 5.706C5.12366 5.802 5.03866 5.879 4.92666 5.937C4.81466 5.993 4.68166 6.021 4.52766 6.021ZM6.91678 5.601H6.08278L5.94478 6H5.50378L6.25678 3.903H6.74578L7.49878 6H7.05478L6.91678 5.601ZM6.80278 5.265L6.49978 4.389L6.19678 5.265H6.80278Z" fill="white"/>
</svg>
