<svg width="40" height="32" viewBox="0 0 40 32" fill="none" xmlns="http://www.w3.org/2000/svg">
<path d="M36 0H4C1.794 0 0 1.794 0 4V28C0 30.206 1.794 32 4 32H36C38.206 32 40 30.206 40 28V4C40 1.794 38.206 0 36 0ZM9 6C9.79565 6 10.5587 6.31607 11.1213 6.87868C11.6839 7.44129 12 8.20435 12 9C12 9.79565 11.6839 10.5587 11.1213 11.1213C10.5587 11.6839 9.79565 12 9 12C8.20435 12 7.44129 11.6839 6.87868 11.1213C6.31607 10.5587 6 9.79565 6 9C6 8.20435 6.31607 7.44129 6.87868 6.87868C7.44129 6.31607 8.20435 6 9 6ZM20 26H6L14 16L17 20L23 12L34 26H20Z" fill="#838383"/>
</svg>
