<svg width="18" height="19" viewBox="0 0 18 19" fill="none" xmlns="http://www.w3.org/2000/svg">
<path d="M1.14384 14.8457C1.14384 14.8485 1.14384 14.8537 1.14062 14.8609C1.14183 14.8561 1.14263 14.8509 1.14384 14.8457ZM16.3889 15.5058C16.2567 15.5029 16.126 15.4757 16.0037 15.4254L13.7225 14.6167L13.7056 14.6098C13.6559 14.5891 13.6024 14.5787 13.5485 14.5793C13.4988 14.5794 13.4496 14.5883 13.4031 14.6058C13.3476 14.6267 12.8482 14.8143 12.3244 14.9582C12.0403 15.0361 11.0516 15.2904 10.2581 15.2904C8.23004 15.2904 6.33375 14.511 4.91916 13.0956C4.2281 12.4088 3.68013 11.5917 3.30698 10.6917C2.93382 9.79169 2.7429 8.82659 2.74525 7.85228C2.74523 7.34461 2.79992 6.83842 2.90836 6.34248C3.2615 4.71054 4.1968 3.22604 5.54188 2.1642C6.92166 1.08187 8.62501 0.494422 10.3786 0.496097C12.4762 0.496097 14.4308 1.29961 15.8827 2.75317C17.2551 4.13 18.0072 5.94032 18.0012 7.85027C18 9.26951 17.5762 10.6562 16.7839 11.8337L16.7762 11.8449L16.7465 11.8851C16.7397 11.8944 16.7328 11.9032 16.7264 11.9124L16.7204 11.9233C16.7044 11.9505 16.6899 11.9785 16.677 12.0073L17.3094 14.2547C17.3373 14.3474 17.3525 14.4435 17.3544 14.5403C17.3545 14.6672 17.3297 14.7928 17.2812 14.91C17.2327 15.0272 17.1616 15.1337 17.0719 15.2234C16.9823 15.313 16.8758 15.3841 16.7586 15.4326C16.6414 15.4811 16.5158 15.5059 16.3889 15.5058Z" fill="#6E6E6E"/>
<path d="M10.7619 16.301C10.7204 16.2202 10.662 16.1494 10.5906 16.0932C10.5193 16.0371 10.4367 15.9969 10.3485 15.9755C10.1163 15.9141 9.84549 15.9245 9.63859 15.9092C7.68498 15.7734 5.84657 14.935 4.46315 13.5489C3.23326 12.3259 2.43396 10.7365 2.18558 9.0199C2.12934 8.62859 2.12934 8.53136 2.12934 8.53136C2.12931 8.40081 2.08953 8.27335 2.01529 8.16595C1.94105 8.05856 1.83587 7.97632 1.71374 7.93017C1.5916 7.88402 1.45832 7.87615 1.33161 7.90762C1.2049 7.93908 1.09077 8.00839 1.00441 8.1063C1.00441 8.1063 0.687829 8.45101 0.538375 8.79693C0.119214 9.7627 -0.0595415 10.8157 0.0174274 11.8657C0.0943963 12.9157 0.424794 13.9314 0.980309 14.8257C1.08477 14.9997 1.08477 15.08 1.06146 15.2608C0.951784 15.8277 0.759744 16.8277 0.659706 17.3463C0.626584 17.5145 0.638904 17.6885 0.695398 17.8504C0.751892 18.0122 0.850517 18.1561 0.981112 18.2672L0.999593 18.2828C1.17235 18.42 1.38643 18.4948 1.60705 18.495C1.73114 18.4951 1.85403 18.4706 1.96863 18.423L4.11844 17.5934C4.19246 17.5653 4.27422 17.5653 4.34824 17.5934C5.19475 17.9084 6.0758 18.0755 6.91065 18.0755C7.95086 18.0765 8.97848 17.848 9.92022 17.4062C10.1396 17.3033 10.4827 17.1917 10.6836 16.9594C10.7596 16.8694 10.8075 16.759 10.8214 16.6419C10.8354 16.5249 10.8147 16.4063 10.7619 16.301Z" fill="#6E6E6E"/>
</svg>
