<svg width="26" height="21" viewBox="0 0 26 21" fill="none" xmlns="http://www.w3.org/2000/svg">
<path d="M20.8 9.12097V11.727H26V9.12097H20.8ZM18.2 17.7338C19.448 18.6589 21.073 19.8837 22.36 20.8479C22.88 20.1573 23.4 19.4537 23.92 18.7631C22.633 17.7989 21.008 16.5741 19.76 15.6359C19.24 16.3396 18.72 17.0432 18.2 17.7338ZM23.92 2.08479C23.4 1.3942 22.88 0.690587 22.36 0C21.073 0.964217 19.448 2.18903 18.2 3.12719C18.72 3.81778 19.24 4.52139 19.76 5.21198C21.008 4.27382 22.633 3.06204 23.92 2.08479ZM2.6 6.51498C1.17 6.51498 0 7.68767 0 9.12097V11.727C0 13.1603 1.17 14.3329 2.6 14.3329H3.9V19.5449H6.5V14.3329H7.8L14.3 18.2419V2.60599L7.8 6.51498H2.6ZM17.55 10.424C17.55 8.69098 16.796 7.12738 15.6 6.05893V14.776C16.796 13.7205 17.55 12.1569 17.55 10.424Z" fill="#292A32"/>
</svg>
