<svg width="20" height="18" viewBox="0 0 20 18" fill="none" xmlns="http://www.w3.org/2000/svg">
<path d="M0 0H15.2429C16.2924 0 17.1429 0.8082 17.1429 1.791V16.209C17.1429 17.1981 16.2924 18 15.2429 18H0V0ZM3.80952 1.8H1.90476V16.2H3.80952V1.8ZM5.71429 16.2H15.2381V1.8H5.71429V16.2ZM7.61905 12.6C7.61905 12.2454 7.69295 11.8943 7.83653 11.5668C7.98012 11.2392 8.19057 10.9415 8.45588 10.6908C8.7212 10.4401 9.03616 10.2412 9.38281 10.1055C9.72945 9.96984 10.101 9.9 10.4762 9.9C10.8514 9.9 11.2229 9.96984 11.5696 10.1055C11.9162 10.2412 12.2312 10.4401 12.4965 10.6908C12.7618 10.9415 12.9723 11.2392 13.1158 11.5668C13.2594 11.8943 13.3333 12.2454 13.3333 12.6H7.61905ZM10.4762 9C9.97102 9 9.48653 8.81036 9.12932 8.47279C8.77211 8.13523 8.57143 7.67739 8.57143 7.2C8.57143 6.72261 8.77211 6.26477 9.12932 5.92721C9.48653 5.58964 9.97102 5.4 10.4762 5.4C10.9814 5.4 11.4658 5.58964 11.8231 5.92721C12.1803 6.26477 12.381 6.72261 12.381 7.2C12.381 7.67739 12.1803 8.13523 11.8231 8.47279C11.4658 8.81036 10.9814 9 10.4762 9ZM18.0952 3.6H20V7.2H18.0952V3.6ZM18.0952 9H20V12.6H18.0952V9Z" fill="#6E6E6E"/>
</svg>
