<svg width="20" height="23" viewBox="0 0 20 23" fill="none" xmlns="http://www.w3.org/2000/svg">
<path d="M3.99609 10.0014C3.99609 7.17272 3.99609 5.7574 4.87529 4.8792C5.75349 4 7.16881 4 9.99745 4H12.9981C15.8268 4 17.2421 4 18.1203 4.8792C18.9995 5.7574 18.9995 7.17272 18.9995 10.0014V15.0025C18.9995 17.8311 18.9995 19.2465 18.1203 20.1247C17.2421 21.0039 15.8268 21.0039 12.9981 21.0039H9.99745C7.16881 21.0039 5.75349 21.0039 4.87529 20.1247C3.99609 19.2465 3.99609 17.8311 3.99609 15.0025V10.0014Z" stroke="#0071B1" stroke-width="2"/>
<path d="M4.00068 18.0039C3.20485 18.0039 2.44162 17.6877 1.87888 17.125C1.31614 16.5622 1 15.799 1 15.0032V9.00181C1 5.22996 1 3.34353 2.17227 2.17227C3.34353 1 5.22996 1 9.00181 1H13.0027C13.7985 1 14.5618 1.31614 15.1245 1.87888C15.6873 2.44162 16.0034 3.20485 16.0034 4.00068" stroke="#0071B1" stroke-width="2"/>
</svg>
