<svg width="20" height="18" viewBox="0 0 20 18" fill="none" xmlns="http://www.w3.org/2000/svg">
<path d="M3.3001 9.75H8.2501C8.70385 9.75 9.0751 9.4125 9.0751 9V3C9.0751 2.5875 8.70385 2.25 8.2501 2.25H3.3001C2.84635 2.25 2.4751 2.5875 2.4751 3V9C2.4751 9.4125 2.84635 9.75 3.3001 9.75ZM3.3001 15.75H8.2501C8.70385 15.75 9.0751 15.4125 9.0751 15V12C9.0751 11.5875 8.70385 11.25 8.2501 11.25H3.3001C2.84635 11.25 2.4751 11.5875 2.4751 12V15C2.4751 15.4125 2.84635 15.75 3.3001 15.75ZM11.5501 15.75H16.5001C16.9538 15.75 17.3251 15.4125 17.3251 15V9C17.3251 8.5875 16.9538 8.25 16.5001 8.25H11.5501C11.0963 8.25 10.7251 8.5875 10.7251 9V15C10.7251 15.4125 11.0963 15.75 11.5501 15.75ZM10.7251 3V6C10.7251 6.4125 11.0963 6.75 11.5501 6.75H16.5001C16.9538 6.75 17.3251 6.4125 17.3251 6V3C17.3251 2.5875 16.9538 2.25 16.5001 2.25H11.5501C11.0963 2.25 10.7251 2.5875 10.7251 3Z" fill="#868686"/>
</svg>
