<svg width="66" height="90" viewBox="0 0 66 90" fill="none" xmlns="http://www.w3.org/2000/svg">
<line x1="14.4961" y1="25.6172" x2="51.9953" y2="25.6172" stroke="transparent" stroke-width="50"/>
<path fill-rule="evenodd" clip-rule="evenodd" d="M8.24987 43.4141L58.2488 43.4141C61.6862 43.4141 64.4987 45.9446 64.4987 49.0374L64.4987 82.7774C64.4987 85.8702 61.6862 88.4007 58.2488 88.4007L8.24987 88.4007C4.81244 88.4007 2 85.8702 2 82.7774L2 49.0374C2 45.9446 4.81244 43.4141 8.24987 43.4141Z" stroke="#0066FF" stroke-width="3" stroke-linecap="round" stroke-linejoin="round"/>
<path d="M64.4987 49.0352L33.2493 68.7168L2 49.0352" stroke="#0066FF" stroke-width="3" stroke-linecap="round" stroke-linejoin="round"/>
<rect x="19.6055" y="33.0547" width="26.4079" height="20.246" fill="white"/>
<path d="M32.9327 25.1915L32.9327 62.5721M32.9327 62.5721L45.4805 48.5699M32.9327 62.5721L20.3849 48.5388" stroke="#0066FF" stroke-width="3" stroke-linecap="round" stroke-linejoin="round"/>
</svg>
