<svg width="14" height="21" viewBox="0 0 14 21" fill="none" xmlns="http://www.w3.org/2000/svg">
<path d="M14 2.57143C14 2.82857 13.8303 3 13.5758 3H11.8788V4.71429C11.8788 4.97143 11.7091 5.14286 11.4545 5.14286C11.2 5.14286 11.0303 4.97143 11.0303 4.71429V3H9.33333C9.07879 3 8.90909 2.82857 8.90909 2.57143C8.90909 2.31429 9.07879 2.14286 9.33333 2.14286H11.0303V0.428571C11.0303 0.171429 11.2 0 11.4545 0C11.7091 0 11.8788 0.171429 11.8788 0.428571V2.14286H13.5758C13.8303 2.14286 14 2.31429 14 2.57143ZM5.09091 18.4286C5.09091 18.9 5.47273 19.2857 5.93939 19.2857C6.40606 19.2857 6.78788 18.9 6.78788 18.4286C6.78788 17.9571 6.40606 17.5714 5.93939 17.5714C5.47273 17.5714 5.09091 17.9571 5.09091 18.4286ZM10.1818 16.7143H1.69697V3.85714H9.33333H10.1818V4.71429V16.7143ZM9.33333 4.71429H2.54545V15.8571H9.33333V4.71429ZM11.0303 5.91429V19.7143C11.0303 19.9714 10.8606 20.1429 10.6061 20.1429H1.27273C1.01818 20.1429 0.848485 19.9714 0.848485 19.7143V3.42857C0.848485 3.17143 1.01818 3 1.27273 3H8.14546C8.10303 2.87143 8.06061 2.74286 8.06061 2.57143C8.06061 2.4 8.10303 2.27143 8.14546 2.14286H1.27273C0.551515 2.14286 0 2.7 0 3.42857V19.7143C0 20.4429 0.551515 21 1.27273 21H10.6061C11.3273 21 11.8788 20.4429 11.8788 19.7143V5.91429C11.7515 5.95714 11.6242 6 11.4545 6C11.2848 6 11.1576 5.95714 11.0303 5.91429Z" fill="white"/>
</svg>
