<svg width="11" height="8" viewBox="0 0 11 8" fill="none" xmlns="http://www.w3.org/2000/svg">
<path d="M10.7979 3.38493C9.65719 1.27612 7.6567 0 5.44296 0C3.22922 0 1.22534 1.27612 0.0947779 3.38493L0 3.54402L0.0880081 3.70649C1.22873 5.8153 3.22922 7.09142 5.44296 7.09142C7.6567 7.09142 9.66058 5.83223 10.7979 3.70649L10.8859 3.54402L10.7979 3.38493ZM5.44296 6.39751C3.53725 6.39751 1.78724 5.33464 0.771763 3.54402C1.78724 1.75339 3.53725 0.690525 5.44296 0.690525C7.34867 0.690525 9.07837 1.75678 10.1108 3.54402C9.07837 5.33464 7.34529 6.39751 5.44296 6.39751Z" fill="black"/>
<path d="M5.53949 1.23224C5.08053 1.23559 4.63286 1.37487 4.25302 1.6325C3.87318 1.89013 3.5782 2.25454 3.40535 2.67972C3.23249 3.10489 3.18952 3.57175 3.28184 4.02134C3.37417 4.47093 3.59766 4.88307 3.92408 5.20571C4.2505 5.52836 4.66522 5.74703 5.11585 5.83411C5.56648 5.9212 6.03281 5.87279 6.45594 5.69499C6.87908 5.5172 7.24003 5.218 7.49322 4.83518C7.7464 4.45237 7.88047 4.00311 7.87847 3.54414C7.87714 3.23863 7.81554 2.93639 7.69719 2.65473C7.57884 2.37307 7.40608 2.11753 7.18879 1.90276C6.97151 1.68799 6.71397 1.51821 6.43095 1.40315C6.14794 1.28809 5.84499 1.23001 5.53949 1.23224ZM5.53949 5.19937C5.2153 5.19603 4.89932 5.09697 4.63125 4.91464C4.36318 4.7323 4.15495 4.47482 4.03274 4.17453C3.91052 3.87424 3.87976 3.54454 3.94431 3.22682C4.00887 2.90911 4.16586 2.61755 4.39558 2.38877C4.62529 2.15999 4.91749 2.00419 5.23546 1.94093C5.55344 1.87767 5.88302 1.90978 6.18281 2.03322C6.48259 2.15666 6.73922 2.36593 6.92046 2.63475C7.1017 2.90357 7.19947 3.21994 7.20149 3.54414C7.20239 3.76234 7.15997 3.97854 7.07668 4.18021C6.99339 4.38188 6.8709 4.56501 6.7163 4.71898C6.5617 4.87295 6.37807 4.9947 6.17606 5.07716C5.97405 5.15963 5.75767 5.20117 5.53949 5.19937Z" fill="black"/>
</svg>
