<svg width="22" height="22" viewBox="0 0 22 22" fill="none" xmlns="http://www.w3.org/2000/svg">
<path d="M4.52939 5.70312H3.35293C2.72889 5.70313 2.13042 5.95102 1.68916 6.39228C1.2479 6.83354 1 7.43202 1 8.05605V18.6442C1 19.2683 1.2479 19.8667 1.68916 20.308C2.13042 20.7492 2.72889 20.9971 3.35293 20.9971H13.9411C14.5651 20.9971 15.1636 20.7492 15.6049 20.308C16.0461 19.8667 16.294 19.2683 16.294 18.6442V17.4678" stroke="#0071B1" stroke-width="2" stroke-linecap="round" stroke-linejoin="round"/>
<path d="M15.1181 3.35305L18.6474 6.88244M20.2768 5.21775C20.7402 4.7544 21.0005 4.12597 21.0005 3.4707C21.0005 2.81543 20.7402 2.187 20.2768 1.72365C19.8135 1.2603 19.1851 1 18.5298 1C17.8745 1 17.2461 1.2603 16.7828 1.72365L6.88281 11.5883V15.1177H10.4122L20.2768 5.21775Z" stroke="#0071B1" stroke-width="2" stroke-linecap="round" stroke-linejoin="round"/>
</svg>
