<svg width="25" height="24" viewBox="0 0 25 24" fill="none" xmlns="http://www.w3.org/2000/svg">
<path d="M12.625 18.6C15.421 18.6 17.785 16.848 18.757 14.4H6.493C7.453 16.848 9.829 18.6 12.625 18.6ZM8.425 10.8C8.90239 10.8 9.36023 10.6104 9.69779 10.2728C10.0354 9.93523 10.225 9.47739 10.225 9C10.225 8.52261 10.0354 8.06477 9.69779 7.72721C9.36023 7.38964 8.90239 7.2 8.425 7.2C7.94761 7.2 7.48977 7.38964 7.15221 7.72721C6.81464 8.06477 6.625 8.52261 6.625 9C6.625 9.47739 6.81464 9.93523 7.15221 10.2728C7.48977 10.6104 7.94761 10.8 8.425 10.8ZM16.825 10.8C17.3024 10.8 17.7602 10.6104 18.0978 10.2728C18.4354 9.93523 18.625 9.47739 18.625 9C18.625 8.52261 18.4354 8.06477 18.0978 7.72721C17.7602 7.38964 17.3024 7.2 16.825 7.2C16.3476 7.2 15.8898 7.38964 15.5522 7.72721C15.2146 8.06477 15.025 8.52261 15.025 9C15.025 9.47739 15.2146 9.93523 15.5522 10.2728C15.8898 10.6104 16.3476 10.8 16.825 10.8ZM12.625 21.6C10.0789 21.6 7.63712 20.5886 5.83678 18.7882C4.03643 16.9879 3.025 14.5461 3.025 12C3.025 9.45392 4.03643 7.01212 5.83678 5.21178C7.63712 3.41143 10.0789 2.4 12.625 2.4C15.1711 2.4 17.6129 3.41143 19.4132 5.21178C21.2136 7.01212 22.225 9.45392 22.225 12C22.225 14.5461 21.2136 16.9879 19.4132 18.7882C17.6129 20.5886 15.1711 21.6 12.625 21.6ZM12.625 0C5.989 0 0.625 5.4 0.625 12C0.625 15.1826 1.88928 18.2348 4.13972 20.4853C5.25402 21.5996 6.57689 22.4835 8.0328 23.0866C9.48871 23.6896 11.0491 24 12.625 24C15.8076 24 18.8598 22.7357 21.1103 20.4853C23.3607 18.2348 24.625 15.1826 24.625 12C24.625 10.4241 24.3146 8.86371 23.7116 7.4078C23.1085 5.95189 22.2246 4.62902 21.1103 3.51472C19.996 2.40042 18.6731 1.5165 17.2172 0.913446C15.7613 0.310389 14.2009 0 12.625 0Z" fill="#7A7A7A"/>
</svg>
