<svg width="79" height="22" viewBox="0 0 79 22" fill="none" xmlns="http://www.w3.org/2000/svg">
<path d="M31.688 7.032V10.76H35.752V11.96H31.688V15.8H36.232V17H30.232V5.832H36.232V7.032H31.688ZM42.7071 8.072C43.7738 8.072 44.6378 8.39733 45.2991 9.048C45.9605 9.688 46.2911 10.616 46.2911 11.832V17H44.8511V12.04C44.8511 11.1653 44.6325 10.4987 44.1951 10.04C43.7578 9.57067 43.1605 9.336 42.4031 9.336C41.6351 9.336 41.0218 9.576 40.5631 10.056C40.1151 10.536 39.8911 11.2347 39.8911 12.152V17H38.4351V8.232H39.8911V9.48C40.1791 9.032 40.5685 8.68533 41.0591 8.44C41.5605 8.19467 42.1098 8.072 42.7071 8.072ZM48.1255 12.584C48.1255 11.688 48.3068 10.904 48.6695 10.232C49.0322 9.54933 49.5282 9.02133 50.1575 8.648C50.7975 8.27467 51.5122 8.088 52.3015 8.088C52.9842 8.088 53.6188 8.248 54.2055 8.568C54.7922 8.87733 55.2402 9.288 55.5495 9.8V5.16H57.0215V17H55.5495V15.352C55.2615 15.8747 54.8348 16.3067 54.2695 16.648C53.7042 16.9787 53.0428 17.144 52.2855 17.144C51.5068 17.144 50.7975 16.952 50.1575 16.568C49.5282 16.184 49.0322 15.6453 48.6695 14.952C48.3068 14.2587 48.1255 13.4693 48.1255 12.584ZM55.5495 12.6C55.5495 11.9387 55.4162 11.3627 55.1495 10.872C54.8828 10.3813 54.5202 10.008 54.0615 9.752C53.6135 9.48533 53.1175 9.352 52.5735 9.352C52.0295 9.352 51.5335 9.48 51.0855 9.736C50.6375 9.992 50.2802 10.3653 50.0135 10.856C49.7468 11.3467 49.6135 11.9227 49.6135 12.584C49.6135 13.256 49.7468 13.8427 50.0135 14.344C50.2802 14.8347 50.6375 15.2133 51.0855 15.48C51.5335 15.736 52.0295 15.864 52.5735 15.864C53.1175 15.864 53.6135 15.736 54.0615 15.48C54.5202 15.2133 54.8828 14.8347 55.1495 14.344C55.4162 13.8427 55.5495 13.2613 55.5495 12.6ZM67.482 12.28C67.482 12.5573 67.466 12.8507 67.434 13.16H60.426C60.4793 14.024 60.7727 14.7013 61.306 15.192C61.85 15.672 62.506 15.912 63.274 15.912C63.9033 15.912 64.426 15.768 64.842 15.48C65.2687 15.1813 65.5673 14.7867 65.738 14.296H67.306C67.0713 15.1387 66.602 15.8267 65.898 16.36C65.194 16.8827 64.3193 17.144 63.274 17.144C62.442 17.144 61.6953 16.9573 61.034 16.584C60.3833 16.2107 59.8713 15.6827 59.498 15C59.1247 14.3067 58.938 13.5067 58.938 12.6C58.938 11.6933 59.1193 10.8987 59.482 10.216C59.8447 9.53333 60.3513 9.01067 61.002 8.648C61.6633 8.27467 62.4207 8.088 63.274 8.088C64.106 8.088 64.842 8.26933 65.482 8.632C66.122 8.99467 66.6127 9.496 66.954 10.136C67.306 10.7653 67.482 11.48 67.482 12.28ZM65.978 11.976C65.978 11.4213 65.8553 10.9467 65.61 10.552C65.3647 10.1467 65.0287 9.84267 64.602 9.64C64.186 9.42667 63.722 9.32 63.21 9.32C62.474 9.32 61.8447 9.55467 61.322 10.024C60.81 10.4933 60.5167 11.144 60.442 11.976H65.978ZM68.8599 12.584C68.8599 11.688 69.0412 10.904 69.4039 10.232C69.7665 9.54933 70.2625 9.02133 70.8919 8.648C71.5319 8.27467 72.2465 8.088 73.0359 8.088C73.7185 8.088 74.3532 8.248 74.9399 8.568C75.5265 8.87733 75.9745 9.288 76.2839 9.8V5.16H77.7559V17H76.2839V15.352C75.9959 15.8747 75.5692 16.3067 75.0039 16.648C74.4385 16.9787 73.7772 17.144 73.0199 17.144C72.2412 17.144 71.5319 16.952 70.8919 16.568C70.2625 16.184 69.7665 15.6453 69.4039 14.952C69.0412 14.2587 68.8599 13.4693 68.8599 12.584ZM76.2839 12.6C76.2839 11.9387 76.1505 11.3627 75.8839 10.872C75.6172 10.3813 75.2545 10.008 74.7959 9.752C74.3479 9.48533 73.8519 9.352 73.3079 9.352C72.7639 9.352 72.2679 9.48 71.8199 9.736C71.3719 9.992 71.0145 10.3653 70.7479 10.856C70.4812 11.3467 70.3479 11.9227 70.3479 12.584C70.3479 13.256 70.4812 13.8427 70.7479 14.344C71.0145 14.8347 71.3719 15.2133 71.8199 15.48C72.2679 15.736 72.7639 15.864 73.3079 15.864C73.8519 15.864 74.3479 15.736 74.7959 15.48C75.2545 15.2133 75.6172 14.8347 75.8839 14.344C76.1505 13.8427 76.2839 13.2613 76.2839 12.6Z" fill="#292A32"/>
<circle cx="8.5" cy="11.5" r="8.5" fill="#FFB525"/>
</svg>
