<svg width="30" height="30" viewBox="0 0 30 30" fill="none" xmlns="http://www.w3.org/2000/svg">
<path d="M17.289 23.7516C17.1023 23.7522 16.9178 23.711 16.7491 23.6309C16.5803 23.5509 16.4317 23.4341 16.314 23.2891L10.2765 15.7891C10.0927 15.5654 9.99219 15.2848 9.99219 14.9953C9.99219 14.7058 10.0927 14.4252 10.2765 14.2016L16.5265 6.70157C16.7387 6.44629 17.0436 6.28576 17.3741 6.25529C17.7047 6.22481 18.0338 6.32689 18.289 6.53907C18.5443 6.75124 18.7048 7.05613 18.7353 7.38666C18.7658 7.71719 18.6637 8.04629 18.4515 8.30157L12.864 15.0016L18.264 21.7016C18.4169 21.885 18.514 22.1085 18.5438 22.3454C18.5737 22.5823 18.535 22.8229 18.4325 23.0385C18.3299 23.2542 18.1677 23.436 17.9651 23.5623C17.7624 23.6887 17.5278 23.7544 17.289 23.7516Z" fill="black"/>
</svg>
