<svg width="15" height="17" viewBox="0 0 15 17" fill="none" xmlns="http://www.w3.org/2000/svg">
<path d="M13.75 0H3.75C3.41848 0 3.10054 0.137774 2.86612 0.383014C2.6317 0.628254 2.5 0.960871 2.5 1.30769V3.26923H1.25C0.918479 3.26923 0.600537 3.40701 0.366116 3.65225C0.131696 3.89749 0 4.2301 0 4.57692V12.4231C0 12.7699 0.131696 13.1025 0.366116 13.3478C0.600537 13.593 0.918479 13.7308 1.25 13.7308H2.5V15.6923C2.5 16.0391 2.6317 16.3717 2.86612 16.617C3.10054 16.8622 3.41848 17 3.75 17H13.75C14.0815 17 14.3995 16.8622 14.6339 16.617C14.8683 16.3717 15 16.0391 15 15.6923V1.30769C15 0.960871 14.8683 0.628254 14.6339 0.383014C14.3995 0.137774 14.0815 0 13.75 0ZM10.625 6.53846H13.75V10.4615H10.625V6.53846ZM13.75 5.23077H10.625V4.57692C10.625 4.2301 10.4933 3.89749 10.2589 3.65225C10.0245 3.40701 9.70652 3.26923 9.375 3.26923V1.30769H13.75V5.23077ZM3.75 1.30769H8.125V3.26923H3.75V1.30769ZM1.25 4.57692H9.375V12.4231H1.25V4.57692ZM3.75 13.7308H8.125V15.6923H3.75V13.7308ZM9.375 15.6923V13.7308C9.70652 13.7308 10.0245 13.593 10.2589 13.3478C10.4933 13.1025 10.625 12.7699 10.625 12.4231V11.7692H13.75V15.6923H9.375ZM3.26953 10.0431L4.49922 8.5L3.26953 6.95692C3.16344 6.82361 3.11232 6.65168 3.12741 6.47894C3.14251 6.30619 3.22257 6.1468 3.35 6.03582C3.47743 5.92483 3.64178 5.87135 3.8069 5.88714C3.97202 5.90293 4.12438 5.98669 4.23047 6.12L5.3125 7.47837L6.39453 6.12C6.44706 6.05399 6.5115 5.99945 6.58418 5.9595C6.65685 5.91955 6.73634 5.89496 6.8181 5.88714C6.89986 5.87932 6.98229 5.88843 7.06068 5.91394C7.13908 5.93945 7.2119 5.98086 7.275 6.03582C7.3381 6.09077 7.39023 6.15819 7.42842 6.23422C7.46661 6.31025 7.49011 6.3934 7.49759 6.47894C7.50506 6.56447 7.49635 6.6507 7.47197 6.73272C7.44758 6.81473 7.408 6.89091 7.35547 6.95692L6.12578 8.5L7.35547 10.0431C7.46156 10.1764 7.51268 10.3483 7.49759 10.5211C7.48249 10.6938 7.40243 10.8532 7.275 10.9642C7.14757 11.0752 6.98322 11.1286 6.8181 11.1129C6.65298 11.0971 6.50062 11.0133 6.39453 10.88L5.3125 9.52163L4.23047 10.88C4.12438 11.0133 3.97202 11.0971 3.8069 11.1129C3.64178 11.1286 3.47743 11.0752 3.35 10.9642C3.22257 10.8532 3.14251 10.6938 3.12741 10.5211C3.11232 10.3483 3.16344 10.1764 3.26953 10.0431Z" fill="#292A32"/>
</svg>
