<svg width="18" height="18" viewBox="0 0 18 18" fill="none" xmlns="http://www.w3.org/2000/svg">
<path d="M10.9019 8.65313L5.02148 7.61719V15.272C5.02155 15.3551 5.038 15.4375 5.06989 15.5143C5.10178 15.5911 5.14848 15.6608 5.20733 15.7196C5.26619 15.7783 5.33603 15.8249 5.41289 15.8567C5.48975 15.8884 5.57211 15.9048 5.65527 15.9047H15.8021C15.8854 15.9049 15.9679 15.8887 16.0448 15.857C16.1218 15.8253 16.1918 15.7787 16.2508 15.72C16.3097 15.6612 16.3565 15.5914 16.3885 15.5145C16.4204 15.4376 16.4369 15.3552 16.437 15.272V12.4516L10.9019 8.65313Z" fill="#185C37"/>
<path d="M10.9019 2.09375H5.65527C5.57211 2.09368 5.48975 2.10999 5.41289 2.14175C5.33603 2.17351 5.26619 2.2201 5.20733 2.27885C5.14848 2.3376 5.10178 2.40737 5.06989 2.48418C5.038 2.56098 5.02155 2.64331 5.02148 2.72647V5.54688L10.9019 9L14.0155 10.0359L16.437 9V5.54688L10.9019 2.09375Z" fill="#21A366"/>
<path d="M5.02148 5.54688H10.9019V9H5.02148V5.54688Z" fill="#107C41"/>
<path opacity="0.1" d="M9.23005 4.85547H5.02148V13.4883H9.23005C9.39774 13.4874 9.55836 13.4206 9.67709 13.3021C9.79582 13.1837 9.8631 13.0233 9.86436 12.8556V5.48819C9.8631 5.32049 9.79582 5.16005 9.67709 5.04161C9.55836 4.92318 9.39774 4.8563 9.23005 4.85547Z" fill="black"/>
<path opacity="0.2" d="M8.8842 5.20312H5.02148V13.8359H8.8842C9.0519 13.8351 9.21252 13.7682 9.33125 13.6498C9.44998 13.5314 9.51726 13.3709 9.51852 13.2032V5.83584C9.51726 5.66815 9.44998 5.5077 9.33125 5.38927C9.21252 5.27084 9.0519 5.20396 8.8842 5.20312Z" fill="black"/>
<path opacity="0.2" d="M8.8842 5.20312H5.02148V13.1453H8.8842C9.0519 13.1445 9.21252 13.0776 9.33125 12.9592C9.44998 12.8407 9.51726 12.6803 9.51852 12.5126V5.83584C9.51726 5.66815 9.44998 5.5077 9.33125 5.38927C9.21252 5.27084 9.0519 5.20396 8.8842 5.20312Z" fill="black"/>
<path opacity="0.2" d="M8.53836 5.20312H5.02148V13.1453H8.53836C8.70606 13.1445 8.86667 13.0776 8.9854 12.9592C9.10413 12.8407 9.17142 12.6803 9.17267 12.5126V5.83584C9.17142 5.66815 9.10413 5.5077 8.9854 5.38927C8.86667 5.27084 8.70606 5.20396 8.53836 5.20312Z" fill="black"/>
<path d="M2.19681 5.20313H8.53888C8.70687 5.20298 8.86805 5.26955 8.98699 5.38819C9.10594 5.50683 9.17291 5.66785 9.17319 5.83584V12.1673C9.17291 12.3353 9.10594 12.4963 8.98699 12.6149C8.86805 12.7336 8.70687 12.8001 8.53888 12.8H2.19681C2.11361 12.8001 2.03119 12.7839 1.95427 12.7522C1.87736 12.7204 1.80745 12.6739 1.74854 12.6151C1.68963 12.5563 1.64288 12.4865 1.61096 12.4097C1.57904 12.3329 1.56257 12.2505 1.5625 12.1673V5.83584C1.56257 5.75264 1.57904 5.67027 1.61096 5.59343C1.64288 5.51659 1.68963 5.4468 1.74854 5.38804C1.80745 5.32928 1.87736 5.2827 1.95427 5.25097C2.03119 5.21924 2.11361 5.20299 2.19681 5.20313Z" fill="url(#paint0_linear_3451_11729)"/>
<path d="M3.52734 11.0565L4.86131 8.99309L3.63944 6.94141H4.62066L5.28738 8.25519C5.349 8.3795 5.39363 8.47194 5.41381 8.53356H5.42284C5.46641 8.43369 5.51263 8.33753 5.56097 8.2435L6.27391 6.94353H7.17703L5.92381 8.98353L7.20891 11.0581H6.24788L5.47756 9.61784C5.4418 9.55592 5.4114 9.49105 5.38672 9.42394H5.37397C5.35151 9.48933 5.32156 9.5519 5.28472 9.61041L4.49156 11.0565H3.52734Z" fill="white"/>
<path d="M15.8031 2.09375H10.9023V5.54688H16.4374V2.72647C16.4374 2.64327 16.4209 2.56089 16.389 2.48405C16.3571 2.40722 16.3103 2.33742 16.2514 2.27866C16.1925 2.2199 16.1226 2.17333 16.0457 2.1416C15.9687 2.10987 15.8863 2.09361 15.8031 2.09375Z" fill="#33C481"/>
<path d="M10.9023 9H16.4374V12.4531H10.9023V9Z" fill="#107C41"/>
<defs>
<linearGradient id="paint0_linear_3451_11729" x1="2.88744" y1="4.70588" x2="7.84825" y2="13.2973" gradientUnits="userSpaceOnUse">
<stop stop-color="#18884F"/>
<stop offset="0.5" stop-color="#117E43"/>
<stop offset="1" stop-color="#0B6631"/>
</linearGradient>
</defs>
</svg>
