<svg width="10" height="11" viewBox="0 0 10 11" fill="none" xmlns="http://www.w3.org/2000/svg">
<path d="M9.95831 7.396C9.93017 7.33253 9.8907 7.27406 9.84161 7.22315L8.17449 5.65172C8.06984 5.55308 7.92792 5.49767 7.77993 5.49767C7.63195 5.49767 7.49002 5.55308 7.38538 5.65172C7.28074 5.75035 7.22195 5.88413 7.22195 6.02362C7.22195 6.16312 7.28074 6.29689 7.38538 6.39553L8.1078 7.07124H5.00139C4.854 7.07124 4.71266 7.12643 4.60844 7.22466C4.50422 7.3229 4.44568 7.45613 4.44568 7.59505C4.44568 7.73398 4.50422 7.86721 4.60844 7.96544C4.71266 8.06368 4.854 8.11886 5.00139 8.11886H8.1078L7.38538 8.79458C7.33329 8.84327 7.29195 8.90121 7.26374 8.96504C7.23553 9.02887 7.221 9.09733 7.221 9.16648C7.221 9.23563 7.23553 9.3041 7.26374 9.36793C7.29195 9.43176 7.33329 9.48969 7.38538 9.53839C7.43704 9.58748 7.4985 9.62645 7.56622 9.65304C7.63394 9.67964 7.70657 9.69333 7.77993 9.69333C7.85329 9.69333 7.92593 9.67964 7.99365 9.65304C8.06136 9.62645 8.12283 9.58748 8.17449 9.53839L9.84161 7.96696C9.89307 7.91779 9.93285 7.85887 9.95831 7.7941C10.0139 7.66657 10.0139 7.52353 9.95831 7.396ZM6.1128 9.69029H1.66713C1.51975 9.69029 1.3784 9.6351 1.27418 9.53687C1.16997 9.43864 1.11142 9.3054 1.11142 9.16648V1.83315C1.11142 1.69422 1.16997 1.56099 1.27418 1.46276C1.3784 1.36452 1.51975 1.30934 1.66713 1.30934H4.44568V2.88077C4.44568 3.29754 4.62132 3.69723 4.93397 3.99193C5.24661 4.28663 5.67065 4.4522 6.1128 4.4522H8.33564C8.44535 4.45168 8.55245 4.42056 8.64343 4.36277C8.73441 4.30498 8.80521 4.22309 8.8469 4.12743C8.88945 4.03204 8.90108 3.92691 8.88031 3.82529C8.85954 3.72368 8.8073 3.63014 8.7302 3.55648L5.39594 0.413623C5.35 0.37288 5.29748 0.339285 5.24034 0.3141H5.19033L5.03473 0.261719H1.66713C1.22498 0.261719 0.800938 0.42728 0.488291 0.72198C0.175643 1.01668 0 1.41638 0 1.83315V9.16648C0 9.58325 0.175643 9.98295 0.488291 10.2776C0.800938 10.5723 1.22498 10.7379 1.66713 10.7379H6.1128C6.26019 10.7379 6.40153 10.6827 6.50575 10.5845C6.60997 10.4863 6.66851 10.353 6.66851 10.2141C6.66851 10.0752 6.60997 9.94194 6.50575 9.84371C6.40153 9.74548 6.26019 9.69029 6.1128 9.69029ZM5.55709 2.04791L6.99638 3.40458H6.1128C5.96542 3.40458 5.82407 3.34939 5.71986 3.25116C5.61564 3.15292 5.55709 3.01969 5.55709 2.88077V2.04791Z" fill="#292A32"/>
</svg>
