<svg width="10" height="11" viewBox="0 0 10 11" fill="none" xmlns="http://www.w3.org/2000/svg">
<path d="M9.95831 7.491C9.93017 7.42435 9.8907 7.36296 9.84161 7.3095L8.17449 5.6595C8.06984 5.55593 7.92792 5.49775 7.77993 5.49775C7.63195 5.49775 7.49002 5.55593 7.38538 5.6595C7.28074 5.76307 7.22195 5.90353 7.22195 6.05C7.22195 6.19647 7.28074 6.33693 7.38538 6.4405L8.1078 7.15H5.00139C4.854 7.15 4.71266 7.20795 4.60844 7.31109C4.50422 7.41424 4.44568 7.55413 4.44568 7.7C4.44568 7.84587 4.50422 7.98576 4.60844 8.08891C4.71266 8.19205 4.854 8.25 5.00139 8.25H8.1078L7.38538 8.9595C7.33329 9.01063 7.29195 9.07146 7.26374 9.13848C7.23553 9.20551 7.221 9.27739 7.221 9.35C7.221 9.42261 7.23553 9.49449 7.26374 9.56152C7.29195 9.62854 7.33329 9.68937 7.38538 9.7405C7.43704 9.79205 7.4985 9.83297 7.56622 9.86089C7.63394 9.88881 7.70657 9.90319 7.77993 9.90319C7.85329 9.90319 7.92593 9.88881 7.99365 9.86089C8.06136 9.83297 8.12283 9.79205 8.17449 9.7405L9.84161 8.0905C9.89307 8.03887 9.93285 7.977 9.95831 7.909C10.0139 7.7751 10.0139 7.6249 9.95831 7.491ZM6.1128 9.9H1.66713C1.51975 9.9 1.3784 9.84205 1.27418 9.73891C1.16997 9.63576 1.11142 9.49587 1.11142 9.35V1.65C1.11142 1.50413 1.16997 1.36424 1.27418 1.26109C1.3784 1.15795 1.51975 1.1 1.66713 1.1H4.44568V2.75C4.44568 3.18761 4.62132 3.60729 4.93397 3.91673C5.24661 4.22616 5.67065 4.4 6.1128 4.4H8.33564C8.44535 4.39946 8.55245 4.36679 8.64343 4.3061C8.73441 4.24542 8.80521 4.15944 8.8469 4.059C8.88945 3.95884 8.90108 3.84845 8.88031 3.74175C8.85954 3.63506 8.8073 3.53684 8.7302 3.4595L5.39594 0.1595C5.35 0.116719 5.29748 0.0814445 5.24034 0.0549999H5.19033L5.03473 0H1.66713C1.22498 0 0.800938 0.173839 0.488291 0.483274C0.175643 0.792709 0 1.21239 0 1.65V9.35C0 9.78761 0.175643 10.2073 0.488291 10.5167C0.800938 10.8262 1.22498 11 1.66713 11H6.1128C6.26019 11 6.40153 10.9421 6.50575 10.8389C6.60997 10.7358 6.66851 10.5959 6.66851 10.45C6.66851 10.3041 6.60997 10.1642 6.50575 10.0611C6.40153 9.95795 6.26019 9.9 6.1128 9.9ZM5.55709 1.8755L6.99638 3.3H6.1128C5.96542 3.3 5.82407 3.24205 5.71986 3.13891C5.61564 3.03576 5.55709 2.89587 5.55709 2.75V1.8755Z" fill="white"/>
</svg>
