<svg width="19" height="24" viewBox="0 0 19 24" fill="none" xmlns="http://www.w3.org/2000/svg">
<path fill-rule="evenodd" clip-rule="evenodd" d="M10.8268 0.0322804C12.1921 -0.111877 13.5871 0.238907 14.6332 0.842877C15.6793 1.44685 16.6806 2.47959 17.2384 3.73404C17.8117 5.02327 17.9344 6.61063 17.0543 8.13506L11.3115 18.0819C10.9967 18.6271 10.3842 19.3312 9.49067 19.7336C8.52403 20.169 7.32599 20.2016 6.08163 19.4832C4.83726 18.7648 4.2665 17.7109 4.16022 16.6561C4.06197 15.6811 4.36549 14.7986 4.68029 14.2533L9.78499 5.41174C10.1374 4.80136 10.9179 4.59222 11.5283 4.94463C12.1387 5.29703 12.3478 6.07753 11.9954 6.68791L6.89069 15.5295C6.7801 15.721 6.66657 16.0714 6.69971 16.4002C6.7248 16.6493 6.83385 16.9703 7.3578 17.2728C7.88175 17.5753 8.21431 17.5092 8.44253 17.4064C8.74386 17.2707 8.9905 16.9972 9.10109 16.8057L14.8439 6.85889C15.2399 6.17293 15.2145 5.4644 14.9063 4.77106C14.5825 4.04295 13.9687 3.40643 13.357 3.05327C12.7454 2.70011 11.8872 2.48685 11.0948 2.57052C10.3402 2.65019 9.71392 2.98249 9.31788 3.66845L2.93701 14.7204C2.10197 16.1668 2.57236 18.9307 5.44354 20.5884C8.31473 22.2461 10.9436 21.2715 11.7786 19.8251L16.2452 12.0887C16.5976 11.4784 17.3781 11.2692 17.9885 11.6216C18.5989 11.974 18.808 12.7545 18.4556 13.3649L13.989 21.1013C12.2717 24.0758 7.92738 24.9696 4.16737 22.7988C0.407358 20.6279 -0.990708 16.4187 0.726607 13.4443L7.10748 2.39228C7.98761 0.867844 9.42366 0.180433 10.8268 0.0322804Z" fill="#7A7A7A"/>
</svg>
