<svg width="201" height="54" viewBox="0 0 201 54" fill="none" xmlns="http://www.w3.org/2000/svg">
<g filter="url(#filter0_d_801_4987)">
<rect x="3" y="3" width="193" height="46" rx="16" fill="#00658D" shape-rendering="crispEdges"/>
<path d="M45.174 17.8217C44.072 16.7197 43.092 17.0447 43.092 17.0447L34.453 25.6767L33 29.9957L37.317 28.5417L45.951 19.9037C45.951 19.9037 46.275 18.9237 45.174 17.8217ZM37.605 27.6007L37.134 28.0707L35.661 28.5707C35.5469 28.2929 35.3774 28.0411 35.163 27.8307C34.9525 27.6165 34.7007 27.4471 34.423 27.3327L34.923 25.8597L35.394 25.3897C35.394 25.3897 36.17 25.3007 36.931 26.0627C37.693 26.8237 37.605 27.6007 37.605 27.6007ZM43 32.9957H30V19.9957H35L37 17.9957H30C28.9 17.9957 28 18.8957 28 19.9957V32.9957C28 34.0957 28.9 34.9957 30 34.9957H43C44.1 34.9957 45 34.0957 45 32.9957V25.9957L43 27.9957V32.9957Z" fill="white"/>
<path d="M70.336 32H68.512L63.024 23.696V32H61.2V20.864H63.024L68.512 29.152V20.864H70.336V32ZM80.8113 27.376C80.8113 27.7067 80.7899 28.0053 80.7473 28.272H74.0113C74.0646 28.976 74.3259 29.5413 74.7953 29.968C75.2646 30.3947 75.8406 30.608 76.5233 30.608C77.5046 30.608 78.1979 30.1973 78.6033 29.376H80.5712C80.3046 30.1867 79.8193 30.8533 79.1153 31.376C78.4219 31.888 77.5579 32.144 76.5233 32.144C75.6806 32.144 74.9233 31.9573 74.2513 31.584C73.5899 31.2 73.0673 30.6667 72.6833 29.984C72.3099 29.2907 72.1233 28.4907 72.1233 27.584C72.1233 26.6773 72.3046 25.8827 72.6673 25.2C73.0406 24.5067 73.5579 23.9733 74.2193 23.6C74.8913 23.2267 75.6593 23.04 76.5233 23.04C77.3553 23.04 78.0966 23.2213 78.7473 23.584C79.3979 23.9467 79.9046 24.4587 80.2673 25.12C80.6299 25.7707 80.8113 26.5227 80.8113 27.376ZM78.9073 26.8C78.8966 26.128 78.6566 25.5893 78.1873 25.184C77.7179 24.7787 77.1366 24.576 76.4433 24.576C75.8139 24.576 75.2753 24.7787 74.8273 25.184C74.3793 25.5787 74.1126 26.1173 74.0273 26.8H78.9073ZM94.4463 23.184L91.7103 32H89.7903L88.0143 25.488L86.2383 32H84.3183L81.5663 23.184H83.4223L85.2623 30.272L87.1343 23.184H89.0383L90.8303 30.24L92.6543 23.184H94.4463ZM111.678 20.88V32H109.854V24.384L106.462 32H105.198L101.79 24.384V32H99.9656V20.88H101.934L105.838 29.6L109.726 20.88H111.678ZM122.155 27.376C122.155 27.7067 122.134 28.0053 122.091 28.272H115.355C115.408 28.976 115.67 29.5413 116.139 29.968C116.608 30.3947 117.184 30.608 117.867 30.608C118.848 30.608 119.542 30.1973 119.947 29.376H121.915C121.648 30.1867 121.163 30.8533 120.459 31.376C119.766 31.888 118.902 32.144 117.867 32.144C117.024 32.144 116.267 31.9573 115.595 31.584C114.934 31.2 114.411 30.6667 114.027 29.984C113.654 29.2907 113.467 28.4907 113.467 27.584C113.467 26.6773 113.648 25.8827 114.011 25.2C114.384 24.5067 114.902 23.9733 115.563 23.6C116.235 23.2267 117.003 23.04 117.867 23.04C118.699 23.04 119.44 23.2213 120.091 23.584C120.742 23.9467 121.248 24.4587 121.611 25.12C121.974 25.7707 122.155 26.5227 122.155 27.376ZM120.251 26.8C120.24 26.128 120 25.5893 119.531 25.184C119.062 24.7787 118.48 24.576 117.787 24.576C117.158 24.576 116.619 24.7787 116.171 25.184C115.723 25.5787 115.456 26.1173 115.371 26.8H120.251ZM127.15 32.144C126.457 32.144 125.833 32.0213 125.278 31.776C124.734 31.52 124.302 31.1787 123.982 30.752C123.662 30.3147 123.491 29.8293 123.47 29.296H125.358C125.39 29.6693 125.566 29.984 125.886 30.24C126.217 30.4853 126.627 30.608 127.118 30.608C127.63 30.608 128.025 30.512 128.302 30.32C128.59 30.1173 128.734 29.8613 128.734 29.552C128.734 29.2213 128.574 28.976 128.254 28.816C127.945 28.656 127.449 28.48 126.766 28.288C126.105 28.1067 125.566 27.9307 125.15 27.76C124.734 27.5893 124.371 27.328 124.062 26.976C123.763 26.624 123.614 26.16 123.614 25.584C123.614 25.1147 123.753 24.688 124.03 24.304C124.307 23.9093 124.702 23.6 125.214 23.376C125.737 23.152 126.334 23.04 127.006 23.04C128.009 23.04 128.814 23.296 129.422 23.808C130.041 24.3093 130.371 24.9973 130.414 25.872H128.59C128.558 25.4773 128.398 25.1627 128.11 24.928C127.822 24.6933 127.433 24.576 126.942 24.576C126.462 24.576 126.094 24.6667 125.838 24.848C125.582 25.0293 125.454 25.2693 125.454 25.568C125.454 25.8027 125.539 26 125.71 26.16C125.881 26.32 126.089 26.448 126.334 26.544C126.579 26.6293 126.942 26.7413 127.422 26.88C128.062 27.0507 128.585 27.2267 128.99 27.408C129.406 27.5787 129.763 27.8347 130.062 28.176C130.361 28.5173 130.515 28.9707 130.526 29.536C130.526 30.0373 130.387 30.4853 130.11 30.88C129.833 31.2747 129.438 31.584 128.926 31.808C128.425 32.032 127.833 32.144 127.15 32.144ZM135.697 32.144C135.004 32.144 134.38 32.0213 133.825 31.776C133.281 31.52 132.849 31.1787 132.529 30.752C132.209 30.3147 132.038 29.8293 132.017 29.296H133.905C133.937 29.6693 134.113 29.984 134.433 30.24C134.764 30.4853 135.174 30.608 135.665 30.608C136.177 30.608 136.572 30.512 136.849 30.32C137.137 30.1173 137.281 29.8613 137.281 29.552C137.281 29.2213 137.121 28.976 136.801 28.816C136.492 28.656 135.996 28.48 135.313 28.288C134.652 28.1067 134.113 27.9307 133.697 27.76C133.281 27.5893 132.918 27.328 132.609 26.976C132.31 26.624 132.161 26.16 132.161 25.584C132.161 25.1147 132.3 24.688 132.577 24.304C132.854 23.9093 133.249 23.6 133.761 23.376C134.284 23.152 134.881 23.04 135.553 23.04C136.556 23.04 137.361 23.296 137.969 23.808C138.588 24.3093 138.918 24.9973 138.961 25.872H137.137C137.105 25.4773 136.945 25.1627 136.657 24.928C136.369 24.6933 135.98 24.576 135.489 24.576C135.009 24.576 134.641 24.6667 134.385 24.848C134.129 25.0293 134.001 25.2693 134.001 25.568C134.001 25.8027 134.086 26 134.257 26.16C134.428 26.32 134.636 26.448 134.881 26.544C135.126 26.6293 135.489 26.7413 135.969 26.88C136.609 27.0507 137.132 27.2267 137.537 27.408C137.953 27.5787 138.31 27.8347 138.609 28.176C138.908 28.5173 139.062 28.9707 139.073 29.536C139.073 30.0373 138.934 30.4853 138.657 30.88C138.38 31.2747 137.985 31.584 137.473 31.808C136.972 32.032 136.38 32.144 135.697 32.144ZM140.436 27.552C140.436 26.6667 140.617 25.8827 140.98 25.2C141.353 24.5173 141.854 23.9893 142.484 23.616C143.124 23.232 143.828 23.04 144.596 23.04C145.289 23.04 145.892 23.1787 146.404 23.456C146.926 23.7227 147.342 24.0587 147.652 24.464V23.184H149.492V32H147.652V30.688C147.342 31.104 146.921 31.4507 146.388 31.728C145.854 32.0053 145.246 32.144 144.564 32.144C143.806 32.144 143.113 31.952 142.484 31.568C141.854 31.1733 141.353 30.6293 140.98 29.936C140.617 29.232 140.436 28.4373 140.436 27.552ZM147.652 27.584C147.652 26.976 147.524 26.448 147.268 26C147.022 25.552 146.697 25.2107 146.292 24.976C145.886 24.7413 145.449 24.624 144.98 24.624C144.51 24.624 144.073 24.7413 143.668 24.976C143.262 25.2 142.932 25.536 142.676 25.984C142.43 26.4213 142.308 26.944 142.308 27.552C142.308 28.16 142.43 28.6933 142.676 29.152C142.932 29.6107 143.262 29.9627 143.668 30.208C144.084 30.4427 144.521 30.56 144.98 30.56C145.449 30.56 145.886 30.4427 146.292 30.208C146.697 29.9733 147.022 29.632 147.268 29.184C147.524 28.7253 147.652 28.192 147.652 27.584ZM155.44 23.04C156.122 23.04 156.725 23.1787 157.248 23.456C157.781 23.7227 158.197 24.0587 158.496 24.464V23.184H160.336V32.144C160.336 32.9547 160.165 33.6747 159.824 34.304C159.482 34.944 158.986 35.4453 158.336 35.808C157.696 36.1707 156.928 36.352 156.032 36.352C154.837 36.352 153.845 36.0693 153.056 35.504C152.266 34.9493 151.818 34.192 151.712 33.232H153.52C153.658 33.6907 153.952 34.0587 154.4 34.336C154.858 34.624 155.402 34.768 156.032 34.768C156.768 34.768 157.36 34.544 157.808 34.096C158.266 33.648 158.496 32.9973 158.496 32.144V30.672C158.186 31.088 157.765 31.44 157.232 31.728C156.709 32.0053 156.112 32.144 155.44 32.144C154.672 32.144 153.968 31.952 153.328 31.568C152.698 31.1733 152.197 30.6293 151.824 29.936C151.461 29.232 151.28 28.4373 151.28 27.552C151.28 26.6667 151.461 25.8827 151.824 25.2C152.197 24.5173 152.698 23.9893 153.328 23.616C153.968 23.232 154.672 23.04 155.44 23.04ZM158.496 27.584C158.496 26.976 158.368 26.448 158.112 26C157.866 25.552 157.541 25.2107 157.136 24.976C156.73 24.7413 156.293 24.624 155.824 24.624C155.354 24.624 154.917 24.7413 154.512 24.976C154.106 25.2 153.776 25.536 153.52 25.984C153.274 26.4213 153.152 26.944 153.152 27.552C153.152 28.16 153.274 28.6933 153.52 29.152C153.776 29.6107 154.106 29.9627 154.512 30.208C154.928 30.4427 155.365 30.56 155.824 30.56C156.293 30.56 156.73 30.4427 157.136 30.208C157.541 29.9733 157.866 29.632 158.112 29.184C158.368 28.7253 158.496 28.192 158.496 27.584ZM170.811 27.376C170.811 27.7067 170.79 28.0053 170.747 28.272H164.011C164.065 28.976 164.326 29.5413 164.795 29.968C165.265 30.3947 165.841 30.608 166.523 30.608C167.505 30.608 168.198 30.1973 168.603 29.376H170.571C170.305 30.1867 169.819 30.8533 169.115 31.376C168.422 31.888 167.558 32.144 166.523 32.144C165.681 32.144 164.923 31.9573 164.251 31.584C163.59 31.2 163.067 30.6667 162.683 29.984C162.31 29.2907 162.123 28.4907 162.123 27.584C162.123 26.6773 162.305 25.8827 162.667 25.2C163.041 24.5067 163.558 23.9733 164.219 23.6C164.891 23.2267 165.659 23.04 166.523 23.04C167.355 23.04 168.097 23.2213 168.747 23.584C169.398 23.9467 169.905 24.4587 170.267 25.12C170.63 25.7707 170.811 26.5227 170.811 27.376ZM168.907 26.8C168.897 26.128 168.657 25.5893 168.187 25.184C167.718 24.7787 167.137 24.576 166.443 24.576C165.814 24.576 165.275 24.7787 164.827 25.184C164.379 25.5787 164.113 26.1173 164.027 26.8H168.907Z" fill="white"/>
</g>
<defs>
<filter id="filter0_d_801_4987" x="0" y="0" width="201" height="54" filterUnits="userSpaceOnUse" color-interpolation-filters="sRGB">
<feFlood flood-opacity="0" result="BackgroundImageFix"/>
<feColorMatrix in="SourceAlpha" type="matrix" values="0 0 0 0 0 0 0 0 0 0 0 0 0 0 0 0 0 0 127 0" result="hardAlpha"/>
<feOffset dx="1" dy="1"/>
<feGaussianBlur stdDeviation="2"/>
<feComposite in2="hardAlpha" operator="out"/>
<feColorMatrix type="matrix" values="0 0 0 0 0 0 0 0 0 0 0 0 0 0 0 0 0 0 0.1 0"/>
<feBlend mode="normal" in2="BackgroundImageFix" result="effect1_dropShadow_801_4987"/>
<feBlend mode="normal" in="SourceGraphic" in2="effect1_dropShadow_801_4987" result="shape"/>
</filter>
</defs>
</svg>
