<svg width="20" height="20" viewBox="0 0 20 20" fill="none" xmlns="http://www.w3.org/2000/svg">
<path d="M13.572 13.5737H17.1434V17.1451H13.572V13.5737ZM10.7148 10.7165H13.572V13.5737H10.7148V10.7165ZM17.1434 17.1451H20.0006V20.0022H17.1434V17.1451ZM17.8577 10.7165H20.0006V12.8594H17.8577V10.7165ZM10.7148 17.8594H12.8577V20.0022H10.7148V17.8594ZM13.572 2.85938H17.1434V6.4308H13.572V2.85938Z" fill="#0071B1"/>
<path d="M19.9983 9.28572H10.7126V0H19.9983V9.28572ZM12.6769 7.32143H18.034V1.96429H12.6769V7.32143ZM2.85547 2.85714H6.4269V6.42857H2.85547V2.85714Z" fill="#0071B1"/>
<path d="M9.28572 9.28571H0V0H9.28572V9.28571ZM1.96429 7.32143H7.32143V1.96429H1.96429V7.32143ZM2.85714 13.5714H6.42857V17.1429H2.85714V13.5714Z" fill="#0071B1"/>
<path d="M9.28572 19.9967H0V10.7109H9.28572V19.9967ZM1.96429 18.0324H7.32143V12.6752H1.96429V18.0324Z" fill="#0071B1"/>
</svg>
