<svg width="40" height="40" viewBox="0 0 40 40" fill="none" xmlns="http://www.w3.org/2000/svg">
<rect width="40" height="40" rx="20" fill="#BDBDBD"/>
<path d="M13.95 11C14.6793 11 15.3788 11.2963 15.8945 11.8238C16.4103 12.3512 16.7 13.0666 16.7 13.8125C16.7 14.5584 16.4103 15.2738 15.8945 15.8012C15.3788 16.3287 14.6793 16.625 13.95 16.625C13.2207 16.625 12.5212 16.3287 12.0055 15.8012C11.4897 15.2738 11.2 14.5584 11.2 13.8125C11.2 13.0666 11.4897 12.3512 12.0055 11.8238C12.5212 11.2963 13.2207 11 13.95 11ZM26.6 11C27.3293 11 28.0288 11.2963 28.5445 11.8238C29.0603 12.3512 29.35 13.0666 29.35 13.8125C29.35 14.5584 29.0603 15.2738 28.5445 15.8012C28.0288 16.3287 27.3293 16.625 26.6 16.625C25.8707 16.625 25.1712 16.3287 24.6555 15.8012C24.1397 15.2738 23.85 14.5584 23.85 13.8125C23.85 13.0666 24.1397 12.3512 24.6555 11.8238C25.1712 11.2963 25.8707 11 26.6 11ZM9 21.5012C9 19.4305 10.6431 17.75 12.6678 17.75H14.1356C14.6822 17.75 15.2013 17.873 15.6688 18.091C15.6241 18.3441 15.6034 18.6078 15.6034 18.875C15.6034 20.218 16.1809 21.4238 17.0919 22.25H9.73219C9.33 22.25 9 21.9125 9 21.5012ZM22.9322 22.25H22.9081C23.8225 21.4238 24.3966 20.218 24.3966 18.875C24.3966 18.6078 24.3725 18.3477 24.3313 18.091C24.7987 17.8695 25.3178 17.75 25.8644 17.75H27.3322C29.3569 17.75 31 19.4305 31 21.5012C31 21.916 30.67 22.25 30.2678 22.25H22.9322ZM16.7 18.875C16.7 17.9799 17.0477 17.1214 17.6665 16.4885C18.2854 15.8556 19.1248 15.5 20 15.5C20.8752 15.5 21.7146 15.8556 22.3335 16.4885C22.9523 17.1214 23.3 17.9799 23.3 18.875C23.3 19.7701 22.9523 20.6286 22.3335 21.2615C21.7146 21.8944 20.8752 22.25 20 22.25C19.1248 22.25 18.2854 21.8944 17.6665 21.2615C17.0477 20.6286 16.7 19.7701 16.7 18.875ZM13.4 28.0613C13.4 25.4738 15.4522 23.375 17.9822 23.375H22.0178C24.5478 23.375 26.6 25.4738 26.6 28.0613C26.6 28.5781 26.1909 29 25.6822 29H14.3178C13.8125 29 13.4 28.5816 13.4 28.0613Z" fill="white"/>
</svg>
