<svg width="15" height="16" viewBox="0 0 15 16" fill="none" xmlns="http://www.w3.org/2000/svg">
<path d="M7.5 15.5C5.40625 15.5 3.63281 14.7734 2.17969 13.3203C0.726562 11.8672 0 10.0938 0 8C0 5.90625 0.726562 4.13281 2.17969 2.67969C3.63281 1.22656 5.40625 0.5 7.5 0.5C8.57812 0.5 9.60938 0.7225 10.5938 1.1675C11.5781 1.6125 12.4219 2.24937 13.125 3.07812V0.5H15V7.0625H8.4375V5.1875H12.375C11.875 4.3125 11.1912 3.625 10.3238 3.125C9.45625 2.625 8.515 2.375 7.5 2.375C5.9375 2.375 4.60938 2.92188 3.51562 4.01562C2.42188 5.10938 1.875 6.4375 1.875 8C1.875 9.5625 2.42188 10.8906 3.51562 11.9844C4.60938 13.0781 5.9375 13.625 7.5 13.625C8.70312 13.625 9.78906 13.2812 10.7578 12.5938C11.7266 11.9062 12.4062 11 12.7969 9.875H14.7656C14.3281 11.5312 13.4375 12.8828 12.0938 13.9297C10.75 14.9766 9.21875 15.5 7.5 15.5Z" fill="white"/>
</svg>
