<svg width="16" height="16" viewBox="0 0 16 16" fill="none" xmlns="http://www.w3.org/2000/svg">
<path d="M14 9.5H7.415L8.705 8.205L8 7.5L5.5 10L8 12.5L8.705 11.795L7.415 10.5H14V9.5Z" fill="#0071B1"/>
<path d="M12 7.00001V5.00001C12.0004 4.93421 11.9878 4.86897 11.9629 4.80806C11.938 4.74714 11.9013 4.69173 11.855 4.64501L8.355 1.14501C8.30828 1.09867 8.25287 1.06201 8.19195 1.03712C8.13103 1.01224 8.0658 0.999628 8 1.00001H3C2.73478 1.00001 2.48043 1.10537 2.29289 1.2929C2.10536 1.48044 2 1.73479 2 2.00001V14C2 14.2652 2.10536 14.5196 2.29289 14.7071C2.48043 14.8947 2.73478 15 3 15H11C11.2652 15 11.5196 14.8947 11.7071 14.7071C11.8946 14.5196 12 14.2652 12 14V13H11V14H3V2.00001H7V5.00001C7 5.26523 7.10536 5.51958 7.29289 5.70712C7.48043 5.89465 7.73478 6.00001 8 6.00001H11V7.00001H12ZM8 5.00001V2.20501L10.795 5.00001H8Z" fill="white"/>
<path d="M9.10344 12.8401C9.00968 12.9425 8.88252 13 8.74994 13C8.61735 13 8.4902 12.9425 8.39643 12.8401L6.1464 10.3828C6.05266 10.2804 6 10.1415 6 9.9967C6 9.8519 6.05266 9.71303 6.1464 9.61063L8.39643 7.15329C8.49073 7.05382 8.61704 6.99878 8.74814 7.00002C8.87924 7.00126 9.00464 7.05869 9.09735 7.15994C9.19006 7.26119 9.24264 7.39815 9.24378 7.54133C9.24492 7.68451 9.19452 7.82245 9.10344 7.92544L7.74992 9.45063L12.5 9.45063C12.6326 9.45063 12.7598 9.50816 12.8536 9.61057C12.9473 9.71298 13 9.85188 13 9.9967C13 10.1415 12.9473 10.2804 12.8536 10.3828C12.7598 10.4852 12.6326 10.5428 12.5 10.5428L7.74992 10.5428L9.10344 12.068C9.19718 12.1704 9.24984 12.3092 9.24984 12.454C9.24984 12.5988 9.19718 12.7377 9.10344 12.8401Z" fill="white"/>
</svg>
