<svg width="10" height="11" viewBox="0 0 10 11" fill="none" xmlns="http://www.w3.org/2000/svg">
<path fill-rule="evenodd" clip-rule="evenodd" d="M1.66713 9.42857H6.1128C6.26019 9.42857 6.40153 9.48376 6.50575 9.58199C6.60997 9.68023 6.66851 9.81346 6.66851 9.95238C6.66851 10.0913 6.60997 10.2245 6.50575 10.3228C6.40153 10.421 6.26019 10.4762 6.1128 10.4762H1.66713C1.22498 10.4762 0.800938 10.3106 0.488291 10.0159C0.175643 9.72123 0 9.32153 0 8.90476V1.57143C0 1.15466 0.175643 0.754961 0.488291 0.460261C0.800938 0.165561 1.22498 0 1.66713 0H5.03473L5.19033 0.0523809H5.24034C5.29748 0.0775662 5.35 0.111161 5.39594 0.151905L8.7302 3.29476C8.8073 3.36842 8.85954 3.46196 8.88031 3.56357C8.90108 3.66519 8.88945 3.77032 8.8469 3.86571C8.80521 3.96137 8.73441 4.04326 8.64343 4.10105C8.55245 4.15884 8.44535 4.18996 8.33564 4.19048H6.1128C5.67065 4.19048 5.24661 4.02492 4.93397 3.73022C4.62132 3.43552 4.44568 3.03582 4.44568 2.61905V1.04762H1.66713C1.51975 1.04762 1.3784 1.10281 1.27418 1.20104C1.16997 1.29927 1.11142 1.43251 1.11142 1.57143V8.90476C1.11142 9.04368 1.16997 9.17692 1.27418 9.27515C1.3784 9.37339 1.51975 9.42857 1.66713 9.42857ZM6.99638 3.14286L5.55709 1.78619V2.61905C5.55709 2.75797 5.61564 2.8912 5.71986 2.98944C5.82407 3.08767 5.96542 3.14286 6.1128 3.14286H6.99638Z" fill="#292A32"/>
<path d="M4.15875 7.46984C4.10966 7.41892 4.07019 7.36046 4.04205 7.29698C3.98647 7.16945 3.98647 7.02641 4.04205 6.89888C4.06751 6.83412 4.10729 6.7752 4.15875 6.72603L5.82588 5.1546C5.87754 5.1055 5.939 5.06653 6.00672 5.03994C6.07444 5.01335 6.14707 4.99966 6.22043 4.99966C6.29379 4.99966 6.36643 5.01335 6.43414 5.03994C6.50186 5.06653 6.56332 5.1055 6.61498 5.1546C6.66707 5.20329 6.70841 5.26123 6.73663 5.32506C6.76484 5.38889 6.77936 5.45735 6.77936 5.5265C6.77936 5.59565 6.76484 5.66412 6.73663 5.72795C6.70841 5.79178 6.66707 5.84971 6.61498 5.89841L5.89256 6.57412H8.99898C9.14636 6.57412 9.28771 6.62931 9.39192 6.72754C9.49614 6.82578 9.55469 6.95901 9.55469 7.09793C9.55469 7.23685 9.49614 7.37009 9.39192 7.46832C9.28771 7.56655 9.14636 7.62174 8.99898 7.62174L5.89256 7.62174L6.61498 8.29745C6.71963 8.39609 6.77841 8.52987 6.77841 8.66936C6.77841 8.80885 6.71963 8.94263 6.61498 9.04126C6.51034 9.1399 6.36842 9.19531 6.22043 9.19531C6.07244 9.19531 5.93052 9.1399 5.82588 9.04126L4.15875 7.46984Z" fill="#292A32"/>
</svg>
