<svg width="20" height="21" viewBox="0 0 20 21" fill="none" xmlns="http://www.w3.org/2000/svg">
<path d="M10 20.5C8.63333 20.5 7.34167 20.2373 6.125 19.712C4.90833 19.1867 3.84567 18.47 2.937 17.562C2.029 16.654 1.31233 15.5917 0.787001 14.375C0.261668 13.1583 -0.000665399 11.8667 1.26743e-06 10.5C1.26743e-06 9.11667 0.262668 7.82067 0.788001 6.612C1.31333 5.40333 2.03 4.34533 2.938 3.438C3.846 2.52933 4.908 1.81267 6.124 1.288C7.34 0.763333 8.632 0.500667 10 0.5C11.3833 0.5 12.6793 0.762667 13.888 1.288C15.0967 1.81333 16.1547 2.53 17.062 3.438C17.9707 4.346 18.6873 5.40433 19.212 6.613C19.7367 7.82167 19.9993 9.11733 20 10.5C20 11.8667 19.7373 13.1583 19.212 14.375C18.6867 15.5917 17.97 16.6543 17.062 17.563C16.154 18.471 15.0957 19.1877 13.887 19.713C12.6783 20.2383 11.3827 20.5007 10 20.5ZM10 18.45C10.4333 17.85 10.8083 17.225 11.125 16.575C11.4417 15.925 11.7 15.2333 11.9 14.5H8.1C8.3 15.2333 8.55833 15.925 8.875 16.575C9.19167 17.225 9.56667 17.85 10 18.45ZM7.4 18.05C7.1 17.5 6.83734 16.929 6.612 16.337C6.38667 15.745 6.19934 15.1327 6.05 14.5H3.1C3.58333 15.3333 4.18767 16.0583 4.913 16.675C5.63833 17.2917 6.46733 17.75 7.4 18.05ZM12.6 18.05C13.5333 17.75 14.3627 17.2917 15.088 16.675C15.8133 16.0583 16.4173 15.3333 16.9 14.5H13.95C13.8 15.1333 13.6127 15.746 13.388 16.338C13.1633 16.93 12.9007 17.5007 12.6 18.05ZM2.25 12.5H5.65C5.6 12.1667 5.56234 11.8373 5.537 11.512C5.51167 11.1867 5.49933 10.8493 5.5 10.5C5.5 10.15 5.51267 9.81267 5.538 9.488C5.56333 9.16333 5.60067 8.834 5.65 8.5H2.25C2.16667 8.83333 2.104 9.16267 2.062 9.488C2.02 9.81333 1.99933 10.1507 2 10.5C2 10.85 2.021 11.1873 2.063 11.512C2.105 11.8367 2.16733 12.166 2.25 12.5ZM7.65 12.5H12.35C12.4 12.1667 12.4377 11.8373 12.463 11.512C12.4883 11.1867 12.5007 10.8493 12.5 10.5C12.5 10.15 12.4873 9.81267 12.462 9.488C12.4367 9.16333 12.3993 8.834 12.35 8.5H7.65C7.6 8.83333 7.56233 9.16267 7.537 9.488C7.51167 9.81333 7.49933 10.1507 7.5 10.5C7.5 10.85 7.51267 11.1873 7.538 11.512C7.56333 11.8367 7.60067 12.166 7.65 12.5ZM14.35 12.5H17.75C17.8333 12.1667 17.896 11.8373 17.938 11.512C17.98 11.1867 18.0007 10.8493 18 10.5C18 10.15 17.979 9.81267 17.937 9.488C17.895 9.16333 17.8327 8.834 17.75 8.5H14.35C14.4 8.83333 14.4377 9.16267 14.463 9.488C14.4883 9.81333 14.5007 10.1507 14.5 10.5C14.5 10.85 14.4873 11.1873 14.462 11.512C14.4367 11.8367 14.3993 12.166 14.35 12.5ZM13.95 6.5H16.9C16.4167 5.66667 15.8127 4.94167 15.088 4.325C14.3633 3.70833 13.534 3.25 12.6 2.95C12.9 3.5 13.1627 4.071 13.388 4.663C13.6133 5.255 13.8007 5.86733 13.95 6.5ZM8.1 6.5H11.9C11.7 5.76667 11.4417 5.075 11.125 4.425C10.8083 3.775 10.4333 3.15 10 2.55C9.56667 3.15 9.19167 3.775 8.875 4.425C8.55833 5.075 8.3 5.76667 8.1 6.5ZM3.1 6.5H6.05C6.2 5.86667 6.38767 5.254 6.613 4.662C6.83833 4.07 7.10067 3.49933 7.4 2.95C6.46667 3.25 5.63733 3.70833 4.912 4.325C4.18667 4.94167 3.58267 5.66667 3.1 6.5Z" fill="white"/>
</svg>
