<svg width="17" height="12" viewBox="0 0 17 12" fill="none" xmlns="http://www.w3.org/2000/svg">
<path d="M0.944445 2.55539C1.46605 2.55539 1.88889 2.13255 1.88889 1.61095C1.88889 1.08935 1.46605 0.666504 0.944445 0.666504C0.422842 0.666504 0 1.08935 0 1.61095C0 2.13255 0.422842 2.55539 0.944445 2.55539Z" fill="#0A4D68"/>
<path d="M0.944445 7.27756C1.46605 7.27756 1.88889 6.85472 1.88889 6.33312C1.88889 5.81151 1.46605 5.38867 0.944445 5.38867C0.422842 5.38867 0 5.81151 0 6.33312C0 6.85472 0.422842 7.27756 0.944445 7.27756Z" fill="#0A4D68"/>
<path d="M0.944445 11.9997C1.46605 11.9997 1.88889 11.5769 1.88889 11.0553C1.88889 10.5337 1.46605 10.1108 0.944445 10.1108C0.422842 10.1108 0 10.5337 0 11.0553C0 11.5769 0.422842 11.9997 0.944445 11.9997Z" fill="#0A4D68"/>
<path d="M16.1118 5.38867H4.66512C4.17482 5.38867 3.77734 5.78614 3.77734 6.27645V6.38978C3.77734 6.88009 4.17482 7.27756 4.66512 7.27756H16.1118C16.6021 7.27756 16.9996 6.88009 16.9996 6.38978V6.27645C16.9996 5.78614 16.6021 5.38867 16.1118 5.38867Z" fill="#0A4D68"/>
<path d="M16.1118 10.1108H4.66512C4.17482 10.1108 3.77734 10.5083 3.77734 10.9986V11.112C3.77734 11.6023 4.17482 11.9997 4.66512 11.9997H16.1118C16.6021 11.9997 16.9996 11.6023 16.9996 11.112V10.9986C16.9996 10.5083 16.6021 10.1108 16.1118 10.1108Z" fill="#0A4D68"/>
<path d="M16.1118 0.666504H4.66512C4.17482 0.666504 3.77734 1.06398 3.77734 1.55428V1.66762C3.77734 2.15792 4.17482 2.55539 4.66512 2.55539H16.1118C16.6021 2.55539 16.9996 2.15792 16.9996 1.66762V1.55428C16.9996 1.06398 16.6021 0.666504 16.1118 0.666504Z" fill="#0A4D68"/>
</svg>
