<svg width="16" height="17" viewBox="0 0 16 17" fill="none" xmlns="http://www.w3.org/2000/svg">
<path d="M11.899 2.30352L11.527 2.92352C11.4755 3.01192 11.4597 3.11671 11.4831 3.21634C11.5065 3.31597 11.5671 3.40285 11.6526 3.45912C12.7967 4.23952 13.6606 5.36592 14.1178 6.67316C14.5749 7.9804 14.6012 9.39972 14.1929 10.723C13.7845 12.0463 12.963 13.204 11.8486 14.0263C10.7343 14.8486 9.38588 15.2923 8.001 15.2923C6.61612 15.2923 5.26768 14.8486 4.15336 14.0263C3.03904 13.204 2.21748 12.0463 1.80912 10.723C1.40076 9.39972 1.42709 7.9804 1.88425 6.67316C2.34141 5.36592 3.20535 4.23952 4.3494 3.45912C4.4347 3.4028 4.4952 3.31596 4.51849 3.21643C4.54177 3.1169 4.52607 3.01223 4.4746 2.92392L4.1042 2.30552C4.07642 2.25876 4.03951 2.21807 3.99566 2.18589C3.95181 2.15371 3.90192 2.1307 3.84898 2.11823C3.79604 2.10576 3.74113 2.10409 3.68752 2.11331C3.63392 2.12254 3.58273 2.14247 3.537 2.17192C2.11419 3.12833 1.03625 4.51651 0.462056 6.13188C-0.112142 7.74724 -0.152228 9.50434 0.347707 11.1442C0.847641 12.7841 1.86115 14.22 3.23886 15.2403C4.61658 16.2606 6.28562 16.8113 8 16.8113C9.71438 16.8113 11.3834 16.2606 12.7611 15.2403C14.1389 14.22 15.1524 12.7841 15.6523 11.1442C16.1522 9.50434 16.1121 7.74724 15.5379 6.13188C14.9637 4.51651 13.8858 3.12833 12.463 2.17192C12.4177 2.14223 12.3669 2.12205 12.3135 2.11259C12.2602 2.10314 12.2055 2.1046 12.1528 2.11691C12.1001 2.12921 12.0504 2.1521 12.0068 2.18417C11.9631 2.21625 11.9265 2.25685 11.899 2.30352Z" fill="#00658D"/>
<path d="M8.39922 0H7.59922C7.3783 0 7.19922 0.179086 7.19922 0.4V7.6C7.19922 7.82091 7.3783 8 7.59922 8H8.39922C8.62013 8 8.79922 7.82091 8.79922 7.6V0.4C8.79922 0.179086 8.62013 0 8.39922 0Z" fill="#00658D"/>
</svg>
