<svg width="12" height="13" viewBox="0 0 12 13" fill="none" xmlns="http://www.w3.org/2000/svg">
<path d="M1.34898 1.34898H5.3959C5.76687 1.34898 6.07039 1.04546 6.07039 0.674488C6.07039 0.30352 5.76687 0 5.3959 0H1.34898C0.607039 0 0 0.607039 0 1.34898V10.7918C0 11.5337 0.607039 12.1408 1.34898 12.1408H5.3959C5.76687 12.1408 6.07039 11.8373 6.07039 11.4663C6.07039 11.0953 5.76687 10.7918 5.3959 10.7918H1.34898V1.34898Z" fill="#6E6E6E"/>
<path d="M11.9047 5.83336L10.0229 3.95154C9.97598 3.90335 9.91576 3.87025 9.84993 3.85648C9.7841 3.84271 9.71566 3.8489 9.65337 3.87425C9.59108 3.8996 9.53777 3.94297 9.50026 3.99879C9.46276 4.05461 9.44276 4.12036 9.44283 4.18761V5.39494H4.72142C4.35045 5.39494 4.04693 5.69846 4.04693 6.06943C4.04693 6.4404 4.35045 6.74392 4.72142 6.74392H9.44283V7.95125C9.44283 8.25477 9.80706 8.40316 10.0161 8.18732L11.898 6.3055C12.0329 6.17735 12.0329 5.96151 11.9047 5.83336Z" fill="#6E6E6E"/>
</svg>
