<svg width="16" height="16" viewBox="0 0 16 16" fill="none" xmlns="http://www.w3.org/2000/svg">
<path d="M15.2 0H3.2C2.3168 0 1.6 0.7168 1.6 1.6V4H0V5.6H1.6V7.2H0V8.8H1.6V10.4H0V12H1.6V14.4C1.6 15.2832 2.3168 16 3.2 16H15.2C15.6424 16 16 15.6424 16 15.2V0.8C16 0.3576 15.6424 0 15.2 0ZM8.8 2.3992C10.1184 2.3992 11.2 3.48 11.2 4.7992C11.2 6.1176 10.1184 7.2 8.8 7.2C7.4824 7.2 6.4 6.1176 6.4 4.7992C6.4 3.48 7.4824 2.3992 8.8 2.3992ZM13.6 12.8H4V12.2C4 10.4248 6.164 8.6 8.8 8.6C11.436 8.6 13.6 10.4248 13.6 12.2V12.8Z" fill="#868686"/>
</svg>
