<svg width="16" height="14" viewBox="0 0 16 14" fill="none" xmlns="http://www.w3.org/2000/svg">
<path d="M15.6969 4.71389C15.8187 4.61163 16 4.70729 16 4.86892V11.6146C16 12.4887 15.3281 13.1979 14.5 13.1979H1.5C0.671875 13.1979 0 12.4887 0 11.6146V4.87222C0 4.70729 0.178125 4.61493 0.303125 4.71719C1.00312 5.29115 1.93125 6.02014 5.11875 8.46441C5.77813 8.9724 6.89062 10.0411 8 10.0345C9.11563 10.0444 10.25 8.95261 10.8844 8.46441C14.0719 6.02014 14.9969 5.28785 15.6969 4.71389ZM8 8.9757C8.725 8.98889 9.76875 8.0125 10.2937 7.61007C14.4406 4.43351 14.7562 4.15642 15.7125 3.36476C15.8937 3.21632 16 2.98542 16 2.74132V2.11458C16 1.24045 15.3281 0.53125 14.5 0.53125H1.5C0.671875 0.53125 0 1.24045 0 2.11458V2.74132C0 2.98542 0.10625 3.21302 0.2875 3.36476C1.24375 4.15313 1.55938 4.43351 5.70625 7.61007C6.23125 8.0125 7.275 8.98889 8 8.9757Z" fill="#292A32"/>
</svg>
