<svg width="16" height="14" viewBox="0 0 16 14" fill="none" xmlns="http://www.w3.org/2000/svg">
<path d="M15.6969 4.63772C15.8187 4.53546 16 4.63112 16 4.79275V11.5384C16 12.4125 15.3281 13.1217 14.5 13.1217H1.5C0.671875 13.1217 0 12.4125 0 11.5384V4.79605C0 4.63112 0.178125 4.53876 0.303125 4.64102C1.00312 5.21497 1.93125 5.94397 5.11875 8.38824C5.77813 8.89622 6.89062 9.96497 8 9.95838C9.11563 9.96827 10.25 8.87643 10.8844 8.38824C14.0719 5.94397 14.9969 5.21168 15.6969 4.63772ZM8 8.89952C8.725 8.91272 9.76875 7.93633 10.2937 7.5339C14.4406 4.35734 14.7562 4.08025 15.7125 3.28858C15.8937 3.14015 16 2.90924 16 2.66515V2.03841C16 1.16428 15.3281 0.455078 14.5 0.455078H1.5C0.671875 0.455078 0 1.16428 0 2.03841V2.66515C0 2.90924 0.10625 3.13685 0.2875 3.28858C1.24375 4.07695 1.55938 4.35734 5.70625 7.5339C6.23125 7.93633 7.275 8.91272 8 8.89952Z" fill="#868686"/>
</svg>
