<svg width="4" height="15" viewBox="0 0 4 15" fill="none" xmlns="http://www.w3.org/2000/svg">
<path d="M0.000558781 1.64062C0.0005588 1.21875 0.184232 0.773437 0.482701 0.46875C0.781171 0.164062 1.19444 -8.83148e-08 1.6077 -7.02504e-08C2.02097 -5.2186e-08 2.43423 0.1875 2.75566 0.46875C3.05413 0.773437 3.21484 1.19531 3.21484 1.64062C3.21484 2.0625 3.03117 2.48437 2.75566 2.78906C2.45719 3.09375 2.04393 3.28125 1.6077 3.28125C1.19444 3.28125 0.78117 3.09375 0.482701 2.78906C0.184232 2.48437 0.000558763 2.0625 0.000558781 1.64062ZM0.482701 8.64844C0.78117 8.95312 1.19444 9.14062 1.6077 9.14062C2.02097 9.14062 2.43423 8.95312 2.75566 8.64844C3.05413 8.34375 3.21484 7.92188 3.21484 7.5C3.21484 7.07812 3.03117 6.63281 2.75566 6.32812C2.45719 6.02344 2.04393 5.85937 1.6077 5.85937C1.19444 5.85937 0.78117 6.04687 0.482701 6.32812C0.184232 6.63281 0.000558545 7.05469 0.000558525 7.5C0.000558507 7.92187 0.184232 8.34375 0.482701 8.64844ZM0.482701 14.5078C0.78117 14.8125 1.19444 15 1.6077 15C2.02097 15 2.43423 14.8125 2.75566 14.5078C3.05413 14.2031 3.21484 13.7812 3.21484 13.3594C3.21484 12.9375 3.03117 12.4922 2.75566 12.1875C2.45719 11.8828 2.04393 11.7187 1.6077 11.7187C1.19444 11.7187 0.78117 11.9062 0.482701 12.1875C0.184231 12.4922 0.000558289 12.9141 0.000558269 13.3594C0.000558251 13.7812 0.184231 14.2031 0.482701 14.5078Z" fill="#0A4D68"/>
</svg>
