<svg width="24" height="24" viewBox="0 0 24 24" fill="none" xmlns="http://www.w3.org/2000/svg">
<path d="M17.174 3.82173C16.072 2.71973 15.092 3.04473 15.092 3.04473L6.453 11.6767L5 15.9957L9.317 14.5417L17.951 5.90373C17.951 5.90373 18.275 4.92373 17.174 3.82173ZM9.605 13.6007L9.134 14.0707L7.661 14.5707C7.54687 14.2929 7.37744 14.0411 7.163 13.8307C6.95246 13.6165 6.70074 13.4471 6.423 13.3327L6.923 11.8597L7.394 11.3897C7.394 11.3897 8.17 11.3007 8.931 12.0627C9.693 12.8237 9.605 13.6007 9.605 13.6007ZM15 18.9957H2V5.99573H7L9 3.99573H2C0.9 3.99573 0 4.89573 0 5.99573V18.9957C0 20.0957 0.9 20.9957 2 20.9957H15C16.1 20.9957 17 20.0957 17 18.9957V11.9957L15 13.9957V18.9957Z" fill="white"/>
</svg>
