<svg width="24" height="24" viewBox="0 0 24 24" fill="none" xmlns="http://www.w3.org/2000/svg">
<path d="M19.5324 14.1968C20.0479 13.928 20.6381 13.7749 21.2666 13.7749H21.2687C21.3326 13.7749 21.3625 13.7005 21.3156 13.6591C20.662 13.0897 19.9154 12.6298 19.1063 12.2983C19.0978 12.2942 19.0892 12.2921 19.0807 12.288C20.4037 11.3552 21.2645 9.83929 21.2645 8.12895C21.2645 5.29562 18.9039 3 15.9915 3C13.0791 3 10.7207 5.29562 10.7207 8.12895C10.7207 9.83929 11.5814 11.3552 12.9066 12.288C12.898 12.2921 12.8895 12.2942 12.881 12.2983C11.9287 12.6892 11.0743 13.2496 10.3393 13.9652C9.60855 14.6733 9.02676 15.5127 8.62642 16.4366C8.23252 17.3413 8.01993 18.3107 8.00005 19.2927C7.99948 19.3148 8.00347 19.3367 8.01178 19.3573C8.02009 19.3778 8.03256 19.3966 8.04844 19.4124C8.06433 19.4282 8.08331 19.4407 8.10427 19.4493C8.12523 19.4579 8.14775 19.4623 8.17049 19.4623H9.44665C9.53826 19.4623 9.61496 19.3899 9.61709 19.301C9.6597 17.7044 10.318 16.2091 11.4834 15.0758C12.6871 13.9032 14.2892 13.2579 15.9936 13.2579C17.2016 13.2579 18.3606 13.5826 19.3598 14.1906C19.3855 14.2063 19.4149 14.2151 19.4452 14.2162C19.4755 14.2173 19.5056 14.2106 19.5324 14.1968ZM15.9936 11.6861C15.0179 11.6861 14.0996 11.3159 13.4072 10.6438C13.0666 10.3139 12.7965 9.92193 12.6126 9.49032C12.4286 9.0587 12.3345 8.59603 12.3356 8.12895C12.3356 7.17968 12.7169 6.28625 13.4072 5.61411C14.0975 4.94197 15.0157 4.57178 15.9936 4.57178C16.9715 4.57178 17.8876 4.94197 18.58 5.61411C18.9207 5.94396 19.1908 6.33598 19.3747 6.76759C19.5586 7.1992 19.6528 7.66187 19.6517 8.12895C19.6517 9.07822 19.2703 9.97165 18.58 10.6438C17.8876 11.3159 16.9694 11.6861 15.9936 11.6861ZM23.8296 16.6083H22.04V14.871C22.04 14.78 21.9633 14.7056 21.8695 14.7056H20.6764C20.5827 14.7056 20.506 14.78 20.506 14.871V16.6083H18.7164C18.6227 16.6083 18.546 16.6827 18.546 16.7737V17.9319C18.546 18.0229 18.6227 18.0973 18.7164 18.0973H20.506V19.8346C20.506 19.9255 20.5827 20 20.6764 20H21.8695C21.9633 20 22.04 19.9255 22.04 19.8346V18.0973H23.8296C23.9233 18.0973 24 18.0229 24 17.9319V16.7737C24 16.6827 23.9233 16.6083 23.8296 16.6083Z" fill="white"/>
</svg>
