<svg width="15" height="17" viewBox="0 0 15 17" fill="none" xmlns="http://www.w3.org/2000/svg">
<path d="M14.8295 7.28571H8.86364C8.32115 7.28571 7.80088 7.09381 7.41728 6.75223C7.03368 6.41065 6.81818 5.94736 6.81818 5.46429V0.151786C6.81818 0.11153 6.80022 0.0729224 6.76826 0.044457C6.73629 0.0159917 6.69293 0 6.64773 0H2.72727C2.00396 0 1.31026 0.255867 0.7988 0.711312C0.287337 1.16676 0 1.78447 0 2.42857V14.5714C0 15.2155 0.287337 15.8332 0.7988 16.2887C1.31026 16.7441 2.00396 17 2.72727 17H12.2727C12.996 17 13.6897 16.7441 14.2012 16.2887C14.7127 15.8332 15 15.2155 15 14.5714V7.4375C15 7.39724 14.982 7.35864 14.9501 7.33017C14.9181 7.30171 14.8748 7.28571 14.8295 7.28571Z" fill="#868686"/>
<path d="M14.4557 5.94191L8.32744 0.484838C8.31552 0.474289 8.30037 0.467112 8.28389 0.46421C8.2674 0.461307 8.25032 0.46281 8.23479 0.468528C8.21926 0.474246 8.20598 0.483924 8.19661 0.496346C8.18724 0.508768 8.1822 0.523379 8.18213 0.538343V5.46417C8.18213 5.62519 8.25396 5.77962 8.38183 5.89348C8.50969 6.00734 8.68312 6.07131 8.86395 6.07131H14.3956C14.4124 6.07125 14.4288 6.06676 14.4428 6.05842C14.4567 6.05008 14.4676 6.03825 14.474 6.02442C14.4804 6.01059 14.4821 5.99538 14.4789 5.9807C14.4756 5.96602 14.4676 5.95253 14.4557 5.94191Z" fill="#868686"/>
</svg>
