<svg width="14" height="16" viewBox="0 0 14 16" fill="none" xmlns="http://www.w3.org/2000/svg">
<path d="M8.583 0.0859375H2.25098C1.83114 0.0859375 1.42849 0.252718 1.13162 0.549589C0.834749 0.846461 0.667969 1.2491 0.667969 1.66894V14.333C0.667969 14.7528 0.834749 15.1555 1.13162 15.4524C1.42849 15.7492 1.83114 15.916 2.25098 15.916H11.749C12.1689 15.916 12.5715 15.7492 12.8684 15.4524C13.1652 15.1555 13.332 14.7528 13.332 14.333V4.83496L8.583 0.0859375ZM5.01965 11.3174C4.77508 11.5469 4.41415 11.6498 3.99387 11.6498C3.91237 11.6507 3.83092 11.6459 3.75008 11.6356V12.7642H3.04248V9.64888C3.36181 9.60124 3.68448 9.57954 4.00732 9.58398C4.44819 9.58398 4.76162 9.66788 4.97296 9.83647C5.174 9.99635 5.31014 10.2583 5.31014 10.567C5.30934 10.8773 5.20645 11.1393 5.01965 11.3174ZM8.03291 12.3899C7.70048 12.6661 7.1947 12.7975 6.57654 12.7975C6.20612 12.7975 5.94413 12.7737 5.76604 12.75V9.64967C6.08549 9.60305 6.40806 9.58108 6.73088 9.58398C7.33005 9.58398 7.71947 9.69162 8.02341 9.92116C8.35188 10.1649 8.55767 10.5536 8.55767 11.1116C8.55767 11.7155 8.33684 12.1326 8.03291 12.3899ZM10.9575 10.1934H9.74493V10.9145H10.8784V11.4955H9.74493V12.765H9.02783V9.60772H10.9575V10.1934ZM8.583 5.62646H7.7915V1.66894L11.749 5.62646H8.583Z" fill="#0071B1"/>
</svg>
