<svg width="16" height="16" viewBox="0 0 16 16" fill="none" xmlns="http://www.w3.org/2000/svg">
<path d="M11.2 15.456V15.9893H11.7333V15.456H11.2ZM0.533333 15.456H0V15.9893H0.533333V15.456ZM15.4667 15.4667V16H16V15.4667H15.4667ZM8.53333 3.7312C8.53319 4.08125 8.46411 4.42785 8.33002 4.7512C8.19593 5.07455 7.99947 5.36833 7.75184 5.61575C7.50422 5.86318 7.21029 6.05941 6.88683 6.19323C6.56337 6.32706 6.21672 6.39587 5.86667 6.39573V7.4624C7.92853 7.4624 9.6 5.792 9.6 3.7312H8.53333ZM5.86667 6.39573C5.51662 6.39587 5.16996 6.32706 4.84651 6.19323C4.52305 6.05941 4.22911 5.86318 3.98149 5.61575C3.73387 5.36833 3.5374 5.07455 3.40332 4.7512C3.26923 4.42785 3.20014 4.08125 3.2 3.7312H2.13333C2.13347 4.22133 2.23015 4.70663 2.41784 5.1594C2.60554 5.61216 2.88057 6.02353 3.22724 6.37C3.57392 6.71647 3.98544 6.99127 4.43831 7.17871C4.89118 7.36614 5.37654 7.46254 5.86667 7.4624V6.39573ZM3.2 3.7312C3.20014 3.38115 3.26923 3.03455 3.40332 2.7112C3.5374 2.38785 3.73387 2.09407 3.98149 1.84665C4.22911 1.59922 4.52305 1.40299 4.84651 1.26917C5.16996 1.13534 5.51662 1.06653 5.86667 1.06667V1.52482e-07C5.37654 -0.000139944 4.89118 0.0962593 4.43831 0.283694C3.98544 0.471128 3.57392 0.745927 3.22724 1.0924C2.88057 1.43888 2.60554 1.85024 2.41784 2.303C2.23015 2.75577 2.13347 3.24107 2.13333 3.7312H3.2ZM5.86667 1.06667C6.57354 1.06667 7.2515 1.34733 7.75153 1.84696C8.25157 2.3466 8.53277 3.02433 8.53333 3.7312H9.6C9.59986 3.24107 9.50318 2.75577 9.31549 2.303C9.1278 1.85024 8.85276 1.43888 8.50609 1.0924C8.15942 0.745927 7.7479 0.471128 7.29502 0.283694C6.84215 0.0962593 6.3568 -0.000139944 5.86667 1.52482e-07V1.06667ZM11.2 14.9227H0.533333V15.9893H11.2V14.9227ZM1.06667 15.456V13.328H0V15.456H1.06667ZM3.73333 10.6603H8V9.5936H3.73333V10.6603ZM10.6667 13.3269V15.456H11.7333V13.3269H10.6667ZM8 10.6603C8.70724 10.6603 9.38552 10.9412 9.88562 11.4413C10.3857 11.9414 10.6667 12.6197 10.6667 13.3269H11.7333C11.7333 12.3368 11.34 11.3872 10.6399 10.6871C9.93973 9.98693 8.99014 9.5936 8 9.5936V10.6603ZM1.06667 13.328C1.06667 12.6208 1.34762 11.9414 1.84772 11.4413C2.34781 10.9412 3.02609 10.6603 3.73333 10.6603V9.5936C2.74319 9.5936 1.7936 9.98693 1.09347 10.6871C0.393332 11.3872 0 12.3379 0 13.328H1.06667ZM14.9333 13.8667V15.4667H16V13.8667H14.9333ZM15.4667 14.9333H12.8V16H15.4667V14.9333ZM12.8 11.7333C13.3658 11.7333 13.9084 11.9581 14.3085 12.3582C14.7086 12.7583 14.9333 13.3009 14.9333 13.8667H16C16 13.018 15.6629 12.204 15.0627 11.6039C14.4626 11.0038 13.6487 10.6667 12.8 10.6667V11.7333ZM12.2667 8.53333C11.8423 8.53333 11.4354 8.36476 11.1353 8.0647C10.8352 7.76465 10.6667 7.35768 10.6667 6.93333H9.6C9.6 7.64058 9.88095 8.31886 10.381 8.81895C10.8811 9.31905 11.5594 9.6 12.2667 9.6V8.53333ZM13.8667 6.93333C13.8667 7.35768 13.6981 7.76465 13.398 8.0647C13.098 8.36476 12.691 8.53333 12.2667 8.53333V9.6C12.9739 9.6 13.6522 9.31905 14.1523 8.81895C14.6524 8.31886 14.9333 7.64058 14.9333 6.93333H13.8667ZM12.2667 5.33333C12.691 5.33333 13.098 5.5019 13.398 5.80196C13.6981 6.10202 13.8667 6.50899 13.8667 6.93333H14.9333C14.9333 6.22609 14.6524 5.54781 14.1523 5.04772C13.6522 4.54762 12.9739 4.26667 12.2667 4.26667V5.33333ZM12.2667 4.26667C11.5594 4.26667 10.8811 4.54762 10.381 5.04772C9.88095 5.54781 9.6 6.22609 9.6 6.93333H10.6667C10.6667 6.50899 10.8352 6.10202 11.1353 5.80196C11.4354 5.5019 11.8423 5.33333 12.2667 5.33333V4.26667Z" fill="#6E6E6E"/>
</svg>
