<svg width="16" height="19" viewBox="0 0 16 19" fill="none" xmlns="http://www.w3.org/2000/svg">
<path d="M4.66666 6.23899C4.66666 6.03216 4.7369 5.83379 4.86193 5.68754C4.98695 5.54128 5.15652 5.45912 5.33333 5.45912H10.6667C10.8435 5.45912 11.013 5.54128 11.1381 5.68754C11.2631 5.83379 11.3333 6.03216 11.3333 6.23899C11.3333 6.44583 11.2631 6.64419 11.1381 6.79045C11.013 6.9367 10.8435 7.01887 10.6667 7.01887H5.33333C5.15652 7.01887 4.98695 6.9367 4.86193 6.79045C4.7369 6.64419 4.66666 6.44583 4.66666 6.23899ZM5.33333 10.1384H10.6667C10.8435 10.1384 11.013 10.0562 11.1381 9.90994C11.2631 9.76369 11.3333 9.56532 11.3333 9.35849C11.3333 9.15165 11.2631 8.95329 11.1381 8.80703C11.013 8.66078 10.8435 8.57861 10.6667 8.57861H5.33333C5.15652 8.57861 4.98695 8.66078 4.86193 8.80703C4.7369 8.95329 4.66666 9.15165 4.66666 9.35849C4.66666 9.56532 4.7369 9.76369 4.86193 9.90994C4.98695 10.0562 5.15652 10.1384 5.33333 10.1384ZM8 11.6981H5.33333C5.15652 11.6981 4.98695 11.7803 4.86193 11.9265C4.7369 12.0728 4.66666 12.2711 4.66666 12.478C4.66666 12.6848 4.7369 12.8832 4.86193 13.0294C4.98695 13.1757 5.15652 13.2579 5.33333 13.2579H8C8.17681 13.2579 8.34638 13.1757 8.4714 13.0294C8.59643 12.8832 8.66666 12.6848 8.66666 12.478C8.66666 12.2711 8.59643 12.0728 8.4714 11.9265C8.34638 11.7803 8.17681 11.6981 8 11.6981ZM16 1.55975V12.1553C16.0006 12.3602 15.9663 12.5632 15.8992 12.7525C15.8321 12.9418 15.7335 13.1135 15.6092 13.2579L11.3333 18.2598C11.21 18.4052 11.0631 18.5206 10.9013 18.5991C10.7395 18.6775 10.566 18.7176 10.3908 18.717H1.33333C0.979711 18.717 0.640572 18.5526 0.390524 18.2601C0.140476 17.9676 0 17.5709 0 17.1572V1.55975C0 1.14608 0.140476 0.749349 0.390524 0.456839C0.640572 0.16433 0.979711 0 1.33333 0H14.6667C15.0203 0 15.3594 0.16433 15.6095 0.456839C15.8595 0.749349 16 1.14608 16 1.55975ZM1.33333 17.1572H10V12.478C10 12.2711 10.0702 12.0728 10.1953 11.9265C10.3203 11.7803 10.4899 11.6981 10.6667 11.6981H14.6667V1.55975H1.33333V17.1572ZM11.3333 13.2579V16.0557L13.7242 13.2579H11.3333Z" fill="#6E6E6E"/>
</svg>
