<svg width="12" height="10" viewBox="0 0 12 10" fill="none" xmlns="http://www.w3.org/2000/svg">
<path d="M10.8781 5C10.8781 7.65097 8.72909 9.8 6.07813 9.8C3.42716 9.8 1.27813 7.65097 1.27813 5C1.27813 2.34903 3.42716 0.2 6.07813 0.2C8.72909 0.2 10.8781 2.34903 10.8781 5Z" fill="white" stroke="#0071B1" stroke-width="0.4"/>
<path d="M5.17628 8L3.07812 5.62994L3.60267 5.03742L5.17628 6.81497L8.55359 3L9.07813 3.59252L5.17628 8Z" fill="#00658D"/>
<ellipse cx="5.59332" cy="5" rx="4.97222" ry="5" fill="#0071B1"/>
<path d="M4.69588 8L2.60938 5.62994L3.131 5.03742L4.69588 6.81497L8.05442 3L8.57604 3.59252L4.69588 8Z" fill="white"/>
</svg>
