<svg width="20" height="17" viewBox="0 0 20 17" fill="none" xmlns="http://www.w3.org/2000/svg">
<path d="M9.3 7.1854L1.24 2.04117V11.3777H8.68V12.6085H0V0.300781H18.6V6.07963C18.516 6.02194 18.4224 5.96104 18.3191 5.89694C18.2157 5.83283 18.1092 5.76873 17.9994 5.70463C17.8896 5.64053 17.7798 5.58283 17.67 5.53155C17.5602 5.48027 17.4569 5.4386 17.36 5.40655V2.04117L9.3 7.1854ZM15.8681 1.53155H2.73188L9.3 5.72386L15.8681 1.53155ZM19.84 11.3777C19.84 12.0572 19.7108 12.695 19.4525 13.2912C19.1942 13.8873 18.8422 14.4098 18.3966 14.8585C17.9509 15.3072 17.4246 15.6598 16.8175 15.9162C16.2104 16.1726 15.5646 16.3008 14.88 16.3008C14.1954 16.3008 13.5528 16.1726 12.9522 15.9162C12.3516 15.6598 11.8252 15.3104 11.3731 14.8681C10.921 14.4258 10.5658 13.9033 10.3075 13.3008C10.0492 12.6982 9.92 12.0572 9.92 11.3777C9.92 10.6982 10.0492 10.0604 10.3075 9.46424C10.5658 8.86809 10.9178 8.34565 11.3634 7.89694C11.8091 7.44822 12.3354 7.09565 12.9425 6.83924C13.5496 6.58283 14.1954 6.45463 14.88 6.45463C15.5646 6.45463 16.2072 6.58283 16.8078 6.83924C17.4084 7.09565 17.9348 7.44501 18.3869 7.88732C18.839 8.32963 19.1942 8.85206 19.4525 9.45463C19.7108 10.0572 19.84 10.6982 19.84 11.3777ZM14.88 15.07C15.3902 15.07 15.8714 14.9739 16.3234 14.7816C16.7755 14.5892 17.1695 14.3264 17.5053 13.9931C17.8411 13.6598 18.1092 13.2687 18.3094 12.82C18.5096 12.3713 18.6065 11.8905 18.6 11.3777C18.6 10.8713 18.5031 10.3937 18.3094 9.94501C18.1156 9.49629 17.8508 9.10527 17.515 8.77194C17.1792 8.4386 16.782 8.17258 16.3234 7.97386C15.8649 7.77514 15.3838 7.67899 14.88 7.6854C14.3633 7.6854 13.8822 7.78155 13.4366 7.97386C12.9909 8.16617 12.597 8.42899 12.2547 8.76232C11.9124 9.09565 11.6444 9.48988 11.4506 9.94501C11.2569 10.4001 11.16 10.8777 11.16 11.3777C11.16 11.8905 11.2569 12.3681 11.4506 12.8104C11.6444 13.2527 11.9092 13.6437 12.245 13.9835C12.5808 14.3232 12.9748 14.5892 13.4269 14.7816C13.879 14.9739 14.3633 15.07 14.88 15.07ZM14.88 8.91617V11.3777H16.74V12.6085H13.64V8.91617H14.88Z" fill="#6E6E6E"/>
</svg>
