<svg width="14" height="14" viewBox="0 0 14 14" fill="none" xmlns="http://www.w3.org/2000/svg">
<path d="M11.7216 13.6883L7.78516 9.77559L9.82057 7.75098L13.757 11.6666C14.0801 11.9879 14.0801 12.5168 13.757 12.8381L12.9023 13.6883C12.5764 14.0097 12.0418 14.0097 11.7216 13.6883Z" fill="#868686"/>
<path d="M8.94567 7.83863L7.87936 8.89928L6.66441 7.69076C5.0092 8.83388 2.7165 8.67464 1.2414 7.20736C-0.413801 5.56094 -0.413801 2.88515 1.2414 1.23588C2.8966 -0.413382 5.58667 -0.410539 7.24473 1.23588C8.71983 2.70316 8.87992 4.98369 7.73071 6.63012L8.94567 7.83863ZM6.40998 2.05483C5.20931 0.860533 3.26252 0.860533 2.06472 2.05483C0.86405 3.24912 0.86405 5.18559 2.06471 6.37704C3.26538 7.57133 5.21217 7.57133 6.40998 6.37704C7.61064 5.18559 7.61064 3.24912 6.40998 2.05483Z" fill="#868686"/>
</svg>
