<svg width="15" height="16" viewBox="0 0 15 16" fill="none" xmlns="http://www.w3.org/2000/svg">
<path d="M12.2452 14.8482L8.13281 10.7973L10.2592 8.70117L14.3716 12.7551C14.7091 13.0877 14.7091 13.6353 14.3716 13.968L13.4786 14.8482C13.1382 15.1809 12.5797 15.1809 12.2452 14.8482Z" fill="#0071B1"/>
<path d="M9.34549 8.79323L8.23153 9.89134L6.96227 8.64014C5.23309 9.82362 2.83792 9.65876 1.29689 8.13966C-0.432295 6.43508 -0.432295 3.66479 1.29689 1.95727C3.02607 0.249751 5.83636 0.252696 7.56852 1.95727C9.10956 3.47637 9.2768 5.83745 8.07623 7.54203L9.34549 8.79323ZM6.69647 2.80514C5.44214 1.56866 3.40834 1.56866 2.157 2.80514C0.902668 4.04162 0.902668 6.04648 2.157 7.28001C3.41132 8.51649 5.44513 8.51649 6.69647 7.28001C7.9508 6.04648 7.9508 4.04162 6.69647 2.80514Z" fill="#0071B1"/>
</svg>
