<svg width="16" height="14" viewBox="0 0 16 14" fill="none" xmlns="http://www.w3.org/2000/svg">
<path fill-rule="evenodd" clip-rule="evenodd" d="M1.59083 1.71196L2.37998 6.24955H7.24916C7.66337 6.24955 7.99916 6.58533 7.99916 6.99955C7.99916 7.41376 7.66337 7.74955 7.24916 7.74955H2.37998L1.59083 12.2871L13.9285 6.99955L1.59083 1.71196ZM0.987893 6.99955L0.0628203 1.68038C-0.0119643 1.25037 0.127178 0.810863 0.435807 0.502233C0.823591 0.114453 1.40841 0.0018234 1.91248 0.217853L15.3148 5.96171C15.7299 6.13964 15.9991 6.54786 15.9991 6.99955C15.9991 7.45123 15.7299 7.85946 15.3148 8.03739L1.91248 13.7812C1.40841 13.9973 0.823591 13.8846 0.435807 13.4969C0.127178 13.1882 -0.0119645 12.7487 0.0628203 12.3187L0.987893 6.99955Z" fill="white"/>
</svg>
