<svg width="18" height="18" viewBox="0 0 18 18" fill="none" xmlns="http://www.w3.org/2000/svg">
<path d="M9.24191 6.78076C8.7369 6.73088 8.22881 6.83832 7.78722 7.08836C7.34563 7.3384 6.99212 7.71883 6.77508 8.17754C6.55805 8.63626 6.48811 9.15085 6.57483 9.65085C6.66156 10.1509 6.90071 10.6118 7.25954 10.9707C7.61838 11.3295 8.07935 11.5686 8.57936 11.6554C9.07936 11.7421 9.59395 11.6722 10.0527 11.4551C10.5114 11.2381 10.8918 10.8846 11.1418 10.443C11.3919 10.0014 11.4993 9.49331 11.4494 8.9883C11.3926 8.42217 11.1417 7.89312 10.7394 7.49079C10.3371 7.08847 9.80803 6.83762 9.24191 6.78076ZM15.1684 9.23021C15.1669 9.49775 15.1472 9.76488 15.1096 10.0298L16.8483 11.3935C16.924 11.4563 16.975 11.5438 16.9923 11.6407C17.0095 11.7375 16.9919 11.8373 16.9425 11.9223L15.2976 14.7683C15.2477 14.8525 15.1696 14.9164 15.0772 14.9487C14.9847 14.981 14.8838 14.9796 14.7923 14.9448L13.0655 14.2495C12.9703 14.2116 12.8671 14.1979 12.7653 14.2096C12.6635 14.2214 12.5662 14.2582 12.4821 14.3168C12.2185 14.4983 11.9416 14.6595 11.6537 14.7991C11.5631 14.8431 11.4848 14.9087 11.4257 14.9901C11.3665 15.0715 11.3283 15.1663 11.3145 15.2659L11.0556 17.1077C11.0386 17.205 10.9884 17.2934 10.9135 17.3577C10.8385 17.422 10.7436 17.4583 10.6449 17.4604H7.35511C7.25802 17.4587 7.1644 17.424 7.08966 17.362C7.01493 17.3 6.96355 17.2144 6.94399 17.1193L6.68554 15.2802C6.67103 15.1794 6.63184 15.0837 6.57145 15.0018C6.51107 14.9198 6.43136 14.854 6.33941 14.8102C6.05182 14.6714 5.77583 14.5097 5.51408 14.3268C5.43028 14.2685 5.33329 14.2319 5.23184 14.2205C5.13039 14.209 5.02769 14.2229 4.93297 14.261L3.20655 14.956C3.11506 14.9908 3.01421 14.9922 2.92176 14.96C2.82932 14.9278 2.75121 14.864 2.7012 14.7798L1.05631 11.9339C1.00686 11.8488 0.989187 11.749 1.00644 11.6522C1.0237 11.5553 1.07476 11.4678 1.15054 11.4051L2.62005 10.2513C2.70056 10.1874 2.76383 10.1044 2.80413 10.0098C2.84443 9.91525 2.86047 9.81212 2.8508 9.70979C2.83696 9.54942 2.8285 9.38943 2.8285 9.22905C2.8285 9.06868 2.83658 8.911 2.8508 8.75409C2.85941 8.65237 2.84258 8.55012 2.80183 8.45653C2.76108 8.36294 2.69769 8.28096 2.61736 8.21797L1.14861 7.0642C1.07407 7.00116 1.02408 6.9139 1.00741 6.81771C0.990748 6.72151 1.00847 6.62252 1.05747 6.53808L2.70235 3.69212C2.75231 3.60789 2.83039 3.544 2.92284 3.51171C3.01529 3.47941 3.11617 3.48079 3.2077 3.5156L4.93451 4.21093C5.02973 4.24885 5.13288 4.26255 5.2347 4.2508C5.33652 4.23906 5.43384 4.20223 5.51793 4.14363C5.78147 3.96215 6.0584 3.80093 6.34634 3.66136C6.43686 3.61736 6.51516 3.55175 6.57432 3.47032C6.63347 3.3889 6.67167 3.29415 6.68554 3.19447L6.94437 1.35267C6.96137 1.2554 7.01162 1.16705 7.08654 1.10273C7.16146 1.0384 7.25639 1.00209 7.35511 1H10.6449C10.742 1.00168 10.8356 1.03638 10.9103 1.09839C10.9851 1.1604 11.0364 1.24601 11.056 1.34113L11.3145 3.18024C11.329 3.28102 11.3682 3.37666 11.4285 3.45865C11.4889 3.54064 11.5686 3.60644 11.6606 3.6502C11.9482 3.78902 12.2242 3.95068 12.4859 4.13363C12.5697 4.19194 12.6667 4.22848 12.7682 4.23996C12.8696 4.25144 12.9723 4.2375 13.067 4.1994L14.7935 3.50444C14.8849 3.4696 14.9858 3.46817 15.0782 3.50039C15.1707 3.53261 15.2488 3.59642 15.2988 3.68059L16.9437 6.52655C16.9931 6.61157 17.0108 6.71139 16.9936 6.80823C16.9763 6.90507 16.9252 6.99264 16.8495 7.05536L15.3799 8.20912C15.2991 8.27282 15.2354 8.35573 15.1948 8.45031C15.1542 8.54489 15.1378 8.64812 15.1473 8.75062C15.16 8.90984 15.1684 9.06983 15.1684 9.23021Z" stroke="#00658D" stroke-linecap="round" stroke-linejoin="round"/>
</svg>
