<svg width="14" height="15" viewBox="0 0 14 15" fill="none" xmlns="http://www.w3.org/2000/svg">
<path fill-rule="evenodd" clip-rule="evenodd" d="M6.99889 4.8125C6.31491 4.8125 5.65893 5.08421 5.17528 5.56786C4.69163 6.05151 4.41992 6.70748 4.41992 7.39147C4.41992 8.07545 4.69163 8.73143 5.17528 9.21508C5.65893 9.69873 6.31491 9.97044 6.99889 9.97044C7.68288 9.97044 8.33885 9.69873 8.8225 9.21508C9.30615 8.73143 9.57786 8.07545 9.57786 7.39147C9.57786 6.70748 9.30615 6.05151 8.8225 5.56786C8.33885 5.08421 7.68288 4.8125 6.99889 4.8125ZM5.45151 7.39147C5.45151 6.98108 5.61454 6.5875 5.90473 6.29731C6.19492 6.00712 6.5885 5.84409 6.99889 5.84409C7.40928 5.84409 7.80286 6.00712 8.09305 6.29731C8.38324 6.5875 8.54627 6.98108 8.54627 7.39147C8.54627 7.80186 8.38324 8.19544 8.09305 8.48563C7.80286 8.77582 7.40928 8.93885 6.99889 8.93885C6.5885 8.93885 6.19492 8.77582 5.90473 8.48563C5.61454 8.19544 5.45151 7.80186 5.45151 7.39147Z" fill="#6E6E6E"/>
<path fill-rule="evenodd" clip-rule="evenodd" d="M6.98281 0C6.67677 0 6.42162 -1.28099e-08 6.21255 0.0137545C5.99885 0.0226535 5.78809 0.0668041 5.58879 0.144422C5.35926 0.23939 5.15069 0.378643 4.97498 0.554229C4.79928 0.729814 4.65989 0.938293 4.56476 1.16776C4.46504 1.40846 4.43822 1.66292 4.42722 1.93938C4.42612 2.04049 4.39935 2.13967 4.34943 2.2276C4.29951 2.31553 4.22807 2.38935 4.14181 2.44211C4.05302 2.4906 3.95335 2.51572 3.85218 2.51512C3.75101 2.51452 3.65165 2.48821 3.56344 2.43867C3.31861 2.30938 3.08478 2.20553 2.8262 2.17115C2.57995 2.13876 2.32974 2.15519 2.08985 2.2195C1.84995 2.28381 1.62507 2.39474 1.42805 2.54596C1.26147 2.67998 1.1181 2.84054 1.00372 3.02118C0.886812 3.19586 0.758895 3.41662 0.60622 3.68139L0.589027 3.71165C0.435664 3.97643 0.308435 4.19719 0.21628 4.38562C0.119998 4.58231 0.0443485 4.77625 0.0168395 4.99082C-0.0487693 5.48804 0.0858042 5.99096 0.390962 6.38897C0.549826 6.59597 0.756832 6.74658 0.990658 6.89376C1.07783 6.9453 1.15046 7.01817 1.20172 7.10551C1.25297 7.19286 1.28116 7.2918 1.28363 7.39304C1.28116 7.49429 1.25297 7.59323 1.20172 7.68058C1.15046 7.76792 1.07783 7.84079 0.990658 7.89233C0.756832 8.03951 0.550514 8.19012 0.390962 8.39712C0.239743 8.59415 0.128811 8.81902 0.0645009 9.05892C0.000190801 9.29881 -0.0162382 9.54902 0.0161518 9.79527C0.0443485 10.0098 0.119311 10.2038 0.215592 10.4005C0.308435 10.5889 0.435664 10.8097 0.589027 11.0744L0.60622 11.1047C0.758895 11.3695 0.886812 11.5902 1.00372 11.7649C1.12545 11.9458 1.25612 12.1088 1.42805 12.2394C1.62502 12.3908 1.84988 12.5018 2.08977 12.5663C2.32967 12.6307 2.57991 12.6472 2.8262 12.6149C3.08478 12.5806 3.31861 12.4774 3.56344 12.3474C3.65155 12.2979 3.75079 12.2717 3.85184 12.2711C3.95289 12.2705 4.05243 12.2956 4.14113 12.344C4.22786 12.3963 4.29975 12.47 4.34995 12.558C4.40015 12.646 4.42699 12.7454 4.42791 12.8467C4.43822 13.1232 4.46505 13.3776 4.56545 13.6183C4.66042 13.8479 4.79967 14.0564 4.97526 14.2321C5.15085 14.4078 5.35932 14.5472 5.58879 14.6424C5.78823 14.7249 5.99455 14.7572 6.21255 14.7716C6.42162 14.7861 6.67677 14.7861 6.98281 14.7861H7.01719C7.32323 14.7861 7.57838 14.7861 7.78745 14.7723C8.00614 14.7572 8.21177 14.7249 8.41121 14.6417C8.64074 14.5467 8.84931 14.4074 9.02502 14.2319C9.20072 14.0563 9.34011 13.8478 9.43524 13.6183C9.53496 13.3776 9.56178 13.1232 9.57278 12.8467C9.57376 12.7455 9.60048 12.6462 9.6504 12.5581C9.70033 12.47 9.77183 12.3961 9.85819 12.3433C9.94704 12.2949 10.0467 12.2699 10.1479 12.2706C10.2491 12.2713 10.3484 12.2978 10.4366 12.3474C10.6814 12.4767 10.9152 12.5806 11.1738 12.6143C11.671 12.6799 12.1739 12.5453 12.5719 12.2401C12.7439 12.1081 12.8745 11.9458 12.9963 11.7649C13.1132 11.5902 13.2411 11.3695 13.3938 11.1047L13.411 11.0744C13.5643 10.8097 13.6916 10.5889 13.7837 10.4005C13.88 10.2038 13.9557 10.0092 13.9832 9.79527C14.0488 9.29805 13.9142 8.79513 13.609 8.39712C13.4502 8.19012 13.2432 8.03951 13.0093 7.89233C12.9222 7.84079 12.8495 7.76792 12.7983 7.68058C12.747 7.59323 12.7188 7.49429 12.7164 7.39304C12.7164 7.20186 12.8209 7.01204 13.0093 6.89376C13.2432 6.74658 13.4495 6.59597 13.609 6.38897C13.7603 6.19194 13.8712 5.96707 13.9355 5.72717C13.9998 5.48728 14.0162 5.23706 13.9838 4.99082C13.9511 4.77949 13.8837 4.57501 13.7844 4.38562C13.667 4.15712 13.5425 3.93236 13.411 3.71165L13.3938 3.68139C13.2682 3.45725 13.1356 3.23708 12.9963 3.02118C12.8819 2.84073 12.7385 2.6804 12.5719 2.54665C12.375 2.39531 12.1501 2.28425 11.9102 2.21982C11.6703 2.15539 11.4201 2.13885 11.1738 2.17115C10.9152 2.20553 10.6814 2.30869 10.4366 2.43867C10.3484 2.48809 10.2492 2.51433 10.1482 2.51493C10.0471 2.51553 9.94759 2.49048 9.85887 2.44211C9.77236 2.38951 9.70065 2.31577 9.65048 2.22783C9.60031 2.13988 9.57334 2.04062 9.57209 1.93938C9.56178 1.66292 9.53495 1.40846 9.43455 1.16776C9.33958 0.938229 9.20033 0.729657 9.02474 0.553953C8.84915 0.37825 8.64068 0.238856 8.41121 0.143735C8.21177 0.0612075 8.00545 0.0288845 7.78745 0.0144422C7.57838 1.92148e-08 7.32323 0 7.01719 0H6.98281ZM5.98354 1.09692C6.0365 1.07491 6.11696 1.05497 6.2827 1.04328C6.45257 1.03159 6.67264 1.03159 7 1.03159C7.32736 1.03159 7.54743 1.03159 7.7173 1.04328C7.88304 1.05497 7.9635 1.07491 8.01646 1.09692C8.22759 1.18426 8.39471 1.35138 8.48205 1.56251C8.50956 1.62853 8.53225 1.73238 8.54119 1.9779C8.56182 2.52258 8.8431 3.04731 9.34239 3.33547C9.84168 3.62431 10.4366 3.60505 10.9187 3.3506C11.136 3.23575 11.2371 3.20342 11.3086 3.19448C11.5346 3.16462 11.7631 3.22573 11.9441 3.36435C11.9894 3.39943 12.0472 3.45926 12.1401 3.5968C12.2357 3.73847 12.3457 3.92897 12.5094 4.21232C12.673 4.49566 12.7824 4.68685 12.8574 4.83952C12.9309 4.98876 12.9536 5.06853 12.9605 5.12562C12.9904 5.35158 12.9293 5.58015 12.7906 5.76107C12.7466 5.81815 12.6682 5.88968 12.4605 6.02035C11.9984 6.31056 11.6848 6.81673 11.6848 7.39304C11.6848 7.96936 11.9984 8.47552 12.4605 8.76574C12.6682 8.89641 12.7466 8.96793 12.7906 9.02502C12.9296 9.20589 12.9901 9.43421 12.9605 9.66047C12.9536 9.71756 12.9303 9.79802 12.8574 9.94657C12.7824 10.0999 12.673 10.2904 12.5094 10.5738C12.3457 10.8571 12.235 11.0476 12.1401 11.1893C12.0472 11.3268 11.9894 11.3867 11.9441 11.4217C11.7631 11.5604 11.5346 11.6215 11.3086 11.5916C11.2371 11.5827 11.1367 11.5503 10.9187 11.4355C10.4373 11.181 9.84168 11.1618 9.34239 11.4499C8.8431 11.7388 8.56182 12.2635 8.54119 12.8082C8.53225 13.0537 8.50956 13.1576 8.48205 13.2236C8.43884 13.328 8.37549 13.4228 8.2956 13.5027C8.21571 13.5826 8.12085 13.646 8.01646 13.6892C7.9635 13.7112 7.88304 13.7311 7.7173 13.7428C7.54743 13.7545 7.32736 13.7545 7 13.7545C6.67264 13.7545 6.45257 13.7545 6.2827 13.7428C6.11696 13.7311 6.0365 13.7112 5.98354 13.6892C5.87915 13.646 5.78429 13.5826 5.7044 13.5027C5.62451 13.4228 5.56116 13.328 5.51795 13.2236C5.49044 13.1576 5.46775 13.0537 5.45881 12.8082C5.43818 12.2635 5.1569 11.7388 4.65761 11.4506C4.15832 11.1618 3.56344 11.181 3.08134 11.4355C2.86402 11.5503 2.76293 11.5827 2.6914 11.5916C2.46544 11.6215 2.23687 11.5604 2.05594 11.4217C2.01055 11.3867 1.95279 11.3268 1.85994 11.1893C1.73059 10.9879 1.60743 10.7827 1.49063 10.5738C1.32696 10.2904 1.21761 10.0992 1.14265 9.94657C1.06906 9.79733 1.04636 9.71756 1.03949 9.66047C1.00963 9.43451 1.07073 9.20594 1.20935 9.02502C1.25337 8.96793 1.33177 8.89641 1.53946 8.76574C2.00161 8.47552 2.31522 7.96936 2.31522 7.39304C2.31522 6.81673 2.00161 6.31056 1.53946 6.02035C1.33177 5.88968 1.25337 5.81815 1.20935 5.76107C1.07073 5.58015 1.00963 5.35158 1.03949 5.12562C1.04636 5.06853 1.06975 4.98807 1.14265 4.83952C1.21761 4.68616 1.32696 4.49566 1.49063 4.21232C1.65431 3.92897 1.76504 3.73847 1.85994 3.5968C1.95279 3.45926 2.01055 3.39943 2.05594 3.36435C2.23687 3.22573 2.46544 3.16462 2.6914 3.19448C2.76293 3.20342 2.86333 3.23575 3.08134 3.3506C3.56275 3.60505 4.15832 3.62431 4.65761 3.33547C5.1569 3.04731 5.43818 2.52258 5.45881 1.9779C5.46775 1.73238 5.49044 1.62853 5.51795 1.56251C5.60529 1.35138 5.77241 1.18426 5.98354 1.09692Z" fill="#6E6E6E"/>
</svg>
