<svg width="16" height="15" viewBox="0 0 16 15" fill="none" xmlns="http://www.w3.org/2000/svg">
<path d="M12.9023 0.00651042C13.3229 0.00651042 13.7188 0.0846354 14.0911 0.234375C14.457 0.384115 14.7943 0.611979 15.0938 0.91276C15.3945 1.21354 15.6224 1.54948 15.7721 1.91536C15.9219 2.28125 16 2.67839 16 3.10417V7.77474C16 8.20052 15.9219 8.59766 15.7721 8.96354C15.6224 9.32943 15.3945 9.66537 15.0938 9.96615C14.793 10.2669 14.457 10.4883 14.0911 10.6445C13.7253 10.7943 13.3294 10.8724 12.9023 10.8724H9.92969C9.66016 11.2148 9.36589 11.5391 9.05339 11.8333C8.68099 12.181 8.28516 12.4935 7.85807 12.7695C7.43229 13.0521 6.97526 13.2982 6.48958 13.5078C6.00912 13.7174 5.49349 13.8919 4.95313 14.0365C4.79688 14.0781 4.62891 14.0299 4.51432 13.9049C4.35286 13.7253 4.36979 13.4492 4.55078 13.2865C4.80339 13.0638 5.01953 12.8359 5.19271 12.6081C5.36068 12.3854 5.4987 12.1576 5.60156 11.9232V11.9167C5.71615 11.6641 5.81771 11.4063 5.90755 11.1484C5.9375 11.0586 5.96745 10.9622 5.9974 10.8659H3.09766C2.67708 10.8659 2.28125 10.7878 1.90885 10.638C1.54297 10.4883 1.20703 10.2604 0.90625 9.95964C0.605469 9.66016 0.377604 9.32292 0.227865 8.95703C0.078125 8.58464 0 8.1888 0 7.76823V3.09766C0 2.67708 0.078125 2.28125 0.227865 1.90885C0.377604 1.54297 0.605469 1.20703 0.90625 0.90625C1.20703 0.605469 1.54297 0.377604 1.90885 0.227865C2.27604 0.078125 2.67188 0 3.09766 0C6.36589 0 9.63151 0.00651042 12.9023 0.00651042ZM2.16667 6.16146L3.21094 6.08594C3.23307 6.27995 3.27995 6.42969 3.34896 6.52995C3.46224 6.69531 3.6237 6.77865 3.83464 6.77865C3.99089 6.77865 4.11198 6.73568 4.19661 6.65104C4.28125 6.56641 4.32422 6.46745 4.32422 6.35677C4.32422 6.2513 4.28385 6.15495 4.20443 6.07162C4.1237 5.98698 3.9362 5.90885 3.64193 5.83333C3.15885 5.70964 2.81641 5.54297 2.61068 5.33594C2.40365 5.12891 2.29948 4.86719 2.29948 4.54557C2.29948 4.33594 2.35286 4.13672 2.45833 3.95052C2.5651 3.76302 2.72396 3.61589 2.9362 3.50911C3.14844 3.40234 3.44141 3.34896 3.8125 3.34896C4.26823 3.34896 4.61458 3.44661 4.85287 3.64193C5.09115 3.83724 5.23307 4.14714 5.27865 4.57162L4.24349 4.64193C4.21615 4.45573 4.15755 4.32031 4.07031 4.23698C3.98177 4.15234 3.85938 4.10938 3.70443 4.10938C3.57682 4.10938 3.47917 4.14062 3.41536 4.20312C3.35026 4.26562 3.31771 4.34115 3.31771 4.43099C3.31771 4.49609 3.34505 4.55339 3.39714 4.60677C3.44792 4.66016 3.57031 4.70964 3.76432 4.75781C4.24609 4.8763 4.58984 4.9987 4.79688 5.11979C5.00521 5.24219 5.15625 5.39323 5.2513 5.57422C5.34505 5.75391 5.39323 5.95703 5.39323 6.18099C5.39323 6.44271 5.33073 6.6862 5.20443 6.90755C5.07813 7.12891 4.90104 7.29818 4.67448 7.41276C4.44792 7.52734 4.16276 7.58464 3.81771 7.58464C3.21224 7.58464 2.79297 7.45052 2.5599 7.18229C2.32943 6.91537 2.19792 6.57422 2.16667 6.16146ZM6.04427 3.41927H7.49609L8.04948 5.91276L8.60417 3.41927H10.0495V7.51693H9.14844V4.39323L8.45312 7.51693H7.63672L6.94401 4.39323V7.51693H6.04297V3.41927H6.04427ZM10.6029 6.16146L11.6484 6.08594C11.6706 6.27995 11.7174 6.42969 11.7865 6.52995C11.8997 6.69531 12.0625 6.77865 12.2721 6.77865C12.4284 6.77865 12.5495 6.73568 12.6341 6.65104C12.7188 6.56641 12.7617 6.46745 12.7617 6.35677C12.7617 6.2513 12.7214 6.15495 12.6419 6.07162C12.5612 5.98828 12.3737 5.90885 12.0794 5.83333C11.5964 5.70964 11.2539 5.54297 11.0482 5.33594C10.8424 5.12891 10.737 4.86719 10.737 4.54557C10.737 4.33594 10.7904 4.13672 10.8958 3.95052C11.0013 3.76302 11.1615 3.61589 11.3737 3.50911C11.5872 3.40234 11.8789 3.34896 12.25 3.34896C12.7057 3.34896 13.0521 3.44661 13.2904 3.64193C13.5286 3.83724 13.6706 4.14714 13.7161 4.57162L12.681 4.64193C12.6536 4.45573 12.5951 4.32031 12.5078 4.23698C12.4193 4.15234 12.2969 4.10938 12.1419 4.10938C12.0143 4.10938 11.9167 4.14062 11.8529 4.20312C11.7878 4.26562 11.7552 4.34115 11.7552 4.43099C11.7552 4.49609 11.7826 4.55339 11.8346 4.60677C11.8854 4.66016 12.0078 4.70964 12.2018 4.75781C12.6823 4.8763 13.0273 4.9987 13.2344 5.11979C13.4427 5.24219 13.5938 5.39323 13.6888 5.57422C13.7826 5.75391 13.8307 5.95703 13.8307 6.18099C13.8307 6.44271 13.7682 6.6862 13.6419 6.90755C13.5156 7.12891 13.3385 7.29818 13.112 7.41276C12.8854 7.52734 12.6003 7.58464 12.2552 7.58464C11.6497 7.58464 11.2305 7.45052 10.9974 7.18229C10.7656 6.91537 10.6341 6.57422 10.6029 6.16146ZM3.10417 0.882813C2.79167 0.882813 2.50391 0.9375 2.24609 1.04557C1.98828 1.15365 1.7474 1.3151 1.53125 1.53125C1.3151 1.7474 1.15365 1.98698 1.04557 2.24609C0.9375 2.50391 0.884115 2.79297 0.884115 3.10417V7.77474C0.884115 8.08724 0.938802 8.375 1.04557 8.63281C1.15365 8.89063 1.31641 9.13151 1.53125 9.34766C1.75391 9.5638 1.99349 9.73177 2.2513 9.83333C2.50911 9.94141 2.79167 9.99609 3.10417 9.99609H6.58073C6.82162 9.99609 7.01953 10.194 7.01953 10.4349C7.01953 10.4896 7.00781 10.5365 6.99609 10.5846C6.91797 10.8724 6.83464 11.1615 6.73828 11.4375C6.63672 11.7318 6.52865 12.0078 6.40755 12.2786C6.34766 12.4167 6.27604 12.5495 6.19792 12.6875C6.61849 12.5013 7.01432 12.2852 7.38021 12.0456C7.76432 11.793 8.125 11.5117 8.45443 11.2044C8.79037 10.8919 9.09115 10.5495 9.36719 10.1836C9.45182 10.069 9.58333 10.0091 9.71484 10.0091H12.9023C13.2148 10.0091 13.4961 9.95443 13.7552 9.84636C14.013 9.73828 14.2539 9.57682 14.4753 9.35938C14.6914 9.14323 14.8529 8.90365 14.9609 8.64453C15.069 8.38672 15.1237 8.09896 15.1237 7.78646V3.11589C15.1237 2.80339 15.069 2.51563 14.9609 2.25781C14.8529 2 14.6914 1.75911 14.4753 1.54297C14.2591 1.32682 14.0182 1.16406 13.7604 1.05729C13.5026 0.949219 13.2135 0.895833 12.9023 0.895833C9.79427 0.894531 6.22266 0.882813 3.10417 0.882813Z" fill="#292A32"/>
</svg>
