<svg width="11" height="10" viewBox="0 0 11 10" fill="none" xmlns="http://www.w3.org/2000/svg">
<path d="M5.51849 6.40485L3.17634 9.18553V0.507953C3.17634 0.450217 3.15303 0.394846 3.11153 0.35402C3.07003 0.313194 3.01374 0.290259 2.95505 0.290259C2.89636 0.290259 2.84007 0.313194 2.79857 0.35402C2.75707 0.394846 2.73376 0.450217 2.73376 0.507953V9.17334L0.391607 6.40456C0.373028 6.38257 0.350227 6.36439 0.324506 6.35107C0.298786 6.33774 0.270649 6.32953 0.241702 6.3269C0.212756 6.32427 0.183567 6.32728 0.155801 6.33575C0.128036 6.34422 0.102238 6.35799 0.0798812 6.37626C0.0575241 6.39454 0.0390453 6.41697 0.0254999 6.44227C0.0119546 6.46757 0.00360801 6.49525 0.000936663 6.52373C-0.00173468 6.55221 0.00132155 6.58092 0.00993088 6.60823C0.0185402 6.63555 0.032534 6.66093 0.0511133 6.68292L2.7907 9.92134C2.81147 9.94595 2.83748 9.96575 2.86691 9.97935C2.89633 9.99294 2.92844 10 2.96095 10H2.96125C3.02704 10 3.0893 9.97097 3.13149 9.92134L5.85958 6.68292C5.89706 6.63843 5.91504 6.5811 5.90956 6.52357C5.90409 6.46603 5.8756 6.41299 5.83037 6.37612C5.78514 6.33924 5.72687 6.32155 5.66838 6.32694C5.60989 6.33233 5.55598 6.36036 5.51849 6.40485ZM10.949 3.31708L8.20969 0.0786602C8.18894 0.0541202 8.16296 0.0343581 8.1336 0.0207671C8.10423 0.00717613 8.0722 8.71713e-05 8.03974 0C7.97395 0 7.9111 0.0290259 7.8695 0.0786602L5.14112 3.31708C5.10419 3.36159 5.08665 3.41866 5.09232 3.47584C5.09799 3.53303 5.12641 3.58569 5.17138 3.62234C5.21635 3.659 5.27423 3.67668 5.3324 3.67153C5.39057 3.66638 5.44431 3.63882 5.48191 3.59486L7.82406 0.814466V9.49205C7.82406 9.54978 7.84737 9.60515 7.88887 9.64598C7.93037 9.6868 7.98666 9.70974 8.04535 9.70974C8.10404 9.70974 8.16033 9.6868 8.20183 9.64598C8.24333 9.60515 8.26664 9.54978 8.26664 9.49205V0.826367L10.6088 3.59515C10.6272 3.61726 10.65 3.63555 10.6756 3.64897C10.7013 3.66238 10.7294 3.67065 10.7584 3.6733C10.7873 3.67594 10.8165 3.67291 10.8443 3.66438C10.8721 3.65585 10.8978 3.64198 10.9201 3.62359C10.9652 3.58671 10.9936 3.53371 10.9991 3.47623C11.0045 3.41875 10.9865 3.3615 10.949 3.31708Z" fill="#292A32"/>
</svg>
