<svg width="32" height="32" viewBox="0 0 32 32" fill="none" xmlns="http://www.w3.org/2000/svg">
<circle cx="16" cy="16" r="16" fill="#35D39D"/>
<path d="M13.5726 23C13.3944 23.0002 13.2179 22.9646 13.0532 22.8953C12.8886 22.826 12.7391 22.7244 12.6132 22.5962L7.4029 17.3044C7.27573 17.1767 7.17467 17.0247 7.10552 16.8572C7.03638 16.6897 7.00052 16.51 7.00001 16.3284C6.99949 16.1468 7.03433 15.9668 7.10253 15.7989C7.17072 15.631 7.27092 15.4785 7.39736 15.3501C7.52381 15.2216 7.674 15.1199 7.83931 15.0506C8.00462 14.9813 8.18178 14.9459 8.3606 14.9464C8.53942 14.9469 8.71638 14.9834 8.8813 15.0536C9.04622 15.1238 9.19585 15.2264 9.32157 15.3556L13.5726 19.673L23.6859 9.40156C23.9405 9.14403 24.2853 8.99961 24.6447 9C25.004 9.00039 25.3486 9.14556 25.6026 9.40364C25.8567 9.66173 25.9996 10.0117 26 10.3766C26.0004 10.7416 25.8581 11.0918 25.6045 11.3504L14.5319 22.5963C14.4061 22.7245 14.2565 22.8261 14.0919 22.8954C13.9273 22.9647 13.7508 23.0002 13.5726 23Z" fill="white"/>
</svg>
