<svg width="16" height="18" viewBox="0 0 16 18" fill="none" xmlns="http://www.w3.org/2000/svg">
<path d="M14.9875 6.43861H14.5536V4.35283C14.5536 4.33983 14.5516 4.32674 14.5499 4.31357C14.5492 4.23074 14.5227 4.14942 14.4658 4.08498L10.9825 0.120713C10.9814 0.119696 10.9804 0.119334 10.9797 0.118251C10.9589 0.0951393 10.9347 0.0759013 10.9091 0.0592897C10.9015 0.054234 10.8939 0.049999 10.8859 0.045567C10.8638 0.0335515 10.8402 0.0235386 10.816 0.0162833C10.8094 0.0144777 10.8035 0.0118842 10.797 0.0101114C10.7707 0.00387386 10.7434 0 10.7157 0H2.15487C1.76397 0 1.44639 0.31677 1.44639 0.705895V6.43841H1.01255C0.45344 6.43841 0 6.88991 0 7.44726V12.6938C0 13.2506 0.45344 13.7026 1.01255 13.7026H1.44639V17.2941C1.44639 17.6833 1.76397 18 2.15487 18H13.8451C14.2357 18 14.5536 17.6833 14.5536 17.2941V13.7027H14.9874C15.5465 13.7027 16 13.2508 16 12.6938V7.44745C16 6.88995 15.5465 6.43861 14.9875 6.43861ZM2.15487 0.705895H10.3615V4.31731C10.3615 4.51242 10.5202 4.67026 10.7157 4.67026H13.8452V6.43858H2.15487V0.705895ZM5.64956 7.38797H7.02297L7.48636 8.34986C7.64307 8.67015 7.76104 8.92838 7.88662 9.22562H7.90243C8.02758 8.88938 8.12979 8.65465 8.26325 8.34986L8.71095 7.38797H10.0767L8.58534 9.96057L10.1551 12.6586H8.77353L8.29491 11.7046C8.09866 11.337 7.97295 11.0635 7.82374 10.7583H7.80799C7.69813 11.0635 7.56478 11.337 7.40003 11.7046L6.96059 12.6586H5.5946L7.12535 9.99212L5.64956 7.38797ZM1.14403 8.38893V7.388H5.2096V8.38893H3.76542V12.6583H2.56488V8.38893H1.14403ZM13.8452 17.1028H2.15487V13.7027H13.8451V17.1028H13.8452ZM14.5118 8.38893H13.0675V12.6583H11.8667V8.38893H10.4459V7.388H14.5118V8.38893H14.5118Z" fill="#0071B1"/>
</svg>
