<svg width="25" height="24" viewBox="0 0 25 24" fill="none" xmlns="http://www.w3.org/2000/svg">
<circle cx="12.5" cy="12.3359" r="10.9141" fill="white" stroke="#0071B1" stroke-width="1.5"/>
<path d="M13.3379 9.73242V17.1289H12.0664V9.73242H13.3379ZM11.9707 7.77051C11.9707 7.56543 12.0322 7.39225 12.1553 7.25098C12.2829 7.1097 12.4697 7.03906 12.7158 7.03906C12.9574 7.03906 13.1419 7.1097 13.2695 7.25098C13.4017 7.39225 13.4678 7.56543 13.4678 7.77051C13.4678 7.96647 13.4017 8.13509 13.2695 8.27637C13.1419 8.41309 12.9574 8.48145 12.7158 8.48145C12.4697 8.48145 12.2829 8.41309 12.1553 8.27637C12.0322 8.13509 11.9707 7.96647 11.9707 7.77051Z" fill="#0071B1"/>
</svg>
