<svg width="18" height="16" viewBox="0 0 18 16" fill="none" xmlns="http://www.w3.org/2000/svg">
<path fill-rule="evenodd" clip-rule="evenodd" d="M2.6 1H15.4C16.28 1 17 1.64782 17 2.4396V11.0772C17 11.869 16.28 12.5168 15.4 12.5168H2.6C1.72 12.5168 1 11.869 1 11.0772V2.4396C1 1.64782 1.72 1 2.6 1Z" stroke="#6E6E6E" stroke-width="1.6" stroke-linecap="round" stroke-linejoin="round"/>
<path d="M17 2.43945L9 7.47807L1 2.43945" stroke="#6E6E6E" stroke-width="1.6" stroke-linecap="round" stroke-linejoin="round"/>
<circle cx="13" cy="12" r="4" fill="white"/>
<circle cx="13" cy="12" r="3.6" stroke="#6E6E6E" stroke-width="0.8"/>
<path d="M11.5964 10.0982L13 11.5017L14.3963 10.1054C14.4272 10.0726 14.4643 10.0464 14.5056 10.0282C14.5468 10.0101 14.5913 10.0005 14.6363 10C14.7328 10 14.8252 10.0383 14.8934 10.1065C14.9616 10.1747 14.9999 10.2672 14.9999 10.3636C15.0008 10.4082 14.9925 10.4525 14.9756 10.4937C14.9588 10.535 14.9336 10.5724 14.9018 10.6036L13.4873 11.9999L14.9018 13.4143C14.9617 13.4729 14.9968 13.5523 14.9999 13.6361C14.9999 13.7325 14.9616 13.825 14.8934 13.8932C14.8252 13.9614 14.7328 13.9997 14.6363 13.9997C14.59 14.0016 14.5437 13.9939 14.5005 13.977C14.4574 13.9601 14.4181 13.9344 14.3854 13.9015L13 12.498L11.6 13.8979C11.5693 13.9296 11.5326 13.955 11.492 13.9724C11.4515 13.9899 11.4079 13.9992 11.3637 13.9997C11.2672 13.9997 11.1748 13.9614 11.1066 13.8932C11.0384 13.825 11.0001 13.7325 11.0001 13.6361C10.9992 13.5915 11.0075 13.5472 11.0244 13.506C11.0412 13.4647 11.0664 13.4273 11.0982 13.3961L12.5127 11.9999L11.0982 10.5854C11.0383 10.5268 11.0032 10.4474 11.0001 10.3636C11.0001 10.2672 11.0384 10.1747 11.1066 10.1065C11.1748 10.0383 11.2672 10 11.3637 10C11.451 10.0011 11.5346 10.0364 11.5964 10.0982Z" fill="#6E6E6E"/>
</svg>
