<svg width="21" height="21" viewBox="0 0 21 21" fill="none" xmlns="http://www.w3.org/2000/svg">
<path d="M1.75843 1.22004C1.68983 1.14639 1.60711 1.08731 1.5152 1.04634C1.42328 1.00537 1.32406 0.983338 1.22345 0.981562C1.12285 0.979786 1.02291 0.998302 0.92961 1.036C0.836309 1.07371 0.751554 1.12983 0.680402 1.20101C0.60925 1.2722 0.553158 1.35699 0.515472 1.45033C0.477786 1.54368 0.459279 1.64366 0.461054 1.74431C0.462829 1.84497 0.484851 1.94424 0.525804 2.03619C0.566758 2.12815 0.625805 2.21091 0.699423 2.27954L1.94825 3.52894C1.49685 3.82425 1.12617 4.22749 0.869737 4.70219C0.613308 5.17689 0.479228 5.70807 0.479628 6.24765V15.7431L0.484624 15.9271C0.531578 16.7555 0.893608 17.5345 1.49645 18.1044C2.09928 18.6742 2.89723 18.9917 3.72659 18.9916H17.214L17.3978 18.9866L19.1811 20.7708C19.3224 20.9074 19.5116 20.983 19.7081 20.9814C19.9046 20.9798 20.0925 20.9011 20.2315 20.7621C20.3705 20.6232 20.4494 20.4352 20.4512 20.2387C20.453 20.0421 20.3776 19.8527 20.2411 19.7113L1.75843 1.22004ZM15.9052 17.4923H3.72659L3.58273 17.4863C3.14543 17.4502 2.7377 17.2509 2.44047 16.928C2.14324 16.6051 1.97824 16.1821 1.97823 15.7431V8.37065L10.1206 12.6586L10.2175 12.7006C10.3152 12.7356 10.4191 12.75 10.5226 12.7428C10.6262 12.7356 10.7271 12.7069 10.819 12.6586L10.9848 12.5707L15.9052 17.4923ZM8.55507 10.1388L1.97823 6.67745V6.24765L1.98422 6.10372C2.0107 5.78459 2.12418 5.47884 2.31232 5.21977C2.50045 4.9607 2.75603 4.75823 3.05122 4.63442L8.55407 10.1388H8.55507ZM18.9623 6.67545L12.6522 9.99887L13.7612 11.1083L18.9623 8.36965V15.7431L18.9563 15.8861C18.9467 16.006 18.9246 16.1246 18.8904 16.2399L20.0233 17.3724C20.3106 16.8776 20.4616 16.3154 20.4609 15.7431V6.24765L20.4559 6.06374C20.409 5.23533 20.047 4.45629 19.4441 3.88645C18.8413 3.3166 18.0433 2.99914 17.214 2.9992H5.65679L7.15538 4.49848H17.214L17.3568 4.50448C17.7943 4.54037 18.2023 4.73956 18.4997 5.06251C18.7972 5.38545 18.9623 5.80851 18.9623 6.24765V6.67545Z" fill="#6E6E6E"/>
</svg>
