<svg width="22" height="16" viewBox="0 0 22 16" fill="none" xmlns="http://www.w3.org/2000/svg">
<path d="M6.6 7.7C8.72781 7.7 10.45 5.97781 10.45 3.85C10.45 1.72219 8.72781 0 6.6 0C4.47219 0 2.75 1.72219 2.75 3.85C2.75 5.97781 4.47219 7.7 6.6 7.7ZM9.24 8.8H8.95469C8.23969 9.14375 7.44563 9.35 6.6 9.35C5.75437 9.35 4.96375 9.14375 4.24531 8.8H3.96C1.77375 8.8 0 10.5738 0 12.76V13.75C0 14.6609 0.739062 15.4 1.65 15.4H11.55C12.4609 15.4 13.2 14.6609 13.2 13.75V12.76C13.2 10.5738 11.4262 8.8 9.24 8.8ZM16.5 7.7C18.3219 7.7 19.8 6.22188 19.8 4.4C19.8 2.57813 18.3219 1.1 16.5 1.1C14.6781 1.1 13.2 2.57813 13.2 4.4C13.2 6.22188 14.6781 7.7 16.5 7.7ZM18.15 8.8H18.0194C17.5416 8.965 17.0363 9.075 16.5 9.075C15.9637 9.075 15.4584 8.965 14.9806 8.8H14.85C14.1488 8.8 13.5025 9.00281 12.9353 9.32938C13.7741 10.2334 14.3 11.4331 14.3 12.76V14.08C14.3 14.1556 14.2828 14.2278 14.2794 14.3H20.35C21.2609 14.3 22 13.5609 22 12.65C22 10.5222 20.2778 8.8 18.15 8.8Z" fill="#292A32"/>
</svg>
