<svg width="18" height="16" viewBox="0 0 18 16" fill="none" xmlns="http://www.w3.org/2000/svg">
<path d="M15.5455 6.00071V4.36435C15.5455 3.46435 14.8091 2.72798 13.9091 2.72798H11.4545C11.4545 1.3698 10.3582 0.273438 9 0.273438C7.64182 0.273438 6.54545 1.3698 6.54545 2.72798H4.09091C3.19091 2.72798 2.45455 3.46435 2.45455 4.36435V6.00071C1.09636 6.00071 0 7.09707 0 8.45526C0 9.81344 1.09636 10.9098 2.45455 10.9098V14.1825C2.45455 15.0825 3.19091 15.8189 4.09091 15.8189H13.9091C14.8091 15.8189 15.5455 15.0825 15.5455 14.1825V10.9098C16.9036 10.9098 18 9.81344 18 8.45526C18 7.09707 16.9036 6.00071 15.5455 6.00071ZM5.31818 8.04616C5.31818 7.36707 5.86636 6.81889 6.54545 6.81889C7.22455 6.81889 7.77273 7.36707 7.77273 8.04616C7.77273 8.72526 7.22455 9.27344 6.54545 9.27344C5.86636 9.27344 5.31818 8.72526 5.31818 8.04616ZM12.2727 12.5462H5.72727V10.9098H12.2727V12.5462ZM11.4545 9.27344C10.7755 9.27344 10.2273 8.72526 10.2273 8.04616C10.2273 7.36707 10.7755 6.81889 11.4545 6.81889C12.1336 6.81889 12.6818 7.36707 12.6818 8.04616C12.6818 8.72526 12.1336 9.27344 11.4545 9.27344Z" fill="#292A32"/>
</svg>
