<svg width="18" height="15" viewBox="0 0 18 15" fill="none" xmlns="http://www.w3.org/2000/svg">
<path d="M14.4 6.5625V8.4375H18V6.5625H14.4ZM12.6 12.7594C13.464 13.425 14.589 14.3062 15.48 15C15.84 14.5031 16.2 13.9969 16.56 13.5C15.669 12.8062 14.544 11.925 13.68 11.25C13.32 11.7563 12.96 12.2625 12.6 12.7594ZM16.56 1.5C16.2 1.00312 15.84 0.496875 15.48 0C14.589 0.69375 13.464 1.575 12.6 2.25C12.96 2.74688 13.32 3.25312 13.68 3.75C14.544 3.075 15.669 2.20312 16.56 1.5ZM1.8 4.6875C0.81 4.6875 0 5.53125 0 6.5625V8.4375C0 9.46875 0.81 10.3125 1.8 10.3125H2.7V14.0625H4.5V10.3125H5.4L9.9 13.125V1.875L5.4 4.6875H1.8ZM12.15 7.5C12.15 6.25313 11.628 5.12812 10.8 4.35937V10.6313C11.628 9.87187 12.15 8.74687 12.15 7.5Z" fill="#292A32"/>
</svg>
