<svg width="14" height="20" viewBox="0 0 14 20" fill="none" xmlns="http://www.w3.org/2000/svg">
<path d="M2.14286 0C1.57454 0 1.02949 0.225765 0.627628 0.627628C0.225765 1.02949 0 1.57454 0 2.14286V17.8571C0 18.4255 0.225765 18.9705 0.627628 19.3724C1.02949 19.7742 1.57454 20 2.14286 20H11.4286C11.9969 20 12.5419 19.7742 12.9438 19.3724C13.3457 18.9705 13.5714 18.4255 13.5714 17.8571V2.14286C13.5714 1.57454 13.3457 1.02949 12.9438 0.627628C12.5419 0.225765 11.9969 0 11.4286 0H2.14286ZM12.8571 2.85714V17.1429H0.714286V2.85714H12.8571Z" fill="#292A32"/>
</svg>
