<svg width="21" height="16" viewBox="0 0 21 16" fill="none" xmlns="http://www.w3.org/2000/svg">
<path d="M19.8276 5.28333C19.9816 5.15417 20.2105 5.275 20.2105 5.47917V14C20.2105 15.1042 19.3618 16 18.3158 16H1.89474C0.848684 16 0 15.1042 0 14V5.48333C0 5.275 0.225 5.15833 0.382895 5.2875C1.26711 6.0125 2.43947 6.93333 6.46579 10.0208C7.29868 10.6625 8.70395 12.0125 10.1053 12.0042C11.5145 12.0167 12.9474 10.6375 13.7487 10.0208C17.775 6.93333 18.9434 6.00833 19.8276 5.28333ZM10.1053 10.6667C11.0211 10.6833 12.3395 9.45 13.0026 8.94167C18.2408 4.92917 18.6395 4.57917 19.8474 3.57917C20.0763 3.39167 20.2105 3.1 20.2105 2.79167V2C20.2105 0.895833 19.3618 0 18.3158 0H1.89474C0.848684 0 0 0.895833 0 2V2.79167C0 3.1 0.134211 3.3875 0.363158 3.57917C1.57105 4.575 1.96974 4.92917 7.20789 8.94167C7.87105 9.45 9.18947 10.6833 10.1053 10.6667Z" fill="#292A32"/>
</svg>
