<svg width="16" height="17" viewBox="0 0 16 17" fill="none" xmlns="http://www.w3.org/2000/svg">
<path d="M0.8 4.15508C0.36 4.15508 0 4.51508 0 4.95508V15.3551C0 16.2351 0.72 16.9551 1.6 16.9551H12C12.44 16.9551 12.8 16.5951 12.8 16.1551C12.8 15.7151 12.44 15.3551 12 15.3551H2.4C1.96 15.3551 1.6 14.9951 1.6 14.5551V4.95508C1.6 4.51508 1.24 4.15508 0.8 4.15508ZM14.4 0.955078H4.8C3.92 0.955078 3.2 1.67508 3.2 2.55508V12.1551C3.2 13.0351 3.92 13.7551 4.8 13.7551H14.4C15.28 13.7551 16 13.0351 16 12.1551V2.55508C16 1.67508 15.28 0.955078 14.4 0.955078ZM8 10.9551V3.75508L12.376 7.03508C12.592 7.19508 12.592 7.51508 12.376 7.67508L8 10.9551Z" fill="#868686"/>
</svg>
