<svg width="51" height="48" viewBox="0 0 51 48" fill="none" xmlns="http://www.w3.org/2000/svg">
<path d="M27.7552 1.24187C26.8729 -0.413957 24.1293 -0.413957 23.247 1.24187L0.29817 44.2832C0.0915882 44.669 -0.0108261 45.1014 0.000905689 45.5381C0.0126375 45.9749 0.138115 46.4012 0.365113 46.7755C0.59211 47.1498 0.912886 47.4593 1.29618 47.6739C1.67948 47.8885 2.11223 48.0008 2.55226 48H48.45C48.8897 48.0009 49.3222 47.8886 49.7052 47.6742C50.0882 47.4597 50.4087 47.1504 50.6355 46.7763C50.8623 46.4022 50.9876 45.9761 50.9991 45.5397C51.0107 45.1032 50.9081 44.6712 50.7015 44.2858L27.7552 1.24187ZM28.051 40.4045H22.9512V35.3408H28.051V40.4045ZM22.9512 30.2771V17.6178H28.051L28.0535 30.2771H22.9512Z" fill="#FF3636"/>
</svg>
