<svg width="32" height="32" viewBox="0 0 32 32" fill="none" xmlns="http://www.w3.org/2000/svg">
<circle cx="16" cy="16" r="16" fill="#FFC12E"/>
<path d="M16.0152 25.9997C16.8499 25.9997 17.5266 25.3231 17.5266 24.4884C17.5266 23.6537 16.8499 22.9771 16.0152 22.9771C15.1806 22.9771 14.5039 23.6537 14.5039 24.4884C14.5039 25.3231 15.1806 25.9997 16.0152 25.9997Z" fill="white"/>
<path d="M15.9143 20.9621H16.1159C16.3844 20.951 16.6397 20.8427 16.8343 20.6573C17.0289 20.472 17.1496 20.2222 17.1738 19.9546L18.0302 8.0151C18.0302 7.48066 17.8179 6.96811 17.44 6.59021C17.0621 6.2123 16.5495 6 16.0151 6C15.4807 6 14.9681 6.2123 14.5902 6.59021C14.2123 6.96811 14 7.48066 14 8.0151L14.8564 19.9546C14.8806 20.2222 15.0013 20.472 15.1959 20.6573C15.3905 20.8427 15.6458 20.951 15.9143 20.9621Z" fill="white"/>
</svg>
