<svg width="16" height="17" viewBox="0 0 16 17" fill="none" xmlns="http://www.w3.org/2000/svg">
<path d="M13.6683 2.39053C12.9312 1.64595 12.0532 1.05559 11.0855 0.653885C10.1179 0.252183 9.07989 0.0471791 8.03216 0.0508291C3.64221 0.0508291 0.0643217 3.62872 0.0643217 8.01867C0.0643217 9.4257 0.434171 10.7925 1.12563 11.9986L0 16.1312L4.22111 15.0217C5.38693 15.6569 6.69749 15.9945 8.03216 15.9945C12.4221 15.9945 16 12.4167 16 8.02671C16 5.89605 15.1719 3.89404 13.6683 2.39053ZM8.03216 14.6438C6.84221 14.6438 5.67638 14.3222 4.65528 13.7192L4.41407 13.5744L1.90553 14.2337L2.57286 11.7895L2.41206 11.5403C1.75095 10.4846 1.39991 9.26429 1.39899 8.01867C1.39899 4.36842 4.37387 1.39354 8.02412 1.39354C9.79296 1.39354 11.4573 2.085 12.7035 3.33927C13.3206 3.95351 13.8096 4.68412 14.1422 5.48876C14.4748 6.29339 14.6444 7.15604 14.6412 8.02671C14.6573 11.677 11.6824 14.6438 8.03216 14.6438ZM11.6663 9.69103C11.4653 9.59455 10.4844 9.11213 10.3075 9.03977C10.1226 8.97545 9.99397 8.94329 9.85729 9.13626C9.7206 9.33726 9.34271 9.78751 9.23015 9.91615C9.11759 10.0528 8.99698 10.0689 8.79598 9.9644C8.59497 9.86791 7.95176 9.65083 7.19598 8.97545C6.601 8.4448 6.20703 7.79354 6.08643 7.59254C5.97387 7.39153 6.07035 7.28701 6.17487 7.18249C6.26332 7.09404 6.37588 6.94932 6.47236 6.83676C6.56884 6.7242 6.60905 6.63575 6.67337 6.50711C6.73769 6.37043 6.70553 6.25786 6.65729 6.16138C6.60904 6.0649 6.20703 5.08399 6.04623 4.68198C5.88543 4.29606 5.71658 4.3443 5.59598 4.33626H5.21005C5.07337 4.33626 4.86432 4.3845 4.6794 4.5855C4.50251 4.78651 3.98794 5.26892 3.98794 6.24982C3.98794 7.23073 4.70352 8.17947 4.8 8.30812C4.89648 8.4448 6.20703 10.4548 8.201 11.3152C8.67538 11.5242 9.04523 11.6448 9.33467 11.7332C9.80904 11.886 10.2432 11.8619 10.5889 11.8136C10.9749 11.7574 11.7709 11.3312 11.9317 10.8649C12.1005 10.3986 12.1005 10.0046 12.0442 9.91615C11.9879 9.82771 11.8673 9.78751 11.6663 9.69103Z" fill="#292A32"/>
</svg>
