<svg width="18" height="18" viewBox="0 0 18 18" fill="none" xmlns="http://www.w3.org/2000/svg">
<path d="M9.62952 9.08008H6.44697M9.65669 9.08008C10.1905 9.08008 10.7024 9.29079 11.0798 9.66586C11.4572 10.0409 11.6693 10.5496 11.6693 11.0801C11.6693 11.6105 11.4572 12.1192 11.0798 12.4943C10.7024 12.8694 10.1905 13.0801 9.65669 13.0801H6.33594V5.08008H9.65669C10.1905 5.08008 10.7024 5.29079 11.0798 5.66586C11.4572 6.04094 11.6693 6.54965 11.6693 7.08008C11.6693 7.61051 11.4572 8.11922 11.0798 8.49429C10.7024 8.86936 10.1905 9.08008 9.65669 9.08008Z" stroke="#292A32" stroke-width="1.2" stroke-linecap="round" stroke-linejoin="round"/>
<path d="M9.00082 1.08008C7.61088 1.08112 6.24515 1.44397 5.03798 2.13293C3.83081 2.8219 2.82378 3.81325 2.11596 5.00947C1.40815 6.20569 1.02392 7.56556 1.00108 8.95531C0.978243 10.3451 1.31758 11.7168 1.98571 12.9357L1.00035 17.081L5.14571 16.0957C6.2151 16.683 7.40464 17.0181 8.62339 17.0752C9.84213 17.1323 11.0578 16.91 12.1774 16.4252C13.2971 15.9405 14.291 15.2061 15.0833 14.2783C15.8756 13.3504 16.4452 12.2537 16.7486 11.0719C17.052 9.89017 17.0812 8.65469 16.8339 7.45993C16.5865 6.26518 16.0693 5.14281 15.3216 4.17863C14.574 3.21445 13.6158 2.434 12.5203 1.89696C11.4247 1.35992 10.2209 1.0805 9.00082 1.08008Z" stroke="#292A32" stroke-width="1.2" stroke-linecap="round" stroke-linejoin="round"/>
</svg>
