<svg width="16" height="16" viewBox="0 0 16 16" fill="none" xmlns="http://www.w3.org/2000/svg">
<path d="M14.4029 1.5H4.85236C4.77409 1.49994 4.69658 1.51529 4.62424 1.54518C4.55191 1.57507 4.48617 1.61891 4.43078 1.67421C4.37539 1.72951 4.33143 1.79517 4.30142 1.86746C4.27141 1.93974 4.25593 2.01723 4.25586 2.0955V4.75L9.79036 6.375L14.9999 4.75V2.0955C14.9998 2.01719 14.9843 1.93966 14.9543 1.86734C14.9242 1.79503 14.8802 1.72934 14.8248 1.67403C14.7693 1.61873 14.7035 1.5749 14.6311 1.54503C14.5587 1.51517 14.4812 1.49987 14.4029 1.5Z" fill="#41A5EE"/>
<path d="M14.9999 4.75H4.25586V8L9.79036 8.975L14.9999 8V4.75Z" fill="#2B7CD3"/>
<path d="M4.25586 8V11.25L9.46486 11.9L14.9999 11.25V8H4.25586Z" fill="#185ABD"/>
<path d="M4.85236 14.5H14.4024C14.4807 14.5002 14.5583 14.4849 14.6308 14.4551C14.7032 14.4253 14.7691 14.3815 14.8246 14.3261C14.8801 14.2708 14.9241 14.2051 14.9542 14.1328C14.9843 14.0604 14.9998 13.9829 14.9999 13.9045V11.25H4.25586V13.9045C4.25593 13.9828 4.27141 14.0603 4.30142 14.1325C4.33143 14.2048 4.37539 14.2705 4.43078 14.3258C4.48617 14.3811 4.55191 14.4249 4.62424 14.4548C4.69658 14.4847 4.77409 14.5001 4.85236 14.5Z" fill="#103F91"/>
<path opacity="0.1" d="M8.21686 4.10156H4.25586V12.2266H8.21686C8.37469 12.2258 8.52586 12.1628 8.63761 12.0514C8.74935 11.9399 8.81268 11.7889 8.81386 11.6311V4.69706C8.81268 4.53923 8.74935 4.38822 8.63761 4.27676C8.52586 4.16529 8.37469 4.10235 8.21686 4.10156Z" fill="black"/>
<path opacity="0.2" d="M7.89136 4.42578H4.25586V12.5508H7.89136C8.04919 12.55 8.20036 12.4871 8.31211 12.3756C8.42385 12.2641 8.48718 12.1131 8.48836 11.9553V5.02128C8.48718 4.86345 8.42385 4.71244 8.31211 4.60098C8.20036 4.48951 8.04919 4.42657 7.89136 4.42578Z" fill="black"/>
<path opacity="0.2" d="M7.89136 4.42578H4.25586V11.9008H7.89136C8.04919 11.9 8.20036 11.8371 8.31211 11.7256C8.42385 11.6141 8.48718 11.4631 8.48836 11.3053V5.02128C8.48718 4.86345 8.42385 4.71244 8.31211 4.60098C8.20036 4.48951 8.04919 4.42657 7.89136 4.42578Z" fill="black"/>
<path opacity="0.2" d="M7.56586 4.42578H4.25586V11.9008H7.56586C7.72369 11.9 7.87486 11.8371 7.98661 11.7256C8.09835 11.6141 8.16168 11.4631 8.16286 11.3053V5.02128C8.16168 4.86345 8.09835 4.71244 7.98661 4.60098C7.87486 4.48951 7.72369 4.42657 7.56586 4.42578Z" fill="black"/>
<path d="M1.597 4.42578H7.566C7.72411 4.42565 7.87581 4.4883 7.98776 4.59996C8.0997 4.71163 8.16273 4.86317 8.163 5.02128V10.9803C8.16273 11.1384 8.0997 11.2899 7.98776 11.4016C7.87581 11.5133 7.72411 11.5759 7.566 11.5758H1.597C1.51869 11.5759 1.44112 11.5606 1.36873 11.5307C1.29634 11.5009 1.23054 11.4571 1.17509 11.4017C1.11965 11.3464 1.07565 11.2808 1.04561 11.2084C1.01556 11.1361 1.00007 11.0586 1 10.9803V5.02128C1.00007 4.94297 1.01556 4.86544 1.04561 4.79313C1.07565 4.72081 1.11965 4.65512 1.17509 4.59982C1.23054 4.54451 1.29634 4.50068 1.36873 4.47081C1.44112 4.44095 1.51869 4.42565 1.597 4.42578Z" fill="url(#paint0_linear_3451_11712)"/>
<path d="M3.4507 8.99259C3.4622 9.08459 3.4702 9.16459 3.4737 9.23309H3.4877C3.4927 9.16809 3.5037 9.08959 3.5202 8.99809C3.5367 8.90659 3.5512 8.82909 3.5647 8.76559L4.1922 6.06209H5.0042L5.6542 8.72509C5.69206 8.88982 5.71912 9.05684 5.7352 9.22509H5.7462C5.75815 9.06131 5.78069 8.89846 5.8137 8.73759L6.3332 6.05859H7.0717L6.1597 9.93259H5.2962L4.6777 7.36959C4.6597 7.29559 4.63937 7.19926 4.6167 7.08059C4.59404 6.96193 4.58004 6.87526 4.5747 6.82059H4.5642C4.5572 6.88359 4.5432 6.97709 4.5222 7.10109C4.5012 7.22559 4.4847 7.31709 4.4722 7.37709L3.8907 9.93409H3.0127L2.0957 6.06209H2.8457L3.4112 8.77109C3.42808 8.84422 3.44126 8.91814 3.4507 8.99259Z" fill="white"/>
<defs>
<linearGradient id="paint0_linear_3451_11712" x1="2.247" y1="3.95778" x2="6.916" y2="12.0438" gradientUnits="userSpaceOnUse">
<stop stop-color="#2368C4"/>
<stop offset="0.5" stop-color="#1A5DBE"/>
<stop offset="1" stop-color="#1146AC"/>
</linearGradient>
</defs>
</svg>
