<svg width="22" height="20" viewBox="0 0 22 20" fill="none" xmlns="http://www.w3.org/2000/svg">
<path d="M1.66667 10.7877H8.66667C9.30833 10.7877 9.83333 10.3104 9.83333 9.7271V1.24225C9.83333 0.658913 9.30833 0.181641 8.66667 0.181641H1.66667C1.025 0.181641 0.5 0.658913 0.5 1.24225V9.7271C0.5 10.3104 1.025 10.7877 1.66667 10.7877ZM1.66667 19.2726H8.66667C9.30833 19.2726 9.83333 18.7953 9.83333 18.2119V13.9695C9.83333 13.3862 9.30833 12.9089 8.66667 12.9089H1.66667C1.025 12.9089 0.5 13.3862 0.5 13.9695V18.2119C0.5 18.7953 1.025 19.2726 1.66667 19.2726ZM13.3333 19.2726H20.3333C20.975 19.2726 21.5 18.7953 21.5 18.2119V9.7271C21.5 9.14376 20.975 8.66649 20.3333 8.66649H13.3333C12.6917 8.66649 12.1667 9.14376 12.1667 9.7271V18.2119C12.1667 18.7953 12.6917 19.2726 13.3333 19.2726ZM12.1667 1.24225V5.48467C12.1667 6.068 12.6917 6.54528 13.3333 6.54528H20.3333C20.975 6.54528 21.5 6.068 21.5 5.48467V1.24225C21.5 0.658913 20.975 0.181641 20.3333 0.181641H13.3333C12.6917 0.181641 12.1667 0.658913 12.1667 1.24225Z" fill="#6E6E6E"/>
</svg>
